<?xml version="1.0" encoding="utf-8"?>
<!-- Generator: Adobe Illustrator 27.5.0, SVG Export Plug-In . SVG Version: 6.00 Build 0)  -->
<svg version="1.1" xmlns="http://www.w3.org/2000/svg" xmlns:xlink="http://www.w3.org/1999/xlink" x="0px" y="0px"
	 viewBox="0 0 800 800" style="enable-background:new 0 0 800 800;" xml:space="preserve">
<g id="BACKGROUND">
</g>
<g id="OBJECTS">
	<g>
		<path style="fill:#E6E7E9;" d="M562.056,488.052l16.149-38.131l16.152,38.131c0.734,1.734,2.436,2.861,4.319,2.861h36.379
			c1.884,0,3.584-1.127,4.319-2.861l16.148-38.131l16.152,38.131c0.734,1.734,2.435,2.861,4.319,2.861h36.379
			c1.884,0,3.584-1.127,4.319-2.861l19.798-46.746h5.743c2.355,0,4.265-1.908,4.265-4.264v-1.705c0-2.355-1.909-4.265-4.265-4.265
			h-11.156c2.364-1.333,3.966-3.864,3.966-6.767V308.2c0-4.282-3.483-7.767-7.768-7.767H429.134c-4.282,0-7.767,3.484-7.767,7.767
			v116.105c0,2.902,1.603,5.434,3.966,6.767h-11.156c-2.355,0-4.265,1.909-4.265,4.265v1.705c0,2.355,1.909,4.264,4.265,4.264h5.742
			l19.801,46.746c0.734,1.734,2.436,2.861,4.318,2.861h36.38c1.884,0,3.584-1.127,4.319-2.861l16.149-38.131l16.151,38.131
			c0.734,1.734,2.435,2.861,4.319,2.861h36.38C559.621,490.913,561.321,489.786,562.056,488.052z"/>
		<path style="fill:#E6E7E9;" d="M686.724,571.077c-16.503-2.35-29.166,1.01-38.708,6.445v-33.272c0-2.705-2.192-4.898-4.898-4.898
			c-1.718,0-3.224,0.888-4.098,2.226c-2.138-5.045-5.478-10.427-10.706-14.868c-9.575-8.135-22.959-11.008-39.778-8.541
			c-1.475,0.218-2.563,1.468-2.575,2.951c-0.012,0.992-0.068,24.438,14.73,36.548c7.974,6.522,18.59,8.434,31.557,5.683
			c0.002,0,0.003-0.002,0.005-0.004c1.924-0.407,3.925-0.93,5.967-1.549v15.725c-9.542-5.436-22.205-8.795-38.708-6.445
			c-48.387,6.891-68.107,44.991-56.909,90.24c11.199,45.249,34.576,80.969,63.774,89.373c19.463,5.601,31.124-3.917,36.741-10.891
			c5.617,6.974,17.278,16.491,36.741,10.891c29.198-8.404,52.575-44.124,63.774-89.373
			C754.831,616.068,735.11,577.968,686.724,571.077z"/>
		<path style="fill:#E6E7E9;" d="M618.28,264.709c52.666,25.333,107.334-4,122.201-48c9.889-29.267,5.521-66.619,1.487-88.357
			c6.785-5.172-0.902-29.643-0.902-29.643s-4.613-10.531-15.344-16.435c2.268-10.954,4.292-26.597-2.149-28.398
			c-6.366-1.779-8.813,13.391-9.752,24.692c-1.019-0.106-2.062-0.18-3.145-0.19c-22.563-0.229-24.61,18.399-31.969,31.398
			c-2.351,4.153-2.55,7.293-1.57,9.304c-9.102,19.366-1.511,26.563-46.191,42.296C583.613,178.043,565.614,239.376,618.28,264.709z"
			/>
		<path style="fill:#E6E7E9;" d="M469.405,548.545c-5.73-3.752-11.166-6.218-16.315-7.521v-14.367c0-2.393-1.939-4.333-4.334-4.333
			c-1.52,0-2.851,0.785-3.624,1.969c-1.891-4.462-4.846-9.223-9.469-13.151c-8.471-7.195-20.309-9.736-35.183-7.555
			c-1.304,0.193-2.265,1.299-2.276,2.61c-0.01,0.878-0.06,21.616,13.026,32.327c4.743,3.88,10.549,5.907,17.328,6.084
			c-6.393,3.971-12.09,10.362-17.086,18.856c-13.901,23.64,2.318,49.33-14.673,64.887c-21.011,19.233-36.011,44.439-21.194,83.948
			c18.538,49.436,109.739,55.386,130.258,5.271c19.16-46.803-16.373-61.956-16.373-98.847
			C489.489,618.724,494.124,564.727,469.405,548.545z"/>
		<path style="fill:#E6E7E9;" d="M235.851,565.707c-2.302-0.265-4.575-0.464-6.831-0.632c-0.217-0.061-0.438-0.104-0.666-0.104
			l-0.799-0.003c-3.348-0.219-6.636-0.34-9.825-0.34c-2.976,0-5.847,0.092-8.618,0.267l-60.789-0.241
			c-0.076-0.009-0.155,0.002-0.232,0.01c-0.691-0.01-1.38-0.015-2.063-0.015c-23.809,0-43.562,5.949-58.709,17.683
			c-11.941,9.25-20.689,22.177-24.633,36.398c-2.668,9.618-3.209,28.328,4.102,37.94c2.629,3.457,6.102,5.405,10.092,5.677
			c-2.52,15.441-10.613,73.432,8.281,82.021c6.273,2.851,19.179,5.223,35.408,6.506c11.123,0.878,59.66,1.009,87.603,1.009
			c10.81,0,18.117-0.019,18.117-0.019c0.288-0.001,0.562-0.06,0.819-0.15c17.414-0.551,43.854-2.95,52.482-12.171
			c11.053-11.809,9.094-62.242,8.403-75.069c4.903-0.857,15.249-4.258,18.737-17.746c2.305-8.916-0.131-29.748-12.764-48.144
			C285.058,585.606,267.743,569.369,235.851,565.707z"/>
		<path style="fill:#E6E7E9;" d="M332.566,483.947c-1.434-1.162-2.946-2.158-4.513-3.006c0.569-9.101-3.115-18.33-10.738-24.509
			c-5.176-4.196-11.353-6.323-17.538-6.495c1.243-9.697-2.411-19.795-10.562-26.403c-1.805-1.463-3.734-2.668-5.741-3.633
			c-0.11-8.362-3.794-16.616-10.798-22.294c-3.191-2.586-6.764-4.383-10.483-5.426c1.04-7.818-1.11-15.906-6.236-22.229
			c0.138-0.162,0.278-0.318,0.413-0.483c10.146-12.517,8.225-30.889-4.292-41.036c-12.517-10.146-30.888-8.225-41.032,4.291
			c-0.35,0.431-0.682,0.869-1.002,1.313c-11.334-4.051-24.47-0.779-32.48,9.103c-3.08,3.798-5.041,8.137-5.938,12.619
			c-6.086-2.084-12.666-2.064-18.68-0.067c-3.496-0.711-7.083-1.576-10.723-2.633c-36.482-10.589-61.438-34.323-74.174-70.543
			c-0.1-0.283-0.226-0.55-0.373-0.8c-0.039-0.065-0.092-0.119-0.133-0.183c-0.119-0.181-0.239-0.359-0.381-0.519
			c-0.079-0.088-0.172-0.158-0.258-0.24c-0.121-0.116-0.238-0.238-0.372-0.34c-0.096-0.073-0.202-0.127-0.304-0.192
			c-0.139-0.089-0.273-0.183-0.42-0.257c-0.105-0.053-0.219-0.086-0.328-0.131c-0.154-0.062-0.307-0.129-0.467-0.174
			c-0.115-0.031-0.234-0.045-0.352-0.068c-0.162-0.031-0.323-0.067-0.49-0.08c-0.125-0.011-0.251-0.002-0.377-0.001
			c-0.163,0.001-0.324-0.003-0.488,0.016c-0.135,0.016-0.267,0.052-0.402,0.079c-0.127,0.026-0.254,0.037-0.38,0.074
			c-0.032,0.01-0.059,0.027-0.09,0.037c-0.03,0.01-0.062,0.012-0.093,0.021c-0.104,0.036-0.192,0.093-0.291,0.135
			c-0.149,0.065-0.299,0.125-0.438,0.203c-0.121,0.067-0.229,0.146-0.342,0.225c-0.127,0.087-0.253,0.172-0.368,0.271
			c-0.105,0.09-0.199,0.189-0.295,0.286c-0.103,0.107-0.206,0.211-0.298,0.326c-0.086,0.107-0.16,0.221-0.235,0.335
			c-0.081,0.123-0.16,0.245-0.229,0.376c-0.063,0.119-0.115,0.243-0.167,0.369c-0.058,0.137-0.111,0.271-0.155,0.414
			c-0.039,0.131-0.068,0.264-0.097,0.398c-0.03,0.144-0.057,0.287-0.072,0.435c-0.015,0.141-0.02,0.282-0.021,0.425
			c-0.002,0.146,0,0.29,0.014,0.438c0.012,0.146,0.035,0.291,0.063,0.439c0.016,0.083,0.017,0.167,0.036,0.251
			c0.098,0.394,1.428,5.65,4.939,14.207c7.844,22.283,17.571,49.111,26.145,72.058c1.805,4.828,3.451,9.21,4.957,13.187
			c-2.272,1.557-4.364,3.457-6.188,5.706c-8.783,10.831-8.518,26.049-0.172,36.525c-7.289,0.858-14.264,4.443-19.251,10.596
			c-10.147,12.515-8.226,30.887,4.29,41.035c0.993,0.805,2.026,1.524,3.086,2.179c-1.687,10.033,1.924,20.66,10.391,27.524
			c11.146,9.037,26.936,8.493,37.426-0.574c8.188,4.809,18.051,5.212,26.44,1.55c1.599,5.52,4.836,10.627,9.64,14.52
			c12.516,10.147,30.887,8.226,41.033-4.29c0.196-0.241,0.379-0.488,0.565-0.734c1.437,1.942,3.138,3.736,5.102,5.328
			c12.515,10.146,30.888,8.227,41.034-4.29c0.316-0.39,0.621-0.786,0.914-1.187c0.753,7.463,4.364,14.637,10.652,19.733
			c12.517,10.146,30.887,8.224,41.034-4.292c0.192-0.238,0.373-0.481,0.557-0.724c11.817,5.423,26.247,2.408,34.815-8.159
			C347.002,512.467,345.082,494.094,332.566,483.947z M126.381,357.053c-3.825,0.522-7.553,1.795-10.938,3.804
			c-6.148-6.599-11.496-13.034-16.102-19.114C108.086,348.387,117.298,353.347,126.381,357.053z M90.186,344.49
			c5.136,6.976,11.199,14.434,18.322,22.109c-0.283,0.319-0.564,0.643-0.835,0.978c-2.444,3.015-4.181,6.371-5.245,9.869
			C98.623,367.365,94.439,356.098,90.186,344.49z"/>
		<path style="fill:#E6E7E9;" d="M565.99,147.456c0.883-6.922,0.571-18.177-5.316-30.362c-3.429-13.623-13.001-30.146-36.487-43.581
			c-36.876-21.095-140.053-30.829-206.632-1.528c-64.542,28.404-81.808,102.142-60.381,151.666
			c1.635,5.434,3.681,10.666,6.144,15.614C287.93,288.703,377.163,317,443.894,252.738
			C510.625,188.477,558.015,209.999,565.99,147.456z"/>
		<path style="fill:#E6E7E9;" d="M81.366,92.184c8.123,5.03,18.118,5.5,29.705,1.395c0.002,0,0.004-0.001,0.006-0.003
			c1.872-0.662,3.81-1.457,5.777-2.365c-0.02,0.053-0.039,0.106-0.057,0.158c-1.533,4.409,2.057,6.043-7.189,15.001
			c-9.247,8.957-30.515,40.431-24.777,70.218c5.738,29.785,26.202,54.13,61.668,58.466c30.674,3.751,29.584,14.955,37.558,11.828
			c10.299-4.041,6.701-15.827,11.1-21.663c14.275-18.939,24.314-36.562,23.973-58.25c-0.221-14.083-6.496-31.947-17.139-46.042
			c-27.037-35.804-55.396-19.848-68.17-29.765c-7.469-5.801-11.498-6.25-13.863-4.745c-0.801-3.941-4.449-17.987-16.948-26.053
			c-9.794-6.317-22.448-7.335-37.612-3.026c-1.33,0.38-2.178,1.661-2.01,3.026C63.497,61.278,66.29,82.844,81.366,92.184z"/>
		<g>
			<g>
				<g>
					<g>
						<path style="fill:#E8B96B;" d="M721.274,294.429H423.132c-4.282,0-7.767,3.484-7.767,7.767v116.108
							c0,4.283,3.484,7.768,7.767,7.768h298.143c4.284,0,7.768-3.484,7.768-7.768V302.195
							C729.042,297.913,725.559,294.429,721.274,294.429z"/>
					</g>
				</g>
				<g>
					<g>
						<g>
							<g>
								<path style="fill:#CDA462;" d="M480.465,396.822c0,13.601-11.027,24.626-24.629,24.626c-13.6,0-24.627-11.025-24.627-24.626
									c0-13.598,11.026-24.623,24.627-24.623C469.438,372.199,480.465,383.225,480.465,396.822z"/>
							</g>
						</g>
					</g>
					<g>
						<g>
							<g>
								<path style="fill:#CDA462;" d="M558.231,396.822c0,13.601-11.025,24.626-24.626,24.626
									c-13.602,0-24.628-11.025-24.628-24.626c0-13.598,11.026-24.623,24.628-24.623
									C547.206,372.199,558.231,383.225,558.231,396.822z"/>
							</g>
						</g>
					</g>
					<g>
						<g>
							<g>
								<path style="fill:#CDA462;" d="M635.999,396.822c0,13.601-11.025,24.626-24.626,24.626
									c-13.602,0-24.628-11.025-24.628-24.626c0-13.598,11.025-24.623,24.628-24.623
									C624.974,372.199,635.999,383.225,635.999,396.822z"/>
							</g>
						</g>
					</g>
					<g>
						<g>
							<g>
								<path style="fill:#CDA462;" d="M712.913,396.822c0,13.601-11.026,24.626-24.627,24.626s-24.627-11.025-24.627-24.626
									c0-13.598,11.026-24.623,24.627-24.623S712.913,383.225,712.913,396.822z"/>
							</g>
						</g>
					</g>
				</g>
				<g>
					<g>
						<g>
							<g>
								<path style="fill:#CDA462;" d="M480.465,334.569c0,13.602-11.027,24.627-24.629,24.627c-13.6,0-24.627-11.025-24.627-24.627
									c0-13.6,11.026-24.627,24.627-24.627C469.438,309.942,480.465,320.969,480.465,334.569z"/>
							</g>
						</g>
					</g>
					<g>
						<g>
							<g>
								<path style="fill:#CDA462;" d="M558.231,334.569c0,13.602-11.025,24.627-24.626,24.627
									c-13.602,0-24.628-11.025-24.628-24.627c0-13.6,11.026-24.627,24.628-24.627
									C547.206,309.942,558.231,320.969,558.231,334.569z"/>
							</g>
						</g>
					</g>
					<g>
						<g>
							<g>
								<path style="fill:#CDA462;" d="M635.999,334.569c0,13.602-11.025,24.627-24.626,24.627
									c-13.602,0-24.628-11.025-24.628-24.627c0-13.6,11.025-24.627,24.628-24.627
									C624.974,309.942,635.999,320.969,635.999,334.569z"/>
							</g>
						</g>
					</g>
					<g>
						<g>
							<g>
								
									<ellipse transform="matrix(0.2274 -0.9738 0.9738 0.2274 205.994 928.7651)" style="fill:#CDA462;" cx="688.286" cy="334.569" rx="24.627" ry="24.627"/>
							</g>
						</g>
					</g>
				</g>
				<g>
					<g>
						<path style="fill:#FFFFFF;" d="M489.202,434.167c0,18.213-14.764,32.977-32.977,32.977c-18.212,0-32.977-14.764-32.977-32.977
							c0-18.213,14.765-56.286,32.977-56.286C474.438,377.881,489.202,415.954,489.202,434.167z"/>
					</g>
				</g>
				<g>
					<g>
						<path style="fill:#FFFFFF;" d="M566.521,434.167c0,18.213-14.765,32.977-32.978,32.977c-18.212,0-32.975-14.764-32.975-32.977
							c0-18.213,14.764-56.286,32.975-56.286C551.757,377.881,566.521,415.954,566.521,434.167z"/>
					</g>
				</g>
				<g>
					<g>
						<path style="fill:#FFFFFF;" d="M643.84,434.167c0,18.213-14.765,32.977-32.977,32.977c-18.211,0-32.976-14.764-32.976-32.977
							c0-18.213,14.765-56.286,32.976-56.286C629.075,377.881,643.84,415.954,643.84,434.167z"/>
					</g>
				</g>
				<g>
					<g>
						<path style="fill:#FFFFFF;" d="M721.158,434.167c0,18.213-14.765,32.977-32.978,32.977c-18.211,0-32.976-14.764-32.976-32.977
							c0-18.213,14.765-56.286,32.976-56.286C706.394,377.881,721.158,415.954,721.158,434.167z"/>
					</g>
				</g>
				<g>
					<g>
						<g>
							<g>
								<g>
									<g>
										<polygon style="fill:#E8B96B;" points="458.499,431.893 452.244,431.893 417.566,431.893 438.036,480.221 
											452.244,480.221 458.499,480.221 474.416,480.221 494.885,431.893 										"/>
									</g>
								</g>
							</g>
							<g>
								<g>
									<g>
										<path style="fill:#E8B96B;" d="M474.416,484.911h-36.38c-1.883,0-3.584-1.127-4.318-2.861l-20.471-48.328
											c-0.613-1.447-0.46-3.107,0.409-4.42c0.868-1.311,2.337-2.1,3.91-2.1h77.318c1.573,0,3.042,0.789,3.91,2.1
											c0.869,1.313,1.022,2.972,0.409,4.42l-20.469,48.328C478,483.784,476.3,484.911,474.416,484.911z M441.144,475.53h30.165
											l16.495-38.947h-63.156L441.144,475.53z"/>
									</g>
								</g>
							</g>
						</g>
						<g>
							<g>
								<g>
									<g>
										<polygon style="fill:#E8B96B;" points="535.817,431.893 529.563,431.893 494.885,431.893 515.355,480.221 
											529.563,480.221 535.817,480.221 551.735,480.221 572.203,431.893 										"/>
									</g>
								</g>
							</g>
							<g>
								<g>
									<g>
										<path style="fill:#E8B96B;" d="M551.735,484.911h-36.38c-1.884,0-3.585-1.127-4.319-2.861l-20.471-48.328
											c-0.613-1.447-0.46-3.107,0.409-4.42c0.868-1.311,2.337-2.1,3.91-2.1h77.318c1.573,0,3.042,0.789,3.91,2.1
											c0.869,1.313,1.022,2.972,0.409,4.42l-20.469,48.328C555.319,483.784,553.619,484.911,551.735,484.911z M518.463,475.53
											h30.165l16.494-38.947h-63.156L518.463,475.53z"/>
									</g>
								</g>
							</g>
						</g>
						<g>
							<g>
								<g>
									<g>
										<polygon style="fill:#E8B96B;" points="613.136,431.893 606.882,431.893 572.203,431.893 592.675,480.221 
											606.882,480.221 613.136,480.221 629.054,480.221 649.521,431.893 										"/>
									</g>
								</g>
							</g>
							<g>
								<g>
									<g>
										<path style="fill:#E8B96B;" d="M629.054,484.911h-36.379c-1.884,0-3.585-1.127-4.319-2.861l-20.472-48.328
											c-0.613-1.447-0.459-3.107,0.409-4.42c0.868-1.311,2.337-2.1,3.91-2.1h77.318c1.573,0,3.042,0.789,3.91,2.1
											c0.869,1.313,1.023,2.972,0.409,4.42l-20.468,48.328C632.638,483.784,630.938,484.911,629.054,484.911z M595.782,475.53
											h30.164l16.494-38.947h-63.156L595.782,475.53z"/>
									</g>
								</g>
							</g>
						</g>
						<g>
							<g>
								<g>
									<g>
										<polygon style="fill:#E8B96B;" points="690.454,431.893 684.2,431.893 649.521,431.893 669.993,480.221 684.2,480.221 
											690.454,480.221 706.372,480.221 726.84,431.893 										"/>
									</g>
								</g>
							</g>
							<g>
								<g>
									<g>
										<path style="fill:#E8B96B;" d="M706.372,484.911h-36.379c-1.884,0-3.585-1.127-4.319-2.861l-20.472-48.328
											c-0.613-1.447-0.459-3.107,0.409-4.42c0.869-1.311,2.337-2.1,3.91-2.1h77.318c1.573,0,3.042,0.789,3.91,2.1
											c0.869,1.313,1.022,2.972,0.409,4.42l-20.468,48.328C709.956,483.784,708.256,484.911,706.372,484.911z M673.101,475.53
											h30.164l16.494-38.947h-63.156L673.101,475.53z"/>
									</g>
								</g>
							</g>
						</g>
					</g>
					<g>
						<g>
							<g>
								<path style="fill:#CDA462;" d="M740.497,431.04c0,2.355-1.909,4.264-4.265,4.264H408.175c-2.356,0-4.265-1.908-4.265-4.264
									v-1.705c0-2.355,1.909-4.265,4.265-4.265h328.058c2.356,0,4.265,1.909,4.265,4.265V431.04z"/>
							</g>
						</g>
					</g>
				</g>
			</g>
			<g>
				<g>
					<g>
						<path style="fill:#49A238;" d="M622.311,520.708c-9.575-8.135-22.959-11.008-39.778-8.541
							c-1.475,0.218-2.563,1.468-2.575,2.951c-0.012,0.992-0.068,24.438,14.73,36.548c7.974,6.522,18.59,8.435,31.557,5.683
							c0,0,0.003-0.002,0.005-0.004c2.717-0.575,5.58-1.369,8.509-2.36c1.242-0.42,2.07-1.595,2.049-2.904
							C636.794,551.29,636.327,532.616,622.311,520.708z"/>
					</g>
				</g>
				<g>
					<g>
						<path style="fill:#E52F3E;" d="M680.722,565.075c-19.496-2.775-33.65,2.404-43.607,9.577
							c-9.956-7.173-24.11-12.352-43.606-9.577c-48.387,6.891-68.107,44.991-56.909,90.24
							c11.199,45.249,34.576,80.969,63.774,89.373c19.463,5.601,31.124-3.917,36.741-10.891
							c5.617,6.974,17.278,16.491,36.741,10.891c29.198-8.404,52.575-44.124,63.774-89.373
							C748.829,610.066,729.108,571.966,680.722,565.075z"/>
					</g>
				</g>
				<g>
					<g>
						<path style="fill:#292C34;" d="M642.014,578.95c0,2.705-2.192,4.898-4.898,4.898l0,0c-2.706,0-4.898-2.193-4.898-4.898
							v-40.701c0-2.705,2.192-4.898,4.898-4.898l0,0c2.706,0,4.898,2.193,4.898,4.898V578.95z"/>
					</g>
				</g>
			</g>
			<g>
				<g>
					<g>
						<path style="fill:#292C34;" d="M731.989,104.414c0,0,17.357,62.291,2.49,106.291s-69.535,73.333-122.201,48
							c-52.666-25.333-34.667-86.666,12.666-103.333c47.334-16.667,36-23.752,48-45.876S719.7,74.79,731.989,104.414z"/>
					</g>
				</g>
				<g>
					<g>
						<path style="fill:#49A238;" d="M735.064,92.705c0,0-8.798-20.112-30.39-20.331c-22.563-0.229-24.61,18.399-31.969,31.399
							c-7.357,13,6.301,16.132,11.553,5.475c0,0-6.369,11.328,2.902,13.142c9.271,1.815,10.717-10.308,10.717-10.308
							s-2.079,15.344,6.209,14.813c8.287-0.532,8.012-16.65,8.012-16.65s0.871,14.964,7.389,14.661
							c6.516-0.304,8.816-11.886,8.816-11.886s1.926,11.936,6.717,9.898C743.438,119.336,735.064,92.705,735.064,92.705z"/>
					</g>
				</g>
				<g>
					<g>
						<path style="fill:#49A238;" d="M717.124,87.002c0,0,10.469-36.328,0.447-39.131c-10.021-2.801-10.332,36.392-10.332,36.392
							L717.124,87.002z"/>
					</g>
				</g>
			</g>
			<g>
				<g>
					<g>
						<g>
							<path style="fill:#EDC506;" d="M483.487,612.722c0,0,4.635-53.996-20.084-70.179c-24.718-16.185-44.029-8.721-57.934,14.92
								c-13.903,23.64,2.318,49.33-14.676,64.887c-21.011,19.233-36.011,44.44-21.194,83.948
								c18.538,49.435,109.742,55.386,130.261,5.271C519.021,664.766,483.487,649.612,483.487,612.722z"/>
						</g>
					</g>
				</g>
				<g>
					<g>
						<g>
							<path style="fill:#49A238;" d="M429.661,505.14c-8.471-7.195-20.309-9.736-35.184-7.555c-1.305,0.193-2.266,1.299-2.277,2.61
								c-0.01,0.878-0.06,21.616,13.028,32.327c7.053,5.769,16.443,7.461,27.911,5.026c0.002,0,0.004-0.001,0.006-0.003
								c2.402-0.509,4.936-1.211,7.525-2.088c1.1-0.371,1.832-1.41,1.813-2.569C442.471,532.19,442.057,515.673,429.661,505.14z"/>
						</g>
					</g>
					<g>
						<g>
							<path style="fill:#292C34;" d="M447.088,543.648c0,2.392-1.94,4.333-4.334,4.333l0,0c-2.393,0-4.332-1.941-4.332-4.333
								v-22.992c0-2.393,1.939-4.333,4.332-4.333l0,0c2.395,0,4.334,1.94,4.334,4.333V543.648z"/>
						</g>
					</g>
				</g>
			</g>
			<g>
				<g>
					<path style="fill:#CDA462;" d="M222.34,561.469l-80.031-0.317l-0.002,0.014c-52.791-0.855-76.49,27.971-83.217,52.231
						c-3.893,14.035-2.115,42.826,14.766,40.329c0,0-13.078,73.54,6.334,82.364c6.233,2.833,19.259,5.079,34.568,6.29l0,0h0.002
						c15.529,1.226,105.518,0.982,105.518,0.982L222.34,561.469z"/>
					<path style="fill:#CDA462;" d="M202.166,745.88c-27.941,0-76.478-0.131-87.602-1.009c-16.229-1.283-29.135-3.655-35.408-6.506
						c-18.894-8.589-10.8-66.579-8.28-82.02c-3.99-0.272-7.464-2.22-10.092-5.677c-7.311-9.612-6.77-28.322-4.103-37.941
						c3.943-14.222,12.691-27.148,24.633-36.398c15.147-11.733,34.901-17.683,58.71-17.683c0.682,0,1.37,0.005,2.063,0.015
						c0.076-0.008,0.155-0.018,0.232-0.01l80.031,0.317c0.666,0.003,1.304,0.271,1.771,0.746c0.467,0.475,0.726,1.116,0.719,1.782
						l-2.063,181.892c-0.016,1.367-1.127,2.468-2.494,2.472C220.284,745.86,212.977,745.88,202.166,745.88z M73.856,651.225
						c0.67,0,1.318,0.269,1.793,0.758c0.561,0.577,0.809,1.388,0.668,2.18c-3.541,19.924-9.563,73.073,4.908,79.65
						c5.68,2.582,18.29,4.852,33.73,6.074c10.954,0.864,59.343,0.993,87.211,0.993c7.065,0,12.633-0.008,15.639-0.014l2.006-176.907
						l-77.254-0.307c-0.096,0.011-0.193,0.012-0.291,0.013c-0.754-0.013-1.502-0.018-2.242-0.018
						c-59.892,0-75.245,38.59-78.524,50.417c-2.815,10.15-2.167,26.437,3.264,33.578c2.263,2.977,5.104,4.144,8.727,3.61
						C73.612,651.233,73.734,651.225,73.856,651.225z"/>
				</g>
				<g>
					<path style="fill:#E8B96B;" d="M279.357,656.258c0,0,14.77,0,18.948-16.16c3.701-14.314-6.289-70.736-68.744-77.909
						c-63.775-7.325-91.393,24.684-98.748,51.207c-3.891,14.035-2.113,42.826,14.766,40.329c0,0-13.077,73.54,6.335,82.364
						c19.412,8.823,104.655,11.976,119.847-4.258C283.336,719.463,279.357,656.258,279.357,656.258z"/>
					<path style="fill:#CDA462;" d="M211.713,745.86c0,0,0,0-0.001,0c-26.108,0-51.124-3.082-60.833-7.495
						c-18.894-8.589-10.8-66.579-8.281-82.02c-3.989-0.272-7.463-2.22-10.091-5.676c-7.309-9.613-6.771-28.323-4.102-37.941
						c3.518-12.691,19.928-54.102,83.32-54.102c5.792,0,11.889,0.363,18.121,1.079c31.893,3.662,49.207,19.898,58.117,32.874
						c12.633,18.396,15.068,39.229,12.763,48.144c-3.487,13.488-13.834,16.89-18.737,17.746c0.691,12.827,2.65,63.261-8.402,75.069
						C263.179,744.66,226.852,745.86,211.713,745.86z M145.579,651.225c0.671,0,1.319,0.269,1.793,0.758
						c0.561,0.577,0.81,1.388,0.669,2.18c-3.541,19.924-9.561,73.073,4.907,79.65c8.984,4.084,33.699,7.048,58.765,7.048
						c29.714,0.001,52.024-4.114,58.224-10.737c8.887-9.497,8.013-56.427,6.926-73.708c-0.043-0.689,0.2-1.365,0.673-1.868
						c0.473-0.504,1.132-0.789,1.822-0.789c0.515-0.005,12.906-0.276,16.528-14.286c1.561-6.036,0.695-25.512-12.043-44.063
						c-8.322-12.119-24.544-27.289-54.566-30.737c-6.043-0.694-11.949-1.046-17.551-1.046c-59.864,0-75.222,38.605-78.502,50.438
						c-2.814,10.15-2.166,26.438,3.264,33.578c2.264,2.977,5.104,4.144,8.727,3.61C145.335,651.233,145.457,651.225,145.579,651.225
						z"/>
				</g>
				<g>
					<g>
						<path style="fill:#CDA462;" d="M263.862,632.581c-4.002,0-4.002,6.627,0,6.627
							C267.864,639.208,267.864,632.581,263.862,632.581z"/>
					</g>
					<g>
						<path style="fill:#CDA462;" d="M269.864,607.273c-4.001,0-4.001,6.627,0,6.627
							C273.865,613.899,273.865,607.273,269.864,607.273z"/>
					</g>
					<g>
						<path style="fill:#CDA462;" d="M235.864,613.899c-4.002,0-4.002,6.627,0,6.627
							C239.866,620.526,239.866,613.899,235.864,613.899z"/>
					</g>
					<g>
						<path style="fill:#CDA462;" d="M232.862,577.104c-4.002,0-4.002,6.627,0,6.627
							C236.864,583.731,236.864,577.104,232.862,577.104z"/>
					</g>
					<g>
						<path style="fill:#CDA462;" d="M248.864,592.05c-4.002,0-4.002,6.627,0,6.627C252.866,598.677,252.866,592.05,248.864,592.05z
							"/>
					</g>
				</g>
				<g>
					<g>
						<path style="fill:#CDA462;" d="M167.194,715.826c-4.002,0-4.002,6.627,0,6.627
							C171.196,722.453,171.196,715.826,167.194,715.826z"/>
					</g>
					<g>
						<path style="fill:#CDA462;" d="M164.192,679.032c-4.002,0-4.002,6.627,0,6.627
							C168.194,685.659,168.194,679.032,164.192,679.032z"/>
					</g>
					<g>
						<path style="fill:#CDA462;" d="M180.193,693.976c-4.001,0-4.001,6.628,0,6.628
							C184.195,700.604,184.195,693.976,180.193,693.976z"/>
					</g>
				</g>
			</g>
			<g>
				<g>
					<g>
						<path style="fill:#292C34;" d="M109.295,418.981c-0.698,0-1.398-0.153-2.019-0.451c-2.112-1.018-3.509-1.69-22.749-53.186
							c-10.438-27.937-22.594-61.645-30.969-85.873c-0.811-2.346,0.434-4.904,2.779-5.715c2.344-0.812,4.903,0.434,5.714,2.779
							c16.89,48.869,45.722,126.596,50.319,134.669c0.513,0.478,0.922,1.082,1.172,1.788c0.828,2.34-0.396,4.907-2.736,5.735
							C110.327,418.897,109.812,418.981,109.295,418.981z"/>
					</g>
				</g>
				<g>
					<g>
						<path style="fill:#292C34;" d="M157.472,405.325c-0.841,0-1.691-0.235-2.448-0.728
							c-43.391-28.259-68.655-60.747-82.208-83.024c-14.777-24.291-19.191-41.762-19.372-42.492
							c-0.574-2.328,0.779-4.697,3.076-5.383c2.294-0.689,4.729,0.553,5.524,2.814c12.735,36.221,37.691,59.955,74.174,70.543
							c27.858,8.086,52.728,5.207,56.085,4.389c1.595-0.75,3.555-0.521,4.941,0.74c1.836,1.67,1.971,4.512,0.301,6.348
							c-0.659,0.725-2.411,2.65-17.683,3.044c-7.907,0.204-20.318-0.158-34.538-3.04c-16.156-3.273-34.961-9.859-51.987-22.797
							c14.318,18.898,35.685,41.2,66.592,61.328c2.08,1.354,2.668,4.139,1.314,6.218
							C160.38,404.606,158.941,405.325,157.472,405.325z"/>
					</g>
				</g>
				<g>
					<g>
						<g>
							<path style="fill:#9161A9;" d="M175.85,378.17c12.516,10.147,30.889,8.227,41.034-4.29
								c10.146-12.517,8.226-30.889-4.291-41.035c-12.516-10.147-30.888-8.226-41.035,4.291
								C161.413,349.651,163.332,368.022,175.85,378.17z"/>
						</g>
					</g>
					<g>
						<g>
							<path style="fill:#8F5DA7;" d="M137.788,400.023c12.516,10.147,30.889,8.228,41.035-4.289
								c10.145-12.516,8.227-30.889-4.29-41.036c-12.517-10.146-30.889-8.225-41.036,4.292
								C123.351,371.506,125.272,389.879,137.788,400.023z"/>
						</g>
					</g>
					<g>
						<g>
							<path style="fill:#8F5DA7;" d="M68.165,472.396c12.516,10.145,30.889,8.226,41.035-4.291
								c10.146-12.516,8.225-30.889-4.291-41.034c-12.516-10.147-30.889-8.227-41.035,4.29
								C53.727,443.875,55.648,462.247,68.165,472.396z"/>
						</g>
					</g>
					<g>
						<g>
							<path style="fill:#9668AD;" d="M172.727,428.35c12.516,10.145,30.888,8.224,41.035-4.292
								c10.146-12.516,8.225-30.888-4.291-41.034c-12.516-10.146-30.889-8.225-41.035,4.289
								C158.29,399.83,160.211,418.202,172.727,428.35z"/>
						</g>
					</g>
					<g>
						<g>
							<path style="fill:#9161A9;" d="M156.844,469.173c12.516,10.145,30.889,8.225,41.035-4.292
								c10.146-12.515,8.225-30.888-4.291-41.033c-12.516-10.146-30.889-8.227-41.035,4.289
								C142.407,440.654,144.329,459.027,156.844,469.173z"/>
						</g>
					</g>
					<g>
						<g>
							<path style="fill:#9161A9;" d="M229.926,436.93c12.517,10.147,30.889,8.228,41.037-4.289
								c10.146-12.517,8.225-30.889-4.292-41.036c-12.515-10.145-30.888-8.225-41.034,4.292
								C215.491,408.413,217.413,426.785,229.926,436.93z"/>
						</g>
					</g>
					<g>
						<g>
							<path style="fill:#9161A9;" d="M105.96,402.609c12.516,10.147,30.888,8.226,41.035-4.29
								c10.146-12.517,8.226-30.89-4.29-41.036c-12.517-10.147-30.889-8.227-41.037,4.29
								C91.524,374.09,93.444,392.463,105.96,402.609z"/>
						</g>
					</g>
					<g>
						<g>
							<path style="fill:#9668AD;" d="M127.572,445.441c12.515,10.147,30.889,8.225,41.034-4.29
								c10.147-12.517,8.225-30.888-4.29-41.034c-12.517-10.147-30.888-8.227-41.036,4.29
								C113.134,416.922,115.055,435.296,127.572,445.441z"/>
						</g>
					</g>
					<g>
						<g>
							<path style="fill:#8F5DA7;" d="M115.442,499.012c12.516,10.147,30.888,8.224,41.034-4.291
								c10.146-12.516,8.226-30.889-4.29-41.034c-12.516-10.148-30.889-8.227-41.035,4.289
								C101.004,470.493,102.925,488.864,115.442,499.012z"/>
						</g>
					</g>
					<g>
						<g>
							<path style="fill:#9668AD;" d="M91.879,466.306c12.516,10.146,30.888,8.227,41.033-4.289
								c10.146-12.516,8.227-30.889-4.289-41.034c-12.517-10.147-30.889-8.227-41.035,4.29
								C77.442,437.788,79.362,456.159,91.879,466.306z"/>
						</g>
					</g>
					<g>
						<g>
							<path style="fill:#9668AD;" d="M81.641,502.099c12.515,10.147,30.889,8.226,41.035-4.29
								c10.146-12.517,8.225-30.889-4.291-41.034c-12.517-10.148-30.889-8.227-41.035,4.29
								C67.204,473.58,69.126,491.952,81.641,502.099z"/>
						</g>
					</g>
					<g>
						<g>
							<path style="fill:#9668AD;" d="M155.146,517.595c12.516,10.146,30.888,8.226,41.034-4.29
								c10.146-12.516,8.225-30.888-4.289-41.034c-12.519-10.148-30.89-8.226-41.037,4.29
								C140.707,489.076,142.629,507.448,155.146,517.595z"/>
						</g>
					</g>
					<g>
						<g>
							<path style="fill:#9161A9;" d="M201.846,517.898c12.515,10.147,30.889,8.227,41.035-4.29
								c10.146-12.516,8.225-30.889-4.291-41.035c-12.516-10.146-30.889-8.227-41.035,4.29
								C187.408,489.378,189.331,507.752,201.846,517.898z"/>
						</g>
					</g>
					<g>
						<g>
							<path style="fill:#8F5DA7;" d="M254.448,532.155c12.516,10.147,30.887,8.224,41.033-4.292
								c10.146-12.517,8.228-30.887-4.288-41.034c-12.519-10.147-30.89-8.225-41.036,4.292
								C240.01,503.636,241.93,522.009,254.448,532.155z"/>
						</g>
					</g>
					<g>
						<g>
							<path style="fill:#9668AD;" d="M236.593,496.268c12.517,10.146,30.89,8.226,41.036-4.289
								c10.146-12.517,8.225-30.89-4.292-41.037c-12.515-10.147-30.888-8.226-41.034,4.292
								C222.157,467.749,224.079,486.121,236.593,496.268z"/>
						</g>
					</g>
					<g>
						<g>
							<path style="fill:#9668AD;" d="M193.069,482.397c12.516,10.146,30.889,8.226,41.036-4.29
								c10.146-12.515,8.224-30.889-4.292-41.036c-12.516-10.146-30.889-8.226-41.033,4.292
								C178.631,453.879,180.554,472.25,193.069,482.397z"/>
						</g>
					</g>
					<g>
						<g>
							<path style="fill:#8F5DA7;" d="M206.579,440.639c12.516,10.146,30.889,8.225,41.035-4.29
								c10.146-12.518,8.226-30.889-4.29-41.034c-12.516-10.148-30.89-8.227-41.035,4.289
								C192.141,412.119,194.063,430.492,206.579,440.639z"/>
						</g>
					</g>
					<g>
						<g>
							<path style="fill:#9668AD;" d="M246.466,462.858c12.516,10.146,30.89,8.225,41.036-4.291
								c10.147-12.517,8.223-30.89-4.291-41.035c-12.517-10.146-30.891-8.226-41.037,4.289
								C232.03,434.338,233.95,452.712,246.466,462.858z"/>
						</g>
					</g>
					<g>
						<g>
							<path style="fill:#9668AD;" d="M208.898,404.964c12.517,10.145,30.89,8.225,41.036-4.292
								c10.146-12.516,8.225-30.889-4.292-41.035c-12.515-10.145-30.888-8.226-41.035,4.291
								C194.46,376.443,196.383,394.816,208.898,404.964z"/>
						</g>
					</g>
					<g>
						<g>
							<path style="fill:#9668AD;" d="M87.588,425.272c12.516,10.146,30.888,8.225,41.035-4.29
								c10.147-12.517,8.225-30.889-4.291-41.035c-12.516-10.147-30.889-8.227-41.035,4.289
								C73.15,396.752,75.072,415.125,87.588,425.272z"/>
						</g>
					</g>
					<g>
						<g>
							<path style="fill:#8F5DA7;" d="M209.33,367.756c12.517,10.146,30.889,8.225,41.035-4.291
								c10.148-12.516,8.226-30.889-4.292-41.035c-12.516-10.146-30.887-8.225-41.032,4.291
								C194.893,339.236,196.813,357.609,209.33,367.756z"/>
						</g>
					</g>
					<g>
						<g>
							<path style="fill:#9161A9;" d="M274.567,495.756c12.516,10.146,30.889,8.227,41.035-4.29
								c10.146-12.517,8.225-30.89-4.291-41.035c-12.516-10.146-30.889-8.227-41.035,4.288
								C260.129,467.235,262.051,485.609,274.567,495.756z"/>
						</g>
					</g>
					<g>
						<g>
							<path style="fill:#9668AD;" d="M289.817,523.271c12.516,10.147,30.888,8.226,41.036-4.291
								c10.146-12.516,8.226-30.889-4.292-41.035c-12.518-10.146-30.889-8.225-41.035,4.29
								C275.38,494.753,277.3,513.125,289.817,523.271z"/>
						</g>
					</g>
				</g>
			</g>
			<g>
				<g>
					<g>
						<path style="fill:#C26A5F;" d="M559.988,141.452c1.675-13.131-0.924-41.848-37.8-62.943
							C485.313,57.414,382.13,47.68,315.551,76.98c-66.578,29.3-82.851,106.841-58.238,156.28
							c24.612,49.438,113.846,77.736,180.579,13.474C504.623,182.473,552.013,203.995,559.988,141.452z"/>
					</g>
				</g>
				<g>
					<g>
						<path style="fill:#FCBEB3;" d="M555.984,130.452c1.675-13.131-0.924-41.848-37.8-62.943
							C481.309,46.414,378.128,36.68,311.549,65.98c-66.578,29.3-82.851,106.841-58.238,156.28
							c24.612,49.438,113.846,77.735,180.577,13.474C500.619,171.472,548.009,192.994,555.984,130.452z"/>
					</g>
				</g>
				<g>
					<g>
						<path style="fill:#BD5E52;" d="M324.2,237.523c-57.717-24.179-56.422-97.024-28.86-150.686
							c-16.487,12.151-29.026,28.889-36.196,48.706c-9.971,27.557-8.805,58.309,3.12,82.261
							c13.253,26.621,47.624,45.215,83.585,45.218c0.004,0,0.006,0,0.01,0c17.599,0,42.586-4.357,67.904-23.27
							C383.514,247.576,351.754,249.124,324.2,237.523z"/>
					</g>
				</g>
				<g>
					<g>
						<path style="fill:#C26A5F;" d="M513.219,76.188c-19.42-11.109-59.581-18.574-99.935-18.574
							c-37.337,0-72.037,6.221-97.707,17.518c-7.258,3.194-14.026,7.126-20.238,11.704c-27.562,53.663-28.857,126.508,28.86,150.686
							c27.555,11.602,59.314,10.053,89.562,2.229c4.398-3.287,8.808-7.001,13.19-11.221c29.709-28.609,55.418-40.742,76.075-50.491
							c26.077-12.307,39.166-18.484,43.038-48.853C547.019,121.707,547.469,95.781,513.219,76.188z"/>
					</g>
				</g>
				<g>
					<g>
						<path style="fill:#BD5E52;" d="M520.567,115.563c0,13.83-11.127,25.041-24.851,25.041s-24.851-11.212-24.851-25.041
							c0-13.83,11.127-25.042,24.851-25.042S520.567,101.733,520.567,115.563z"/>
					</g>
				</g>
				<g>
					<g>
						<ellipse style="fill:#FCBEB3;" cx="499.051" cy="120.599" rx="22.518" ry="22.007"/>
					</g>
				</g>
				<g>
					<g>
						<path style="fill:#BD5E52;" d="M358.417,111.578c-14.402,26.637-25.695,54.846-34.954,83.649
							c-1.847,5.743,7.161,8.182,8.995,2.479c9.018-28.058,19.982-55.472,34.012-81.42
							C369.331,110.995,361.278,106.286,358.417,111.578z"/>
					</g>
				</g>
				<g>
					<g>
						<path style="fill:#BD5E52;" d="M405.337,85.009c-9.942,20.738-20.668,41.103-29.704,62.265
							c-4.545,10.646-8.48,21.343-11.355,32.563c-2.98,11.623-5.408,23.379-9.725,34.61c-2.16,5.624,6.861,8.034,8.995,2.48
							c3.933-10.237,6.347-20.923,8.958-31.55c2.825-11.499,6.574-22.489,11.181-33.395c8.952-21.192,19.765-41.534,29.704-62.265
							C415.977,84.321,407.936,79.586,405.337,85.009z"/>
					</g>
				</g>
				<g>
					<g>
						<path style="fill:#BD5E52;" d="M418.903,114.97c-13.152,28.504-28.422,56.388-36.085,87.04
							c-1.459,5.837,7.537,8.313,8.995,2.48c7.472-29.89,22.318-57.018,35.144-84.813
							C429.46,114.255,421.421,109.514,418.903,114.97z"/>
					</g>
				</g>
				<g>
					<g>
						<path style="fill:#BD5E52;" d="M438.22,139.827c-6.113,19.145-15.404,36.979-23.273,55.416
							c-2.333,5.467,5.699,10.225,8.055,4.708c8.184-19.174,17.855-37.734,24.213-57.645
							C449.048,136.56,440.042,134.12,438.22,139.827z"/>
					</g>
				</g>
				<g>
					<g>
						<path style="fill:#BD5E52;" d="M326.358,123.071c-10.446,10.689-17.877,24.395-23.246,38.238
							c-2.179,5.616,6.843,8.025,8.994,2.48c4.771-12.298,11.58-24.639,20.848-34.122
							C337.158,125.364,330.567,118.763,326.358,123.071z"/>
					</g>
				</g>
			</g>
			<g>
				<g>
					<g>
						<g>
							<path style="fill:#49A238;" d="M97.004,54.359c-9.793-6.317-22.448-7.335-37.612-3.026c-1.33,0.38-2.177,1.661-2.009,3.026
								c0.109,0.914,2.902,22.48,17.979,31.82c8.123,5.03,18.117,5.5,29.705,1.395c0.002,0,0.004-0.001,0.006-0.003
								c2.428-0.859,4.965-1.936,7.537-3.203c1.092-0.537,1.711-1.717,1.531-2.92C114.034,80.724,111.336,63.609,97.004,54.359z"/>
						</g>
					</g>
				</g>
				<g>
					<g>
						<path style="fill:#EDE006;" d="M213.125,160.964c-0.221-14.083-6.496-31.947-17.14-46.042
							c-27.036-35.804-55.395-19.848-68.169-29.765c-12.771-9.918-15.49-4.202-17.023,0.207c-1.533,4.409,2.057,6.043-7.19,15.001
							c-9.247,8.957-30.515,40.431-24.776,70.218c5.738,29.785,26.201,54.13,61.668,58.466c30.674,3.75,29.584,14.955,37.557,11.828
							c10.299-4.04,6.701-15.827,11.101-21.663C203.427,200.275,213.467,182.652,213.125,160.964z"/>
					</g>
				</g>
			</g>
		</g>
	</g>
</g>
<g id="DESIGNED_BY_FREEPIK">
	<g>
		<g>
			<g>
				<g>
					<g>
						<g>
							<path style="fill:#232620;" d="M286.024,781.549v-0.258c-0.349,0.399-0.692,0.725-1.031,0.974
								c-0.338,0.251-0.706,0.442-1.102,0.569c-0.395,0.133-0.827,0.195-1.296,0.195c-0.621,0-1.196-0.13-1.725-0.393
								c-0.528-0.263-0.986-0.639-1.372-1.126c-0.387-0.487-0.68-1.06-0.879-1.72c-0.199-0.658-0.299-1.371-0.299-2.137
								c0-1.62,0.396-2.885,1.188-3.791c0.792-0.904,1.833-1.357,3.125-1.357c0.747,0,1.377,0.129,1.89,0.384
								c0.513,0.256,1.013,0.652,1.501,1.183v-3.827c0-0.533,0.105-0.934,0.318-1.206c0.211-0.272,0.514-0.408,0.907-0.408
								c0.393,0,0.694,0.125,0.907,0.375c0.212,0.251,0.318,0.618,0.318,1.107v11.436c0,0.494-0.113,0.863-0.342,1.111
								c-0.228,0.246-0.522,0.369-0.883,0.369c-0.354,0-0.647-0.127-0.879-0.383C286.139,782.389,286.024,782.023,286.024,781.549z
								 M280.923,777.74c0,0.703,0.109,1.301,0.328,1.795c0.219,0.494,0.518,0.865,0.897,1.115c0.38,0.25,0.795,0.377,1.244,0.377
								c0.456,0,0.872-0.119,1.25-0.357c0.376-0.236,0.677-0.602,0.902-1.092c0.225-0.49,0.337-1.105,0.337-1.838
								c0-0.691-0.112-1.284-0.337-1.783c-0.225-0.495-0.528-0.875-0.912-1.139c-0.383-0.262-0.803-0.393-1.258-0.393
								c-0.475,0-0.899,0.135-1.273,0.402c-0.374,0.27-0.663,0.654-0.869,1.158C281.026,776.491,280.923,777.075,280.923,777.74z"/>
						</g>
					</g>
					<g>
						<g>
							<path style="fill:#232620;" d="M297.457,778.396h-5.071c0.006,0.588,0.124,1.107,0.357,1.557
								c0.23,0.45,0.538,0.789,0.921,1.017c0.383,0.228,0.806,0.341,1.268,0.341c0.31,0,0.593-0.035,0.85-0.107
								c0.257-0.074,0.505-0.188,0.746-0.343c0.241-0.154,0.462-0.321,0.665-0.499c0.202-0.178,0.464-0.42,0.788-0.723
								c0.133-0.113,0.323-0.172,0.571-0.172c0.266,0,0.48,0.074,0.645,0.221c0.165,0.146,0.248,0.35,0.248,0.617
								c0,0.234-0.093,0.507-0.275,0.82c-0.185,0.315-0.462,0.615-0.832,0.903c-0.372,0.288-0.835,0.526-1.397,0.717
								c-0.559,0.19-1.204,0.284-1.933,0.284c-1.664,0-2.96-0.475-3.884-1.424c-0.924-0.949-1.386-2.238-1.386-3.865
								c0-0.767,0.113-1.478,0.341-2.133c0.228-0.655,0.561-1.217,0.997-1.686c0.437-0.469,0.975-0.827,1.615-1.078
								c0.639-0.25,1.349-0.374,2.128-0.374c1.013,0,1.882,0.212,2.606,0.641c0.726,0.427,1.27,0.979,1.63,1.655
								c0.36,0.679,0.542,1.37,0.542,2.071c0,0.653-0.187,1.075-0.56,1.269C298.662,778.299,298.136,778.396,297.457,778.396z
								 M292.386,776.924h4.702c-0.063-0.887-0.303-1.551-0.717-1.99c-0.415-0.44-0.96-0.66-1.638-0.66
								c-0.646,0-1.177,0.223-1.591,0.668C292.727,775.389,292.476,776.049,292.386,776.924z"/>
						</g>
					</g>
					<g>
						<g>
							<path style="fill:#232620;" d="M309.272,779.639c0,0.715-0.173,1.328-0.522,1.839c-0.348,0.509-0.862,0.897-1.544,1.159
								c-0.68,0.263-1.508,0.393-2.483,0.393c-0.931,0-1.728-0.143-2.393-0.427c-0.665-0.284-1.156-0.642-1.472-1.067
								c-0.317-0.429-0.475-0.858-0.475-1.289c0-0.284,0.101-0.527,0.304-0.73c0.202-0.201,0.459-0.303,0.769-0.303
								c0.272,0,0.48,0.066,0.626,0.199s0.286,0.32,0.418,0.559c0.266,0.465,0.585,0.808,0.956,1.037
								c0.37,0.228,0.874,0.342,1.515,0.342c0.519,0,0.945-0.117,1.277-0.347c0.332-0.233,0.498-0.496,0.498-0.794
								c0-0.456-0.172-0.787-0.518-0.996c-0.345-0.209-0.914-0.41-1.705-0.6c-0.893-0.221-1.619-0.454-2.18-0.698
								c-0.561-0.242-1.008-0.565-1.344-0.963c-0.335-0.399-0.503-0.891-0.503-1.474c0-0.518,0.155-1.009,0.465-1.472
								c0.311-0.462,0.768-0.831,1.374-1.106c0.604-0.275,1.333-0.414,2.188-0.414c0.671,0,1.275,0.07,1.809,0.211
								c0.536,0.137,0.983,0.326,1.34,0.56c0.358,0.233,0.63,0.492,0.816,0.777c0.186,0.285,0.28,0.563,0.28,0.836
								c0,0.298-0.1,0.541-0.298,0.732c-0.199,0.188-0.482,0.285-0.851,0.285c-0.266,0-0.492-0.076-0.679-0.229
								c-0.186-0.151-0.4-0.38-0.641-0.683c-0.196-0.253-0.426-0.457-0.693-0.608c-0.266-0.152-0.627-0.228-1.083-0.228
								c-0.469,0-0.857,0.098-1.168,0.3c-0.31,0.198-0.465,0.446-0.465,0.743c0,0.273,0.114,0.496,0.341,0.67
								c0.229,0.176,0.535,0.32,0.922,0.434c0.386,0.113,0.917,0.252,1.596,0.416c0.803,0.197,1.46,0.433,1.97,0.704
								c0.509,0.27,0.896,0.593,1.16,0.964C309.142,778.742,309.272,779.164,309.272,779.639z"/>
						</g>
					</g>
					<g>
						<g>
							<path style="fill:#232620;" d="M311.921,771.282c-0.361,0-0.669-0.112-0.926-0.333c-0.256-0.221-0.385-0.534-0.385-0.941
								c0-0.367,0.131-0.668,0.394-0.906c0.263-0.238,0.569-0.357,0.917-0.357c0.336,0,0.633,0.107,0.893,0.323
								c0.26,0.216,0.39,0.527,0.39,0.939c0,0.4-0.127,0.712-0.381,0.936C312.57,771.169,312.27,771.282,311.921,771.282z
								 M313.204,773.959v7.494c0,0.52-0.124,0.913-0.371,1.179c-0.248,0.265-0.56,0.398-0.94,0.398
								c-0.38,0-0.689-0.135-0.926-0.408c-0.238-0.271-0.356-0.662-0.356-1.168v-7.418c0-0.512,0.118-0.898,0.356-1.158
								c0.237-0.26,0.546-0.391,0.926-0.391c0.38,0,0.693,0.131,0.94,0.391C313.081,773.137,313.204,773.498,313.204,773.959z"/>
						</g>
					</g>
					<g>
						<g>
							<path style="fill:#232620;" d="M324.563,774.387v7.532c0,0.86-0.093,1.603-0.277,2.224c-0.182,0.619-0.477,1.133-0.883,1.537
								c-0.405,0.404-0.935,0.707-1.59,0.902c-0.655,0.197-1.471,0.295-2.446,0.295c-0.893,0-1.69-0.125-2.394-0.375
								c-0.702-0.252-1.243-0.574-1.624-0.969c-0.379-0.396-0.57-0.803-0.57-1.221c0-0.316,0.108-0.576,0.324-0.773
								c0.215-0.201,0.475-0.301,0.778-0.301c0.38,0,0.712,0.169,0.997,0.504c0.139,0.17,0.283,0.345,0.432,0.518
								c0.149,0.175,0.314,0.323,0.494,0.446c0.181,0.123,0.397,0.215,0.65,0.275c0.253,0.059,0.545,0.09,0.874,0.09
								c0.671,0,1.192-0.094,1.563-0.281c0.371-0.185,0.63-0.447,0.779-0.783c0.149-0.334,0.236-0.693,0.261-1.078
								c0.025-0.383,0.044-0.998,0.057-1.848c-0.399,0.559-0.859,0.983-1.382,1.274c-0.522,0.29-1.145,0.437-1.866,0.437
								c-0.868,0-1.626-0.223-2.275-0.665c-0.648-0.444-1.147-1.063-1.495-1.862c-0.349-0.799-0.522-1.718-0.522-2.763
								c0-0.778,0.105-1.483,0.317-2.108c0.213-0.629,0.515-1.156,0.907-1.587c0.392-0.431,0.845-0.755,1.358-0.974
								c0.513-0.218,1.076-0.327,1.691-0.327c0.734,0,1.371,0.142,1.909,0.421c0.538,0.284,1.038,0.726,1.5,1.326v-0.352
								c0-0.449,0.11-0.797,0.332-1.045c0.222-0.246,0.507-0.371,0.855-0.371c0.5,0,0.832,0.164,0.996,0.49
								C324.48,773.303,324.563,773.773,324.563,774.387z M317.05,777.674c0,1.051,0.229,1.846,0.688,2.384
								c0.459,0.538,1.053,0.808,1.781,0.808c0.43,0,0.837-0.116,1.22-0.347c0.384-0.232,0.695-0.581,0.936-1.045
								c0.24-0.466,0.361-1.03,0.361-1.695c0-1.058-0.232-1.882-0.698-2.47s-1.078-0.883-1.838-0.883
								c-0.741,0-1.334,0.281-1.78,0.846C317.272,775.834,317.05,776.636,317.05,777.674z"/>
						</g>
					</g>
					<g>
						<g>
							<path style="fill:#232620;" d="M328.684,773.922v0.314c0.455-0.603,0.954-1.044,1.496-1.325
								c0.542-0.281,1.163-0.424,1.866-0.424c0.684,0,1.295,0.15,1.834,0.447c0.538,0.299,0.941,0.72,1.206,1.262
								c0.172,0.318,0.282,0.661,0.332,1.027c0.051,0.368,0.077,0.836,0.077,1.406v4.824c0,0.52-0.119,0.913-0.357,1.179
								c-0.237,0.265-0.546,0.398-0.926,0.398c-0.387,0-0.7-0.135-0.94-0.408c-0.241-0.271-0.361-0.662-0.361-1.168v-4.321
								c0-0.854-0.119-1.509-0.357-1.962c-0.238-0.451-0.71-0.679-1.42-0.679c-0.461,0-0.883,0.138-1.263,0.413
								c-0.38,0.275-0.659,0.654-0.836,1.136c-0.126,0.386-0.19,1.107-0.19,2.165v3.248c0,0.525-0.122,0.921-0.365,1.184
								c-0.244,0.263-0.559,0.393-0.945,0.393c-0.375,0-0.681-0.135-0.922-0.408c-0.24-0.271-0.361-0.662-0.361-1.168v-7.494
								c0-0.493,0.107-0.863,0.323-1.107c0.215-0.243,0.51-0.366,0.883-0.366c0.229,0,0.435,0.055,0.619,0.163
								c0.183,0.108,0.33,0.269,0.441,0.483C328.628,773.349,328.684,773.611,328.684,773.922z"/>
						</g>
					</g>
					<g>
						<g>
							<path style="fill:#232620;" d="M344.458,778.396h-5.071c0.007,0.588,0.125,1.107,0.357,1.557
								c0.231,0.45,0.538,0.789,0.921,1.017c0.382,0.228,0.805,0.341,1.267,0.341c0.311,0,0.594-0.035,0.851-0.107
								c0.255-0.074,0.504-0.188,0.746-0.343c0.24-0.154,0.461-0.321,0.665-0.499c0.202-0.178,0.464-0.42,0.788-0.723
								c0.133-0.113,0.323-0.172,0.57-0.172c0.266,0,0.481,0.074,0.646,0.221c0.165,0.146,0.247,0.35,0.247,0.617
								c0,0.234-0.091,0.507-0.275,0.82c-0.184,0.315-0.461,0.615-0.832,0.903c-0.371,0.288-0.835,0.526-1.396,0.717
								c-0.56,0.19-1.205,0.284-1.933,0.284c-1.665,0-2.96-0.475-3.885-1.424c-0.923-0.949-1.386-2.238-1.386-3.865
								c0-0.767,0.114-1.478,0.342-2.133c0.228-0.655,0.561-1.217,0.998-1.686c0.436-0.469,0.975-0.827,1.614-1.078
								c0.639-0.25,1.349-0.374,2.128-0.374c1.013,0,1.881,0.212,2.606,0.641c0.726,0.427,1.269,0.979,1.63,1.655
								c0.36,0.679,0.542,1.37,0.542,2.071c0,0.653-0.187,1.075-0.561,1.269C345.662,778.299,345.136,778.396,344.458,778.396z
								 M339.387,776.924h4.701c-0.063-0.887-0.302-1.551-0.717-1.99c-0.415-0.44-0.961-0.66-1.638-0.66
								c-0.646,0-1.177,0.223-1.592,0.668C339.726,775.389,339.476,776.049,339.387,776.924z"/>
						</g>
					</g>
					<g>
						<g>
							<path style="fill:#232620;" d="M355.028,781.549v-0.258c-0.348,0.399-0.691,0.725-1.03,0.974
								c-0.339,0.251-0.706,0.442-1.102,0.569c-0.395,0.133-0.828,0.195-1.296,0.195c-0.622,0-1.196-0.13-1.724-0.393
								c-0.529-0.263-0.986-0.639-1.373-1.126c-0.387-0.487-0.679-1.06-0.878-1.72c-0.2-0.658-0.299-1.371-0.299-2.137
								c0-1.62,0.396-2.885,1.187-3.791c0.792-0.904,1.833-1.357,3.125-1.357c0.747,0,1.377,0.129,1.89,0.384
								c0.513,0.256,1.013,0.652,1.5,1.183v-3.827c0-0.533,0.106-0.934,0.319-1.206c0.211-0.272,0.515-0.408,0.907-0.408
								c0.392,0,0.694,0.125,0.907,0.375c0.212,0.251,0.318,0.618,0.318,1.107v11.436c0,0.494-0.114,0.863-0.342,1.111
								c-0.228,0.246-0.522,0.369-0.883,0.369c-0.355,0-0.648-0.127-0.879-0.383C355.144,782.389,355.028,782.023,355.028,781.549z
								 M349.928,777.74c0,0.703,0.108,1.301,0.327,1.795c0.218,0.494,0.517,0.865,0.898,1.115c0.379,0.25,0.794,0.377,1.243,0.377
								c0.456,0,0.873-0.119,1.249-0.357c0.377-0.236,0.678-0.602,0.902-1.092c0.225-0.49,0.337-1.105,0.337-1.838
								c0-0.691-0.112-1.284-0.337-1.783c-0.224-0.495-0.528-0.875-0.912-1.139c-0.384-0.262-0.803-0.393-1.259-0.393
								c-0.474,0-0.899,0.135-1.272,0.402c-0.373,0.27-0.663,0.654-0.869,1.158C350.03,776.491,349.928,777.075,349.928,777.74z"/>
						</g>
					</g>
					<g>
						<g>
							<path style="fill:#232620;" d="M365.626,770.113v3.96c0.487-0.507,0.984-0.896,1.491-1.163
								c0.506-0.27,1.134-0.403,1.881-0.403c0.861,0,1.616,0.204,2.266,0.611c0.648,0.41,1.151,1.002,1.51,1.776
								c0.358,0.775,0.537,1.696,0.537,2.76c0,0.786-0.1,1.505-0.299,2.161c-0.2,0.655-0.49,1.224-0.869,1.704
								c-0.38,0.481-0.841,0.855-1.382,1.117c-0.542,0.263-1.139,0.393-1.791,0.393c-0.399,0-0.775-0.047-1.126-0.143
								c-0.352-0.094-0.651-0.218-0.898-0.375c-0.246-0.154-0.457-0.314-0.631-0.479c-0.174-0.164-0.404-0.412-0.689-0.742v0.258
								c0,0.487-0.117,0.855-0.352,1.107c-0.233,0.25-0.531,0.373-0.893,0.373c-0.367,0-0.66-0.123-0.878-0.373
								c-0.219-0.252-0.328-0.62-0.328-1.107v-11.322c0-0.525,0.106-0.924,0.317-1.191c0.212-0.27,0.509-0.403,0.889-0.403
								c0.399,0,0.706,0.128,0.921,0.384C365.518,769.273,365.626,769.637,365.626,770.113z M365.749,777.816
								c0,1.032,0.236,1.824,0.708,2.378c0.472,0.555,1.091,0.833,1.857,0.833c0.652,0,1.214-0.283,1.685-0.852
								c0.472-0.566,0.708-1.378,0.708-2.436c0-0.684-0.097-1.273-0.294-1.767c-0.197-0.495-0.475-0.876-0.836-1.145
								c-0.361-0.268-0.783-0.402-1.264-0.402c-0.494,0-0.935,0.135-1.32,0.402c-0.386,0.27-0.69,0.658-0.912,1.168
								C365.86,776.506,365.749,777.113,365.749,777.816z"/>
						</g>
					</g>
					<g>
						<g>
							<path style="fill:#232620;" d="M376.672,783.354l0.237-0.58l-3.191-8.035c-0.196-0.461-0.295-0.798-0.295-1.007
								c0-0.222,0.058-0.427,0.171-0.616c0.114-0.191,0.271-0.344,0.47-0.456c0.2-0.115,0.407-0.173,0.622-0.173
								c0.373,0,0.655,0.12,0.846,0.357c0.19,0.237,0.357,0.576,0.503,1.019l2.194,6.383l2.08-5.936
								c0.164-0.479,0.313-0.857,0.446-1.131c0.133-0.271,0.273-0.455,0.422-0.549c0.148-0.096,0.359-0.145,0.632-0.145
								c0.197,0,0.385,0.053,0.565,0.158c0.18,0.105,0.319,0.245,0.418,0.422c0.098,0.178,0.148,0.363,0.148,0.561
								c-0.026,0.119-0.066,0.291-0.124,0.514c-0.058,0.221-0.126,0.447-0.208,0.674l-3.381,8.852
								c-0.292,0.779-0.577,1.389-0.855,1.833c-0.279,0.442-0.647,0.785-1.107,1.02c-0.459,0.238-1.078,0.358-1.857,0.358
								c-0.759,0-1.33-0.082-1.709-0.246c-0.381-0.166-0.57-0.467-0.57-0.903c0-0.298,0.089-0.527,0.271-0.688
								c0.18-0.161,0.448-0.244,0.801-0.244c0.14,0,0.276,0.021,0.409,0.059c0.165,0.037,0.307,0.058,0.427,0.058
								c0.297,0,0.532-0.044,0.704-0.134c0.17-0.088,0.324-0.241,0.461-0.461C376.337,784.1,376.495,783.777,376.672,783.354z"/>
						</g>
					</g>
				</g>
				<g>
					<g>
						<path style="fill:#232620;" d="M414.234,772.712h0.619v-0.778c0-0.815,0.099-1.457,0.306-1.938
							c0.204-0.479,0.556-0.826,1.047-1.045c0.491-0.217,1.163-0.326,2.017-0.326c1.52,0,2.272,0.367,2.272,1.113
							c0,0.239-0.079,0.445-0.239,0.615c-0.154,0.17-0.344,0.257-0.559,0.257c-0.1,0-0.278-0.019-0.527-0.06
							c-0.237-0.033-0.452-0.056-0.623-0.056c-0.467,0-0.767,0.141-0.904,0.415c-0.128,0.275-0.195,0.668-0.195,1.185v0.617h0.633
							c0.99,0,1.48,0.296,1.48,0.896c0,0.418-0.127,0.69-0.392,0.805c-0.262,0.113-0.624,0.17-1.088,0.17h-0.633v6.871
							c0,0.512-0.121,0.9-0.37,1.168c-0.241,0.273-0.554,0.407-0.942,0.407c-0.367,0-0.671-0.134-0.918-0.407
							c-0.244-0.268-0.363-0.656-0.363-1.168v-6.871h-0.715c-0.389,0-0.683-0.083-0.894-0.262c-0.209-0.17-0.314-0.398-0.314-0.677
							C412.931,773.019,413.365,772.712,414.234,772.712"/>
					</g>
					<g>
						<path style="fill:#232620;" d="M422.724,779.286v2.167c0,0.524-0.133,0.92-0.374,1.18c-0.246,0.267-0.559,0.396-0.938,0.396
							c-0.382,0-0.688-0.132-0.927-0.4c-0.236-0.265-0.36-0.657-0.36-1.175v-7.222c0-1.166,0.42-1.749,1.261-1.749
							c0.434,0,0.743,0.135,0.934,0.408c0.191,0.273,0.295,0.674,0.317,1.208c0.308-0.534,0.624-0.934,0.948-1.208
							c0.333-0.273,0.763-0.408,1.31-0.408c0.549,0,1.072,0.135,1.586,0.408c0.515,0.273,0.771,0.637,0.771,1.084
							c0,0.315-0.11,0.58-0.325,0.782c-0.221,0.209-0.455,0.312-0.707,0.312c-0.1,0-0.33-0.063-0.692-0.18
							c-0.365-0.113-0.689-0.173-0.963-0.173c-0.38,0-0.692,0.103-0.932,0.298c-0.242,0.205-0.431,0.497-0.563,0.887
							c-0.13,0.395-0.22,0.865-0.273,1.404C422.746,777.846,422.724,778.508,422.724,779.286"/>
					</g>
					<g>
						<g>
							<path style="fill:#232620;" d="M434.645,778.394h-5.074c0.01,0.588,0.124,1.11,0.355,1.558
								c0.234,0.446,0.539,0.786,0.924,1.017c0.385,0.227,0.804,0.34,1.269,0.34c0.311,0,0.593-0.033,0.85-0.111
								c0.254-0.069,0.505-0.186,0.745-0.341c0.242-0.153,0.46-0.319,0.664-0.5c0.203-0.175,0.467-0.416,0.791-0.72
								c0.134-0.112,0.324-0.174,0.567-0.174c0.268,0,0.481,0.074,0.649,0.223c0.166,0.146,0.243,0.351,0.243,0.617
								c0,0.234-0.089,0.508-0.268,0.818c-0.188,0.318-0.463,0.617-0.835,0.907c-0.375,0.284-0.84,0.526-1.398,0.714
								c-0.559,0.19-1.205,0.286-1.932,0.286c-1.67,0-2.964-0.474-3.887-1.422c-0.924-0.952-1.391-2.243-1.391-3.868
								c0-0.768,0.116-1.478,0.347-2.135c0.225-0.658,0.558-1.217,0.999-1.688c0.435-0.471,0.971-0.828,1.612-1.078
								c0.638-0.25,1.347-0.375,2.128-0.375c1.011,0,1.881,0.215,2.607,0.646c0.725,0.423,1.274,0.977,1.629,1.654
								c0.362,0.681,0.542,1.368,0.542,2.074c0,0.648-0.188,1.07-0.562,1.266C435.847,778.297,435.322,778.394,434.645,778.394
								 M429.57,776.919h4.702c-0.063-0.885-0.299-1.55-0.715-1.986c-0.418-0.442-0.959-0.661-1.64-0.661
								c-0.646,0-1.178,0.221-1.592,0.67C429.911,775.387,429.657,776.045,429.57,776.919"/>
						</g>
					</g>
					<g>
						<g>
							<path style="fill:#232620;" d="M445.432,778.394h-5.072c0.005,0.588,0.125,1.11,0.354,1.558
								c0.231,0.446,0.539,0.786,0.922,1.017c0.383,0.227,0.805,0.34,1.271,0.34c0.308,0,0.593-0.033,0.845-0.111
								c0.26-0.069,0.506-0.186,0.75-0.341c0.242-0.153,0.46-0.319,0.664-0.5c0.199-0.175,0.464-0.416,0.788-0.72
								c0.136-0.112,0.326-0.174,0.569-0.174c0.268,0,0.482,0.074,0.65,0.223c0.164,0.146,0.239,0.351,0.239,0.617
								c0,0.234-0.087,0.508-0.272,0.818c-0.178,0.318-0.456,0.617-0.831,0.907c-0.369,0.284-0.84,0.526-1.396,0.714
								c-0.557,0.19-1.207,0.286-1.934,0.286c-1.668,0-2.96-0.474-3.888-1.422c-0.923-0.952-1.389-2.243-1.389-3.868
								c0-0.768,0.116-1.478,0.349-2.135c0.226-0.658,0.559-1.217,0.996-1.688c0.435-0.471,0.972-0.828,1.613-1.078
								c0.638-0.25,1.35-0.375,2.129-0.375c1.009,0,1.879,0.215,2.613,0.646c0.72,0.423,1.266,0.977,1.621,1.654
								c0.359,0.681,0.545,1.368,0.545,2.074c0,0.648-0.191,1.07-0.562,1.266C446.632,778.297,446.107,778.394,445.432,778.394
								 M440.359,776.919h4.7c-0.064-0.885-0.304-1.55-0.715-1.986c-0.421-0.442-0.962-0.661-1.643-0.661
								c-0.646,0-1.176,0.221-1.593,0.67C440.697,775.387,440.443,776.045,440.359,776.919"/>
						</g>
					</g>
					<g>
						<g>
							<path style="fill:#232620;" d="M451.111,773.941v0.311c0.486-0.602,0.994-1.043,1.524-1.324
								c0.519-0.284,1.118-0.428,1.782-0.428c0.795,0,1.535,0.209,2.207,0.618c0.672,0.414,1.198,1.015,1.589,1.806
								c0.391,0.796,0.587,1.73,0.587,2.814c0,0.796-0.112,1.531-0.337,2.201c-0.224,0.668-0.537,1.227-0.929,1.68
								c-0.393,0.45-0.855,0.801-1.389,1.046c-0.542,0.241-1.112,0.363-1.728,0.363c-0.738,0-1.363-0.149-1.865-0.447
								c-0.502-0.292-0.982-0.733-1.441-1.306v3.893c0,1.135-0.416,1.71-1.244,1.71c-0.49,0-0.809-0.147-0.971-0.44
								c-0.152-0.298-0.234-0.723-0.234-1.291v-11.193c0-0.494,0.107-0.858,0.32-1.107c0.215-0.238,0.512-0.363,0.885-0.363
								c0.369,0,0.666,0.125,0.897,0.374C450.998,773.11,451.111,773.467,451.111,773.941 M456.195,777.709
								c0-0.685-0.106-1.273-0.314-1.764c-0.209-0.492-0.499-0.867-0.866-1.127c-0.367-0.264-0.782-0.397-1.232-0.397
								c-0.714,0-1.318,0.284-1.809,0.844c-0.492,0.566-0.739,1.395-0.739,2.492c0,1.027,0.245,1.834,0.735,2.407
								c0.487,0.573,1.086,0.858,1.813,0.858c0.429,0,0.831-0.127,1.198-0.373c0.371-0.252,0.664-0.626,0.883-1.126
								C456.085,779.021,456.195,778.416,456.195,777.709"/>
						</g>
					</g>
					<g>
						<g>
							<path style="fill:#232620;" d="M461.411,771.275c-0.362,0-0.669-0.114-0.923-0.335c-0.259-0.224-0.387-0.532-0.387-0.937
								c0-0.368,0.13-0.67,0.396-0.91c0.263-0.234,0.566-0.356,0.914-0.356c0.34,0,0.636,0.106,0.894,0.319
								c0.26,0.218,0.391,0.534,0.391,0.946c0,0.399-0.127,0.711-0.377,0.936C462.063,771.161,461.764,771.275,461.411,771.275
								 M462.695,773.953v7.503c0,0.515-0.123,0.907-0.369,1.172c-0.25,0.269-0.562,0.4-0.941,0.4c-0.382,0-0.686-0.134-0.929-0.407
								c-0.233-0.275-0.354-0.664-0.354-1.165v-7.428c0-0.51,0.121-0.896,0.354-1.154c0.243-0.265,0.547-0.392,0.929-0.392
								c0.38,0,0.691,0.127,0.941,0.392C462.572,773.133,462.695,773.496,462.695,773.953"/>
						</g>
					</g>
					<g>
						<path style="fill:#232620;" d="M471.055,781.845l-2.283-3.767l-1.408,1.329v2.065c0,0.498-0.133,0.881-0.397,1.148
							c-0.256,0.273-0.565,0.407-0.906,0.407c-0.398,0-0.715-0.132-0.941-0.4c-0.227-0.265-0.344-0.657-0.344-1.175v-11.063
							c0-0.574,0.114-1.012,0.331-1.314c0.224-0.306,0.545-0.452,0.953-0.452c0.4,0,0.713,0.137,0.95,0.411
							c0.233,0.271,0.353,0.673,0.353,1.202v6.293l2.915-3.063c0.362-0.377,0.633-0.641,0.827-0.778
							c0.189-0.14,0.42-0.208,0.689-0.208c0.326,0,0.594,0.103,0.815,0.309c0.212,0.205,0.32,0.466,0.32,0.773
							c0,0.379-0.354,0.889-1.055,1.521l-1.377,1.263l2.659,4.183c0.193,0.313,0.339,0.544,0.424,0.705
							c0.084,0.16,0.131,0.32,0.131,0.463c0,0.412-0.115,0.734-0.342,0.975c-0.224,0.237-0.523,0.354-0.886,0.354
							c-0.316,0-0.564-0.081-0.733-0.257C471.582,782.6,471.345,782.289,471.055,781.845"/>
					</g>
					<g>
						<path style="fill:#232620;" d="M476.69,783.028c-0.392,0-0.728-0.126-1.014-0.382c-0.284-0.248-0.429-0.605-0.429-1.065
							c0-0.385,0.138-0.719,0.41-0.994c0.274-0.279,0.607-0.419,1.008-0.419c0.397,0,0.735,0.14,1.022,0.412
							c0.279,0.275,0.422,0.612,0.422,1.001c0,0.453-0.143,0.809-0.422,1.061C477.401,782.902,477.069,783.028,476.69,783.028"/>
					</g>
					<g>
						<path style="fill:#232620;" d="M489.589,779.818c0,0.32-0.097,0.668-0.291,1.034c-0.191,0.37-0.488,0.718-0.886,1.05
							c-0.395,0.332-0.891,0.602-1.494,0.804c-0.602,0.202-1.281,0.306-2.031,0.306c-1.606,0-2.858-0.469-3.758-1.4
							c-0.895-0.936-1.346-2.189-1.346-3.76c0-1.067,0.205-2.006,0.619-2.824c0.407-0.814,1.004-1.447,1.781-1.894
							c0.779-0.447,1.717-0.67,2.795-0.67c0.673,0,1.287,0.099,1.852,0.295c0.561,0.195,1.033,0.451,1.426,0.76
							c0.387,0.314,0.685,0.643,0.889,0.992c0.207,0.352,0.308,0.681,0.308,0.986c0,0.309-0.113,0.572-0.343,0.788
							c-0.235,0.215-0.516,0.323-0.838,0.323c-0.22,0-0.398-0.057-0.541-0.166c-0.145-0.111-0.305-0.289-0.479-0.541
							c-0.317-0.479-0.646-0.842-0.995-1.08c-0.344-0.242-0.781-0.361-1.315-0.361c-0.762,0-1.384,0.298-1.853,0.897
							c-0.468,0.596-0.703,1.419-0.703,2.454c0,0.488,0.063,0.94,0.184,1.348c0.116,0.407,0.291,0.756,0.52,1.044
							c0.23,0.286,0.504,0.505,0.826,0.654c0.324,0.153,0.681,0.226,1.064,0.226c0.521,0,0.966-0.12,1.336-0.361
							c0.376-0.24,0.703-0.607,0.986-1.102c0.158-0.291,0.327-0.517,0.509-0.684c0.183-0.164,0.409-0.249,0.676-0.249
							c0.316,0,0.58,0.122,0.787,0.362C489.482,779.289,489.589,779.548,489.589,779.818"/>
					</g>
					<g>
						<g>
							<path style="fill:#232620;" d="M500.779,777.758c0,0.769-0.122,1.484-0.355,2.139c-0.247,0.652-0.592,1.213-1.05,1.679
								c-0.455,0.469-1.002,0.828-1.632,1.079c-0.639,0.248-1.35,0.375-2.138,0.375c-0.786,0-1.494-0.127-2.122-0.383
								c-0.623-0.248-1.17-0.613-1.626-1.081c-0.46-0.478-0.809-1.034-1.052-1.677c-0.228-0.644-0.35-1.354-0.35-2.131
								c0-0.787,0.123-1.506,0.358-2.158c0.241-0.654,0.588-1.213,1.038-1.674c0.451-0.461,0.993-0.816,1.631-1.069
								c0.644-0.249,1.35-0.374,2.122-0.374c0.784,0,1.497,0.125,2.138,0.381c0.639,0.252,1.184,0.615,1.643,1.08
								c0.458,0.475,0.803,1.029,1.04,1.672C500.659,776.266,500.779,776.975,500.779,777.758 M498.176,777.758
								c0-1.059-0.234-1.881-0.697-2.469c-0.464-0.596-1.09-0.889-1.874-0.889c-0.509,0-0.956,0.133-1.344,0.395
								c-0.387,0.262-0.681,0.649-0.89,1.164c-0.209,0.514-0.315,1.113-0.315,1.799c0,0.679,0.102,1.268,0.309,1.773
								c0.208,0.51,0.502,0.896,0.886,1.166c0.386,0.266,0.835,0.404,1.353,0.404c0.784,0,1.41-0.297,1.874-0.893
								C497.941,779.619,498.176,778.799,498.176,777.758"/>
						</g>
					</g>
					<g>
						<path style="fill:#232620;" d="M510.672,777.948v3.446c0,0.547-0.121,0.951-0.37,1.227c-0.25,0.273-0.571,0.408-0.978,0.408
							c-0.393,0-0.714-0.135-0.951-0.408c-0.247-0.275-0.372-0.68-0.372-1.227v-4.131c0-0.653-0.021-1.162-0.063-1.525
							c-0.046-0.353-0.169-0.654-0.362-0.882c-0.197-0.235-0.51-0.352-0.932-0.352c-0.851,0-1.406,0.291-1.677,0.882
							c-0.267,0.576-0.405,1.413-0.405,2.507v3.502c0,0.538-0.123,0.946-0.361,1.224c-0.25,0.272-0.568,0.411-0.966,0.411
							c-0.396,0-0.717-0.139-0.967-0.411c-0.251-0.277-0.376-0.686-0.376-1.224v-7.42c0-0.488,0.111-0.859,0.336-1.111
							c0.229-0.256,0.525-0.381,0.889-0.381c0.356,0,0.651,0.123,0.893,0.355c0.235,0.238,0.353,0.566,0.353,0.984v0.244
							c0.453-0.534,0.935-0.931,1.444-1.18c0.517-0.26,1.082-0.387,1.714-0.387c0.65,0,1.21,0.132,1.677,0.391
							c0.47,0.26,0.854,0.654,1.161,1.176c0.439-0.527,0.908-0.922,1.409-1.18c0.501-0.258,1.054-0.387,1.662-0.387
							c0.706,0,1.321,0.144,1.834,0.42c0.511,0.278,0.894,0.68,1.148,1.195c0.221,0.473,0.33,1.21,0.33,2.217v5.063
							c0,0.547-0.121,0.951-0.367,1.227c-0.246,0.273-0.574,0.408-0.979,0.408c-0.396,0-0.715-0.139-0.966-0.411
							c-0.25-0.277-0.376-0.686-0.376-1.224v-4.361c0-0.559-0.023-1.004-0.069-1.338c-0.047-0.338-0.177-0.62-0.382-0.847
							c-0.213-0.227-0.531-0.345-0.953-0.345c-0.342,0-0.666,0.107-0.975,0.309c-0.307,0.198-0.547,0.477-0.721,0.813
							C510.77,776.063,510.672,776.838,510.672,777.948"/>
					</g>
				</g>
				<g>
					<g>
						<path style="fill:#232620;" d="M389.967,777.129c-0.002-0.004-0.002-0.009-0.002-0.018
							C389.965,777.12,389.965,777.125,389.967,777.129z"/>
					</g>
					<g>
						<path style="fill:#232620;" d="M390.098,777.959c0.002,0,0.002,0,0.003,0c-0.05-0.236-0.088-0.471-0.119-0.702
							C390.012,777.49,390.051,777.725,390.098,777.959z"/>
					</g>
					<g>
						<path style="fill:#232620;" d="M390.956,780.365c-0.006-0.01-0.011-0.021-0.017-0.033
							C390.945,780.344,390.95,780.356,390.956,780.365z"/>
					</g>
					<g>
						<path style="fill:#232620;" d="M390.874,780.205c-0.022-0.044-0.044-0.09-0.065-0.135
							C390.83,780.118,390.852,780.161,390.874,780.205z"/>
					</g>
					<g>
						<path style="fill:#232620;" d="M390.339,778.886c0.127,0.4,0.28,0.788,0.457,1.158c-0.18-0.378-0.33-0.767-0.454-1.158
							C390.341,778.886,390.34,778.886,390.339,778.886z"/>
					</g>
					<g>
						<path style="fill:#232620;" d="M400.004,767.193c0.501,0,0.871,0.039,1.294,0.111l0.12-0.764c0,0-1.17-0.359-2.71-0.233
							l-0.121-0.415c0.478-0.102,0.838-0.526,0.838-1.035c0-0.582-0.474-1.053-1.057-1.053c-0.583,0-1.056,0.471-1.056,1.053
							c0,0.509,0.358,0.934,0.836,1.035l0.134,0.463c-1.634,0.225-2.935,0.861-2.935,0.861l0.23,0.706
							c0.989-0.329,1.846-0.529,2.624-0.614C398.964,767.229,399.537,767.193,400.004,767.193z"/>
					</g>
					<g>
						<path style="fill:#232620;" d="M390.936,771.051l0.006-0.007c0.039-0.05,0.076-0.097,0.113-0.143l-0.313-0.225l-0.488-0.357
							c-0.027,0.038-0.795,0.743-1.401,2.048c-0.025-0.041-0.056-0.081-0.09-0.119c-0.182-0.199-0.436-0.3-0.758-0.295
							c-0.004,0-0.009,0-0.015,0c-0.2,0-0.337-0.066-0.427-0.147c0.089-0.113,0.143-0.256,0.143-0.413
							c0-0.368-0.3-0.669-0.669-0.669c-0.369,0-0.669,0.301-0.669,0.669c0,0.37,0.3,0.669,0.669,0.669
							c0.058,0,0.113-0.01,0.167-0.021c0.164,0.184,0.425,0.342,0.808,0.334c0.197-0.001,0.341,0.049,0.438,0.156
							c0.111,0.121,0.148,0.296,0.16,0.428c-0.001,0.002-0.001,0.004-0.003,0.004c-0.435,1.19-0.311,2.67-0.311,2.67l1.057,0.043
							c0.022-0.539,0.099-1.482,0.372-2.23C390.25,771.996,390.91,771.09,390.936,771.051z"/>
					</g>
					<g>
						<path style="fill:#232620;" d="M409.203,768.077c-0.368,0-0.669,0.298-0.669,0.669c0,0.057,0.009,0.111,0.023,0.165
							c-0.184,0.166-0.343,0.427-0.337,0.81c0.003,0.198-0.048,0.341-0.154,0.438c-0.085,0.074-0.191,0.115-0.295,0.141
							c-0.787-1.104-1.757-1.775-1.757-1.775l-0.759,0.814c0.574,0.521,1.159,1.175,1.728,1.99c0.394,0.564,0.799,1.29,1.136,2.015
							l1.024-0.486c0,0-0.468-1.155-1.126-2.191c0.114-0.04,0.229-0.103,0.331-0.193c0.201-0.18,0.299-0.435,0.293-0.758
							c-0.002-0.207,0.067-0.348,0.148-0.441c0.114,0.088,0.257,0.143,0.412,0.143c0.371,0,0.67-0.3,0.67-0.669
							C409.873,768.375,409.574,768.077,409.203,768.077z"/>
					</g>
					<g>
						<path style="fill:#232620;" d="M406.547,777.279c-1.41,0.687-3.728,1.594-6.782,2.02c-1.198,0.166-2.359,0.227-3.428,0.227
							c-1.391,0-2.62-0.102-3.563-0.223c-1.076-0.135-1.917-0.301-2.432-0.417c0.124,0.392,0.273,0.78,0.454,1.158
							c0.003,0.009,0.008,0.021,0.013,0.026c0.021,0.045,0.043,0.091,0.065,0.135c0.021,0.044,0.043,0.086,0.065,0.127
							c0.006,0.012,0.011,0.024,0.017,0.033c0.303,0.57,0.667,1.094,1.081,1.549c1.44,1.574,2.907,1.824,2.921,1.826l0.023,0.003
							l0.022,0.007c0.013,0.006,1.314,0.426,3.291,0.426c1.945,0,3.854-0.393,5.673-1.168c1.348-0.689,2.622-1.736,3.254-2.67
							c0.489-0.722,0.842-1.492,1.051-2.293c0.11-0.426,0.198-1.107,0.147-1.825C408.022,776.486,407.395,776.866,406.547,777.279z"
							/>
					</g>
					<g>
						<g>
							<path style="fill:#232620;" d="M391.389,771.386c-0.041,0.06-0.652,0.925-1.135,2.253c-0.362,0.994-0.346,2.443-0.346,2.46
								v0.003c0,0.34,0.019,0.677,0.057,1.01c0,0.009,0,0.014,0.002,0.018c0.004,0.044,0.011,0.084,0.015,0.128
								c0.03,0.232,0.069,0.466,0.119,0.702c0.7,0.178,4.878,1.152,9.548,0.502c2.927-0.408,5.149-1.273,6.499-1.927
								c1.121-0.544,1.842-1.036,2.12-1.239c-0.277-1.027-1.041-2.641-1.742-3.646c-2.006-2.865-4.168-3.601-5.278-3.783
								c-0.423-0.069-0.762-0.109-1.243-0.109c-0.447,0-1.002,0.036-1.743,0.114c-0.743,0.077-1.572,0.273-2.532,0.596
								c-1.348,0.451-2.567,1.158-3.527,2.048l-0.033,0.03C392.027,770.676,391.73,770.951,391.389,771.386z M403.658,770.719
								c0.961,0,1.743,0.781,1.743,1.743s-0.782,1.744-1.743,1.744c-0.961,0-1.742-0.782-1.742-1.744
								S402.697,770.719,403.658,770.719z M395.417,770.649c1.557,0,2.817,1.262,2.817,2.817c0,1.555-1.26,2.815-2.817,2.815
								c-1.555,0-2.816-1.26-2.816-2.815C392.601,771.911,393.862,770.649,395.417,770.649z"/>
						</g>
					</g>
				</g>
			</g>
		</g>
	</g>
</g>
</svg>
