<?xml version="1.0" encoding="utf-8"?>
<!-- Generator: Adobe Illustrator 27.5.0, SVG Export Plug-In . SVG Version: 6.00 Build 0)  -->
<svg version="1.1" xmlns="http://www.w3.org/2000/svg" xmlns:xlink="http://www.w3.org/1999/xlink" x="0px" y="0px"
	 viewBox="0 0 750 500" style="enable-background:new 0 0 750 500;" xml:space="preserve">
<g id="BACKGROUND">
	<rect style="fill:none;" width="750" height="500"/>
</g>
<g id="OBJECTS">
	<g>
		<linearGradient id="SVGID_1_" gradientUnits="userSpaceOnUse" x1="121.373" y1="255.2566" x2="628.6271" y2="255.2566">
			<stop  offset="0" style="stop-color:#FFEFD7"/>
			<stop  offset="1" style="stop-color:#FFDCA8"/>
		</linearGradient>
		<path style="fill:url(#SVGID_1_);" d="M548.12,148.89c-22.475-2.944-43.831-11.646-61.397-25.973
			c-29.388-23.969-66.908-38.345-107.788-38.345c-22.627,0-44.225,4.403-63.985,12.398c-23.054,9.329-48.344,12.146-72.69,7.066
			c-6.629-1.383-13.498-2.112-20.537-2.115c-54.762-0.022-99.803,44.533-100.345,99.293c-0.396,39.965,22.584,74.602,56.103,91.08
			c22.41,11.017,41.564,27.83,54.223,49.356c29.658,50.436,84.49,84.289,147.231,84.289c52.203,0,98.932-23.436,130.24-60.361
			c15.242-17.976,34.979-31.704,57.378-39.034c27.909-9.133,62.074-31.476,62.074-85.991
			C628.627,192.302,592.297,154.678,548.12,148.89z"/>
		<path style="opacity:0.58;fill:#FFEFD7;" d="M231.703,341.652c29.658,50.436,84.49,84.289,147.232,84.289
			c52.203,0,98.932-23.436,130.24-60.361c15.242-17.976,34.979-31.704,57.378-39.034c25.898-8.475,57.162-28.343,61.537-74.717
			c-12.672-9.613-27.783-16.013-43.957-18.132c-22.475-2.944-43.831-11.646-61.396-25.973
			c-29.388-23.969-66.908-38.345-107.788-38.345c-22.627,0-44.225,4.403-63.985,12.398c-23.054,9.329-48.344,12.146-72.69,7.066
			c-6.629-1.383-13.498-2.112-20.537-2.115c-52.555-0.021-96.148,41.016-100.057,92.726c6.045,5.015,12.682,9.341,19.801,12.841
			C199.891,303.313,219.045,320.126,231.703,341.652z"/>
		<path style="fill:#FFFFFF;" d="M466.759,332.03c2.6,0,5.028,0.715,7.121,1.94c3.016-5.572,8.912-9.357,15.693-9.357
			c3.335,0,6.444,0.932,9.114,2.525c0.29-9.596,8.14-17.29,17.806-17.29c8.886,0,16.232,6.506,17.589,15.01
			c8.504,1.356,15.01,8.703,15.01,17.589c0,9.849-7.984,17.833-17.833,17.833h-41.685h-20.138c0,0,0.027-0.106,0.074-0.284
			c-0.891,0.177-1.807,0.284-2.75,0.284c-7.801,0-14.125-6.324-14.125-14.125C452.634,338.354,458.958,332.03,466.759,332.03z"/>
		<path style="fill:#FFFFFF;" d="M323.103,203.852c-3.193,0-6.175,0.878-8.745,2.383c-3.704-6.842-10.944-11.491-19.271-11.491
			c-4.095,0-7.914,1.145-11.192,3.101c-0.356-11.784-9.997-21.233-21.866-21.233c-10.912,0-19.934,7.99-21.6,18.433
			c-10.443,1.665-18.433,10.687-18.433,21.6c0,12.095,9.805,21.9,21.9,21.9h51.191h24.73c0,0-0.033-0.13-0.091-0.348
			c1.094,0.217,2.219,0.348,3.377,0.348c9.58,0,17.346-7.766,17.346-17.346C340.45,211.619,332.683,203.852,323.103,203.852z"/>
		<path style="fill:#FFFFFF;" d="M449.431,274.484c-1.469,0-2.841,0.404-4.023,1.096c-1.704-3.148-5.035-5.287-8.866-5.287
			c-1.884,0-3.641,0.527-5.15,1.427c-0.164-5.422-4.599-9.77-10.061-9.77c-5.021,0-9.172,3.676-9.938,8.481
			c-4.805,0.766-8.481,4.917-8.481,9.938c0,5.565,4.511,10.076,10.076,10.076h23.553h11.378c0,0-0.015-0.06-0.042-0.16
			c0.503,0.1,1.021,0.16,1.554,0.16c4.408,0,7.981-3.573,7.981-7.981C457.412,278.057,453.839,274.484,449.431,274.484z"/>
		<path style="fill:#FFFFFF;" d="M388.494,437.307c-28.972,0-57.432-7.685-82.301-22.227
			c-24.137-14.112-44.386-34.311-58.559-58.414c-11.466-19.498-28.978-35.433-50.642-46.085
			c-33.206-16.324-54.426-50.773-54.06-87.763c0.523-52.763,43.883-95.68,96.655-95.68c0.016,0,0.023,0,0.039,0
			c6.662,0.003,13.32,0.689,19.788,2.038c22.25,4.641,45.714,2.358,67.864-6.605c19.453-7.871,40.05-11.863,61.217-11.863
			c37.495,0,74.119,13.029,103.125,36.686c15.984,13.036,35.797,21.415,57.299,24.233c44.291,5.802,77.691,43.831,77.691,88.458
			c0,52.406-32.592,74.07-59.932,83.017c-20.525,6.717-39.052,19.322-53.578,36.454C481.98,416.258,436.563,437.307,388.494,437.307
			z M239.586,130.483c-50.951,0-92.806,41.428-93.31,92.368c-0.353,35.711,20.133,68.969,52.191,84.73
			c22.253,10.939,40.251,27.327,52.049,47.389c13.884,23.612,33.72,43.399,57.364,57.223c24.358,14.242,52.234,21.77,80.613,21.77
			c47.085,0,91.571-20.618,122.052-56.567c14.928-17.605,33.976-30.561,55.089-37.471c26.29-8.602,57.629-29.437,57.629-79.838
			c0-42.954-32.149-79.557-74.781-85.142h-0.001c-22.117-2.898-42.511-11.528-58.977-24.957
			c-28.41-23.173-64.283-35.934-101.011-35.934c-20.735,0-40.91,3.909-59.963,11.619c-22.765,9.212-46.903,11.555-69.801,6.778
			c-6.244-1.303-12.673-1.964-19.106-1.967C239.611,130.483,239.599,130.483,239.586,130.483z"/>
		
			<linearGradient id="SVGID_00000165947096582243330790000010076364527220176305_" gradientUnits="userSpaceOnUse" x1="334.4761" y1="267.5958" x2="210.3749" y2="124.7623">
			<stop  offset="0" style="stop-color:#FFEFB4"/>
			<stop  offset="1" style="stop-color:#FF9F33"/>
		</linearGradient>
		<path style="fill:url(#SVGID_00000165947096582243330790000010076364527220176305_);" d="M284.201,220.135
			c10.661,0.638,17.895-1.67,17.895-1.67s1.623-10.786-3.023-24.454c-3.149,3.592-6.616,5.459-6.616,5.459
			c2.934-3.671,3.846-8.148,3.92-12.112c-2.584-5.448-6.253-11.13-11.425-16.618c-1.592,2.062-2.958,3.245-2.958,3.245
			c0.762-1.559,1.23-3.165,1.479-4.766c-3.416-3.411-7.432-6.732-12.167-9.855c-0.844-0.557-1.695-1.082-2.548-1.591
			c-2.26,5.664-6.461,9.299-6.461,9.299c1.957-4.003,1.981-8.319,1.303-12.067c-5.115-2.474-10.266-4.199-15.159-5.375
			c-1.708,2.289-3.236,3.61-3.236,3.61c0.647-1.323,1.078-2.68,1.347-4.04c-15.22-3.281-27.478-1.469-27.478-1.469
			s0.122,9.26,3.806,21.138c3.077-0.255,6.282-1.128,9.114-3.125c0,0-2.719,4.405-7.616,7.527
			c2.239,6.048,5.424,12.522,9.953,18.668c1.954-0.493,3.886-1.301,5.67-2.559c0,0-1.408,2.274-4.013,4.712
			c0.91,1.136,1.856,2.26,2.866,3.361c3.436,3.744,6.937,6.892,10.441,9.543c4.604,1.026,12.09,1.721,17.972-2.427
			c0,0-3.189,5.156-8.871,8.264c8.928,4.754,17.507,6.664,24.667,7.224c0.592-0.707,1.14-1.47,1.621-2.305
			C284.684,217.751,284.571,218.686,284.201,220.135z"/>
		
			<linearGradient id="SVGID_00000118377211282818883510000012568941318597101191_" gradientUnits="userSpaceOnUse" x1="663.8254" y1="370.6435" x2="539.7225" y2="227.808" gradientTransform="matrix(-0.4598 0.888 -0.888 -0.4598 1004.5568 -158.0874)">
			<stop  offset="0" style="stop-color:#FFEFB4"/>
			<stop  offset="1" style="stop-color:#FF9F33"/>
		</linearGradient>
		<path style="fill:url(#SVGID_00000118377211282818883510000012568941318597101191_);" d="M435.461,238.147
			c-5.468,9.174-6.745,16.659-6.745,16.659s8.832,6.4,23.106,8.559c-1.742-4.448-1.806-8.385-1.806-8.385
			c1.911,4.293,5.467,7.161,8.953,9.049c6.026,0.21,12.759-0.436,20.011-2.505c-1.099-2.362-1.521-4.118-1.521-4.118
			c1.034,1.393,2.245,2.547,3.553,3.505c4.6-1.465,9.395-3.505,14.345-6.274c0.883-0.494,1.74-1.007,2.584-1.531
			c-3.991-4.611-5.287-10.013-5.287-10.013c2.655,3.578,6.477,5.584,10.117,6.706c4.549-3.405,8.449-7.186,11.742-10.991
			c-1.247-2.569-1.718-4.534-1.718-4.534c0.878,1.183,1.885,2.19,2.968,3.054c9.911-12.007,13.939-23.726,13.939-23.726
			s-8.279-4.149-20.521-6.339c-1.188,2.85-1.886,6.097-1.415,9.531c0,0-2.661-4.44-3.182-10.224
			c-6.4-0.793-13.614-0.94-21.154,0.256c-0.461,1.962-0.631,4.049-0.334,6.211c0,0-1.372-2.296-2.339-5.73
			c-1.427,0.286-2.86,0.609-4.302,1c-4.904,1.329-9.309,2.991-13.275,4.884c-3.028,3.617-7.087,9.945-6.108,17.076
			c0,0-3.112-5.202-3.26-11.677c-8.327,5.742-13.968,12.483-17.756,18.584c0.355,0.851,0.782,1.688,1.302,2.499
			C437.355,239.672,436.577,239.142,435.461,238.147z"/>
		
			<linearGradient id="SVGID_00000109004177540087683580000007492724582303578279_" gradientUnits="userSpaceOnUse" x1="782.4599" y1="346.4138" x2="658.3594" y2="203.581" gradientTransform="matrix(-0.9931 -0.1173 0.1173 -0.9931 1090.0156 729.9496)">
			<stop  offset="0" style="stop-color:#FFEFB4"/>
			<stop  offset="1" style="stop-color:#FF9F33"/>
		</linearGradient>
		<path style="fill:url(#SVGID_00000109004177540087683580000007492724582303578279_);" d="M397.95,347.174
			c-10.513-1.884-17.967-0.441-17.967-0.441s-2.877,10.521,0.134,24.64c3.549-3.198,7.21-4.645,7.21-4.645
			c-3.344,3.301-4.775,7.641-5.313,11.568c1.927,5.714,4.904,11.787,9.397,17.844c1.823-1.861,3.318-2.875,3.318-2.875
			c-0.939,1.458-1.593,2.999-2.028,4.56c2.992,3.789,6.591,7.557,10.927,11.214c0.773,0.652,1.556,1.274,2.344,1.878
			c2.909-5.36,7.507-8.477,7.507-8.477c-2.413,3.746-2.943,8.029-2.71,11.831c4.79,3.057,9.702,5.374,14.424,7.116
			c1.965-2.073,3.637-3.206,3.637-3.206c-0.797,1.238-1.385,2.536-1.812,3.854c14.73,5.043,27.116,4.682,27.116,4.682
			s0.965-9.21-1.3-21.438c-3.085-0.107-6.371,0.384-9.418,2.035c0,0,3.217-4.055,8.446-6.581
			c-1.514-6.269-3.918-13.072-7.695-19.707c-1.999,0.26-4.012,0.836-5.931,1.876c0,0,1.665-2.093,4.538-4.209
			c-0.77-1.234-1.578-2.462-2.452-3.674c-2.973-4.121-6.081-7.658-9.249-10.702c-4.452-1.559-11.805-3.127-18.133,0.302
			c0,0,3.771-4.746,9.779-7.167c-8.308-5.769-16.605-8.672-23.649-10.067c-0.671,0.632-1.304,1.326-1.88,2.099
			C397.19,349.484,397.412,348.569,397.95,347.174z"/>
		<g>
			<g>
				
					<linearGradient id="SVGID_00000129168048961623819250000004795755673894634158_" gradientUnits="userSpaceOnUse" x1="210.3902" y1="205.533" x2="485.181" y2="205.533" gradientTransform="matrix(0.9997 0.0226 -0.0226 0.9997 4.2016 -8.6307)">
					<stop  offset="0" style="stop-color:#5E34FF"/>
					<stop  offset="1" style="stop-color:#27078A"/>
				</linearGradient>
				<path style="fill:url(#SVGID_00000129168048961623819250000004795755673894634158_);" d="M236.492,274.911l-0.424-1.525
					c-18.01-64.806,12.857-133.293,73.396-162.845c31.121-15.193,66.578-18.296,99.832-8.744
					c31.219,8.969,58.17,28.364,76.452,54.889l-27.866-9.584l-6.262,18.204c-14.902-17.017-35.146-29.057-57.366-34.05
					c-24.025-5.399-48.451-2.531-70.628,8.295c-44.286,21.619-68.165,70.363-58.07,118.537l0.501,2.392l32.176-15.707
					l-15.751,45.796l0,0l-7.364,21.411l-32.604-11.214v0l-34.603-11.901L236.492,274.911z"/>
				
					<linearGradient id="SVGID_00000003824484883134671930000010310587586700083344_" gradientUnits="userSpaceOnUse" x1="253.584" y1="263.2159" x2="527.2877" y2="263.2159" gradientTransform="matrix(0.9997 0.0226 -0.0226 0.9997 4.2016 -8.6307)">
					<stop  offset="0" style="stop-color:#5E34FF"/>
					<stop  offset="1" style="stop-color:#0D96FF"/>
				</linearGradient>
				<path style="fill:url(#SVGID_00000003824484883134671930000010310587586700083344_);" d="M432.069,361.696
					c-32.514,15.872-69.397,18.547-103.847,7.528c-32.745-10.473-60.1-32.259-77.532-61.622l26.788,9.213l6.13-17.822
					c20.12,27.95,52.029,43.753,84.957,44.495c16.651,0.376,33.567-3.099,49.344-10.8c23.273-11.362,41.655-30.732,51.759-54.542
					c10.005-23.574,11.295-49.935,3.633-74.229l-0.664-2.107l-35.508,17.334l23.115-67.207l34.674,11.926l0,0l32.531,11.189
					l-25.634,12.514l0.574,1.604C526.403,256.234,496.172,330.404,432.069,361.696z"/>
			</g>
			<g>
				
					<linearGradient id="SVGID_00000015347261216977664560000003977957149707153847_" gradientUnits="userSpaceOnUse" x1="360.9598" y1="146.5199" x2="360.9598" y2="220.6803">
					<stop  offset="0" style="stop-color:#0E052B"/>
					<stop  offset="1" style="stop-color:#27078A"/>
				</linearGradient>
				<circle style="fill:url(#SVGID_00000015347261216977664560000003977957149707153847_);" cx="360.96" cy="190.949" r="20.456"/>
				
					<linearGradient id="SVGID_00000140011101665831495860000005184937448420317599_" gradientUnits="userSpaceOnUse" x1="375.4168" y1="406.6959" x2="375.4168" y2="195.4048">
					<stop  offset="0" style="stop-color:#FFEFB4"/>
					<stop  offset="1" style="stop-color:#FF9F33"/>
				</linearGradient>
				<path style="fill:url(#SVGID_00000140011101665831495860000005184937448420317599_);" d="M449.453,331.034
					c0,0-24.279-51.891-26.183-53.795c-1.904-1.904-1.751-41.025-6.988-56.259c-2.566-7.465-27.591-12.323-29.374-12.403
					c0,0-6.25-5.951-5.171-12.063l-18.689-1.158c0,0,0,13.33-5.713,13.33c-5.713,0-25.707,0-30.944,15.234
					c-5.237,15.234-4.761,51.415-6.665,53.319c-1.904,1.904-18.949,57.111-18.949,57.111s-12.18,21.19-5.991,31.187
					c0,0,1.709,0.33,2.524-2.012c0,0,0.704,3.097,2.287,4.2c0.485,0.337,1.161,0.054,1.234-0.532
					c0.164-1.309,0.314-4.122-0.304-9.064c-0.916-7.332-0.185-9.723,0.957-10.286c2.616-1.288,2.749,5.092,1.935,7.23
					c-0.814,2.138,1.222,4.073,3.768-1.018c2.546-5.091,1.222-14.46,0.509-17.209c0,0,19.242-37.938,25.759-52.092
					c6.517-14.154,11.097-36.421,11.097-36.421s4.178,29.191,3.057,37.847c-1.12,8.656-7.41,16.395-8.155,27.586h0
					c21.472,10.503,46.59,10.511,68.069,0.022l0.045-0.022c-2.993-16.198-6.94-18.276-9.357-27.48
					c-1.844-7.024-0.108-29.279,2.598-37.119c1.254,4.985,5.158,27.825,8.732,35.588c6.517,14.154,32.993,48.776,32.993,48.776
					c-0.713,2.749-2.036,12.118,0.509,17.209c2.546,5.092,4.582,3.157,3.768,1.018c-0.815-2.138-0.848-8.1,1.935-7.23
					c3.126,0.978,0.33,16.867-0.402,18.866c-0.245,0.671,0.537,1.271,1.107,0.84c1.815-1.37,3.469-4.025,3.469-4.025
					c0.815,2.342,3.198,2.721,3.198,2.721C462.306,352.933,449.453,331.034,449.453,331.034z"/>
				<path style="opacity:0.48;fill:#CC7309;" d="M372.579,204.777c3.629,0,6.892-1.978,9.197-5.129
					c-0.183-1.02-0.227-2.073-0.04-3.134l-18.689-1.158c0,0-0.001,1.509-0.218,3.51
					C365.147,202.476,368.654,204.777,372.579,204.777z"/>
				<path style="fill:#FFFFFF;" d="M372.638,304.477c0,0.63-0.51,1.14-1.14,1.14c-0.63,0-1.14-0.511-1.14-1.14
					c0-0.63,0.511-1.14,1.14-1.14C372.127,303.337,372.638,303.847,372.638,304.477z"/>
				
					<linearGradient id="SVGID_00000158729239460113457160000005240826784874027695_" gradientUnits="userSpaceOnUse" x1="373.1444" y1="145.84" x2="373.1444" y2="202.7045">
					<stop  offset="0" style="stop-color:#FFEFB4"/>
					<stop  offset="1" style="stop-color:#FF9F33"/>
				</linearGradient>
				<path style="fill:url(#SVGID_00000158729239460113457160000005240826784874027695_);" d="M354.202,178.168
					c0,0,2.706,19.754,18.671,22.73c0,0,15.965-2.435,19.212-27.06c0,0-7.036-20.295-19.754-20.565S354.202,178.168,354.202,178.168
					z"/>
				
					<linearGradient id="SVGID_00000134935728352734125460000010013080271476758926_" gradientUnits="userSpaceOnUse" x1="373.6333" y1="126.6296" x2="373.6333" y2="228.8493">
					<stop  offset="0" style="stop-color:#0E052B"/>
					<stop  offset="1" style="stop-color:#27078A"/>
				</linearGradient>
				<path style="fill:url(#SVGID_00000134935728352734125460000010013080271476758926_);" d="M350.201,169.351
					c-0.272,8.192,2.141,18.673,9.2,32.032c0,0-6.723-21.811-1.11-25.106c0,0,1.45,2.421,5.977-10.749
					c0,0-0.366,13.995,23.098,12.108c0,0,3.726,17.573-7.387,22.512c0,0,15.417-4.784,16.96-25.986
					c0.093-1.275,0.14-2.506,0.145-3.694C397.211,140.031,351.214,138.931,350.201,169.351z"/>
				
					<linearGradient id="SVGID_00000032613968690376140970000001408779753547159961_" gradientUnits="userSpaceOnUse" x1="393.7591" y1="420.3722" x2="356.7368" y2="285.0218">
					<stop  offset="0" style="stop-color:#0E052B"/>
					<stop  offset="1" style="stop-color:#27078A"/>
				</linearGradient>
				<path style="fill:url(#SVGID_00000032613968690376140970000001408779753547159961_);" d="M413.608,334.657
					c-1.283-7.639-3.202-15.198-6.041-21.84l-2.568,0.327c-21.768,2.768-43.806,2.658-65.546-0.327l0,0
					c0,0-3.131,9.686-4.361,24.571c-0.795,9.623-0.787,21.417,1.373,34.19c11.021,2.803,22.23,4.238,33.415,4.316l3.966-25.379
					c0.182,0.003,0.361,0.016,0.545,0.016c0.666,0,1.321-0.026,1.967-0.068l5.056,25.034c11.723-0.896,23.334-3.286,34.582-7.151
					C416.072,359.158,415.648,346.808,413.608,334.657z"/>
				<g>
					<g>
						
							<linearGradient id="SVGID_00000162327394341425044300000008291657031776966034_" gradientUnits="userSpaceOnUse" x1="348.2851" y1="336.4969" x2="343.1638" y2="318.359">
							<stop  offset="0" style="stop-color:#5E34FF"/>
							<stop  offset="1" style="stop-color:#0D96FF"/>
						</linearGradient>
						
							<line style="fill:none;stroke:url(#SVGID_00000162327394341425044300000008291657031776966034_);stroke-width:2.2295;stroke-linecap:round;stroke-linejoin:round;" x1="343.467" y1="319.432" x2="343.467" y2="319.432"/>
						
							<linearGradient id="SVGID_00000043442493340172210410000010934312363889412760_" gradientUnits="userSpaceOnUse" x1="378.0257" y1="328.0996" x2="372.9044" y2="309.9617">
							<stop  offset="0" style="stop-color:#5E34FF"/>
							<stop  offset="1" style="stop-color:#0D96FF"/>
						</linearGradient>
						
							<path style="fill:none;stroke:url(#SVGID_00000043442493340172210410000010934312363889412760_);stroke-width:2.2295;stroke-linecap:round;stroke-linejoin:round;stroke-dasharray:0,4.4473;" d="
							M347.891,319.889c18.452,1.753,37.079,1.599,55.498-0.475"/>
						
							<linearGradient id="SVGID_00000145762906045493153690000007736188819581067139_" gradientUnits="userSpaceOnUse" x1="405.9015" y1="320.2288" x2="400.7802" y2="302.0909">
							<stop  offset="0" style="stop-color:#5E34FF"/>
							<stop  offset="1" style="stop-color:#0D96FF"/>
						</linearGradient>
						
							<line style="fill:none;stroke:url(#SVGID_00000145762906045493153690000007736188819581067139_);stroke-width:2.2295;stroke-linecap:round;stroke-linejoin:round;" x1="405.599" y1="319.156" x2="405.599" y2="319.156"/>
					</g>
				</g>
				<g>
					
						<linearGradient id="SVGID_00000050631041065686661070000012896978206032825222_" gradientUnits="userSpaceOnUse" x1="333.1125" y1="207.798" x2="398.4375" y2="273.1229">
						<stop  offset="0" style="stop-color:#FF7B00"/>
						<stop  offset="1" style="stop-color:#FF4400"/>
					</linearGradient>
					<path style="fill:url(#SVGID_00000050631041065686661070000012896978206032825222_);" d="M335.181,212.463
						c-0.59,0.281-0.827,0.961-0.53,1.524c1.573,2.976,5.703,12.891,4.328,33.057c-0.324,4.743,1.056,7.275,3.702,11.301
						c2.713,4.127,4.851,11.283,0.448,22.436c-5.158,13.065,51.825,14.127,59.396,1.923c0,0-7.301-13.295,0.103-25.968
						c2.062-3.53,1.87-5.801,1.041-9.786c-2.048-9.841-4.796-27.499,0.269-34.271c0.216-0.288,0.067-0.696-0.281-0.82l-6.736-2.407
						c-0.275-0.098-0.584,0.012-0.716,0.263c-0.932,1.765-4.256,9.866-3.761,18.925c0.154,2.816-2.208,5.177-5.163,5.177h-32.467
						c-2.394,0-4.479-1.564-5.03-3.787c-1.544-6.221-5.324-18.538-8.396-20.042c-0.328-0.161-0.718-0.144-1.048,0.014
						L335.181,212.463z"/>
					
						<linearGradient id="SVGID_00000131357713673542549810000012900494616168455594_" gradientUnits="userSpaceOnUse" x1="347.5098" y1="258.2246" x2="393.6252" y2="304.34">
						<stop  offset="0" style="stop-color:#FF7B00"/>
						<stop  offset="1" style="stop-color:#FF4400"/>
					</linearGradient>
					<path style="fill:url(#SVGID_00000131357713673542549810000012900494616168455594_);" d="M345.008,274.65
						c-0.406,1.895-1.011,3.933-1.879,6.131c-5.158,13.065,51.825,14.127,59.396,1.923
						C365.137,291.782,347.85,277.357,345.008,274.65z"/>
				</g>
			</g>
		</g>
		<g>
			
				<linearGradient id="SVGID_00000143609018662403249670000012711338068246651301_" gradientUnits="userSpaceOnUse" x1="269.323" y1="179.8058" x2="225.3374" y2="24.0238">
				<stop  offset="0" style="stop-color:#FFEFB4"/>
				<stop  offset="1" style="stop-color:#FF9F33"/>
			</linearGradient>
			<path style="fill:url(#SVGID_00000143609018662403249670000012711338068246651301_);" d="M286.844,129.171
				c5.891-8.129,9.374-18.118,9.374-28.926c0-27.261-22.099-49.36-49.36-49.36c-27.26,0-49.36,22.099-49.36,49.36
				c0,27.261,22.099,49.36,49.36,49.36c9.509,0,18.385-2.695,25.92-7.354l18.93,5.072L286.844,129.171z"/>
			
				<linearGradient id="SVGID_00000013882156437075195730000000222062904449861004_" gradientUnits="userSpaceOnUse" x1="258.9996" y1="145.2476" x2="233.7127" y2="55.69">
				<stop  offset="0" style="stop-color:#5E34FF"/>
				<stop  offset="1" style="stop-color:#27078A"/>
			</linearGradient>
			<polygon style="fill:url(#SVGID_00000013882156437075195730000000222062904449861004_);" points="256.587,91.888 256.587,72.623 
				236.852,72.623 236.852,91.888 217.587,91.888 217.587,111.623 236.852,111.623 236.852,130.889 256.587,130.889 
				256.587,111.623 275.852,111.623 275.852,91.888 			"/>
		</g>
		<g>
			
				<linearGradient id="SVGID_00000007424810233848139100000002229336061278728874_" gradientUnits="userSpaceOnUse" x1="526.9792" y1="216.2529" x2="514.3132" y2="282.5061">
				<stop  offset="0" style="stop-color:#FFEFB4"/>
				<stop  offset="1" style="stop-color:#FF9F33"/>
			</linearGradient>
			<path style="fill:url(#SVGID_00000007424810233848139100000002229336061278728874_);" d="M479.641,286.623
				c-5.794-7.995-9.219-17.819-9.219-28.447c0-26.809,21.733-48.543,48.543-48.543c26.81,0,48.543,21.733,48.543,48.543
				s-21.733,48.543-48.543,48.543c-9.352,0-18.081-2.651-25.49-7.232l-18.616,4.988L479.641,286.623z"/>
			<g>
				
					<linearGradient id="SVGID_00000146470644944273600630000009925932753648844191_" gradientUnits="userSpaceOnUse" x1="629.5508" y1="274.4199" x2="620.1169" y2="241.0082" gradientTransform="matrix(-1 0 0 1 1145.0298 0)">
					<stop  offset="0" style="stop-color:#FFB94D"/>
					<stop  offset="1" style="stop-color:#FF7700"/>
				</linearGradient>
				<polygon style="fill:url(#SVGID_00000146470644944273600630000009925932753648844191_);" points="495.94,263.292 
					544.18,263.292 544.18,253.096 495.94,253.096 				"/>
				
					<linearGradient id="SVGID_00000137093836393053010200000005010375423351035544_" gradientUnits="userSpaceOnUse" x1="660.0496" y1="281.9225" x2="632.8048" y2="260.9953" gradientTransform="matrix(-1 0 0 1 1145.0298 0)">
					<stop  offset="0" style="stop-color:#FFB94D"/>
					<stop  offset="1" style="stop-color:#FF7700"/>
				</linearGradient>
				<polygon style="fill:url(#SVGID_00000137093836393053010200000005010375423351035544_);" points="495.94,256.857 
					544.18,256.857 544.18,253.096 495.94,253.096 				"/>
				<g>
					
						<linearGradient id="SVGID_00000096782163966739433760000010230697803575236012_" gradientUnits="userSpaceOnUse" x1="593.395" y1="225.4795" x2="605.7759" y2="290.9678" gradientTransform="matrix(-1 0 0 1 1145.0298 0)">
						<stop  offset="0" style="stop-color:#5E34FF"/>
						<stop  offset="1" style="stop-color:#27078A"/>
					</linearGradient>
					<path style="fill:url(#SVGID_00000096782163966739433760000010230697803575236012_);" d="M541.365,275.017h8.17
						c2.301,0,4.167-1.865,4.167-4.167v-25.313c0-2.301-1.865-4.167-4.167-4.167h-8.17c-2.301,0-4.167,1.865-4.167,4.167v25.313
						C537.198,273.152,539.064,275.017,541.365,275.017z"/>
					
						<linearGradient id="SVGID_00000057850937102863696450000016492851904733088165_" gradientUnits="userSpaceOnUse" x1="575.8716" y1="233.3026" x2="598.4318" y2="260.1757" gradientTransform="matrix(-1 0 0 1 1145.0298 0)">
						<stop  offset="0" style="stop-color:#5E34FF"/>
						<stop  offset="1" style="stop-color:#27078A"/>
					</linearGradient>
					<path style="fill:url(#SVGID_00000057850937102863696450000016492851904733088165_);" d="M549.052,241.371
						c2.568,0,4.649,1.672,4.649,3.734v26.178c0,2.062-2.082,3.734-4.649,3.734h-4.055v-33.646H549.052z"/>
				</g>
				<g>
					
						<linearGradient id="SVGID_00000083086615626746696280000012734863481854326656_" gradientUnits="userSpaceOnUse" x1="646.3657" y1="225.4795" x2="658.7466" y2="290.9678" gradientTransform="matrix(-1 0 0 1 1145.0298 0)">
						<stop  offset="0" style="stop-color:#5E34FF"/>
						<stop  offset="1" style="stop-color:#27078A"/>
					</linearGradient>
					<path style="fill:url(#SVGID_00000083086615626746696280000012734863481854326656_);" d="M488.394,275.017h8.17
						c2.301,0,4.167-1.865,4.167-4.167v-25.313c0-2.301-1.865-4.167-4.167-4.167h-8.17c-2.301,0-4.166,1.865-4.166,4.167v25.313
						C484.228,273.152,486.093,275.017,488.394,275.017z"/>
					
						<linearGradient id="SVGID_00000166649038174959349240000000069916963857315999_" gradientUnits="userSpaceOnUse" x1="628.8423" y1="233.3027" x2="651.4025" y2="260.1757" gradientTransform="matrix(-1 0 0 1 1145.0298 0)">
						<stop  offset="0" style="stop-color:#5E34FF"/>
						<stop  offset="1" style="stop-color:#27078A"/>
					</linearGradient>
					<path style="fill:url(#SVGID_00000166649038174959349240000000069916963857315999_);" d="M496.082,241.371
						c2.568,0,4.649,1.672,4.649,3.734v26.178c0,2.062-2.081,3.734-4.649,3.734h-4.055v-33.646H496.082z"/>
				</g>
			</g>
		</g>
		<g>
			
				<linearGradient id="SVGID_00000098916247976817150610000013749794696247001254_" gradientUnits="userSpaceOnUse" x1="239.057" y1="518.2676" x2="235.2665" y2="317.3671">
				<stop  offset="0" style="stop-color:#FFEFB4"/>
				<stop  offset="1" style="stop-color:#FF9F33"/>
			</linearGradient>
			<path style="fill:url(#SVGID_00000098916247976817150610000013749794696247001254_);" d="M275.127,346.417
				c-7.671-8.678-18.041-15.112-30.209-17.83c-30.692-6.857-61.131,12.465-67.988,43.157c-6.857,30.692,12.465,61.131,43.157,67.988
				c30.692,6.857,61.131-12.465,67.988-43.157c2.392-10.706,1.59-21.378-1.76-31.032l10.472-20.036L275.127,346.417z"/>
			<g>
				<g>
					<g>
						<rect x="214.091" y="347.691" style="fill:#FFEFD7;" width="32.688" height="11.014"/>
						<g>
							
								<linearGradient id="SVGID_00000160872877400657213060000006636029129302265508_" gradientUnits="userSpaceOnUse" x1="197.8649" y1="328.1415" x2="230.3906" y2="369.2398">
								<stop  offset="0" style="stop-color:#FFEFB4"/>
								<stop  offset="1" style="stop-color:#FF9F33"/>
							</linearGradient>
							
								<rect x="216.291" y="347.691" style="fill:url(#SVGID_00000160872877400657213060000006636029129302265508_);" width="2.806" height="11.014"/>
							
								<linearGradient id="SVGID_00000115486026312944107960000008409775457357341344_" gradientUnits="userSpaceOnUse" x1="202.961" y1="328.1415" x2="235.4867" y2="369.2398">
								<stop  offset="0" style="stop-color:#FFEFB4"/>
								<stop  offset="1" style="stop-color:#FF9F33"/>
							</linearGradient>
							
								<rect x="221.387" y="347.691" style="fill:url(#SVGID_00000115486026312944107960000008409775457357341344_);" width="2.806" height="11.014"/>
							
								<linearGradient id="SVGID_00000103223031116727510850000011744952518204249488_" gradientUnits="userSpaceOnUse" x1="208.0571" y1="328.1415" x2="240.5828" y2="369.2398">
								<stop  offset="0" style="stop-color:#FFEFB4"/>
								<stop  offset="1" style="stop-color:#FF9F33"/>
							</linearGradient>
							
								<rect x="226.484" y="347.691" style="fill:url(#SVGID_00000103223031116727510850000011744952518204249488_);" width="2.806" height="11.014"/>
							
								<linearGradient id="SVGID_00000087413909984415835580000017273047203860334238_" gradientUnits="userSpaceOnUse" x1="213.1535" y1="328.1417" x2="245.6789" y2="369.2397">
								<stop  offset="0" style="stop-color:#FFEFB4"/>
								<stop  offset="1" style="stop-color:#FF9F33"/>
							</linearGradient>
							
								<rect x="231.58" y="347.691" style="fill:url(#SVGID_00000087413909984415835580000017273047203860334238_);" width="2.806" height="11.014"/>
							
								<linearGradient id="SVGID_00000101095717431141340630000010972111007250507175_" gradientUnits="userSpaceOnUse" x1="218.2496" y1="328.1417" x2="250.775" y2="369.2397">
								<stop  offset="0" style="stop-color:#FFEFB4"/>
								<stop  offset="1" style="stop-color:#FF9F33"/>
							</linearGradient>
							
								<rect x="236.676" y="347.691" style="fill:url(#SVGID_00000101095717431141340630000010972111007250507175_);" width="2.806" height="11.014"/>
							
								<linearGradient id="SVGID_00000094618061601908773150000012152670084898740918_" gradientUnits="userSpaceOnUse" x1="223.3457" y1="328.1417" x2="255.8711" y2="369.2397">
								<stop  offset="0" style="stop-color:#FFEFB4"/>
								<stop  offset="1" style="stop-color:#FF9F33"/>
							</linearGradient>
							
								<rect x="241.772" y="347.691" style="fill:url(#SVGID_00000094618061601908773150000012152670084898740918_);" width="2.806" height="11.014"/>
						</g>
					</g>
					
						<linearGradient id="SVGID_00000159429787856769429130000004651804187321155748_" gradientUnits="userSpaceOnUse" x1="192.5774" y1="348.2477" x2="270.5327" y2="426.203">
						<stop  offset="0" style="stop-color:#FF7B00"/>
						<stop  offset="1" style="stop-color:#FF4400"/>
					</linearGradient>
					<path style="fill:url(#SVGID_00000159429787856769429130000004651804187321155748_);" d="M250.897,415.429h-40.924
						c-2.239,0-4.055-1.815-4.055-4.055v-50.538c0-2.239,1.815-4.055,4.055-4.055h40.924c2.239,0,4.055,1.815,4.055,4.055v50.538
						C254.951,413.613,253.136,415.429,250.897,415.429z"/>
					<g>
						
							<linearGradient id="SVGID_00000178196570491748109100000012317095158524515726_" gradientUnits="userSpaceOnUse" x1="221.5653" y1="386.7744" x2="254.9513" y2="386.7744">
							<stop  offset="0" style="stop-color:#FFEFB4"/>
							<stop  offset="1" style="stop-color:#FF9F33"/>
						</linearGradient>
						
							<rect x="221.565" y="367.236" style="fill:url(#SVGID_00000178196570491748109100000012317095158524515726_);" width="33.386" height="39.077"/>
						
							<linearGradient id="SVGID_00000054241666742431984060000007496887434806514866_" gradientUnits="userSpaceOnUse" x1="221.5653" y1="386.7744" x2="254.9513" y2="386.7744">
							<stop  offset="0" style="stop-color:#5E34FF"/>
							<stop  offset="1" style="stop-color:#27078A"/>
						</linearGradient>
						
							<rect x="221.565" y="382.603" style="fill:url(#SVGID_00000054241666742431984060000007496887434806514866_);" width="33.386" height="8.342"/>
					</g>
				</g>
				<g>
					<path style="fill:#FFFAF3;" d="M267.066,403.607c-2.271,2.271-5.953,2.271-8.223,0c-2.271-2.271-2.271-5.953,0-8.224
						c2.271-2.271,5.953-2.271,8.223,0C269.337,397.654,269.337,401.336,267.066,403.607z"/>
					
						<linearGradient id="SVGID_00000143577163111362192510000016501130230710995846_" gradientUnits="userSpaceOnUse" x1="286.8453" y1="315.0021" x2="298.9849" y2="339.2811" gradientTransform="matrix(0.7071 0.7071 -0.7071 0.7071 291.4481 -51.8228)">
						<stop  offset="0" style="stop-color:#FFEFB4"/>
						<stop  offset="1" style="stop-color:#FF9F33"/>
					</linearGradient>
					<path style="fill:url(#SVGID_00000143577163111362192510000016501130230710995846_);" d="M267.066,395.383
						c-0.283-0.283-0.587-0.53-0.908-0.742l-8.057,8.057c0.212,0.321,0.46,0.626,0.742,0.908c0.283,0.283,0.587,0.53,0.908,0.742
						l8.057-8.057C267.596,395.971,267.349,395.666,267.066,395.383z"/>
				</g>
				<g>
					<path style="fill:#FFFAF3;" d="M271.632,377.736c1.214,2.973-0.213,6.367-3.186,7.581c-2.973,1.214-6.367-0.213-7.581-3.186
						c-1.213-2.973,0.213-6.367,3.186-7.581C267.024,373.336,270.418,374.762,271.632,377.736z"/>
					
						<linearGradient id="SVGID_00000046329292357668082580000013186224783414997941_" gradientUnits="userSpaceOnUse" x1="218.2053" y1="364.9167" x2="230.3453" y2="389.1967" gradientTransform="matrix(0.9258 -0.3779 0.3779 0.9258 -94.0828 106.6622)">
						<stop  offset="0" style="stop-color:#FFEFB4"/>
						<stop  offset="1" style="stop-color:#FF9F33"/>
					</linearGradient>
					<path style="fill:url(#SVGID_00000046329292357668082580000013186224783414997941_);" d="M264.051,374.549
						c-0.37,0.151-0.716,0.336-1.036,0.55l4.306,10.55c0.378-0.071,0.755-0.181,1.125-0.332c0.37-0.151,0.716-0.336,1.036-0.55
						l-4.306-10.55C264.798,374.288,264.421,374.398,264.051,374.549z"/>
				</g>
			</g>
		</g>
		
			<linearGradient id="SVGID_00000172422618218324616630000003690990002549704855_" gradientUnits="userSpaceOnUse" x1="248.2259" y1="270.7808" x2="220.1321" y2="215.717">
			<stop  offset="0" style="stop-color:#FFEFB4"/>
			<stop  offset="1" style="stop-color:#FF9F33"/>
		</linearGradient>
		<path style="fill:url(#SVGID_00000172422618218324616630000003690990002549704855_);" d="M226.164,242.318
			c-8.15,0-14.78-6.63-14.78-14.78s6.63-14.78,14.78-14.78c8.15,0,14.78,6.63,14.78,14.78S234.313,242.318,226.164,242.318z
			 M226.164,215.582c-6.593,0-11.956,5.364-11.956,11.956c0,6.592,5.364,11.956,11.956,11.956c6.592,0,11.956-5.364,11.956-11.956
			C238.12,220.946,232.756,215.582,226.164,215.582z"/>
		
			<linearGradient id="SVGID_00000074414306176723577700000013550569821017935769_" gradientUnits="userSpaceOnUse" x1="449.0214" y1="331.8112" x2="501.3837" y2="384.1735">
			<stop  offset="0" style="stop-color:#FFEFB4"/>
			<stop  offset="1" style="stop-color:#FF9F33"/>
		</linearGradient>
		<path style="fill:url(#SVGID_00000074414306176723577700000013550569821017935769_);" d="M484.176,383.824
			c-9.296,0-16.859-7.563-16.859-16.858c0-9.296,7.563-16.859,16.859-16.859c9.296,0,16.858,7.563,16.858,16.859
			C501.034,376.261,493.472,383.824,484.176,383.824z M484.176,353.328c-7.52,0-13.638,6.118-13.638,13.638
			c0,7.52,6.118,13.638,13.638,13.638c7.52,0,13.638-6.118,13.638-13.638C497.813,359.445,491.695,353.328,484.176,353.328z"/>
		
			<linearGradient id="SVGID_00000073685885092571064040000005148679331884659625_" gradientUnits="userSpaceOnUse" x1="329.5215" y1="89.204" x2="364.203" y2="123.8855">
			<stop  offset="0" style="stop-color:#FFEFB4"/>
			<stop  offset="1" style="stop-color:#FF9F33"/>
		</linearGradient>
		<path style="fill:url(#SVGID_00000073685885092571064040000005148679331884659625_);" d="M352.805,123.654
			c-6.157,0-11.166-5.009-11.166-11.166c0-6.157,5.009-11.166,11.166-11.166c6.157,0,11.166,5.009,11.166,11.166
			C363.971,118.645,358.962,123.654,352.805,123.654z M352.805,103.455c-4.981,0-9.033,4.052-9.033,9.033
			c0,4.981,4.052,9.033,9.033,9.033c4.981,0,9.033-4.052,9.033-9.033C361.838,107.507,357.786,103.455,352.805,103.455z"/>
		
			<linearGradient id="SVGID_00000056391033552244365540000007128969849837094067_" gradientUnits="userSpaceOnUse" x1="348.9605" y1="117.0318" x2="420.3251" y2="188.3964">
			<stop  offset="0" style="stop-color:#FFEFB4"/>
			<stop  offset="1" style="stop-color:#FF9F33"/>
		</linearGradient>
		<path style="fill:url(#SVGID_00000056391033552244365540000007128969849837094067_);" d="M422.43,198.282
			c-4.29,0-7.781-3.49-7.781-7.781c0-4.29,3.49-7.781,7.781-7.781s7.781,3.491,7.781,7.781
			C430.211,194.792,426.721,198.282,422.43,198.282z M422.43,184.207c-3.471,0-6.294,2.824-6.294,6.294
			c0,3.471,2.824,6.294,6.294,6.294c3.471,0,6.294-2.824,6.294-6.294C428.724,187.031,425.901,184.207,422.43,184.207z"/>
		<g>
			<g>
				
					<linearGradient id="SVGID_00000008854563247357847900000000849910672858221214_" gradientUnits="userSpaceOnUse" x1="467.451" y1="-29.2937" x2="487.013" y2="-7.2022" gradientTransform="matrix(0.7071 -0.7071 0.7071 0.7071 148.0983 416.0422)">
					<stop  offset="0" style="stop-color:#FFEFB4"/>
					<stop  offset="1" style="stop-color:#FF9F33"/>
				</linearGradient>
				<path style="fill:url(#SVGID_00000008854563247357847900000000849910672858221214_);" d="M459.352,55.236
					c0,0,1.017,8.177,6.689,13.848c5.671,5.671,13.849,6.689,13.849,6.689s-1.018-8.177-6.689-13.848
					C467.53,56.254,459.352,55.236,459.352,55.236z"/>
				
					<linearGradient id="SVGID_00000083773778706863601410000006438957398996370081_" gradientUnits="userSpaceOnUse" x1="460.5414" y1="-34.6547" x2="478.7542" y2="-17.1163" gradientTransform="matrix(0.7071 -0.7071 0.7071 0.7071 148.0983 416.0422)">
					<stop  offset="0" style="stop-color:#FFEFB4"/>
					<stop  offset="1" style="stop-color:#FF9F33"/>
				</linearGradient>
				<path style="fill:url(#SVGID_00000083773778706863601410000006438957398996370081_);" d="M459.352,55.236l20.537,20.537
					c0,0-1.018-8.177-6.689-13.848C467.53,56.254,459.352,55.236,459.352,55.236z"/>
			</g>
			
				<linearGradient id="SVGID_00000122678286070137093430000007825879195596781744_" gradientUnits="userSpaceOnUse" x1="476.5175" y1="68.0056" x2="490.6165" y2="82.1046">
				<stop  offset="0" style="stop-color:#5E34FF"/>
				<stop  offset="1" style="stop-color:#27078A"/>
			</linearGradient>
			<path style="fill:url(#SVGID_00000122678286070137093430000007825879195596781744_);" d="M480.303,88.527
				c-0.305-0.571-0.53-1.075-0.759-1.621c-0.223-0.538-0.429-1.082-0.612-1.634c-0.371-1.102-0.673-2.229-0.897-3.377
				c-0.457-2.294-0.596-4.674-0.401-7.056c0.202-2.382,0.778-4.753,1.685-7.004c0.928-2.24,2.177-4.351,3.661-6.263l0.006-0.008
				c0.827-1.066,2.362-1.259,3.428-0.432c1.066,0.827,1.259,2.362,0.432,3.428c-0.053,0.068-0.111,0.135-0.169,0.196
				c-1.398,1.454-2.606,3.075-3.574,4.841c-0.944,1.775-1.641,3.696-2.031,5.708c-0.382,2.011-0.492,4.104-0.302,6.194
				c0.091,1.045,0.254,2.089,0.483,3.12c0.112,0.516,0.246,1.028,0.395,1.533c0.146,0.495,0.324,1.025,0.497,1.454l0.021,0.053
				c0.212,0.528-0.044,1.127-0.572,1.339C481.103,89.195,480.548,88.982,480.303,88.527z"/>
			<g>
				<g>
					
						<linearGradient id="SVGID_00000121964498458820850860000013493433413900342412_" gradientUnits="userSpaceOnUse" x1="439.9152" y1="61.624" x2="519.5729" y2="133.8717">
						<stop  offset="0" style="stop-color:#FF7B00"/>
						<stop  offset="1" style="stop-color:#FF4400"/>
					</linearGradient>
					<path style="fill:url(#SVGID_00000121964498458820850860000013493433413900342412_);" d="M498.084,80.256
						c-10.285,2.727-20.975,2.727-31.26,0c-22.562-5.981-27.303,27.208-4.634,45.844c10.26,8.435,30.269,8.435,40.529,0
						C525.346,107.497,520.695,74.261,498.084,80.256z"/>
					
						<linearGradient id="SVGID_00000043436742481197820420000005258322325566925232_" gradientUnits="userSpaceOnUse" x1="445.3951" y1="59.6936" x2="515.7635" y2="123.5161">
						<stop  offset="0" style="stop-color:#FF7B00"/>
						<stop  offset="1" style="stop-color:#FF4400"/>
					</linearGradient>
					<path style="opacity:0.55;fill:url(#SVGID_00000043436742481197820420000005258322325566925232_);" d="M466.824,84.008
						c10.285,2.727,20.975,2.727,31.26,0c11.778-3.122,18.679,4.401,19.394,14.955c0.812-12.434-6.26-22.189-19.394-18.707
						c-10.285,2.727-20.975,2.727-31.26,0c-13.116-3.477-20.206,6.284-19.394,18.726C448.146,88.42,455.061,80.89,466.824,84.008z"
						/>
				</g>
				
					<linearGradient id="SVGID_00000138537393291743883780000014409612913682673572_" gradientUnits="userSpaceOnUse" x1="505.403" y1="101.4513" x2="520.5355" y2="116.5838">
					<stop  offset="0" style="stop-color:#FF7B00"/>
					<stop  offset="1" style="stop-color:#FF4400"/>
				</linearGradient>
				<path style="fill:url(#SVGID_00000138537393291743883780000014409612913682673572_);" d="M502.26,92.878
					c0,2.999-2.431,5.43-5.43,5.43c-2.999,0-5.43-2.431-5.43-5.43c0-2.999,2.431-5.43,5.43-5.43
					C499.829,87.448,502.26,89.88,502.26,92.878z"/>
				
					<linearGradient id="SVGID_00000105389173004512769740000017050202550057698488_" gradientUnits="userSpaceOnUse" x1="473.6314" y1="111.2402" x2="478.9301" y2="116.5388">
					<stop  offset="0" style="stop-color:#FF7B00"/>
					<stop  offset="1" style="stop-color:#FF4400"/>
				</linearGradient>
				<circle style="fill:url(#SVGID_00000105389173004512769740000017050202550057698488_);" cx="470.629" cy="108.238" r="1.901"/>
			</g>
		</g>
		<g>
			
				<linearGradient id="SVGID_00000114071951607029266890000000164367966803882143_" gradientUnits="userSpaceOnUse" x1="95.1308" y1="112.2737" x2="194.1334" y2="240.8034">
				<stop  offset="0" style="stop-color:#5E34FF"/>
				<stop  offset="1" style="stop-color:#0D96FF"/>
			</linearGradient>
			<path style="fill:url(#SVGID_00000114071951607029266890000000164367966803882143_);" d="M194.755,177.054v-4.513
				c0-1.014-0.822-1.835-1.835-1.835h-16.795c-1.014,0-1.835,0.822-1.835,1.835v4.513l-5.489,5.997
				c-4.19,4.578-6.514,10.558-6.514,16.764v66.616c0,4.411,3.576,7.987,7.987,7.987h28.497c4.411,0,7.987-3.576,7.987-7.987v-66.616
				c0-6.206-2.324-12.186-6.514-16.764L194.755,177.054z"/>
			
				<linearGradient id="SVGID_00000012442035149948026210000012251764463419842208_" gradientUnits="userSpaceOnUse" x1="155.9607" y1="196.2936" x2="224.5899" y2="250.5824">
				<stop  offset="0" style="stop-color:#5E34FF"/>
				<stop  offset="1" style="stop-color:#0D96FF"/>
			</linearGradient>
			<path style="fill:url(#SVGID_00000012442035149948026210000012251764463419842208_);" d="M206.758,266.432v-66.616
				c0-6.206-2.324-12.186-6.514-16.764l-5.49-5.997v-4.513c0-1.014-0.822-1.835-1.835-1.835h-8.14v103.713h13.992
				C203.182,274.419,206.758,270.843,206.758,266.432z"/>
			
				<linearGradient id="SVGID_00000065769712689076776980000014674507842694208933_" gradientUnits="userSpaceOnUse" x1="207.2368" y1="145.7985" x2="186.1745" y2="166.8609">
				<stop  offset="0" style="stop-color:#5E34FF"/>
				<stop  offset="1" style="stop-color:#0D96FF"/>
			</linearGradient>
			<path style="fill:url(#SVGID_00000065769712689076776980000014674507842694208933_);" d="M195.788,172.573h-22.531
				c-1.066,0-1.931-0.865-1.931-1.931v-4.259c0-1.066,0.864-1.931,1.931-1.931h22.531c1.066,0,1.931,0.864,1.931,1.931v4.259
				C197.718,171.709,196.854,172.573,195.788,172.573z"/>
			
				<linearGradient id="SVGID_00000134222746087001245180000014953954481975165354_" gradientUnits="userSpaceOnUse" x1="169.8167" y1="219.0413" x2="202.5925" y2="251.8171">
				<stop  offset="0" style="stop-color:#FFFFFF"/>
				<stop  offset="1" style="stop-color:#A1D6FF"/>
			</linearGradient>
			
				<rect x="162.286" y="210.217" style="fill:url(#SVGID_00000134222746087001245180000014953954481975165354_);" width="44.472" height="47.061"/>
			<g>
				
					<linearGradient id="SVGID_00000120531200551651742000000001500455897745935540_" gradientUnits="userSpaceOnUse" x1="155.9508" y1="224.7501" x2="198.3912" y2="267.1906">
					<stop  offset="0" style="stop-color:#FF7B00"/>
					<stop  offset="1" style="stop-color:#FF4400"/>
				</linearGradient>
				
					<rect x="162.286" y="252.262" style="fill:url(#SVGID_00000120531200551651742000000001500455897745935540_);" width="44.472" height="2.119"/>
				
					<linearGradient id="SVGID_00000101077491866974340290000001436547971654298757_" gradientUnits="userSpaceOnUse" x1="155.9507" y1="185.6004" x2="198.3913" y2="228.041">
					<stop  offset="0" style="stop-color:#FF7B00"/>
					<stop  offset="1" style="stop-color:#FF4400"/>
				</linearGradient>
				
					<rect x="162.286" y="213.113" style="fill:url(#SVGID_00000101077491866974340290000001436547971654298757_);" width="44.472" height="2.119"/>
			</g>
			
				<linearGradient id="SVGID_00000028294828386504139790000012281559888522933902_" gradientUnits="userSpaceOnUse" x1="172.7474" y1="221.9719" x2="229.9022" y2="279.1267">
				<stop  offset="0" style="stop-color:#FFFFFF"/>
				<stop  offset="1" style="stop-color:#A1D6FF"/>
			</linearGradient>
			<circle style="fill:url(#SVGID_00000028294828386504139790000012281559888522933902_);" cx="184.522" cy="233.747" r="14.054"/>
		</g>
		<g>
			<polygon style="fill:#FFFFFF;" points="551.856,186.902 540.661,186.902 535.063,196.598 540.661,206.293 551.856,206.293 
				557.454,196.598 			"/>
			<polygon style="fill:#FFFFFF;" points="571.003,195.426 576.601,185.73 571.003,176.035 559.808,176.035 554.211,185.73 
				559.808,195.426 			"/>
			<polygon style="fill:#FFFFFF;" points="559.808,197.77 554.211,207.465 559.808,217.161 571.003,217.161 576.601,207.465 
				571.003,197.77 			"/>
		</g>
		<g>
			<polygon style="fill:#FFFFFF;" points="328.088,406.202 328.088,414.758 335.498,419.036 342.907,414.758 342.907,406.202 
				335.498,401.924 			"/>
			<polygon style="fill:#FFFFFF;" points="334.602,391.568 327.192,387.29 319.782,391.568 319.782,400.124 327.192,404.402 
				334.602,400.124 			"/>
			<polygon style="fill:#FFFFFF;" points="336.393,400.124 343.803,404.402 351.213,400.124 351.213,391.568 343.803,387.29 
				336.393,391.568 			"/>
		</g>
		<g>
			<polygon style="fill:#FFFFFF;" points="159.965,143.161 159.965,149.513 165.466,152.689 170.967,149.513 170.967,143.161 
				165.466,139.985 			"/>
			<polygon style="fill:#FFFFFF;" points="164.801,132.297 159.3,129.121 153.799,132.297 153.799,138.649 159.3,141.825 
				164.801,138.649 			"/>
			<polygon style="fill:#FFFFFF;" points="166.131,138.649 171.632,141.825 177.133,138.649 177.133,132.297 171.632,129.121 
				166.131,132.297 			"/>
		</g>
	</g>
</g>
</svg>
