<?xml version="1.0" encoding="UTF-8"?>
<svg xmlns="http://www.w3.org/2000/svg" width="100" height="100" viewBox="0 0 100 100">
  <path d="M 43.455 2.918 L 35.864 4.509 L 26.963 8.223 L 18.848 13.793 L 12.042 20.955 L 8.639 25.995 L 6.021 31.300 L 4.188 36.605 L 2.618 44.297 L 2.880 56.499 L 4.974 64.987 L 8.639 72.944 L 13.874 80.371 L 20.942 87.003 L 26.440 90.716 L 30.628 92.838 L 37.958 95.491 L 45.026 96.817 L 55.497 96.817 L 64.136 94.960 L 72.513 91.512 L 81.414 85.411 L 87.958 78.515 L 91.623 72.944 L 95.550 63.660 L 97.120 55.968 L 96.859 43.236 L 95.026 35.544 L 90.838 26.260 L 86.387 19.894 L 78.010 11.936 L 68.325 6.366 L 62.304 4.244 L 52.618 2.653 Z M 46.073 6.366 L 52.880 6.366 L 61.780 7.958 L 67.016 9.814 L 70.681 11.671 L 78.010 16.711 L 83.246 22.016 L 87.696 28.382 L 91.361 36.340 L 93.455 45.623 L 93.455 55.438 L 92.147 62.069 L 88.743 70.557 L 84.031 77.454 L 78.534 83.024 L 71.728 87.798 L 62.304 91.777 L 53.927 93.369 L 46.597 93.369 L 38.743 92.042 L 32.199 89.655 L 23.037 84.085 L 16.492 77.719 L 11.780 71.088 L 9.424 66.313 L 7.592 61.008 L 6.283 53.846 L 6.283 45.358 L 7.592 38.196 L 11.257 29.178 L 15.707 22.546 L 21.728 16.446 L 29.058 11.406 L 37.435 7.958 Z" fill="#2c148f" fill-rule="evenodd"/>
  <path d="M 48.429 55.703 L 48.168 55.438 L 45.288 55.438 L 45.026 55.172 L 43.455 55.172 L 43.194 55.438 L 40.052 55.438 L 39.791 55.703 L 38.743 55.703 L 38.482 55.968 L 37.696 55.968 L 37.435 56.233 L 36.649 56.233 L 36.387 56.499 L 35.864 56.499 L 35.602 56.764 L 35.079 56.764 L 34.293 57.294 L 33.770 57.294 L 32.984 57.825 L 32.461 57.825 L 31.937 58.355 L 31.675 58.355 L 31.414 58.621 L 31.152 58.621 L 30.890 58.886 L 30.105 59.151 L 29.581 59.682 L 28.796 59.947 L 28.010 60.743 L 27.749 60.743 L 26.963 61.538 L 26.702 61.538 L 25.654 62.599 L 25.393 62.599 L 21.990 66.048 L 21.990 66.313 L 21.204 67.109 L 21.466 67.374 L 21.728 67.109 L 22.251 67.109 L 22.513 66.844 L 23.037 66.844 L 24.346 66.048 L 24.869 66.048 L 25.131 65.782 L 25.393 65.782 L 26.702 64.987 L 27.225 64.987 L 27.487 64.721 L 27.749 64.721 L 28.534 64.191 L 29.058 64.191 L 30.366 63.395 L 30.890 63.395 L 31.152 63.130 L 31.675 63.130 L 32.461 62.599 L 32.984 62.599 L 33.770 62.069 L 34.293 62.069 L 35.079 61.538 L 35.602 61.538 L 36.387 61.008 L 36.911 61.008 L 37.696 60.477 L 38.220 60.477 L 39.005 59.947 L 39.529 59.947 L 40.314 59.416 L 40.838 59.416 L 41.099 59.151 L 41.361 59.151 L 42.147 58.621 L 42.670 58.621 L 42.932 58.355 L 43.194 58.355 L 44.503 57.560 L 45.026 57.560 L 45.288 57.294 L 45.550 57.294 L 45.812 57.029 L 46.073 57.029 L 46.335 56.764 L 46.597 56.764 L 46.859 56.499 L 47.120 56.499 Z" fill="#2c148f"/><path d="M 68.586 41.114 L 68.063 40.318 L 64.921 37.401 L 61.780 35.809 L 61.257 35.809 L 59.424 35.013 L 56.545 34.748 L 56.283 34.483 L 50.785 34.483 L 50.524 34.748 L 48.691 34.748 L 48.429 35.013 L 47.120 35.013 L 46.859 35.279 L 46.073 35.279 L 45.812 35.544 L 45.026 35.544 L 44.764 35.809 L 42.670 36.340 L 40.052 37.666 L 39.529 37.666 L 37.958 38.727 L 37.173 38.992 L 34.817 40.584 L 33.770 41.645 L 33.508 41.645 L 30.628 44.562 L 28.534 47.745 L 29.058 48.011 L 30.628 46.684 L 32.199 45.889 L 32.984 45.093 L 36.911 42.971 L 37.435 42.971 L 38.743 42.175 L 39.267 42.175 L 40.314 41.645 L 41.099 41.645 L 41.361 41.379 L 42.932 41.114 L 43.194 40.849 L 44.503 40.849 L 44.764 40.584 L 51.309 40.584 L 51.571 40.849 L 52.618 40.849 L 52.880 41.114 L 54.450 41.379 L 55.236 41.910 L 55.759 41.910 L 57.330 42.706 L 59.162 44.297 L 59.424 44.297 L 62.304 47.745 L 64.398 45.889 L 64.660 45.889 L 67.801 42.706 L 67.801 42.440 L 68.586 41.645 Z" fill="#2c148f"/><path d="M 72.513 32.361 L 71.990 32.361 L 72.513 32.891 L 72.251 36.870 L 70.157 42.706 L 68.586 45.093 L 63.613 50.133 L 57.330 54.642 L 49.215 58.886 L 31.152 66.313 L 31.414 66.578 L 36.911 65.517 L 46.859 62.865 L 57.330 58.886 L 62.827 55.968 L 63.351 56.764 L 61.518 59.151 L 56.283 64.191 L 49.215 68.966 L 39.791 73.210 L 40.576 73.475 L 47.906 71.618 L 53.665 69.496 L 59.424 66.578 L 64.921 62.599 L 68.063 59.151 L 70.157 55.703 L 71.466 51.459 L 71.466 48.011 L 73.560 44.297 L 74.084 42.175 L 74.084 37.931 L 73.037 33.687 L 72.251 32.626 Z" fill="#2c148f"/><path d="M 59.948 18.833 L 59.686 19.098 L 58.377 19.098 L 58.115 19.363 L 57.853 19.363 L 57.592 19.629 L 57.330 19.629 L 56.021 20.955 L 56.021 21.220 L 55.759 21.485 L 55.759 21.751 L 55.497 22.016 L 55.497 22.546 L 55.236 22.812 L 55.236 25.729 L 55.497 25.995 L 55.497 26.525 L 55.759 26.790 L 55.759 27.056 L 56.021 27.321 L 56.021 27.586 L 57.592 29.178 L 57.853 29.178 L 58.115 29.443 L 58.377 29.443 L 58.639 29.708 L 59.424 29.708 L 59.686 29.973 L 60.471 29.973 L 60.733 29.708 L 61.518 29.708 L 61.780 29.443 L 62.304 29.443 L 62.827 28.912 L 63.089 28.912 L 63.874 28.117 L 63.874 27.851 L 64.136 27.586 L 64.136 27.321 L 64.398 27.056 L 64.398 26.790 L 64.660 26.525 L 64.660 25.729 L 64.921 25.464 L 64.921 23.607 L 64.660 23.342 L 64.660 22.546 L 64.398 22.281 L 64.398 21.751 L 63.874 21.220 L 63.874 20.955 L 62.565 19.629 L 62.304 19.629 L 62.042 19.363 L 61.780 19.363 L 61.518 19.098 L 60.209 19.098 Z" fill="#2c148f"/>
</svg>
