<?xml version="1.0" encoding="utf-8"?>
<svg
  xmlns="http://www.w3.org/2000/svg"
  viewBox="300 170 120 170"
  width="120"
  height="170"
  aria-hidden="true"
>
<g> <path style="fill:#FFCC00;" d="M328.372,266.241l-1.063-5.552h0.354l1.063,5.434h-0.118c-3.78,15.237,11.93,21.025,15.828,26.341 l-1.181,30.357h2.835l-1.063-30.357c3.898-5.433,19.49-11.103,15.828-26.341h-0.236l1.181-5.434h0.354l-1.181,5.552l-0.118-0.118 c-3.898,7.442-13.229,4.607-15.356,13.702c-0.118,0.827-0.472,2.126-0.827,3.544c-0.236-1.417-0.591-2.717-0.827-3.544 c-1.536-7.323-8.741-7.323-12.166-10.04c-2.008-1.536-3.071-3.662-3.071-3.662L328.372,266.241z M338.531,195.842 c0,3.898,2.953,7.796,6.142,10.513c3.307-2.717,6.26-6.615,6.26-10.513c0-5.315-6.26-7.56-6.26-16.773 C344.673,188.283,338.531,190.527,338.531,195.842L338.531,195.842z M354.831,201.039h-0.236c0,0-1.063,2.126-2.953,3.544 c-1.772,1.417-5.079,4.252-6.969,6.497c-1.181-2.244-5.079-5.079-6.851-6.497c-2.008-1.417-3.071-3.544-3.071-3.544 c-2.599,10.631,4.252,15.946,9.922,19.962c5.788-4.016,12.521-9.331,9.922-19.962h-0.118l1.063-5.552l0.354,0.118L354.831,201.039 z M334.633,201.039l-1.181-5.433l0.354-0.118l1.181,5.552H334.633z M359.202,212.261h-0.236 c3.307,13.584-8.859,19.608-14.292,24.569c-5.433-4.961-17.6-10.985-14.292-24.569h0.236l-1.181-5.552l-0.236,0.118l1.063,5.433 h0.118c0,0,1.063,2.008,3.071,3.544c2.953,2.244,8.505,3.78,11.221,8.268c2.835-4.489,8.387-6.024,11.339-8.268 c1.89-1.536,2.953-3.544,2.953-3.544h-0.118l1.063-5.552l0.354,0.118L359.202,212.261z M360.973,228.207h-0.118 c0,0-1.063,2.008-3.071,3.544c-3.544,2.717-10.631,2.717-12.284,10.04c-0.118,0.827-0.472,2.244-0.827,3.662 c-0.236-1.417-0.591-2.835-0.827-3.662c-1.536-7.323-8.741-7.323-12.166-10.04c-2.008-1.536-3.071-3.544-3.071-3.544h0.118 l-1.063-5.552l-0.354,0.118l1.063,5.433h0.236c-3.78,15.237,12.048,21.025,15.946,26.341h0.354 c3.898-5.315,19.608-11.103,15.946-26.341h-0.236l1.181-5.552l0.354,0.118L360.973,228.207z M360.973,246.87h-0.118 c0,0-1.063,2.008-3.071,3.544c-3.544,2.717-10.631,2.717-12.284,10.04c-0.118,0.827-0.472,2.244-0.827,3.544 c-0.236-1.299-0.591-2.717-0.827-3.544c-1.536-7.323-8.741-7.323-12.166-10.04c-2.008-1.536-3.071-3.544-3.071-3.544h-0.236 l-1.063-5.552h0.354l1.063,5.434l-0.118,0.118c-3.78,15.237,12.048,20.907,15.946,26.341h0.354 c3.898-5.434,19.608-11.103,15.946-26.341l-0.236-0.118l1.181-5.434h0.354L360.973,246.87z"/> <path style="fill:#DD8600;" d="M344.673,322.821h1.417l-1.063-30.357c3.898-5.433,19.49-11.103,15.828-26.341h-0.236l1.181-5.434 h0.354l-1.181,5.552l-0.118-0.118c-3.898,7.442-13.229,4.607-15.356,13.702c-0.118,0.827-0.472,2.126-0.827,3.544V322.821z M344.673,273.21v-9.213c0.354-1.299,0.709-2.717,0.827-3.544c1.654-7.323,8.741-7.323,12.284-10.04 c2.008-1.536,3.071-3.544,3.071-3.544h0.118l1.181-5.552H361.8l-1.181,5.434l0.236,0.118 c3.662,15.237-12.048,20.907-15.946,26.341H344.673z M344.673,254.548v-9.095c0.354-1.417,0.709-2.835,0.827-3.662 c1.654-7.323,8.741-7.323,12.284-10.04c2.008-1.536,3.071-3.544,3.071-3.544h0.118l1.181-5.433l-0.354-0.118l-1.181,5.552h0.236 c3.662,15.237-12.048,21.025-15.946,26.341H344.673z M344.673,236.83v-12.757c2.835-4.489,8.387-6.024,11.339-8.268 c1.89-1.536,2.953-3.544,2.953-3.544h-0.118l1.063-5.552l0.354,0.118l-1.063,5.433h-0.236 C362.273,225.845,350.106,231.869,344.673,236.83L344.673,236.83z M344.673,221.002v-9.922c1.89-2.244,5.197-5.079,6.969-6.497 c1.89-1.417,2.953-3.544,2.953-3.544h0.236l1.063-5.433l-0.354-0.118l-1.063,5.552h0.118 C357.193,211.67,350.461,216.986,344.673,221.002L344.673,221.002z M344.673,206.355v-27.286c0,9.213,6.26,11.458,6.26,16.773 C350.933,199.74,347.98,203.638,344.673,206.355L344.673,206.355z"/> </g>
</svg>
