<svg xmlns="http://www.w3.org/2000/svg"
     viewBox="1100 350 520 770"
     aria-hidden="true" role="img">
  <path fill="#f4db34"
        d="M1500.702,1047.114c-0.395,0.349-0.792,0.698-1.189,1.045
        c-80.383,70.193-203.82,70.193-284.219,0.015c-0.404-0.352-0.806-0.706-1.207-1.06c-60.523-53.506-93.764-133.91-87.806-212.432
        c7.363-97.1,69.283-181.413,126.529-262.013c45.304-63.798,90.32-133.129,104.589-207.477
        c14.26,74.348,59.285,143.679,104.589,207.477c57.237,80.6,119.166,164.912,126.529,262.013
        C1594.466,913.203,1561.226,993.608,1500.702,1047.114z"/>
  <path fill="#f39112"
        d="M1500.7,1047.118c-0.391,0.349-0.793,0.698-1.185,1.037
        c-40.192,35.103-91.154,52.654-142.115,52.654V365.191c14.261,74.353,59.288,143.681,104.59,207.476
        c57.235,80.606,119.168,164.914,126.531,262.013C1594.466,913.202,1561.225,993.606,1500.7,1047.118z"/>
</svg>
