<?xml version="1.0" encoding="UTF-8"?>
<svg xmlns="http://www.w3.org/2000/svg" width="423" height="532" viewBox="0 0 423 532">
<rect width="100%" height="100%" fill="none"/>
<g fill="#2c148f" stroke="none">
  <path d="M 333.00 446.00 L 333.00 447.00 L 334.00 448.00 L 334.00 450.00 L 335.00 451.00 L 335.00 453.00 L 337.00 456.00 L 337.00 458.00 L 338.00 459.00 L 338.00 461.00 L 340.00 464.00 L 340.00 466.00 L 341.00 467.00 L 341.00 469.00 L 343.00 472.00 L 343.00 474.00 L 344.00 475.00 L 344.00 477.00 L 353.00 477.00 L 353.00 476.00 L 354.00 475.00 L 354.00 473.00 L 355.00 472.00 L 355.00 470.00 L 356.00 469.00 L 356.00 467.00 L 357.00 466.00 L 357.00 464.00 L 358.00 463.00 L 358.00 461.00 L 359.00 460.00 L 359.00 458.00 L 360.00 457.00 L 361.00 458.00 L 361.00 460.00 L 363.00 463.00 L 363.00 465.00 L 364.00 466.00 L 364.00 468.00 L 365.00 469.00 L 365.00 471.00 L 367.00 474.00 L 367.00 476.00 L 368.00 477.00 L 377.00 477.00 L 377.00 475.00 L 378.00 474.00 L 378.00 472.00 L 379.00 471.00 L 379.00 469.00 L 380.00 468.00 L 380.00 466.00 L 381.00 465.00 L 381.00 463.00 L 382.00 462.00 L 382.00 460.00 L 383.00 459.00 L 383.00 457.00 L 384.00 456.00 L 384.00 454.00 L 385.00 453.00 L 385.00 452.00 L 386.00 451.00 L 386.00 449.00 L 387.00 448.00 L 387.00 446.00 L 379.00 446.00 L 379.00 447.00 L 378.00 448.00 L 378.00 450.00 L 377.00 451.00 L 377.00 454.00 L 376.00 455.00 L 376.00 457.00 L 375.00 458.00 L 375.00 460.00 L 373.00 463.00 L 373.00 466.00 L 372.00 467.00 L 371.00 466.00 L 371.00 464.00 L 369.00 461.00 L 369.00 459.00 L 368.00 458.00 L 368.00 456.00 L 367.00 455.00 L 367.00 453.00 L 365.00 450.00 L 365.00 447.00 L 364.00 446.00 L 356.00 446.00 L 356.00 448.00 L 355.00 449.00 L 355.00 451.00 L 354.00 452.00 L 354.00 454.00 L 353.00 455.00 L 353.00 457.00 L 352.00 458.00 L 352.00 460.00 L 351.00 461.00 L 351.00 463.00 L 350.00 464.00 L 350.00 466.00 L 349.00 467.00 L 348.00 466.00 L 348.00 464.00 L 347.00 463.00 L 347.00 461.00 L 346.00 460.00 L 346.00 458.00 L 345.00 457.00 L 345.00 455.00 L 343.00 452.00 L 343.00 450.00 L 342.00 449.00 L 342.00 448.00 L 341.00 447.00 L 341.00 446.00 L 340.00 445.00 L 339.00 446.00 Z" fill-rule="evenodd"/>
  <path d="M 300.00 448.00 L 296.00 452.00 L 296.00 453.00 L 295.00 454.00 L 295.00 455.00 L 294.00 456.00 L 294.00 459.00 L 293.00 460.00 L 293.00 463.00 L 294.00 464.00 L 294.00 467.00 L 295.00 468.00 L 295.00 469.00 L 297.00 471.00 L 297.00 472.00 L 299.00 474.00 L 300.00 474.00 L 301.00 475.00 L 302.00 475.00 L 303.00 476.00 L 304.00 476.00 L 305.00 477.00 L 308.00 477.00 L 309.00 478.00 L 317.00 478.00 L 318.00 477.00 L 320.00 477.00 L 321.00 476.00 L 322.00 476.00 L 323.00 475.00 L 324.00 475.00 L 329.00 470.00 L 329.00 469.00 L 330.00 468.00 L 330.00 467.00 L 331.00 466.00 L 331.00 456.00 L 330.00 455.00 L 330.00 454.00 L 329.00 453.00 L 329.00 452.00 L 325.00 448.00 L 324.00 448.00 L 323.00 447.00 L 322.00 447.00 L 321.00 446.00 L 319.00 446.00 L 318.00 445.00 L 307.00 445.00 L 306.00 446.00 L 304.00 446.00 L 303.00 447.00 L 302.00 447.00 L 301.00 448.00 Z M 309.00 451.00 L 316.00 451.00 L 317.00 452.00 L 318.00 452.00 L 322.00 456.00 L 322.00 457.00 L 323.00 458.00 L 323.00 465.00 L 322.00 466.00 L 322.00 467.00 L 319.00 470.00 L 318.00 470.00 L 317.00 471.00 L 316.00 471.00 L 315.00 472.00 L 311.00 472.00 L 310.00 471.00 L 308.00 471.00 L 307.00 470.00 L 306.00 470.00 L 303.00 467.00 L 303.00 466.00 L 302.00 465.00 L 302.00 457.00 L 304.00 455.00 L 304.00 454.00 L 305.00 453.00 L 306.00 453.00 L 307.00 452.00 L 308.00 452.00 Z" fill-rule="evenodd"/>
  <path d="M 235.00 445.00 L 234.00 445.00 L 233.00 446.00 L 226.00 446.00 L 226.00 447.00 L 225.00 448.00 L 225.00 450.00 L 224.00 451.00 L 224.00 452.00 L 223.00 453.00 L 223.00 454.00 L 222.00 455.00 L 222.00 457.00 L 221.00 458.00 L 221.00 459.00 L 220.00 460.00 L 220.00 461.00 L 219.00 462.00 L 219.00 463.00 L 218.00 464.00 L 218.00 466.00 L 216.00 468.00 L 215.00 467.00 L 215.00 465.00 L 214.00 464.00 L 214.00 463.00 L 213.00 462.00 L 213.00 461.00 L 212.00 460.00 L 212.00 459.00 L 211.00 458.00 L 211.00 456.00 L 210.00 455.00 L 210.00 454.00 L 209.00 453.00 L 209.00 452.00 L 208.00 451.00 L 208.00 449.00 L 207.00 448.00 L 207.00 447.00 L 205.00 445.00 L 204.00 446.00 L 199.00 446.00 L 198.00 445.00 L 197.00 446.00 L 198.00 447.00 L 198.00 448.00 L 199.00 449.00 L 199.00 450.00 L 200.00 451.00 L 200.00 452.00 L 201.00 453.00 L 201.00 454.00 L 202.00 455.00 L 202.00 456.00 L 203.00 457.00 L 203.00 458.00 L 204.00 459.00 L 204.00 461.00 L 205.00 462.00 L 205.00 463.00 L 206.00 464.00 L 206.00 465.00 L 207.00 466.00 L 207.00 467.00 L 208.00 468.00 L 208.00 470.00 L 209.00 471.00 L 209.00 472.00 L 210.00 473.00 L 210.00 474.00 L 211.00 475.00 L 211.00 477.00 L 212.00 478.00 L 212.00 479.00 L 211.00 480.00 L 211.00 481.00 L 210.00 482.00 L 210.00 483.00 L 209.00 484.00 L 209.00 485.00 L 208.00 486.00 L 208.00 488.00 L 206.00 490.00 L 206.00 491.00 L 215.00 491.00 L 215.00 489.00 L 216.00 488.00 L 216.00 487.00 L 217.00 486.00 L 217.00 485.00 L 218.00 484.00 L 218.00 483.00 L 219.00 482.00 L 219.00 481.00 L 220.00 480.00 L 220.00 478.00 L 221.00 477.00 L 221.00 476.00 L 222.00 475.00 L 222.00 474.00 L 223.00 473.00 L 223.00 471.00 L 224.00 470.00 L 224.00 469.00 L 225.00 468.00 L 225.00 467.00 L 226.00 466.00 L 226.00 465.00 L 227.00 464.00 L 227.00 462.00 L 228.00 461.00 L 228.00 460.00 L 229.00 459.00 L 229.00 458.00 L 230.00 457.00 L 230.00 456.00 L 231.00 455.00 L 231.00 454.00 L 232.00 453.00 L 232.00 452.00 L 233.00 451.00 L 233.00 450.00 L 234.00 449.00 L 234.00 448.00 L 235.00 447.00 Z" fill-rule="evenodd"/>
  <path d="M 119.00 449.00 L 118.00 450.00 L 118.00 451.00 L 116.00 453.00 L 116.00 454.00 L 115.00 455.00 L 115.00 457.00 L 114.00 458.00 L 114.00 466.00 L 115.00 467.00 L 115.00 468.00 L 116.00 469.00 L 116.00 470.00 L 121.00 475.00 L 122.00 475.00 L 123.00 476.00 L 124.00 476.00 L 125.00 477.00 L 128.00 477.00 L 129.00 478.00 L 137.00 478.00 L 138.00 477.00 L 141.00 477.00 L 142.00 476.00 L 143.00 476.00 L 145.00 474.00 L 146.00 474.00 L 149.00 471.00 L 149.00 470.00 L 150.00 469.00 L 150.00 468.00 L 151.00 467.00 L 151.00 464.00 L 152.00 463.00 L 152.00 459.00 L 151.00 458.00 L 151.00 456.00 L 150.00 455.00 L 150.00 453.00 L 144.00 447.00 L 143.00 447.00 L 142.00 446.00 L 140.00 446.00 L 139.00 445.00 L 127.00 445.00 L 126.00 446.00 L 124.00 446.00 L 123.00 447.00 L 122.00 447.00 L 120.00 449.00 Z M 127.00 452.00 L 128.00 452.00 L 129.00 451.00 L 136.00 451.00 L 137.00 452.00 L 138.00 452.00 L 139.00 453.00 L 140.00 453.00 L 142.00 455.00 L 142.00 456.00 L 143.00 457.00 L 143.00 459.00 L 144.00 460.00 L 144.00 462.00 L 143.00 463.00 L 143.00 466.00 L 138.00 471.00 L 135.00 471.00 L 134.00 472.00 L 131.00 472.00 L 130.00 471.00 L 128.00 471.00 L 127.00 470.00 L 126.00 470.00 L 123.00 467.00 L 123.00 465.00 L 122.00 464.00 L 122.00 458.00 L 123.00 457.00 L 123.00 456.00 Z" fill-rule="evenodd"/>
  <path d="M 279.00 430.00 L 279.00 477.00 L 287.00 477.00 L 287.00 468.00 L 288.00 467.00 L 288.00 455.00 L 287.00 454.00 L 287.00 445.00 L 288.00 444.00 L 288.00 434.00 L 287.00 433.00 L 288.00 432.00 L 288.00 431.00 L 287.00 430.00 Z" fill-rule="evenodd"/>
  <path d="M 273.00 430.00 L 240.00 430.00 L 240.00 477.00 L 248.00 477.00 L 248.00 460.00 L 249.00 459.00 L 271.00 459.00 L 271.00 452.00 L 267.00 452.00 L 266.00 451.00 L 249.00 451.00 L 248.00 450.00 L 248.00 438.00 L 249.00 437.00 L 273.00 437.00 Z" fill-rule="evenodd"/>
  <path d="M 193.00 430.00 L 185.00 430.00 L 185.00 447.00 L 184.00 448.00 L 182.00 446.00 L 181.00 446.00 L 180.00 445.00 L 168.00 445.00 L 167.00 446.00 L 166.00 446.00 L 165.00 447.00 L 164.00 447.00 L 163.00 448.00 L 162.00 448.00 L 159.00 451.00 L 159.00 452.00 L 158.00 453.00 L 158.00 454.00 L 157.00 455.00 L 157.00 457.00 L 156.00 458.00 L 156.00 465.00 L 157.00 466.00 L 157.00 468.00 L 158.00 469.00 L 158.00 470.00 L 159.00 471.00 L 159.00 472.00 L 161.00 474.00 L 162.00 474.00 L 164.00 476.00 L 165.00 476.00 L 166.00 477.00 L 169.00 477.00 L 170.00 478.00 L 177.00 478.00 L 178.00 477.00 L 180.00 477.00 L 181.00 476.00 L 182.00 476.00 L 184.00 474.00 L 185.00 475.00 L 185.00 477.00 L 193.00 477.00 Z M 169.00 452.00 L 171.00 452.00 L 172.00 451.00 L 178.00 451.00 L 179.00 452.00 L 181.00 452.00 L 184.00 455.00 L 184.00 456.00 L 185.00 457.00 L 185.00 465.00 L 184.00 466.00 L 184.00 467.00 L 180.00 471.00 L 178.00 471.00 L 177.00 472.00 L 172.00 472.00 L 171.00 471.00 L 170.00 471.00 L 169.00 470.00 L 168.00 470.00 L 166.00 468.00 L 166.00 467.00 L 165.00 466.00 L 165.00 464.00 L 164.00 463.00 L 164.00 459.00 L 165.00 458.00 L 165.00 457.00 L 166.00 456.00 L 166.00 455.00 Z" fill-rule="evenodd"/>
  <path d="M 71.00 430.00 L 71.00 477.00 L 98.00 477.00 L 99.00 476.00 L 101.00 476.00 L 102.00 475.00 L 103.00 475.00 L 104.00 474.00 L 105.00 474.00 L 108.00 471.00 L 108.00 470.00 L 109.00 469.00 L 109.00 467.00 L 110.00 466.00 L 110.00 462.00 L 109.00 461.00 L 109.00 459.00 L 104.00 454.00 L 102.00 454.00 L 101.00 453.00 L 106.00 448.00 L 106.00 447.00 L 107.00 446.00 L 107.00 444.00 L 108.00 443.00 L 108.00 441.00 L 107.00 440.00 L 107.00 437.00 L 102.00 432.00 L 101.00 432.00 L 100.00 431.00 L 97.00 431.00 L 96.00 430.00 Z M 79.00 458.00 L 80.00 457.00 L 96.00 457.00 L 97.00 458.00 L 98.00 458.00 L 101.00 461.00 L 101.00 466.00 L 98.00 469.00 L 97.00 469.00 L 96.00 470.00 L 91.00 470.00 L 90.00 471.00 L 84.00 471.00 L 83.00 470.00 L 81.00 470.00 L 80.00 471.00 L 79.00 470.00 Z M 79.00 438.00 L 80.00 437.00 L 93.00 437.00 L 94.00 438.00 L 96.00 438.00 L 99.00 441.00 L 99.00 446.00 L 96.00 449.00 L 95.00 449.00 L 94.00 450.00 L 80.00 450.00 L 79.00 449.00 Z" fill-rule="evenodd"/>
  <path d="M 221.00 240.00 L 216.00 240.00 L 215.00 239.00 L 189.00 239.00 L 188.00 240.00 L 182.00 240.00 L 181.00 241.00 L 178.00 241.00 L 177.00 242.00 L 174.00 242.00 L 173.00 243.00 L 170.00 243.00 L 169.00 244.00 L 167.00 244.00 L 164.00 246.00 L 162.00 246.00 L 161.00 247.00 L 160.00 247.00 L 159.00 248.00 L 158.00 248.00 L 157.00 249.00 L 156.00 249.00 L 155.00 250.00 L 154.00 250.00 L 153.00 251.00 L 152.00 251.00 L 151.00 252.00 L 150.00 252.00 L 149.00 253.00 L 148.00 253.00 L 146.00 255.00 L 145.00 255.00 L 143.00 257.00 L 142.00 257.00 L 140.00 259.00 L 139.00 259.00 L 136.00 262.00 L 135.00 262.00 L 130.00 267.00 L 129.00 267.00 L 117.00 279.00 L 117.00 280.00 L 111.00 286.00 L 111.00 288.00 L 112.00 287.00 L 113.00 287.00 L 116.00 285.00 L 118.00 285.00 L 121.00 283.00 L 123.00 283.00 L 124.00 282.00 L 125.00 282.00 L 126.00 281.00 L 127.00 281.00 L 128.00 280.00 L 129.00 280.00 L 132.00 278.00 L 134.00 278.00 L 135.00 277.00 L 136.00 277.00 L 139.00 275.00 L 141.00 275.00 L 142.00 274.00 L 143.00 274.00 L 146.00 272.00 L 148.00 272.00 L 151.00 270.00 L 153.00 270.00 L 154.00 269.00 L 156.00 269.00 L 159.00 267.00 L 161.00 267.00 L 164.00 265.00 L 166.00 265.00 L 169.00 263.00 L 171.00 263.00 L 172.00 262.00 L 174.00 262.00 L 175.00 261.00 L 176.00 261.00 L 179.00 259.00 L 181.00 259.00 L 184.00 257.00 L 186.00 257.00 L 187.00 256.00 L 188.00 256.00 L 191.00 254.00 L 193.00 254.00 L 196.00 252.00 L 198.00 252.00 L 199.00 251.00 L 200.00 251.00 L 201.00 250.00 L 202.00 250.00 L 203.00 249.00 L 204.00 249.00 L 207.00 247.00 L 209.00 247.00 L 210.00 246.00 L 211.00 246.00 L 212.00 245.00 L 213.00 245.00 L 214.00 244.00 L 215.00 244.00 L 216.00 243.00 L 217.00 243.00 L 218.00 242.00 L 219.00 242.00 L 220.00 241.00 L 221.00 241.00 Z" fill-rule="evenodd"/>
  <path d="M 296.00 187.00 L 293.00 183.00 L 293.00 182.00 L 285.00 174.00 L 284.00 174.00 L 279.00 170.00 L 271.00 166.00 L 269.00 166.00 L 266.00 164.00 L 263.00 164.00 L 262.00 163.00 L 260.00 163.00 L 259.00 162.00 L 256.00 162.00 L 255.00 161.00 L 249.00 161.00 L 248.00 160.00 L 228.00 160.00 L 227.00 161.00 L 220.00 161.00 L 219.00 162.00 L 214.00 162.00 L 213.00 163.00 L 210.00 163.00 L 209.00 164.00 L 202.00 165.00 L 199.00 167.00 L 197.00 167.00 L 191.00 170.00 L 189.00 170.00 L 175.00 177.00 L 173.00 179.00 L 169.00 181.00 L 161.00 188.00 L 160.00 188.00 L 150.00 198.00 L 150.00 199.00 L 147.00 202.00 L 147.00 203.00 L 141.00 211.00 L 139.00 216.00 L 140.00 216.00 L 147.00 210.00 L 148.00 210.00 L 162.00 200.00 L 178.00 192.00 L 180.00 192.00 L 181.00 191.00 L 183.00 191.00 L 184.00 190.00 L 186.00 190.00 L 187.00 189.00 L 189.00 189.00 L 193.00 187.00 L 196.00 187.00 L 197.00 186.00 L 201.00 186.00 L 202.00 185.00 L 208.00 185.00 L 209.00 184.00 L 223.00 184.00 L 224.00 185.00 L 230.00 185.00 L 231.00 186.00 L 235.00 186.00 L 236.00 187.00 L 239.00 187.00 L 242.00 189.00 L 244.00 189.00 L 252.00 193.00 L 258.00 198.00 L 259.00 198.00 L 268.00 208.00 L 270.00 212.00 L 272.00 212.00 L 292.00 193.00 L 292.00 192.00 L 296.00 188.00 Z" fill-rule="evenodd"/>
  <path d="M 306.00 144.00 L 305.00 145.00 L 308.00 153.00 L 308.00 169.00 L 304.00 185.00 L 294.00 201.00 L 275.00 220.00 L 249.00 238.00 L 219.00 253.00 L 174.00 272.00 L 141.00 283.00 L 140.00 285.00 L 182.00 277.00 L 215.00 268.00 L 244.00 257.00 L 274.00 243.00 L 275.00 244.00 L 268.00 253.00 L 253.00 268.00 L 233.00 283.00 L 203.00 299.00 L 180.00 308.00 L 169.00 311.00 L 170.00 312.00 L 197.00 307.00 L 230.00 297.00 L 258.00 284.00 L 282.00 267.00 L 294.00 254.00 L 301.00 243.00 L 307.00 224.00 L 307.00 212.00 L 313.00 203.00 L 317.00 188.00 L 316.00 170.00 L 314.00 161.00 Z" fill-rule="evenodd"/>
  <path d="M 256.00 102.00 L 255.00 103.00 L 254.00 103.00 L 253.00 104.00 L 252.00 104.00 L 246.00 110.00 L 246.00 111.00 L 245.00 112.00 L 245.00 113.00 L 244.00 114.00 L 244.00 116.00 L 243.00 117.00 L 243.00 127.00 L 244.00 128.00 L 244.00 131.00 L 245.00 132.00 L 245.00 133.00 L 246.00 134.00 L 246.00 135.00 L 249.00 138.00 L 249.00 139.00 L 250.00 140.00 L 251.00 140.00 L 253.00 142.00 L 254.00 142.00 L 255.00 143.00 L 257.00 143.00 L 258.00 144.00 L 268.00 144.00 L 269.00 143.00 L 270.00 143.00 L 271.00 142.00 L 272.00 142.00 L 273.00 141.00 L 274.00 141.00 L 277.00 138.00 L 277.00 137.00 L 279.00 135.00 L 279.00 134.00 L 280.00 133.00 L 280.00 131.00 L 281.00 130.00 L 281.00 127.00 L 282.00 126.00 L 282.00 121.00 L 281.00 120.00 L 281.00 116.00 L 280.00 115.00 L 280.00 113.00 L 278.00 111.00 L 278.00 110.00 L 272.00 104.00 L 271.00 104.00 L 270.00 103.00 L 269.00 103.00 L 268.00 102.00 Z" fill-rule="evenodd"/>
  <path d="M 194.00 42.00 L 161.00 50.00 L 129.00 65.00 L 104.00 83.00 L 79.00 109.00 L 63.00 133.00 L 47.00 173.00 L 42.00 199.00 L 43.00 243.00 L 52.00 278.00 L 70.00 314.00 L 86.00 335.00 L 117.00 363.00 L 146.00 380.00 L 187.00 394.00 L 207.00 397.00 L 252.00 396.00 L 289.00 386.00 L 315.00 374.00 L 344.00 354.00 L 366.00 332.00 L 384.00 306.00 L 400.00 267.00 L 405.00 241.00 L 404.00 194.00 L 395.00 160.00 L 379.00 127.00 L 364.00 106.00 L 332.00 76.00 L 304.00 59.00 L 271.00 46.00 L 231.00 40.00 Z M 192.00 58.00 L 206.00 56.00 L 240.00 56.00 L 263.00 60.00 L 287.00 68.00 L 315.00 83.00 L 331.00 95.00 L 351.00 115.00 L 364.00 133.00 L 380.00 165.00 L 388.00 195.00 L 390.00 230.00 L 386.00 258.00 L 377.00 285.00 L 361.00 313.00 L 345.00 332.00 L 314.00 357.00 L 281.00 373.00 L 250.00 381.00 L 207.00 382.00 L 193.00 380.00 L 160.00 370.00 L 125.00 350.00 L 96.00 323.00 L 82.00 304.00 L 69.00 279.00 L 60.00 249.00 L 57.00 212.00 L 62.00 178.00 L 70.00 155.00 L 87.00 125.00 L 112.00 97.00 L 135.00 80.00 L 161.00 67.00 Z" fill-rule="evenodd"/>
</g></svg>