<?xml version="1.0" encoding="utf-8"?>
<!-- Generator: Adobe Illustrator 27.5.0, SVG Export Plug-In . SVG Version: 6.00 Build 0)  -->
<svg version="1.1" xmlns="http://www.w3.org/2000/svg" xmlns:xlink="http://www.w3.org/1999/xlink" x="0px" y="0px"
	 viewBox="0 0 3710 3710" style="enable-background:new 0 0 3710 3710;" xml:space="preserve">
<g id="Background">
	<g>
		<g>
			<rect style="fill:none;" width="3710" height="3710"/>
		</g>
	</g>
</g>
<g id="Illustration">
	<g>
		<linearGradient id="SVGID_1_" gradientUnits="userSpaceOnUse" x1="3531.356" y1="3711.6631" x2="1544.4058" y2="1596.5231">
			<stop  offset="0" style="stop-color:#2c148f"/>
			<stop  offset="1" style="stop-color:#4e31e2"/>
		</linearGradient>
		<path style="opacity:0.3;fill:url(#SVGID_1_);" d="M2934.776,2863.078c-73.35,75.607-138.981,120.051-189.23,153.603
			c-490.073,327.226-1050.28,232.912-1223.482,200.675c-279.44-52.01-515.326-88.7-717.995-271.803
			c-460.524-416.065-438.125-1284.007-86.228-1821.66c41.724-63.75,393.088-584.58,954.508-657.969
			c13.732-1.795,23.977-2.817,32.951-3.767c86.85-9.195,625.045-57.727,1063.888,309.936
			c62.819,52.629,163.911,147.558,257.657,292.342C3369.621,1593.825,3370.707,2413.737,2934.776,2863.078z"/>
		<g>
			
				<linearGradient id="SVGID_00000134951028035841861750000000498936230027182217_" gradientUnits="userSpaceOnUse" x1="2507.7041" y1="2261.709" x2="2600.3765" y2="3179.1648" gradientTransform="matrix(0.9813 -0.1923 0.1923 0.9813 -560.4363 -199.8294)">
				<stop  offset="0" style="stop-color:#41A362"/>
				<stop  offset="1" style="stop-color:#204F2E"/>
			</linearGradient>
			<path style="fill:url(#SVGID_00000134951028035841861750000000498936230027182217_);" d="M2879.5,2235.822
				c-0.565-10.008-1.911-19.836-4.79-29.457c-2.885-9.644-7.651-19.017-9.445-28.955c-1.663-9.215,2.106-17.146,5.596-25.505
				c3.967-9.501,7.09-18.739,8.639-28.97c3.073-20.302-1.325-40.864-8.716-59.751c-13.635-34.844-41.033-65.19-72.116-85.524
				c-14.946-9.777-31.475-17.804-48.537-23.119c-18.625-5.802-40.336-6.522-57.17-17.023c-15.112-9.427-26.014-24.556-39.673-35.844
				c-15.361-12.694-33.819-19.214-53.562-20.96c-19.393-1.715-38.889,1.219-58.278-0.694c-16.849-1.661-29.765-10.655-42.92-20.598
				c-28.917-21.857-57.962-41.065-95.504-28.478c-17.348,5.816-33.023,16.949-51.948,15.322c-19.779-1.701-37.709-5.26-57.707-3.132
				c-71.659,7.626-130.902,65.508-144.008,135.299c-0.795,4.236,0.304,8.361,2.528,11.913c-2.034,2.192-4.002,4.453-5.835,6.841
				c-20.667,26.937-26.941,63.342-18.877,96.005c9.322,37.76,33.113,66.758,61.026,92.587c6.825,6.315,14.352,13.087,17.726,21.994
				c3.417,9.02,1.959,19.4,0.739,28.694c-2.571,19.594-6.119,38.747,0.173,58.055c5.819,17.857,17.4,32.922,30.129,46.462
				c15.386,16.367,31.504,32.089,47.278,48.081c15.838,16.057,31.608,32.185,47.519,48.17c13.484,13.546,27.849,27.061,44.799,36.16
				c18.115,9.725,37.089,13.329,57.47,9.97c10.77-1.775,21.872-6.134,32.891-5.479c9.749,0.58,18.885,5.196,27.743,8.95
				c37.101,15.726,77.143,17.117,114.823,2.254c15.58-6.146,30.814-21.924,47.461-24.077c10.096-1.306,20.833,3.069,30.841,4.2
				c9.133,1.032,18.454,0.616,27.558-0.523c42.217-5.281,69.839-34.198,94.052-66.522c24.606-32.849,48.68-67.95,61.566-107.295
				C2877.197,2275.859,2880.631,2255.838,2879.5,2235.822z"/>
			
				<linearGradient id="SVGID_00000168091636590603456180000010489786170196554676_" gradientUnits="userSpaceOnUse" x1="2480.7971" y1="981.3362" x2="2159.1252" y2="2164.437" gradientTransform="matrix(0.9813 -0.1923 0.1923 0.9813 -560.4363 -199.8294)">
				<stop  offset="0" style="stop-color:#41A362"/>
				<stop  offset="1" style="stop-color:#204F2E"/>
			</linearGradient>
			<path style="fill:url(#SVGID_00000168091636590603456180000010489786170196554676_);" d="M1712.008,989.291
				c-38.124,74.363-20.169,158.842,7.28,233.277c15.917,43.162,37.35,81.232,82.057,99.019
				c36.918,14.688,77.989,24.063,117.369,28.873c79.894,9.757,166.347-4.231,229.773-56.962
				c16.454-13.679,31.551-29.373,43.311-47.294c1.599-2.437,3.663-5.29,5.168-8.018c6.49,2.622,17.399,5.491,17.955,5.634
				c28.187,7.281,54.852-1.25,74.887-19.057c8.448-1.201,16.627-7.653,16.564-18.494c-0.001-0.164-0.002-0.328-0.003-0.491
				c1.249-1.861,2.455-3.759,3.592-5.713c6.049-10.392,3.059-23.446-4.025-32.954c-1.083-49.458-5.388-98.683-26.084-144.678
				c-11.612-25.807-27.442-48.187-47.202-68.382c-19.621-20.053-42.379-37.17-60.13-59.002
				c-19.259-23.686-24.138-53.607-40.372-78.977c-12.245-19.136-31.703-33.914-53.082-41.441
				c-45.197-15.914-97.871-6.26-134.247,25.048c-31.687,27.272-51.136,64.058-62.054,103.593
				C1815.608,885.531,1743.487,927.888,1712.008,989.291z"/>
			
				<linearGradient id="SVGID_00000016039812815486106420000009096310884250243990_" gradientUnits="userSpaceOnUse" x1="-4488.2183" y1="870.5905" x2="-3443.7346" y2="3085.8135" gradientTransform="matrix(-0.9986 -0.0534 -0.0534 0.9986 -971.9475 -285.7507)">
				<stop  offset="0" style="stop-color:#41A362"/>
				<stop  offset="1" style="stop-color:#204F2E"/>
			</linearGradient>
			<path style="fill:url(#SVGID_00000016039812815486106420000009096310884250243990_);" d="M2418.436,1903.042
				c-1.887,64.26,22.402,125.332,71.006,167.954c34.143,29.941,77.687,48.562,122.395,47.642
				c11.217,61.724,46.131,118.436,100.528,152.208c61.309,38.062,137.601,43.7,204.407,17.557
				c34.121-13.353,63.395-26.23,100.439-29.253c33.669-2.748,67.741-2.224,101.055-8.493
				c65.632-12.352,121.156-57.476,135.895-124.36c11.616-52.719-5.367-106.571-42.154-143.568
				c85.374-83.603,104.941-221.846,28.395-321.162c-34.624-44.923-87.259-76.564-142.995-88.175
				c-43.548-55.663-104.03-96.968-178.927-88.591c-57.419,6.423-102.497,49.683-115.379,102.321
				c-49.606-17.705-106.309-15.067-155.82,3.311C2526.166,1635.389,2422.256,1772.977,2418.436,1903.042z"/>
			
				<linearGradient id="SVGID_00000114066190620430089060000004571941721681638805_" gradientUnits="userSpaceOnUse" x1="2577.0254" y1="2492.1511" x2="1894.3403" y2="1824.9108" gradientTransform="matrix(0.9813 -0.1923 0.1923 0.9813 -560.4363 -199.8294)">
				<stop  offset="0" style="stop-color:#41A362"/>
				<stop  offset="1" style="stop-color:#204F2E"/>
			</linearGradient>
			<path style="fill:url(#SVGID_00000114066190620430089060000004571941721681638805_);" d="M1576.556,1580.335
				c13.185,59.627,49.741,110.239,104.408,138.21c38.402,19.649,82.834,26.688,123.801,15.458
				c24.667,54.248,69.996,98.377,127.943,116.85c65.31,20.82,136.892,8.295,192.354-31.299c28.327-20.224,52.3-38.883,85.719-50.27
				c30.374-10.35,61.879-17.78,91.109-31.292c57.583-26.62,98.247-81.078,96.29-146.106c-1.543-51.257-29.693-96.915-72.169-122.449
				c59.221-96.833,45.139-228.711-48.432-302.413c-42.324-33.337-98.154-50.257-152.188-48.008
				c-53.039-41.157-118.34-65.156-185.382-40.046c-51.397,19.251-82.87,69.566-82.511,121.042
				c-49.803-4.788-101.419,10.81-142.755,39.237C1613.625,1308.784,1549.869,1459.647,1576.556,1580.335z"/>
			<g>
				
					<linearGradient id="SVGID_00000020400077827653639170000000033016001824696211_" gradientUnits="userSpaceOnUse" x1="3169.717" y1="1822.2334" x2="2168.8564" y2="2594.5037" gradientTransform="matrix(0.9813 -0.1923 0.1923 0.9813 -560.4363 -199.8294)">
					<stop  offset="0" style="stop-color:#41A362"/>
					<stop  offset="1" style="stop-color:#204F2E"/>
				</linearGradient>
				<path style="fill:url(#SVGID_00000020400077827653639170000000033016001824696211_);" d="M1905.19,1928.72
					c16.93,55.646,61.107,111.195,112.07,121.678c20.657,52.095,51.559,61.152,90.157,99.215
					c71.368,70.38,129.907,106.724,212.38,86.881c75.965-18.277,126.426-125.554,170.601-129.465s182.074,34.798,238.152,37.657
					c127.198,6.485,232.45-55.059,297.699-163.8c51.298-85.49,14.886-198.086,19.141-224.126s148.912-116.704,184.152-192.188
					c37.167-79.61,40.778-188.628-8.343-275.53c-24.32-43.025-67.08-77.426-105.405-104.033
					c-10.806-7.502-21.854-13.338-32.903-20.057c-9.338-5.679-9.015-9.442-9.336-20.428c-0.765-26.2-3.68-52.664-10.035-78.928
					c-25.514-105.437-87.292-191.866-176.53-237.619c-76.603-39.276-175.206-34.908-215.752-33.844
					c-40.546,1.064-64.172-81.723-167.513-93.011c-103.341-11.287-138.938,63.201-181.428,64.316
					c-183.118-56.523-300.231,43.561-351.705,123.524c-64.489,100.179-28.097,160.826-30.031,181.66
					c-12.315,37.739-80.119,49.206-109.109,63.665c-67.345,33.588-98.642,131.33-81.688,224.064
					c11.711,64.056,57.756,110.859,63.582,144.599c5.826,33.74-52.774,122.281-31.843,193.441
					c19.856,67.507,89.762,137.452,117.213,157.941C1926.169,1874.823,1897.537,1903.566,1905.19,1928.72z"/>
			</g>
			
				<linearGradient id="SVGID_00000126301354562156064880000014334899415146205603_" gradientUnits="userSpaceOnUse" x1="2633.1003" y1="1899.3529" x2="1806.8572" y2="2854.4597" gradientTransform="matrix(0.9813 -0.1923 0.1923 0.9813 -560.4363 -199.8294)">
				<stop  offset="0" style="stop-color:#41A362"/>
				<stop  offset="1" style="stop-color:#204F2E"/>
			</linearGradient>
			<path style="fill:url(#SVGID_00000126301354562156064880000014334899415146205603_);" d="M2396.389,2039.877
				c-428.216,75.407-1065.536,701.948-1065.536,701.948l-182.08-325.012c617.877-227.744,575.884-626.662,644.744-746.722
				c16.8-29.291,61.739-32.601,50.611,27.778c-40.485,219.674-92.739,353.067-92.739,353.067
				c248.053-172.121,343.076-334.232,448.142-518.495c0,0,47.877-32.646,35.418,28.072
				c-6.584,32.089-56.065,149.516-142.484,262.838c162.231-83.557,211.622-207.123,262.2-225.545
				c17.193-6.262,44.837,13.3,44.837,13.3s-214.532,289.166-570.215,534.519c0,0,370.688-225.621,518.339-241.787
				c27.418-2.628,31.829,21.971-1.447,44.796c0,0-80.001,30.041-187.184,97.361c140.688-30.295,167.544-41.402,216.533-51.005
				C2424.519,1985.387,2428.961,2016.927,2396.389,2039.877z"/>
			
				<linearGradient id="SVGID_00000088104901796942661160000012506708324471990145_" gradientUnits="userSpaceOnUse" x1="-3322.2195" y1="1446.4272" x2="-2272.896" y2="2636.8352" gradientTransform="matrix(-0.9813 0.1923 0.1923 0.9813 -1262.274 -62.3369)">
				<stop  offset="0" style="stop-color:#41A362"/>
				<stop  offset="1" style="stop-color:#204F2E"/>
			</linearGradient>
			<path style="fill:url(#SVGID_00000088104901796942661160000012506708324471990145_);" d="M1771.966,1364.079
				c17.007,29.296,38.775,58.28,68.123,76.208c15.284,9.336,32.094,15.828,49.92,18.074c9.515,1.199,19.08,0.739,28.594-0.268
				c10.029-1.061,23.15-5.812,33.131-3.6c17.305,3.836,33.092,20.534,50.298,26.754c14.985,5.417,31.473,8.366,47.399,8.518
				c37.227,0.354,73.895-11.612,102.998-35.011c14.552-11.7,24.768-26.451,34.921-41.84c10.667-16.168,26.958-10.188,44.201-14.947
				c41.544-11.466,68.681-48.813,85.828-86.147c24.018-52.294,31.613-129.342-8.422-174.739
				c19.678-36.772,6.861-86.253-24.33-115.157c-12.589-11.666-27.135-21.128-42.809-28.803
				c-6.486-28.053-24.504-52.677-52.938-65.442c-30.855-13.852-67.823-8.745-95.281,10.036
				c-75.145-65.794-186.271-81.819-275.885-32.321c-48.54,26.81-91.069,70.926-109.202,124.07
				c-14.818,43.427-6.85,92.897,26.213,121.955C1708.787,1220.137,1736.537,1303.049,1771.966,1364.079z"/>
			
				<linearGradient id="SVGID_00000103227588268378722930000018064574464979945862_" gradientUnits="userSpaceOnUse" x1="2794.5901" y1="2284.2832" x2="3297.7297" y2="4539.731" gradientTransform="matrix(0.9813 -0.1923 0.1923 0.9813 -560.4363 -199.8294)">
				<stop  offset="0" style="stop-color:#41A362"/>
				<stop  offset="1" style="stop-color:#204F2E"/>
			</linearGradient>
			<path style="fill:url(#SVGID_00000103227588268378722930000018064574464979945862_);" d="M2712.018,1597.314
				c-9.792,6.037-18.977,12.764-27.115,20.924c-8.157,8.179-15.014,18.11-24.065,25.349c-8.392,6.712-18.456,7.24-28.799,8.283
				c-11.757,1.186-22.786,3.079-33.958,7.105c-22.169,7.988-40.52,23.658-55.546,41.435c-27.72,32.794-43.384,77.023-46.927,119.502
				c-1.704,20.425-0.777,41.493,3.178,61.616c4.317,21.967,15.45,44.274,14.046,67c-1.26,20.402-10.575,39.668-14.507,59.621
				c-4.422,22.437-0.921,44.628,8.102,65.509c8.862,20.509,22.472,38.585,31.133,59.199c7.527,17.914,5.504,35.862,2.655,54.57
				c-6.265,41.124-9.787,80.931,23.424,111.947c15.346,14.332,35.145,24.072,43.84,44.063c9.087,20.892,15.289,40.933,28.36,59.954
				c46.839,68.16,137.619,96.337,215.218,71.444c4.71-1.511,8.273-4.874,10.643-9.059c3.323,0.855,6.68,1.607,10.092,2.152
				c38.476,6.146,78.646-7.407,107.209-33.387c33.019-30.034,49.292-69.885,60.114-112.167c2.646-10.338,5.369-21.634,12.516-29.905
				c7.237-8.375,18.511-12.574,28.557-16.419c21.181-8.108,42.449-14.989,58.5-31.885c14.845-15.627,23.724-35.545,30.437-55.787
				c8.115-24.469,15.179-49.324,22.703-73.98c7.555-24.756,15.219-49.482,22.661-74.272c6.306-21.009,12.101-42.889,12.026-64.966
				c-0.08-23.596-6.806-44.714-21.329-63.45c-7.674-9.901-18.138-18.725-23.496-30.204c-4.74-10.156-5.071-21.899-6.12-32.89
				c-4.393-46.035-24.862-87.21-60.444-117.121c-14.714-12.368-38.959-19.125-50.225-34.751
				c-6.832-9.476-8.282-22.703-12.607-33.422c-3.947-9.781-9.459-18.963-15.581-27.529c-28.39-39.725-72.663-51.808-118.514-58.59
				c-46.594-6.892-95.172-12.016-141.921-3.531C2753.686,1577.77,2731.603,1585.24,2712.018,1597.314z"/>
			
				<linearGradient id="SVGID_00000151524301888984738670000015314547644155056035_" gradientUnits="userSpaceOnUse" x1="2846.7905" y1="1964.3136" x2="1988.6459" y2="2915.2314" gradientTransform="matrix(0.9813 -0.1923 0.1923 0.9813 -560.4363 -199.8294)">
				<stop  offset="0" style="stop-color:#41A362"/>
				<stop  offset="1" style="stop-color:#204F2E"/>
			</linearGradient>
			<path style="fill:url(#SVGID_00000151524301888984738670000015314547644155056035_);" d="M2230.113,951.362
				c-50.718,42.989-80.883,103.903-80.044,170.754c0.589,46.962,16.384,93.323,48.01,127.065
				c-39.705,51.312-59.17,117.38-47.519,182.565c13.132,73.467,61.558,136.032,127.863,169.323
				c33.865,17.003,64.012,30.608,91.955,57.003c25.398,23.99,48.558,50.552,76.419,71.834
				c54.888,41.925,127.986,53.415,189.609,18.493c48.573-27.527,78.237-77.829,81.246-131.702
				c123.33,7.831,243.166-72.728,266.598-200.274c10.599-57.692-1.471-120.048-31.089-170.937
				c12.686-71.982,2.62-147.056-55.619-198.855c-44.649-39.711-109.089-44.456-158.474-17.959
				c-20.692-50.389-61.935-92.167-110.307-117.529C2510.43,849.099,2332.769,864.35,2230.113,951.362z"/>
			
				<linearGradient id="SVGID_00000013907877325147651560000016753348673670329762_" gradientUnits="userSpaceOnUse" x1="1228.6554" y1="2755.7917" x2="1216.0341" y2="3541.4993" gradientTransform="matrix(0.9813 -0.1923 0.1923 0.9813 -560.4363 -199.8294)">
				<stop  offset="0" style="stop-color:#41A362"/>
				<stop  offset="1" style="stop-color:#204F2E"/>
			</linearGradient>
			<path style="fill:url(#SVGID_00000013907877325147651560000016753348673670329762_);" d="M1148.773,2416.814
				c56.576-11.087,243.734,233.303,182.08,325.012C1269.198,2833.534,1037.097,2438.698,1148.773,2416.814z"/>
		</g>
		<g>
			
				<linearGradient id="SVGID_00000067235204266062538080000008320296947247419831_" gradientUnits="userSpaceOnUse" x1="1275.5973" y1="2329.3064" x2="1850.1815" y2="2329.3064" gradientTransform="matrix(0.9924 0.1229 -0.1229 0.9924 30.7885 -908.176)">
				<stop  offset="0" style="stop-color:#41A362"/>
				<stop  offset="1" style="stop-color:#204F2E"/>
			</linearGradient>
			<path style="fill:url(#SVGID_00000067235204266062538080000008320296947247419831_);" d="M1457.855,2292.644
				c2.093,0.804,14.22,5.461,26.25,0.482c72.397-29.961-92.976-311.979-4.599-611.24c36.022-121.977,98.703-194.346,78.225-318.494
				c-3.718-22.542-15.958-91.863-66.311-157.766c-31.675-41.456-54.724-50.533-96.458-85.801
				c-131.071-110.762-126.82-209.768-184.099-212.976c-63.935-3.581-154.149,115.013-141.574,218.792
				c13.842,114.241,143.621,139.372,140.264,238.933c-2.611,77.445-81.835,83.007-95.712,176.469
				c-18.421,124.063,103.194,235.372,118.685,249.184c69.095,61.61,92.662,34.776,137.59,81.665
				C1492.215,1999.322,1381.048,2263.15,1457.855,2292.644z"/>
			
				<linearGradient id="SVGID_00000096042827446220560770000008875436799011155616_" gradientUnits="userSpaceOnUse" x1="1470.7509" y1="2428.4395" x2="1808.0745" y2="2428.4395" gradientTransform="matrix(0.9924 0.1229 -0.1229 0.9924 30.7885 -908.176)">
				<stop  offset="0" style="stop-color:#41A362"/>
				<stop  offset="1" style="stop-color:#204F2E"/>
			</linearGradient>
			<path style="fill:url(#SVGID_00000096042827446220560770000008875436799011155616_);" d="M1258.213,1158.112
				c9.957,6.786,19.43,14.129,28.555,21.946c9.15,7.776,17.997,15.932,26.464,24.482c8.481,8.536,16.711,17.351,24.522,26.55
				c7.726,9.261,15.338,18.661,22.381,28.509c3.637,4.842,6.857,9.977,10.307,14.961c3.189,5.154,6.577,10.193,9.6,15.458
				c3.07,5.238,6.167,10.468,8.964,15.872c1.419,2.69,2.913,5.343,4.27,8.067l3.96,8.234c2.728,5.449,4.929,11.148,7.387,16.732
				c2.351,5.63,4.379,11.398,6.581,17.098c1.871,5.819,3.907,11.593,5.626,17.467l2.449,8.855c0.84,2.947,1.646,5.904,2.228,8.917
				c5.447,23.906,8.261,48.474,8.183,73.055l-0.036,9.221l-0.305,8.917l-0.62,17.823c-0.45,11.882-0.693,23.764-1.049,35.647
				c-1.255,47.53-1.635,95.063-1.209,142.562c0.981,95.025,5.79,189.842,20.187,283.817c6.559,47.504,10.168,95.184,12.527,142.869
				c2.301,47.689,3.196,95.399,2.558,143.109l-2.749,0.022c-1.97-47.578-5.102-95.113-9.047-142.513
				c-2.072-23.692-4.363-47.359-7.132-70.945c-2.739-23.586-5.813-47.129-9.774-70.471c-8.421-46.906-14.244-94.706-18.357-142.322
				c-3.88-47.703-5.933-95.502-6.993-143.284c-1.071-47.789-0.563-95.567,0.401-143.303c0.309-11.932,0.504-23.872,0.906-35.798
				l0.549-17.894l0.271-8.941l0.102-8.647c0.275-23.058-2.159-46.145-7.095-68.733c-1.087-5.677-2.708-11.243-4.031-16.88
				c-1.478-5.596-3.271-11.114-4.89-16.682c-1.955-5.462-3.729-10.993-5.828-16.411c-2.207-5.376-4.148-10.864-6.624-16.137
				c-9.278-21.346-20.253-42.085-33.104-61.71c-6.234-9.941-13.071-19.507-20.048-28.984c-7.127-9.363-14.439-18.616-22.095-27.608
				c-15.431-17.84-31.776-35.139-49.624-50.715L1258.213,1158.112z"/>
		</g>
		<g>
			
				<linearGradient id="SVGID_00000088122886598712056230000012697143257414547843_" gradientUnits="userSpaceOnUse" x1="853.2507" y1="1030.3505" x2="1203.6801" y2="1942.9785" gradientTransform="matrix(0.9969 -0.0791 0.0791 0.9969 -221.0964 -118.319)">
				<stop  offset="0" style="stop-color:#41A362"/>
				<stop  offset="1" style="stop-color:#204F2E"/>
			</linearGradient>
			<path style="fill:url(#SVGID_00000088122886598712056230000012697143257414547843_);" d="M1322.446,1974.766
				c10.407,4.812,26.678,5.756,36.376-2.135c37.431-30.454-69.023-155.088-106.391-337.34
				c-43.266-211.018,43.36-317.479-44.692-413.298c-42.346-46.082-76.2-36.496-116.276-95.24
				c-55.81-81.806-17.564-140.568-62.031-204.391c-51.141-73.402-181.219-109.77-266.164-62.856
				c-114.228,63.086-116.189,259.839-48.497,358.294c43.968,63.95,123.022,94.716,114.914,113.827
				c-7.739,18.24-77.041-16.172-113.495,15.158c-47.738,41.027-28.544,185.688,47.252,232.747
				c69.771,43.317,180.361-0.499,186.834,22.053c2.546,8.873-14.56,15.692-14.647,27.088c-0.154,20.338,53.962,46.22,245.819,77.288
				c53.066,30.211,78.095,64.424,91.135,90.594C1311.054,1873.768,1282.749,1956.411,1322.446,1974.766z"/>
			
				<linearGradient id="SVGID_00000151542665014600664340000001303957081372325046_" gradientUnits="userSpaceOnUse" x1="1068.1982" y1="2237.8479" x2="1653.847" y2="2237.8479" gradientTransform="matrix(0.9924 0.1229 -0.1229 0.9924 30.7885 -908.176)">
				<stop  offset="0" style="stop-color:#41A362"/>
				<stop  offset="1" style="stop-color:#204F2E"/>
			</linearGradient>
			<path style="fill:url(#SVGID_00000151542665014600664340000001303957081372325046_);" d="M872.169,1008.956
				c3.58,44.31,11.336,88.046,24.224,130.132c12.812,42.12,30.774,82.285,53.58,119.599c11.461,18.637,23.907,36.708,36.991,54.398
				c6.724,8.748,13.28,17.576,20.223,26.206c6.787,8.712,13.671,17.406,20.601,26.068l41.74,52.159l10.369,13.153l10.168,13.34
				c6.829,8.85,13.434,17.893,20.086,26.895c13.301,18.001,26.113,36.361,38.723,54.851c6.219,9.302,12.5,18.563,18.458,28.036
				l9.046,14.136l8.843,14.264l8.806,14.285l8.564,14.432l8.546,14.44l8.278,14.6l8.191,14.647l7.89,14.815
				c5.255,9.877,10.561,19.723,15.482,29.778l7.522,15.001l3.76,7.498l3.57,7.596c4.665,10.175,9.445,20.287,14.007,30.501
				l13.178,30.865c4.326,10.313,8.173,20.833,12.202,31.26c15.595,41.917,28.777,84.762,38.022,128.419l-2.397,0.601
				c-12.945-42.57-28.493-84.133-46.129-124.766l-6.779-15.167c-2.287-5.042-4.333-10.181-6.807-15.141l-14.347-29.95
				c-10.056-19.731-20.083-39.454-30.762-58.845c-5.168-9.782-10.724-19.36-16.223-28.962l-8.253-14.399l-8.551-14.229
				l-8.464-14.275l-8.721-14.122l-8.736-14.111l-8.975-13.963c-24.051-37.153-49.01-73.71-75.439-109.191
				c-26.433-35.469-54.059-70.077-81.684-105.112c-6.888-8.779-13.803-17.542-20.55-26.492c-6.806-8.869-13.314-18.06-19.942-27.111
				c-12.926-18.419-25.436-37.234-36.673-56.891c-2.78-4.927-5.352-9.983-8.034-14.965l-3.966-7.504l-3.639-7.68
				c-2.385-5.137-4.935-10.192-7.174-15.391l-6.508-15.683c-2.293-5.174-4.013-10.573-5.903-15.9l-2.79-8.003
				c-0.938-2.664-1.885-5.323-2.627-8.05c-3.129-10.849-6.527-21.602-9.141-32.56c-10.552-43.79-15.522-88.787-14.325-133.442
				L872.169,1008.956z"/>
		</g>
		<g>
			
				<linearGradient id="SVGID_00000168113396991593975440000000391559818517325208_" gradientUnits="userSpaceOnUse" x1="950.3442" y1="668.9231" x2="1281.499" y2="2338.5017">
				<stop  offset="0" style="stop-color:#FDF53F"/>
				<stop  offset="1" style="stop-color:#D93C65"/>
			</linearGradient>
			<path style="fill:url(#SVGID_00000168113396991593975440000000391559818517325208_);" d="M1571.527,1774.163
				c-184.396-151.66-328.347-15.804-328.347-15.804s-137.654-80.251-297.863-9.024c-160.21,71.227-216.484,202.124-216.484,202.124
				l640.305,820.676c134.759,4.853,326.858-161.04,323.839-342.406C1689.958,2248.362,1755.925,1925.822,1571.527,1774.163z"/>
			
				<linearGradient id="SVGID_00000119800600925202363710000015645751659227100558_" gradientUnits="userSpaceOnUse" x1="-54.1121" y1="1546.1494" x2="1236.0149" y2="2581.0122">
				<stop  offset="0" style="stop-color:#FDF53F"/>
				<stop  offset="1" style="stop-color:#D93C65"/>
			</linearGradient>
			<path style="fill:url(#SVGID_00000119800600925202363710000015645751659227100558_);" d="M728.834,1951.459
				c0,0-188.373,83.806-201.152,208.287c-12.78,124.481,29.51,218.851,133.527,336.983
				c104.016,118.132,184.478,202.226,350.662,331.103c85.169,66.05,144.843,78.265,254.528,42.941
				c102.606-53.05,102.741-98.638,102.741-98.638s-166.014-675.957-319.874-766.745
				C883.355,1907.492,728.834,1951.459,728.834,1951.459z"/>
			
				<linearGradient id="SVGID_00000055708201975883954250000006095551855090630816_" gradientUnits="userSpaceOnUse" x1="1310.9446" y1="2737.366" x2="954.8044" y2="3426.6692" gradientTransform="matrix(0.9252 -0.3795 0.3795 0.9252 -1235.2729 -382.6242)">
				<stop  offset="0" style="stop-color:#41A362"/>
				<stop  offset="1" style="stop-color:#204F2E"/>
			</linearGradient>
			<path style="fill:url(#SVGID_00000055708201975883954250000006095551855090630816_);" d="M892.898,1928.353
				c131.594-12.976,193.107-120.125,195.085-77.544c1.87,40.25-23.095,23.885,19.289,63.829
				c48.586,45.788-69.762,31.104-130.185,86.405C916.663,2056.344,811.733,1936.356,892.898,1928.353z"/>
			
				<linearGradient id="SVGID_00000068674636944115152050000015379773295663218591_" gradientUnits="userSpaceOnUse" x1="1789.8185" y1="2817.657" x2="1822.1128" y2="3143.084" gradientTransform="matrix(0.747 -0.3094 0.2632 0.6487 -1197.3932 505.3627)">
				<stop  offset="0" style="stop-color:#41A362"/>
				<stop  offset="1" style="stop-color:#204F2E"/>
			</linearGradient>
			<path style="fill:url(#SVGID_00000068674636944115152050000015379773295663218591_);" d="M980.423,1922.216
				c0,0-106.718-145.849-163.519-147.231c-56.801-1.383,91.128-75.335,99.967-61.957c8.839,13.379,103.003,191.845,103.003,191.845
				S1011.039,1922.47,980.423,1922.216z"/>
		</g>
		<g>
			
				<linearGradient id="SVGID_00000158723023197492400840000013616379112259951524_" gradientUnits="userSpaceOnUse" x1="3304.1521" y1="1303.9602" x2="2210.0093" y2="3260.1587">
				<stop  offset="0" style="stop-color:#CB236D"/>
				<stop  offset="1" style="stop-color:#4C246D"/>
			</linearGradient>
			<path style="fill:url(#SVGID_00000158723023197492400840000013616379112259951524_);" d="M3255.46,1844.279
				c-81.56-151.736-214.856-100.467-214.856-100.467s-69.912-91.267-196.364-87.594s-199.863,75.642-199.863,75.642l202.686,723.18
				c88.628,40.143,262.291-17.99,309.943-139.886S3337.02,1996.015,3255.46,1844.279z"/>
			
				<linearGradient id="SVGID_00000085931429013839407030000011978814442913135770_" gradientUnits="userSpaceOnUse" x1="2748.2236" y1="1942.2433" x2="1902.7479" y2="3605.5637">
				<stop  offset="0" style="stop-color:#CB236D"/>
				<stop  offset="1" style="stop-color:#4C246D"/>
			</linearGradient>
			<path style="fill:url(#SVGID_00000085931429013839407030000011978814442913135770_);" d="M2644.377,1731.86
				c0,0-148.696,4.358-191.316,83.954c-42.62,79.596-40.233,154.173-3.149,261.516c37.084,107.343,67.767,185.513,143.408,317.052
				c38.766,67.414,75.255,91.91,158.148,98.367c83.021-7.314,95.596-37.709,95.596-37.709s74.29-496.69-3.555-599.429
				C2759.566,1744.826,2644.377,1731.86,2644.377,1731.86z"/>
			
				<linearGradient id="SVGID_00000094590194663213525300000009907290621465159856_" gradientUnits="userSpaceOnUse" x1="2918.2295" y1="1611.0455" x2="2661.2717" y2="2108.3831">
				<stop  offset="0" style="stop-color:#41A362"/>
				<stop  offset="1" style="stop-color:#204F2E"/>
			</linearGradient>
			<path style="fill:url(#SVGID_00000094590194663213525300000009907290621465159856_);" d="M2760.224,1761.365
				c91.397,27.375,161.802-27.306,151.462,1.661c-9.774,27.38-21.958,9.62-4.603,47.89c19.894,43.871-55.086,1.659-110.566,22.027
				C2741.038,1853.311,2703.851,1744.48,2760.224,1761.365z"/>
			
				<linearGradient id="SVGID_00000065035963230683359930000009273510869820010916_" gradientUnits="userSpaceOnUse" x1="3105.0928" y1="1125.208" x2="2588.4146" y2="2006.6012">
				<stop  offset="0" style="stop-color:#41A362"/>
				<stop  offset="1" style="stop-color:#204F2E"/>
			</linearGradient>
			<path style="fill:url(#SVGID_00000065035963230683359930000009273510869820010916_);" d="M2812.927,1779.694
				c0,0-39.316-180.983-85.826-204.702c-46.51-23.719,100.639-35.802,103.46-19.575c2.821,16.227,20.81,223.321,20.81,223.321
				S2838.161,1792.011,2812.927,1779.694z"/>
		</g>
		<g>
			
				<linearGradient id="SVGID_00000137825700867501899520000013520010645599576713_" gradientUnits="userSpaceOnUse" x1="3450.5327" y1="3310.5444" x2="3161.0669" y2="3485.8318" gradientTransform="matrix(1 -0.0041 0.0041 1 -340.9295 -1190.7358)">
				<stop  offset="0" style="stop-color:#41A362"/>
				<stop  offset="1" style="stop-color:#204F2E"/>
			</linearGradient>
			<path style="fill:url(#SVGID_00000137825700867501899520000013520010645599576713_);" d="M2762.737,2241.46
				c0,0,235.373-91.901,284.339-111.975s127.523,32.519,27.33,90.394c-100.193,57.875-281.214,70.254-281.214,70.254
				L2762.737,2241.46z"/>
			
				<linearGradient id="SVGID_00000054260846485726663820000007259101548137531820_" gradientUnits="userSpaceOnUse" x1="3245.1528" y1="3445.8354" x2="3423.7732" y2="3598.2786" gradientTransform="matrix(1 -0.0041 0.0041 1 -340.9295 -1190.7358)">
				<stop  offset="0" style="stop-color:#41A362"/>
				<stop  offset="1" style="stop-color:#204F2E"/>
			</linearGradient>
			<path style="fill:url(#SVGID_00000054260846485726663820000007259101548137531820_);" d="M2794.18,2280.265
				c0,0,208.892-54.187,266.769-65.878c57.877-11.691,131.45,61.051,19.621,109.518c-111.829,48.467-289.107-6.387-289.107-6.387
				L2794.18,2280.265z"/>
			
				<linearGradient id="SVGID_00000036955898667737849050000011231507375807912895_" gradientUnits="userSpaceOnUse" x1="3074.2385" y1="3478.1589" x2="3397.5225" y2="3478.1589" gradientTransform="matrix(0.9974 -0.072 0.072 0.9974 -561.1558 -1081.6682)">
				<stop  offset="0" style="stop-color:#41A362"/>
				<stop  offset="1" style="stop-color:#204F2E"/>
			</linearGradient>
			<path style="fill:url(#SVGID_00000036955898667737849050000011231507375807912895_);" d="M2759.316,2218.729
				c0,0,188.991-160.02,251.592-172.86c62.602-12.841,96.343,47.379,13.663,116.697c-82.68,69.319-240.852,104.044-240.852,104.044
				L2759.316,2218.729z"/>
			
				<linearGradient id="SVGID_00000098204224763550115220000013707946329464571818_" gradientUnits="userSpaceOnUse" x1="2804.0215" y1="1787.0791" x2="2182.8562" y2="2486.7832">
				<stop  offset="0" style="stop-color:#FDF53F"/>
				<stop  offset="1" style="stop-color:#D93C65"/>
			</linearGradient>
			<path style="fill:url(#SVGID_00000098204224763550115220000013707946329464571818_);" d="M1547.219,2548.4
				c-18.494,7.643-13.732,33.487,6.012,32.633c260.045-11.248,973.211-42.016,1087.822-46.104
				c140.638-5.016,224.852-143.171,178.01-275.844s-159.735-145.33-337.829-84.999
				C2338.645,2222.389,1768.766,2456.842,1547.219,2548.4z"/>
			
				<linearGradient id="SVGID_00000155830031991495909270000018217049178062475919_" gradientUnits="userSpaceOnUse" x1="3004.8789" y1="3234.2742" x2="2907.249" y2="3486.6104" gradientTransform="matrix(0.9998 0.0218 -0.0218 0.9998 -253.8086 -1225.1169)">
				<stop  offset="0" style="stop-color:#FDF53F"/>
				<stop  offset="1" style="stop-color:#D93C65"/>
			</linearGradient>
			<path style="fill:url(#SVGID_00000155830031991495909270000018217049178062475919_);" d="M2582.573,2168.645
				c-19.648,8.173-23.453,9.889,0.366,52.813c23.819,42.924,46.404,94.209,69.054,84.558
				C2674.644,2296.365,2610.062,2157.211,2582.573,2168.645z"/>
			
				<linearGradient id="SVGID_00000170993178206598676210000014813460408490410152_" gradientUnits="userSpaceOnUse" x1="2937.4187" y1="3366.5249" x2="2800.8977" y2="3693.8752" gradientTransform="matrix(1 -0.0041 0.0041 1 -340.9295 -1190.7358)">
				<stop  offset="0" style="stop-color:#FDF53F"/>
				<stop  offset="1" style="stop-color:#D93C65"/>
			</linearGradient>
			<path style="fill:url(#SVGID_00000170993178206598676210000014813460408490410152_);" d="M2528.994,2307.542
				c14.546,23.024,41.981,74.372,35.582,125.821c-1.599,12.854-13.156,23.001-26.63,23.443l-0.021,0.001
				c-12.423,0.407-22.905-7.58-25.099-19.123c-4.827-25.389-14.822-70.274-30.506-105.262c-6.973-15.555,4.688-33.92,22.78-35.822h0
				C2514.844,2295.575,2524.087,2299.774,2528.994,2307.542z"/>
			
				<linearGradient id="SVGID_00000070098731554509833170000000973940428107157171_" gradientUnits="userSpaceOnUse" x1="2768.2847" y1="3353.6655" x2="2665.0046" y2="3601.311" gradientTransform="matrix(1 -0.0041 0.0041 1 -340.9295 -1190.7358)">
				<stop  offset="0" style="stop-color:#FDF53F"/>
				<stop  offset="1" style="stop-color:#D93C65"/>
			</linearGradient>
			<path style="fill:url(#SVGID_00000070098731554509833170000000973940428107157171_);" d="M2351.924,2253.38l4.66-1.579
				c6.104-2.069,12.672-0.464,16.712,4.001c23.51,25.975,35.665,60.159,34.348,104.086c-0.214,7.148-5.57,13.503-12.935,15.191
				l-0.509,0.116c-9.712,2.225-18.487-4.447-18.537-13.858c-0.176-33.287-11.501-60.758-31.498-83.705
				C2337.208,2269.647,2341.179,2257.021,2351.924,2253.38z"/>
			
				<linearGradient id="SVGID_00000066498920873940673180000002304366227502567860_" gradientUnits="userSpaceOnUse" x1="2701.7368" y1="3152.9568" x2="2613.79" y2="3363.8354" gradientTransform="matrix(0.9684 0.2492 -0.2492 0.9684 559.7023 -1394.8663)">
				<stop  offset="0" style="stop-color:#FDF53F"/>
				<stop  offset="1" style="stop-color:#D93C65"/>
			</linearGradient>
			<path style="fill:url(#SVGID_00000066498920873940673180000002304366227502567860_);" d="M2295.961,2396.985l4.047-0.351
				c5.301-0.46,10.156,2.179,12.375,6.648c12.907,26.001,14.991,56.427,4.232,92.106c-1.751,5.806-7.405,9.925-13.622,9.819
				l-0.429-0.007c-8.197-0.14-13.684-7.371-11.642-15.082c7.221-27.273,4.312-52.039-6.478-74.853
				C2280.689,2407.324,2286.632,2397.795,2295.961,2396.985z"/>
			
				<linearGradient id="SVGID_00000026158298772073674530000013313656820658367898_" gradientUnits="userSpaceOnUse" x1="2490.1204" y1="3793.8921" x2="2433.2751" y2="3930.1951" gradientTransform="matrix(0.9678 -0.2519 0.2519 0.9678 -1138.0416 -788.8196)">
				<stop  offset="0" style="stop-color:#FDF53F"/>
				<stop  offset="1" style="stop-color:#D93C65"/>
			</linearGradient>
			<path style="fill:url(#SVGID_00000026158298772073674530000013313656820658367898_);" d="M2192.974,2321.95l2.337-1.463
				c3.061-1.916,6.911-1.931,9.787-0.082c16.729,10.757,28.4,27.408,34.068,51.056c0.922,3.848-1.102,7.956-4.913,9.836l-0.263,0.13
				c-5.025,2.479-10.829,0.08-12.227-4.943c-4.942-17.764-15.178-30.939-29.531-40.544
				C2187.238,2332.597,2187.587,2325.323,2192.974,2321.95z"/>
			
				<linearGradient id="SVGID_00000072248810973441770730000000990289548720921020_" gradientUnits="userSpaceOnUse" x1="2542.8013" y1="3212.9849" x2="2448.834" y2="3438.2996" gradientTransform="matrix(0.9753 0.2206 -0.2206 0.9753 453.3558 -1368.2083)">
				<stop  offset="0" style="stop-color:#FDF53F"/>
				<stop  offset="1" style="stop-color:#D93C65"/>
			</linearGradient>
			<path style="fill:url(#SVGID_00000072248810973441770730000000990289548720921020_);" d="M2125.705,2398.965l4.329-0.498
				c5.67-0.652,10.965,2.023,13.492,6.732c14.704,27.402,17.945,59.861,7.584,98.321c-1.686,6.259-7.615,10.832-14.285,10.906
				l-0.461,0.005c-8.797,0.098-14.92-7.466-12.985-15.77c6.845-29.369,2.905-55.752-9.422-79.812
				C2109.666,2410.477,2115.725,2400.112,2125.705,2398.965z"/>
			
				<linearGradient id="SVGID_00000016077671169964029380000014193419784235306644_" gradientUnits="userSpaceOnUse" x1="2372.7764" y1="3535.6431" x2="2304.5161" y2="3699.3181" gradientTransform="matrix(1 -0.0041 0.0041 1 -340.9295 -1190.7358)">
				<stop  offset="0" style="stop-color:#FDF53F"/>
				<stop  offset="1" style="stop-color:#D93C65"/>
			</linearGradient>
			<path style="fill:url(#SVGID_00000016077671169964029380000014193419784235306644_);" d="M2005.694,2407.077
				c7.273,11.512,20.991,37.186,17.791,62.91c-0.799,6.427-6.578,11.5-13.315,11.721l-0.011,0c-6.212,0.203-11.452-3.79-12.55-9.562
				c-2.413-12.695-7.411-35.137-15.253-52.631c-3.487-7.778,2.344-16.96,11.39-17.911l0,0
				C1998.62,2401.094,2003.241,2403.193,2005.694,2407.077z"/>
			
				<linearGradient id="SVGID_00000102509311820946649870000017277661411488752297_" gradientUnits="userSpaceOnUse" x1="2213.6602" y1="3596.0361" x2="2145.3999" y2="3759.7109" gradientTransform="matrix(1 -0.0041 0.0041 1 -340.9295 -1190.7358)">
				<stop  offset="0" style="stop-color:#FDF53F"/>
				<stop  offset="1" style="stop-color:#D93C65"/>
			</linearGradient>
			<path style="fill:url(#SVGID_00000102509311820946649870000017277661411488752297_);" d="M1846.826,2468.122
				c7.273,11.512,20.99,37.187,17.791,62.91c-0.799,6.427-6.578,11.5-13.315,11.721l-0.011,0c-6.212,0.203-11.453-3.79-12.55-9.562
				c-2.414-12.694-7.411-35.137-15.253-52.631c-3.487-7.778,2.344-16.96,11.39-17.911l0,0
				C1839.751,2462.139,1844.372,2464.238,1846.826,2468.122z"/>
			
				<linearGradient id="SVGID_00000049188434713821512090000008956360938522114495_" gradientUnits="userSpaceOnUse" x1="2283.0579" y1="3647.0444" x2="2244.5305" y2="3739.4255" gradientTransform="matrix(1 -0.0041 0.0041 1 -340.9295 -1190.7358)">
				<stop  offset="0" style="stop-color:#FDF53F"/>
				<stop  offset="1" style="stop-color:#D93C65"/>
			</linearGradient>
			<path style="fill:url(#SVGID_00000049188434713821512090000008956360938522114495_);" d="M1934.138,2487.528
				c4.105,6.498,11.847,20.989,10.042,35.508c-0.451,3.628-3.713,6.491-7.515,6.616h-0.006c-3.506,0.115-6.464-2.139-7.083-5.396
				c-1.362-7.165-4.183-19.833-8.609-29.706c-1.968-4.39,1.323-9.573,6.429-10.109l0,0
				C1930.145,2484.151,1932.754,2485.336,1934.138,2487.528z"/>
		</g>
		<g>
			
				<linearGradient id="SVGID_00000008112063895603002820000014434453660243713190_" gradientUnits="userSpaceOnUse" x1="3642.144" y1="3560.1206" x2="3388.9744" y2="3713.4285" gradientTransform="matrix(0.9943 0.1063 -0.1063 0.9943 -142.218 -1542.7699)">
				<stop  offset="0" style="stop-color:#41A362"/>
				<stop  offset="1" style="stop-color:#204F2E"/>
			</linearGradient>
			<path style="fill:url(#SVGID_00000008112063895603002820000014434453660243713190_);" d="M2774.686,2468.264
				c0,0,212.967-58.76,257.369-71.822s107.032,40.318,14.474,81.772c-92.558,41.453-250.431,35.538-250.431,35.538
				L2774.686,2468.264z"/>
			
				<linearGradient id="SVGID_00000046323485350593367360000005982094095764894647_" gradientUnits="userSpaceOnUse" x1="3462.3115" y1="3679.0696" x2="3617.2776" y2="3811.325" gradientTransform="matrix(0.9943 0.1063 -0.1063 0.9943 -142.218 -1542.7699)">
				<stop  offset="0" style="stop-color:#41A362"/>
				<stop  offset="1" style="stop-color:#204F2E"/>
			</linearGradient>
			<path style="fill:url(#SVGID_00000046323485350593367360000005982094095764894647_);" d="M2797.954,2505.193
				c0,0,186.229-28.152,237.49-33.04c51.261-4.888,107.535,65.694,5.863,97.822c-101.671,32.128-249.483-32.377-249.483-32.377
				L2797.954,2505.193z"/>
			
				<linearGradient id="SVGID_00000119830485044511330680000008145868629579513493_" gradientUnits="userSpaceOnUse" x1="3295.3518" y1="3733.9961" x2="3577.3901" y2="3733.9961" gradientTransform="matrix(0.9993 0.0386 -0.0386 0.9993 -373.0587 -1457.6985)">
				<stop  offset="0" style="stop-color:#41A362"/>
				<stop  offset="1" style="stop-color:#204F2E"/>
			</linearGradient>
			<path style="fill:url(#SVGID_00000119830485044511330680000008145868629579513493_);" d="M2774.033,2448.021
				c0,0,179.75-122.77,235.215-128.228s78.547,50.456-0.02,103.564c-78.567,53.107-218.94,68.897-218.94,68.897L2774.033,2448.021z"
				/>
			
				<linearGradient id="SVGID_00000145021945982828316260000015647925327921223352_" gradientUnits="userSpaceOnUse" x1="2682.7646" y1="2200.4856" x2="2240.0955" y2="2636.0151">
				<stop  offset="0" style="stop-color:#FDF53F"/>
				<stop  offset="1" style="stop-color:#D93C65"/>
			</linearGradient>
			<path style="fill:url(#SVGID_00000145021945982828316260000015647925327921223352_);" d="M1691.89,2624.745
				c-16.776,4.987-15.279,28.083,1.891,29.163c226.129,14.226,846.275,53.312,945.849,60.344
				c122.187,8.629,209.066-104.679,182.001-225.321c-27.065-120.642-123.455-142.193-283.661-105.802
				C2409.702,2412.265,1892.86,2565.005,1691.89,2624.745z"/>
			
				<linearGradient id="SVGID_00000009549733198035452230000004306461448230459285_" gradientUnits="userSpaceOnUse" x1="3260.4285" y1="3479.6748" x2="3174.0208" y2="3703.0051" gradientTransform="matrix(0.9913 0.1321 -0.1321 0.9913 -51.9677 -1566.4333)">
				<stop  offset="0" style="stop-color:#FDF53F"/>
				<stop  offset="1" style="stop-color:#D93C65"/>
			</linearGradient>
			<path style="fill:url(#SVGID_00000009549733198035452230000004306461448230459285_);" d="M2626.2,2387.746
				c-17.829,5.345-21.295,6.497-5.043,46.331c16.252,39.834,30.589,86.884,51.165,80.521
				C2692.898,2508.235,2651.143,2380.269,2626.2,2387.746z"/>
			
				<linearGradient id="SVGID_00000023974471404162376290000001461267710689515681_" gradientUnits="userSpaceOnUse" x1="3195.1963" y1="3609.6694" x2="3074.4683" y2="3899.1511" gradientTransform="matrix(0.9943 0.1063 -0.1063 0.9943 -142.218 -1542.7699)">
				<stop  offset="0" style="stop-color:#FDF53F"/>
				<stop  offset="1" style="stop-color:#D93C65"/>
			</linearGradient>
			<path style="fill:url(#SVGID_00000023974471404162376290000001461267710689515681_);" d="M2565.75,2504.542
				c10.249,21.53,28.775,69.084,18.019,113.592c-2.688,11.12-13.717,18.945-25.419,18.083l-0.019-0.001
				c-10.79-0.794-19.048-8.767-19.775-19.088c-1.6-22.703-5.693-62.977-15.712-95.1c-4.455-14.282,7.497-29.301,23.344-29.292h0
				C2554.722,2492.741,2562.292,2497.278,2565.75,2504.542z"/>
			
				<linearGradient id="SVGID_00000032614568867342220000000017687547239123388296_" gradientUnits="userSpaceOnUse" x1="3047.9929" y1="3598.905" x2="2956.6401" y2="3817.9509" gradientTransform="matrix(0.9943 0.1063 -0.1063 0.9943 -142.218 -1542.7699)">
				<stop  offset="0" style="stop-color:#FDF53F"/>
				<stop  offset="1" style="stop-color:#D93C65"/>
			</linearGradient>
			<path style="fill:url(#SVGID_00000032614568867342220000000017687547239123388296_);" d="M2418.046,2440.662l4.192-0.953
				c5.491-1.248,11.01,0.767,14.053,5.055c17.704,24.948,24.753,56.04,19.156,94.425c-0.911,6.246-6.189,11.321-12.732,12.118
				l-0.452,0.055c-8.628,1.051-15.543-5.611-14.631-13.865c3.225-29.196-3.786-54.326-18.758-76.294
				C2403.664,2453.559,2408.381,2442.859,2418.046,2440.662z"/>
			
				<linearGradient id="SVGID_00000102506157503721887810000015588616253529105845_" gradientUnits="userSpaceOnUse" x1="3034.6697" y1="3296.667" x2="2956.8794" y2="3483.1926" gradientTransform="matrix(0.935 0.3546 -0.3546 0.935 775.7168 -1645.4143)">
				<stop  offset="0" style="stop-color:#FDF53F"/>
				<stop  offset="1" style="stop-color:#D93C65"/>
			</linearGradient>
			<path style="fill:url(#SVGID_00000102506157503721887810000015588616253529105845_);" d="M2355.057,2561.364l3.537,0.067
				c4.633,0.087,8.565,2.851,10.032,6.974c8.529,23.988,7.245,50.853-5.684,81.133c-2.104,4.927-7.414,8.014-12.781,7.346
				l-0.371-0.046c-7.078-0.882-11.091-7.729-8.542-14.3c9.015-23.239,9.011-45.218,1.99-66.217
				C2340.794,2569.013,2346.903,2561.21,2355.057,2561.364z"/>
			
				<linearGradient id="SVGID_00000012474074696372054060000004267487214911696263_" gradientUnits="userSpaceOnUse" x1="2729.2332" y1="4095.8699" x2="2679.0798" y2="4216.127" gradientTransform="matrix(0.9897 -0.1435 0.1435 0.9897 -978.8743 -1230.8684)">
				<stop  offset="0" style="stop-color:#FDF53F"/>
				<stop  offset="1" style="stop-color:#D93C65"/>
			</linearGradient>
			<path style="fill:url(#SVGID_00000012474074696372054060000004267487214911696263_);" d="M2273.567,2486.049l2.17-1.066
				c2.843-1.396,6.176-1.053,8.476,0.834c13.382,10.979,21.79,26.657,24.295,47.912c0.408,3.459-1.76,6.872-5.248,8.167l-0.241,0.09
				c-4.599,1.708-9.377-0.933-10.077-5.465c-2.473-16.03-9.993-28.528-21.436-38.277
				C2267.524,2494.851,2268.564,2488.507,2273.567,2486.049z"/>
			
				<linearGradient id="SVGID_00000155845326611021655930000008963932329032797366_" gradientUnits="userSpaceOnUse" x1="2892.6169" y1="3363.3582" x2="2809.4883" y2="3562.6843" gradientTransform="matrix(0.945 0.3269 -0.3269 0.945 667.2071 -1631.0034)">
				<stop  offset="0" style="stop-color:#FDF53F"/>
				<stop  offset="1" style="stop-color:#D93C65"/>
			</linearGradient>
			<path style="fill:url(#SVGID_00000155845326611021655930000008963932329032797366_);" d="M2207.552,2547.33l3.796-0.035
				c4.972-0.046,9.281,2.789,10.99,7.151c9.941,25.383,9.451,54.137-3.415,86.891c-2.094,5.33-7.687,8.79-13.466,8.238l-0.399-0.038
				c-7.621-0.729-12.151-7.927-9.635-15.026c8.902-25.112,8.17-48.604-0.054-70.837
				C2192.507,2555.937,2198.801,2547.412,2207.552,2547.33z"/>
			
				<linearGradient id="SVGID_00000037688231281887038660000011592481286719978628_" gradientUnits="userSpaceOnUse" x1="2702.9619" y1="3760.9238" x2="2642.5981" y2="3905.6646" gradientTransform="matrix(0.9943 0.1063 -0.1063 0.9943 -142.218 -1542.7699)">
				<stop  offset="0" style="stop-color:#FDF53F"/>
				<stop  offset="1" style="stop-color:#D93C65"/>
			</linearGradient>
			<path style="fill:url(#SVGID_00000037688231281887038660000011592481286719978628_);" d="M2102.897,2543.325
				c5.124,10.765,14.388,34.542,9.009,56.796c-1.344,5.56-6.859,9.472-12.709,9.042l-0.01-0.001
				c-5.395-0.397-9.524-4.383-9.888-9.544c-0.8-11.352-2.846-31.488-7.856-47.55c-2.227-7.141,3.749-14.65,11.672-14.646l0,0
				C2097.383,2537.425,2101.168,2539.694,2102.897,2543.325z"/>
			
				<linearGradient id="SVGID_00000064312564406320074040000000975839499133509305_" gradientUnits="userSpaceOnUse" x1="2564.2502" y1="3814.7737" x2="2503.8865" y2="3959.5144" gradientTransform="matrix(0.9943 0.1063 -0.1063 0.9943 -142.218 -1542.7699)">
				<stop  offset="0" style="stop-color:#FDF53F"/>
				<stop  offset="1" style="stop-color:#D93C65"/>
			</linearGradient>
			<path style="fill:url(#SVGID_00000064312564406320074040000000975839499133509305_);" d="M1959.252,2582.123
				c5.124,10.765,14.387,34.542,9.009,56.796c-1.344,5.56-6.858,9.472-12.709,9.042l-0.009-0.001
				c-5.395-0.397-9.524-4.383-9.888-9.544c-0.8-11.352-2.846-31.488-7.856-47.55c-2.227-7.141,3.749-14.65,11.672-14.646h0
				C1953.738,2576.223,1957.523,2578.491,1959.252,2582.123z"/>
			
				<linearGradient id="SVGID_00000000943399964320941120000013526042050933390751_" gradientUnits="userSpaceOnUse" x1="2624.3474" y1="3859.5627" x2="2590.2769" y2="3941.2573" gradientTransform="matrix(0.9943 0.1063 -0.1063 0.9943 -142.218 -1542.7699)">
				<stop  offset="0" style="stop-color:#FDF53F"/>
				<stop  offset="1" style="stop-color:#D93C65"/>
			</linearGradient>
			<path style="fill:url(#SVGID_00000000943399964320941120000013526042050933390751_);" d="M2032.825,2607.222
				c2.892,6.076,8.121,19.496,5.085,32.057c-0.759,3.138-3.871,5.346-7.173,5.104l-0.005,0c-3.045-0.224-5.375-2.474-5.581-5.387
				c-0.451-6.407-1.607-17.772-4.434-26.838c-1.257-4.03,2.116-8.269,6.588-8.266l0,0
				C2029.712,2603.892,2031.849,2605.173,2032.825,2607.222z"/>
		</g>
		<g>
			<g>
				
					<linearGradient id="SVGID_00000140699836562015123880000012136266267994690710_" gradientUnits="userSpaceOnUse" x1="2116.0122" y1="2910.8359" x2="1898.4838" y2="3506.9622" gradientTransform="matrix(0.9864 -0.1645 0.1645 0.9864 -217.2841 14.3744)">
					<stop  offset="0" style="stop-color:#41A362"/>
					<stop  offset="1" style="stop-color:#204F2E"/>
				</linearGradient>
				<path style="fill:url(#SVGID_00000140699836562015123880000012136266267994690710_);" d="M2193.195,2691.992
					c45.481,5.407,91.567,5.382,136.955-1.211c22.545-3.275,44.912-7.8,66.939-13.618c10.206-2.696,20.336-5.672,30.402-8.848
					c11.379-3.59,24.722-6.212,33.21-14.923c7.954-8.164,5.75-24.608-7.718-25.377c-20.006-1.143-42.009,12.174-61.095,17.969
					c-20.96,6.363-42.322,11.476-63.856,15.471c-43.833,8.133-88.372,12.514-132.97,12.597
					C2183.688,2674.073,2181.424,2690.592,2193.195,2691.992L2193.195,2691.992z"/>
				
					<linearGradient id="SVGID_00000022545610784087317780000006861735126996181900_" gradientUnits="userSpaceOnUse" x1="2163.2019" y1="2928.0837" x2="1945.709" y2="3524.1125" gradientTransform="matrix(0.9864 -0.1645 0.1645 0.9864 -217.2841 14.3744)">
					<stop  offset="0" style="stop-color:#41A362"/>
					<stop  offset="1" style="stop-color:#204F2E"/>
				</linearGradient>
				<path style="fill:url(#SVGID_00000022545610784087317780000006861735126996181900_);" d="M2094.207,2614.822
					c31.318,36.051,72.259,65.375,111.172,92.622c41.222,28.863,85.009,54.203,129.547,77.563
					c44.47,23.324,90.363,43.906,137.126,62.188c23.168,9.057,46.563,17.528,70.157,25.407c11.694,3.905,23.435,7.667,35.223,11.279
					c11.825,3.624,24.492,8.951,36.982,8.623c12.047-0.316,21.893-16.279,9.229-24.38c-19.364-12.386-46.455-15.925-68.355-22.937
					c-23.688-7.584-47.188-15.758-70.463-24.527c-45.391-17.102-89.875-36.513-133.41-57.899
					c-44.03-21.63-86.407-46.028-127.948-72.084c-41.834-26.24-80.182-57.376-121.514-84.196
					C2096.653,2603.042,2089.777,2609.721,2094.207,2614.822L2094.207,2614.822z"/>
				
					<linearGradient id="SVGID_00000101098558170473363030000000796865081596396416_" gradientUnits="userSpaceOnUse" x1="1980.4633" y1="2861.3948" x2="1762.9573" y2="3457.459" gradientTransform="matrix(0.9864 -0.1645 0.1645 0.9864 -217.2841 14.3744)">
					<stop  offset="0" style="stop-color:#41A362"/>
					<stop  offset="1" style="stop-color:#204F2E"/>
				</linearGradient>
				<path style="fill:url(#SVGID_00000101098558170473363030000000796865081596396416_);" d="M2094.116,2609.1
					c-0.094,8.075,6.582,16.809,10.508,23.487c10.354,17.611,20.107,35.416,31.449,52.443c13.722,20.6,28.929,40.649,45.271,59.24
					c12.977,14.763,32.433,41.047,53.081,43.875c11.608,1.59,22.506-12.186,16.389-22.951c-5.379-9.467-15.004-14.514-23.224-21.339
					c-8.499-7.057-16.412-14.739-24.12-22.644c-16.964-17.398-32.606-35.837-48.468-54.221
					c-12.555-14.551-25.638-28.76-37.556-43.838c-4.602-5.823-9.883-14.913-16.934-17.989
					C2097.89,2604.02,2094.151,2606.1,2094.116,2609.1L2094.116,2609.1z"/>
				
					<linearGradient id="SVGID_00000173880897331627172450000000443452347090704000_" gradientUnits="userSpaceOnUse" x1="2190.6802" y1="3099.9937" x2="2190.6802" y2="3506.9551" gradientTransform="matrix(0.9761 -0.2173 0.2173 0.9761 -283.4641 28.3222)">
					<stop  offset="0" style="stop-color:#41A362"/>
					<stop  offset="1" style="stop-color:#204F2E"/>
				</linearGradient>
				<path style="fill:url(#SVGID_00000173880897331627172450000000443452347090704000_);" d="M2646.294,2804.219
					c-17.214,3.957-78.698-45.62-107.384-64.502c10.038,8.351,46.159,54.378,39.564,67.508c-6.595,13.13-24.709-5.296-35.073,0.247
					s15.023,33.061-2.301,32.624s-22.438-19.458-32.715-22.399s4.667,24.837-13.478,22.478
					c-18.145-2.359-17.576-46.185-28.107-41.318c-10.531,4.868,1.262,26.007-12.519,21.334s-64.688-175.054-54.675-177.948
					c23.882-6.902,47.667-44.717,59.841-66.392c12.174-21.675,18.29-46.162,23.573-70.453c1.376-6.325,3.67-13.755,9.883-15.568
					c5.612-1.638,11.563,2.718,13.791,8.124c2.229,5.405-2.01,15.51,6.739,12.241c8.749-3.27,15.179-12.985,25.571-22.016
					c1.902-1.653,3.989-3.386,6.5-3.586c7.113-0.564,8.775,10.258,5.563,16.629c-3.212,6.371-10.951,17.339-8.24,23.939
					c6.293,2.109,18.226-7.52,23.866-11.017c5.641-3.497,14.97-2.409,18.997,2.866c7.473,9.792-16.557,40.761-10.773,48.588
					c5.784,7.827,31.555-19.986,33.654,7.362c2.272,29.608-19.891,34.07-88.557,63.216c-1.83,0.861-3.687,1.593-5.548,2.298
					c42.894-0.365,67.914,2.22,110.126-0.583c7.11-0.472,34.541-1.911,40.612,13.292c6.071,15.204-29.984,8.959-21.125,16.641
					c13.022,11.291,40.113,0.615,46.233,16.778c6.12,16.163-20.055,12.545-16.843,19.375c3.212,6.83,31.685,12.149,35.919,26.275
					c4.234,14.126-25.248,13.814-31.383,21.316c-6.135,7.501,18.843,17.576,20.201,22.222c2.508,8.582-3.223,13.158-12.01,14.809
					c-8.787,1.651-22.826-5.832-34.901-6.395S2663.509,2800.262,2646.294,2804.219z"/>
				
					<linearGradient id="SVGID_00000133508425496340995420000006605962175936408492_" gradientUnits="userSpaceOnUse" x1="1943.3092" y1="3029.4131" x2="2294.1687" y2="3029.4131" gradientTransform="matrix(0.9966 -0.0818 0.0818 0.9966 -108.5721 5.905)">
					<stop  offset="0" style="stop-color:#41A362"/>
					<stop  offset="1" style="stop-color:#204F2E"/>
				</linearGradient>
				<path style="fill:url(#SVGID_00000133508425496340995420000006605962175936408492_);" d="M2423.459,2894.039
					c-2.262-17.518-70.092-57.98-97.755-78.332c11.315,6.517,67.015,24.423,77.042,13.682s-13.541-21.337-11.938-32.979
					c1.603-11.643,36.22,2.618,29.799-13.478c-6.421-16.096-26.034-14.293-32.359-22.911c-6.325-8.618,24.913-4.24,16.405-20.439
					s-49.415-0.459-48.503-12.025s24.829-7.84,15.665-19.143s-78.094,12.3-130.876,21.107c-38.114,6.359-71.894-10.014-71.134,0.382
					c1.813,24.793-9.253,49.199-25.357,68.137c-16.104,18.938-36.948,33.171-57.897,46.555c-5.454,3.485-11.627,8.214-11.172,14.671
					c0.411,5.832,6.561,9.901,12.404,10.115c5.843,0.214,13.849-7.267,13.819,2.073c-0.031,9.34-6.911,18.742-11.776,31.621
					c-0.89,2.357-1.792,4.916-1.107,7.341c1.939,6.867,12.665,4.671,17.526-0.552s12.462-16.286,19.593-16.035
					c4.161,5.17-0.729,19.703-2.051,26.206c-1.323,6.504,2.935,14.876,9.28,16.823c11.777,3.611,32.484-29.671,41.831-26.962
					c9.347,2.709-7.795,36.53,18.582,29.009c28.557-8.142,25.051-30.476,28.561-104.99c0.172-2.015,0.214-4.01,0.23-6.001
					c14.541,40.355,25.647,62.925,37.664,103.487c2.024,6.832,10.192,33.058,26.558,33.477s-2.001-31.23,8.277-25.587
					c15.108,8.295,14.495,37.407,31.778,37.539c17.283,0.132,4.807-23.161,12.327-22.519c7.521,0.643,22.388,25.501,37.106,24.571
					c14.718-0.931,4.196-28.473,9.102-36.829c4.907-8.357,23.022,11.574,27.851,11.235c8.919-0.625,11.222-7.589,9.722-16.402
					c-1.5-8.814-13.39-19.385-18.107-30.513C2399.83,2895.241,2425.721,2911.557,2423.459,2894.039z"/>
				
					<linearGradient id="SVGID_00000003820406635466887860000000611176352747016376_" gradientUnits="userSpaceOnUse" x1="374.8007" y1="4360.2964" x2="149.3653" y2="4585.7319" gradientTransform="matrix(-0.4529 0.8915 0.8915 0.4529 -1153.012 700.5393)">
					<stop  offset="0" style="stop-color:#41A362"/>
					<stop  offset="1" style="stop-color:#204F2E"/>
				</linearGradient>
				<path style="fill:url(#SVGID_00000003820406635466887860000000611176352747016376_);" d="M2618.206,3136.88
					c-16.032-7.415-34.275-84.26-45.387-116.755c2.821,12.749,3.188,71.256-10.067,77.597c-13.255,6.341-16.29-19.319-27.877-21.284
					s-8.371,35.336-21.799,24.381c-13.427-10.956-5.822-29.124-12.145-37.743c-6.323-8.619-11.521,22.493-24.42,9.515
					s14.39-47.275,3.084-49.877s-14.929,21.333-22.962,9.199c-8.033-12.133,35.167-70.803,59.408-118.511
					c17.504-34.449,12.021-71.586,21.71-67.741c23.106,9.17,49.708,5.938,72.606-3.742c22.898-9.679,42.729-25.291,61.783-41.258
					c4.961-4.157,11.325-8.627,17.347-6.255c5.439,2.143,7.476,9.23,5.927,14.868c-1.549,5.638-11.088,11.03-2.169,13.804
					s19.952-0.969,33.698-1.744c2.515-0.142,5.227-0.234,7.334,1.146c5.969,3.91,0.655,13.483-5.786,16.553
					c-6.44,3.07-19.276,7-21.175,13.878c3.683,5.521,19.013,5.217,25.614,5.907c6.601,0.69,13.31,7.264,13.262,13.9
					c-0.09,12.318-38.052,22.083-38.273,31.813c-0.221,9.729,37.186,3.526,22.096,26.43c-16.336,24.798-36.589,14.751-108.722-4.26
					c-1.974-0.441-3.89-0.999-5.793-1.582c34.132,25.98,52.329,43.347,87.415,66.982c5.91,3.981,28.476,19.643,23.965,35.38
					s-29.19-11.28-26.891,0.218c3.379,16.901,31.333,25.052,26.273,41.578c-5.061,16.526-23.537-2.365-25.18,5.002
					s17.608,29.009,12.304,42.769c-5.304,13.76-28.42-4.542-37.864-2.369c-9.444,2.173,4.132,25.434,2.36,29.939
					c-3.273,8.32-10.607,8.428-18.564,4.352c-7.958-4.076-14.473-18.589-23.674-26.429
					C2626.443,3114.7,2634.238,3144.294,2618.206,3136.88z"/>
			</g>
			<g>
				<path style="fill:#FFFFFF;" d="M2314.806,2873.989c-1.263,0-2.476-0.711-3.059-1.924
					c-0.216-0.451-22.645-45.905-107.735-114.771c-1.454-1.176-1.677-3.308-0.502-4.76c1.176-1.459,3.312-1.681,4.763-0.502
					c86.5,70.005,108.683,115.223,109.585,117.113c0.803,1.688,0.089,3.706-1.597,4.511
					C2315.793,2873.882,2315.294,2873.989,2314.806,2873.989z"/>
				<path style="fill:#FFFFFF;" d="M2169.691,2843.92c-0.736,0-1.479-0.239-2.101-0.731c-1.467-1.159-1.715-3.291-0.554-4.757
					c20.935-26.444,35.678-84.022,35.824-84.602c0.458-1.812,2.296-2.917,4.115-2.452c1.812,0.461,2.91,2.304,2.451,4.116
					c-0.613,2.419-15.253,59.569-37.079,87.142C2171.68,2843.482,2170.69,2843.92,2169.691,2843.92z"/>
				<path style="fill:#FFFFFF;" d="M2278.33,2766.218c-35.412,0-71.049-7.832-72.924-8.25c-1.824-0.407-2.975-2.217-2.567-4.042
					c0.404-1.823,2.223-2.988,4.041-2.567c0.566,0.125,56.997,12.538,97.28,6.326c1.87-0.286,3.578,0.984,3.862,2.833
					s-0.984,3.578-2.832,3.864C2296.647,2765.696,2287.493,2766.218,2278.33,2766.218z"/>
				<path style="fill:#FFFFFF;" d="M2628.922,3035.65c-0.895,0-1.789-0.35-2.454-1.051c-1.444-1.519-35.744-38.4-70.204-144.211
					c-0.579-1.779,0.394-3.689,2.171-4.268c1.777-0.589,3.689,0.391,4.27,2.173c33.987,104.359,68.329,141.277,68.671,141.637
					c1.288,1.358,1.235,3.5-0.121,4.791C2630.6,3035.343,2629.761,3035.65,2628.922,3035.65z"/>
				<path style="fill:#FFFFFF;" d="M2602.53,2895.108c-22.651,0-42.04-2.237-43.443-2.405c-1.858-0.219-3.185-1.9-2.966-3.76
					c0.219-1.856,1.89-3.19,3.761-2.964c0.59,0.067,59.65,6.875,91.816-3.217c1.774-0.566,3.685,0.431,4.245,2.217
					c0.561,1.785-0.431,3.685-2.217,4.244C2639.168,2893.791,2619.891,2895.108,2602.53,2895.108z"/>
				<path style="fill:#FFFFFF;" d="M2530.208,2987.023c-0.568,0-1.145-0.142-1.674-0.445c-1.625-0.926-2.191-2.995-1.265-4.618
					c20.202-35.428,28.782-92.538,28.866-93.111c0.273-1.853,1.994-3.113,3.844-2.86c1.849,0.273,3.129,1.994,2.857,3.844
					c-0.352,2.392-8.855,58.956-29.682,95.482C2532.529,2986.41,2531.385,2987.023,2530.208,2987.023z"/>
				<path style="fill:#FFFFFF;" d="M2609.844,2711.389c-0.819,0-1.639-0.297-2.289-0.893c-0.709-0.647-71.935-64.666-178.701-44.268
					c-1.834,0.387-3.611-0.852-3.962-2.688c-0.35-1.839,0.854-3.611,2.692-3.962c110.202-21.064,183.825,45.262,184.554,45.932
					c1.376,1.267,1.465,3.406,0.2,4.783C2611.671,2711.021,2610.758,2711.389,2609.844,2711.389z"/>
				<path style="fill:#FFFFFF;" d="M2470.282,2749.556c-1.578,0-2.991-1.108-3.317-2.715c-6.685-33.04-41.154-81.482-41.5-81.967
					c-1.088-1.519-0.738-3.635,0.783-4.723c1.519-1.088,3.636-0.738,4.725,0.781c1.452,2.028,35.657,50.099,42.633,84.568
					c0.371,1.833-0.815,3.618-2.648,3.989C2470.73,2749.536,2470.504,2749.556,2470.282,2749.556z"/>
				<path style="fill:#FFFFFF;" d="M2428.222,2666.289c-1.022,0-2.033-0.458-2.7-1.337c-1.132-1.489-0.842-3.611,0.647-4.743
					c0.462-0.35,46.354-35.452,67.62-70.224c0.975-1.59,3.064-2.095,4.656-1.122c1.595,0.977,2.099,3.062,1.122,4.659
					c-21.937,35.87-67.376,70.618-69.299,72.077C2429.655,2666.066,2428.934,2666.289,2428.222,2666.289z"/>
			</g>
		</g>
		<g>
			
				<linearGradient id="SVGID_00000013904762545746075700000009785465109413991305_" gradientUnits="userSpaceOnUse" x1="716.8114" y1="2799.2253" x2="982.3792" y2="3459.9824" gradientTransform="matrix(0.9936 -0.1129 0.1129 0.9936 -350.3756 -165.9916)">
				<stop  offset="0" style="stop-color:#CB236D"/>
				<stop  offset="1" style="stop-color:#4C246D"/>
			</linearGradient>
			<path style="fill:url(#SVGID_00000013904762545746075700000009785465109413991305_);" d="M563.814,2242.573
				c0,0,4.284,106.971-94.782,286.323c-99.066,179.352-37.74,336.978,139.96,388.846c177.7,51.867,504.012-31.949,483.447-262.661
				c-20.565-230.712-267.453-184.25-360.342-286.899c-92.889-102.649-106.054-147.066-106.054-147.066L563.814,2242.573z"/>
			<g>
				<path style="fill:#FFFFFF;" d="M506.524,2788.357c-1.524,0-2.911-1.038-3.286-2.587
					c-18.381-75.429,2.078-153.573,26.924-226.784c19.806-58.366,43.445-145.973,43.584-231.875c0.003-1.87,1.509-3.281,3.392-3.379
					c1.871,0.003,3.384,1.519,3.382,3.392c-0.142,86.818-23.975,175.193-43.945,234.037c-24.518,72.242-44.73,149.26-26.759,223.005
					c0.443,1.816-0.67,3.648-2.488,4.093C507.06,2788.323,506.79,2788.357,506.524,2788.357z"/>
				<path style="fill:#FFFFFF;" d="M798.841,2734.296c-0.783,0-1.57-0.27-2.21-0.822
					c-111.819-96.453-187.893-244.295-198.536-385.838c-0.14-1.863,1.258-3.49,3.123-3.628c1.873-0.115,3.492,1.26,3.631,3.123
					c10.514,139.818,85.695,285.888,196.205,381.216c1.417,1.22,1.575,3.359,0.352,4.777
					C800.738,2733.898,799.793,2734.296,798.841,2734.296z"/>
				<path style="fill:#FFFFFF;" d="M839.456,2544.328c-0.593,0-1.193-0.155-1.738-0.482c-38.486-23.079-78.282-46.946-114.597-77.44
					c-36.003-30.234-74.068-79.976-96.975-126.724c-0.822-1.677-0.128-3.706,1.551-4.531c1.681-0.812,3.707-0.132,4.533,1.553
					c22.522,45.966,59.909,94.843,95.247,124.514c35.904,30.15,75.466,53.875,113.724,76.82c1.604,0.96,2.124,3.042,1.162,4.645
					C841.728,2543.742,840.607,2544.328,839.456,2544.328z"/>
			</g>
		</g>
		<g>
			
				<linearGradient id="SVGID_00000048465679016954450440000010949468380633053316_" gradientUnits="userSpaceOnUse" x1="3241.0828" y1="2599.1931" x2="2393.6035" y2="3521.0134" gradientTransform="matrix(1 0 0 1 -1072.0282 0)">
				<stop  offset="0" style="stop-color:#FDF53F"/>
				<stop  offset="1" style="stop-color:#D93C65"/>
			</linearGradient>
			<path style="fill:url(#SVGID_00000048465679016954450440000010949468380633053316_);" d="M1901.166,2667.863
				c0,0-8.776,49.687-13.079,98.87c-1.682,19.223,13.137,35.913,32.417,36.715c65.498,2.729,205.604,8.032,255.877,5.79
				c7.558-0.336,12.499-8.074,9.702-15.104l0,0c-2.343-5.89-6.864-10.652-12.624-13.299l-231.428-106.364L1901.166,2667.863z"/>
			
				<linearGradient id="SVGID_00000128458004559027351830000015190569017529203884_" gradientUnits="userSpaceOnUse" x1="2966.0046" y1="2667.6582" x2="3041.2805" y2="2667.6582" gradientTransform="matrix(1 0 0 1 -1072.0282 0)">
				<stop  offset="0" style="stop-color:#F9B776"/>
				<stop  offset="1" style="stop-color:#F47960"/>
			</linearGradient>
			<path style="fill:url(#SVGID_00000128458004559027351830000015190569017529203884_);" d="M1893.976,2638.669l7.052,59.431
				c0,0,40.54,18.873,68.224-2.379l-16.789-66.23L1893.976,2638.669z"/>
			
				<linearGradient id="SVGID_00000036934183862209994010000017843117280744826497_" gradientUnits="userSpaceOnUse" x1="2077.4656" y1="2061.3633" x2="1356.7028" y2="2145.5398">
				<stop  offset="0" style="stop-color:#2B3582"/>
				<stop  offset="1" style="stop-color:#150E42"/>
			</linearGradient>
			<path style="fill:url(#SVGID_00000036934183862209994010000017843117280744826497_);" d="M1899.275,1521.338
				c-3.047,15.52-16.349,774.494,64.781,1114.615c1.323,5.551-1.491,11.271-6.773,13.428c-12.443,5.084-36.837,12.445-66.071,13.429
				c-9.053,0.304-17.171-5.58-19.726-14.27c-23.191-78.913-134.314-474.293-148.811-851.987c-16.197-422.035,0-14.37,0-14.37
				l9.501-260.877L1899.275,1521.338z"/>
			
				<linearGradient id="SVGID_00000047030374867177791630000003553520661103393920_" gradientUnits="userSpaceOnUse" x1="3050.9634" y1="2424.4087" x2="2203.4873" y2="3346.2256" gradientTransform="matrix(1 0 0 1 -1072.0282 0)">
				<stop  offset="0" style="stop-color:#FDF53F"/>
				<stop  offset="1" style="stop-color:#D93C65"/>
			</linearGradient>
			<path style="fill:url(#SVGID_00000047030374867177791630000003553520661103393920_);" d="M1634.948,2693.784
				c0,0-13.97,25.084-27.495,91.737c-2.443,12.036,5.967,23.558,18.19,24.76c21.627,2.125,54.922,4.861,81.593,4.677
				c12.295-0.084,21.891-10.791,20.409-22.996c-2.954-24.329-12.158-64.244-40.59-95.354L1634.948,2693.784z"/>
			
				<linearGradient id="SVGID_00000168837936293348170410000014200298003031362723_" gradientUnits="userSpaceOnUse" x1="2694.7058" y1="2663.7976" x2="2759.7009" y2="2663.7976" gradientTransform="matrix(1 0 0 1 -1072.0282 0)">
				<stop  offset="0" style="stop-color:#F9B776"/>
				<stop  offset="1" style="stop-color:#F47960"/>
			</linearGradient>
			<path style="fill:url(#SVGID_00000168837936293348170410000014200298003031362723_);" d="M1622.678,2617.342l16.476,89.875
				c0,0,16.291,12.117,48.519,3.334l-7.865-96.701L1622.678,2617.342z"/>
			
				<linearGradient id="SVGID_00000109711192554822188140000001842263696982739337_" gradientUnits="userSpaceOnUse" x1="2643.415" y1="1430.4093" x2="2245.2659" y2="48.5991" gradientTransform="matrix(1 0 0 1 -1072.0282 0)">
				<stop  offset="0" style="stop-color:#2B3582"/>
				<stop  offset="1" style="stop-color:#150E42"/>
			</linearGradient>
			<path style="fill:url(#SVGID_00000109711192554822188140000001842263696982739337_);" d="M1554.8,1526.567
				c-66.351,400.441,37.759,1007.784,64.991,1123.12c1.668,7.061,7.366,12.471,14.523,13.658c12.156,2.015,32.169,3.659,51.898-2.07
				c6.797-1.975,11.573-8.106,11.85-15.179c3.654-93.247-2.923-665.688,58.903-891.92c3.133-11.464,10.136-21.463,19.822-28.35
				l119.999-85.309l5.243-113.949H1554.8z"/>
			<g>
				
					<linearGradient id="SVGID_00000167370361699088615620000013051206345500834714_" gradientUnits="userSpaceOnUse" x1="2003.8563" y1="793.5718" x2="2042.1478" y2="755.2802">
					<stop  offset="0" style="stop-color:#F9B776"/>
					<stop  offset="1" style="stop-color:#F47960"/>
				</linearGradient>
				<path style="fill:url(#SVGID_00000167370361699088615620000013051206345500834714_);" d="M2035.696,736.409
					c1.552,1.552-24.838,13.972-23.286,24.838c1.552,10.867,1.552,21.733,12.419,20.181c10.866-1.552,55.885-35.704,55.885-35.704
					L2035.696,736.409z"/>
				
					<linearGradient id="SVGID_00000009562208581955796440000005441352102415059332_" gradientUnits="userSpaceOnUse" x1="1585.3763" y1="707.1866" x2="2132.5591" y2="1917.9746">
					<stop  offset="0" style="stop-color:#F9B776"/>
					<stop  offset="1" style="stop-color:#F47960"/>
				</linearGradient>
				<path style="fill:url(#SVGID_00000009562208581955796440000005441352102415059332_);" d="M1520.307,1194.359l-32.599-58.99
					c0,0-29.495,68.304-124.19,110.218c0,0,24.838,6.21,46.571,41.914c21.733,35.705,130.4,170.761,130.4,170.761l-6.21,45.019
					c0,0-137.802-4.591-237.513-65.2c-79.171-48.123-86.933-105.561-86.933-105.561s-37.257-3.105-45.019-37.257
					c-7.762-34.152,12.419-66.752,12.419-66.752s-24.838-208.018,197.151-293.398c0,0,32.6-77.619,121.085-68.304l99.352-51.229
					l198.704-4.657l111.771,34.152c0,0,34.152,0,51.229,21.734c0,0,196.375-34.929,287.189,139.713
					c0,0-33.103-70.773-32.749-174.143c0.138-40.181-9.001-79.855-26.241-116.15h-0.001l29.496-34.152
					c0,0,125.742,167.657,161.447,253.037s13.971,156.79,13.971,156.79s15.523,34.152-13.971,66.752c0,0-20.181,21.733-55.885,7.762
					c0,0-74.514,29.495-139.714,21.734c-45.844-5.458-100.896-42.382-129.544-63.824c-12.214-9.142-27.779-12.477-42.72-9.391
					c-23.598,4.874-61.132,9.387-93.192-1.299L1520.307,1194.359z"/>
				
					<linearGradient id="SVGID_00000169557136449911366200000009549713827090997430_" gradientUnits="userSpaceOnUse" x1="1621.4685" y1="650.6218" x2="2268.4126" y2="2082.158">
					<stop  offset="0" style="stop-color:#F9B776"/>
					<stop  offset="1" style="stop-color:#F47960"/>
				</linearGradient>
				<path style="fill:url(#SVGID_00000169557136449911366200000009549713827090997430_);" d="M1645.274,647.148
					c0,1.552-56.661,190.166-56.661,190.166s130.399,17.076,211.123-6.209l-41.914-138.161L1645.274,647.148z"/>
				
					<linearGradient id="SVGID_00000127752381490910178840000005553548819717694094_" gradientUnits="userSpaceOnUse" x1="1762.8574" y1="1057.2802" x2="1517.2432" y2="1817.0455">
					<stop  offset="0" style="stop-color:#5a84fb"/>
					<stop  offset="1" style="stop-color:#2c148f"/>
				</linearGradient>
				<path style="fill:url(#SVGID_00000127752381490910178840000005553548819717694094_);" d="M1864.713,834.151
					c-1.645,32.056-9.665,217.889,74.205,284.823l-36.888,439.159c-57.872,31.566-215.703,42.088-352.49,10.523
					c0,0-10.603-194.221-18.365-245.45c-7.762-51.228-43.466-187.837-43.466-187.837s117.113-89.897,41.559-284.143
					c-0.676-1.739,0.03-3.715,1.667-4.609l27.724-15.122c1.659-0.904,3.704,0.165,3.894,2.045
					c2.418,24.045,21.187,148.201,150.25,134.173c124.442-13.526,119.239-116.627,115.84-142.933
					c-0.369-2.856,2.322-5.136,5.086-4.33l26.795,7.815C1863.116,829.021,1864.851,831.454,1864.713,834.151z"/>
				
					<linearGradient id="SVGID_00000120538542547640089640000010017821984976357268_" gradientUnits="userSpaceOnUse" x1="1487.708" y1="999.1027" x2="1938.9175" y2="999.1027">
					<stop  offset="0" style="stop-color:#2B3582"/>
					<stop  offset="1" style="stop-color:#150E42"/>
				</linearGradient>
				<path style="fill:url(#SVGID_00000120538542547640089640000010017821984976357268_);" d="M1594.822,964.608
					c0,0,38.558,42.552,117.981,35.705c90.037-7.762,119.533-68.304,119.533-68.304s6.613,160.103,103.701,221.273
					c2.304-18.989,2.882-34.308,2.882-34.308c-83.87-66.934-75.85-252.768-74.205-284.823c0.138-2.697-1.597-5.129-4.189-5.886
					l-26.795-7.815c-2.764-0.806-5.455,1.474-5.086,4.33c3.399,26.307,8.602,129.407-115.84,142.933
					c-129.064,14.028-147.832-110.128-150.25-134.173c-0.189-1.88-2.236-2.949-3.894-2.044l-27.724,15.122
					c-1.638,0.893-2.344,2.87-1.667,4.609c75.554,194.245-41.559,284.143-41.559,284.143s4.602,17.608,10.86,42.55
					C1535.184,1156.011,1607.678,1095.513,1594.822,964.608z"/>
				
					<linearGradient id="SVGID_00000147917081958092743870000014738416982101576634_" gradientUnits="userSpaceOnUse" x1="1371.4994" y1="1158.3827" x2="1343.558" y2="1209.6085">
					<stop  offset="0" style="stop-color:#F9B776"/>
					<stop  offset="1" style="stop-color:#F47960"/>
				</linearGradient>
				<path style="fill:url(#SVGID_00000147917081958092743870000014738416982101576634_);" d="M1355.758,1248.693
					c-0.296,0-0.596-0.043-0.894-0.132c-29.772-8.931-61.586-0.077-61.904,0.012c-1.651,0.471-3.367-0.487-3.836-2.134
					c-0.47-1.649,0.484-3.366,2.133-3.837c1.367-0.391,33.839-9.455,65.392,0.011c1.643,0.493,2.574,2.223,2.082,3.866
					C1358.327,1247.824,1357.093,1248.693,1355.758,1248.693z"/>
				
					<linearGradient id="SVGID_00000111182744867562348820000013559188843906358936_" gradientUnits="userSpaceOnUse" x1="1514.14" y1="1460.171" x2="1692.165" y2="1460.171">
					<stop  offset="0" style="stop-color:#F9B776"/>
					<stop  offset="1" style="stop-color:#F47960"/>
				</linearGradient>
				<path style="fill:url(#SVGID_00000111182744867562348820000013559188843906358936_);" d="M1514.143,1449.603
					c-0.06-3.498,0.864-6.947,2.664-9.946c7.709-12.842,30.191-47.863,45.415-46.594c18.628,1.552,97.8,38.809,107.114,43.466
					c3.891,1.945,6.97,6.871,9.235,11.949c2.479,5.553-3.15,11.287-8.796,9.029l-56.325-22.53c0,0,68.304,37.257,76.066,46.571
					c7.762,9.314-3.105,17.076-12.419,13.972c-9.314-3.105-71.409-40.362-71.409-40.362s66.752,40.362,68.304,51.228
					c1.552,10.867-15.524,7.762-31.047,0c-15.524-7.762-51.229-29.495-51.229-29.495s45.019,29.495,51.229,37.257
					c6.209,7.762,1.552,13.8-14.748,13.11c-16.3-0.691-65.975-33.291-65.975-33.291l-12.419,12.419
					C1549.803,1506.386,1515.551,1531.703,1514.143,1449.603z"/>
				
					<linearGradient id="SVGID_00000138542581494344615460000013324263934969098378_" gradientUnits="userSpaceOnUse" x1="2025.4137" y1="508.3238" x2="2572.5964" y2="1719.1119">
					<stop  offset="0" style="stop-color:#F9B776"/>
					<stop  offset="1" style="stop-color:#F47960"/>
				</linearGradient>
				<path style="fill:url(#SVGID_00000138542581494344615460000013324263934969098378_);" d="M2218.876,692.943
					c0,0-1.552-17.076-12.419-21.733c-10.535-4.515-91.113-36.756-152.604-18.909c-3.703,1.075-6.854,3.517-8.901,6.784
					c-10.402,16.596-42.012,69.732-26.333,78.878c0,0,0,12.419,15.524,10.867c0,0,12.419,7.762,26.39,3.105
					c0,0,31.048,3.105,48.123,0c17.076-3.105,13.972-9.315,13.972-9.315s49.676,9.315,72.962-12.419
					C2218.876,708.467,2218.876,692.943,2218.876,692.943z"/>
				
					<linearGradient id="SVGID_00000124846970993800417350000013169985778797852040_" gradientUnits="userSpaceOnUse" x1="2117.2454" y1="595.4138" x2="2055.1509" y2="677.1718">
					<stop  offset="0" style="stop-color:#F9B776"/>
					<stop  offset="1" style="stop-color:#F47960"/>
				</linearGradient>
				<path style="fill:url(#SVGID_00000124846970993800417350000013169985778797852040_);" d="M2020.171,735.634
					c-0.35,0-0.706-0.079-1.04-0.246c-1.15-0.575-1.616-1.974-1.041-3.124l29.495-58.99c0.576-1.149,1.976-1.614,3.125-1.041
					c1.15,0.576,1.616,1.974,1.042,3.124l-29.495,58.99C2021.846,735.161,2021.024,735.634,2020.171,735.634z"/>
				
					<linearGradient id="SVGID_00000160184198828596196950000011831465450535554227_" gradientUnits="userSpaceOnUse" x1="2130.9468" y1="605.8201" x2="2068.8518" y2="687.5787">
					<stop  offset="0" style="stop-color:#F9B776"/>
					<stop  offset="1" style="stop-color:#F47960"/>
				</linearGradient>
				<path style="fill:url(#SVGID_00000160184198828596196950000011831465450535554227_);" d="M2037.246,744.948
					c-0.312,0-0.63-0.063-0.934-0.197c-1.177-0.517-1.714-1.891-1.196-3.068l27.942-63.647c0.517-1.179,1.89-1.714,3.069-1.196
					c1.177,0.517,1.713,1.89,1.196,3.069l-27.943,63.647C2038.997,744.428,2038.143,744.948,2037.246,744.948z"/>
				
					<linearGradient id="SVGID_00000089547840224209807230000006833842221498982836_" gradientUnits="userSpaceOnUse" x1="2147.6028" y1="618.47" x2="2085.5076" y2="700.2288">
					<stop  offset="0" style="stop-color:#F9B776"/>
					<stop  offset="1" style="stop-color:#F47960"/>
				</linearGradient>
				<path style="fill:url(#SVGID_00000089547840224209807230000006833842221498982836_);" d="M2060.534,751.156
					c-0.596,0-1.191-0.227-1.646-0.682l-0.343-0.344c-5.108-5.108-6.172-13.056-2.588-19.33l25.843-45.223
					c0.638-1.116,2.06-1.504,3.176-0.867c1.117,0.638,1.505,2.06,0.867,3.177l-25.843,45.223
					c-2.545,4.455-1.789,10.099,1.838,13.727l0.344,0.343c0.909,0.909,0.909,2.384,0,3.293
					C2061.726,750.93,2061.129,751.156,2060.534,751.156z"/>
				<g>
					
						<linearGradient id="SVGID_00000093891557671899507150000016038213269005208464_" gradientUnits="userSpaceOnUse" x1="744.0208" y1="-796.8589" x2="529.5865" y2="-513.1799" gradientTransform="matrix(0.9916 -0.1286 0.1286 0.9916 1164.9384 1476.9974)">
						<stop  offset="0" style="stop-color:#F9B776"/>
						<stop  offset="1" style="stop-color:#F47960"/>
					</linearGradient>
					<path style="fill:url(#SVGID_00000093891557671899507150000016038213269005208464_);" d="M1841.797,584.506
						c0.365,2.803-39.618,185.375-39.618,185.375l-103.76-25.045l12.187-178.67C1710.605,566.167,1835.708,537.575,1841.797,584.506
						z"/>
					
						<linearGradient id="SVGID_00000163073241150199387790000007099471301359728529_" gradientUnits="userSpaceOnUse" x1="580.2512" y1="-728.7336" x2="836.3933" y2="-728.7336" gradientTransform="matrix(0.9916 -0.1286 0.1286 0.9916 1164.9384 1476.9974)">
						<stop  offset="0" style="stop-color:#2B3582"/>
						<stop  offset="1" style="stop-color:#150E42"/>
					</linearGradient>
					<path style="fill:url(#SVGID_00000163073241150199387790000007099471301359728529_);" d="M1740.937,596.252
						c-4.138,2.344-6.95,6.441-7.644,11.147l-13.582,92.201c-0.204,1.399-0.23,2.796-0.04,4.197
						c1.046,7.726,6.355,32.054,31.364,25.352c21.317-5.709,40.985-10.665,55.251-7.663c8.331,1.75,13.533,10.069,11.681,18.379
						c-3.816,17.115-12.212,51.495-23.961,80.994c-2.945,7.393-11.135,11.208-18.733,8.844
						c-20.053-6.239-58.846-19.595-88.235-37.591c-4.827-2.955-7.622-8.305-7.304-13.957c1.395-24.87,5.023-94.597,3.017-114.438
						c-1.862-18.433-23.724-29.977-34.153-34.469c-3.96-1.705-7.009-4.946-8.454-9.008c-4.338-12.18-8.756-37.278,22.746-47.822
						c7.833-2.621,12.005-11.246,9.544-19.132c-4.406-14.129-5.107-34.442,20.454-45.461c25.874-11.154,45.172,1.757,56.125,13.222
						c4.847,5.072,12.63,6.73,18.808,3.406c2.748-1.478,6.124-1.891,10.07,0.195c7.44,3.935,16.411,1.533,20.394-5.882
						c6.832-12.714,20.111-25.619,45.482-20.9c46.534,8.655,51.079,60.422,38.339,90.536c-12.737,30.116-62.654,17.863-87.56,2.233
						C1776.251,579.155,1752.341,589.794,1740.937,596.252z"/>
					
						<linearGradient id="SVGID_00000183232614082942753980000009310087161551918216_" gradientUnits="userSpaceOnUse" x1="429.9616" y1="-572.2067" x2="601.9526" y2="-748.6648" gradientTransform="matrix(0.9916 -0.1286 0.1286 0.9916 1164.9384 1476.9974)">
						<stop  offset="0" style="stop-color:#F9B776"/>
						<stop  offset="1" style="stop-color:#F47960"/>
					</linearGradient>
					<path style="fill:url(#SVGID_00000183232614082942753980000009310087161551918216_);" d="M1678.074,697.83
						c0,0,19.943-53.428,0.43-66.86c-19.515-13.433-48.793-7.022-42.924,31.971C1642.882,711.446,1678.074,697.83,1678.074,697.83z"
						/>
				</g>
			</g>
		</g>
		<g>
			
				<linearGradient id="SVGID_00000127734257314181902750000016438478783738527915_" gradientUnits="userSpaceOnUse" x1="2069.2229" y1="2340.676" x2="1386.2131" y2="3313.446">
				<stop  offset="0" style="stop-color:#FDF53F"/>
				<stop  offset="1" style="stop-color:#D93C65"/>
			</linearGradient>
			<path style="fill:url(#SVGID_00000127734257314181902750000016438478783738527915_);" d="M1899.443,2384.252
				c-39.959,14.921-83.95,15.318-124.396,1.771c-45.011-15.075-118.064-18.304-228.769,31.313
				c-217.055,97.283-209.386,521.74,98.708,585.221c402.38,82.907,591.132-116.405,625.87-259.786s-57.18-325.706-235.767-364.663
				C1976.603,2365.352,1931.7,2372.207,1899.443,2384.252z"/>
			<path style="opacity:0.23;fill:#FFFFFF;" d="M1621.363,2449.2c35.352,2.289,101.259,17.38,40.836,94.64
				c-60.423,77.259-111.097,204.847-85.295,287.577c25.802,82.73-142.027-19.524-151.604-129.543
				C1415.724,2591.854,1511.56,2442.092,1621.363,2449.2z"/>
			
				<linearGradient id="SVGID_00000079477012615215579540000004579142458618436538_" gradientUnits="userSpaceOnUse" x1="1914.8365" y1="2336.5977" x2="1801.3251" y2="2479.3298">
				<stop  offset="0" style="stop-color:#FDF53F"/>
				<stop  offset="1" style="stop-color:#D93C65"/>
			</linearGradient>
			<path style="fill:url(#SVGID_00000079477012615215579540000004579142458618436538_);" d="M1953.697,2432.598
				c0,20.117-51.854,36.426-115.819,36.426c-63.966,0-115.82-16.308-115.82-36.426s51.854,0,115.82,0
				C1901.843,2432.598,1953.697,2412.48,1953.697,2432.598z"/>
			
				<linearGradient id="SVGID_00000145763832299683990520000003117122210280917166_" gradientUnits="userSpaceOnUse" x1="1960.6357" y1="2128.5476" x2="2003.475" y2="2792.553">
				<stop  offset="0" style="stop-color:#41A362"/>
				<stop  offset="1" style="stop-color:#204F2E"/>
			</linearGradient>
			<path style="fill:url(#SVGID_00000145763832299683990520000003117122210280917166_);" d="M1807.845,2427.656
				c0,0-36.848-152.967,137.862-250.885c174.71-97.917,170.773-106.776,180.312-54.981c9.539,51.794,62.26,235.361-129.188,314.226
				C1805.383,2514.881,1807.845,2427.656,1807.845,2427.656z"/>
			<path style="opacity:0.23;fill:#FFFFFF;" d="M2094.497,2127.474c-27.409,44.628-154.681,246.035-266.676,325.649
				c0,0,132.831,17.138,228.123-72.093c81.496-76.313,55.727-214.019,46.557-252.293
				C2101.589,2124.933,2096.544,2124.141,2094.497,2127.474z"/>
			
				<linearGradient id="SVGID_00000058570993536805720200000015999986630237820081_" gradientUnits="userSpaceOnUse" x1="1779.3374" y1="2376.5991" x2="1707.9393" y2="2571.7544">
				<stop  offset="0" style="stop-color:#41A362"/>
				<stop  offset="0.4782" style="stop-color:#317B49"/>
				<stop  offset="1" style="stop-color:#204F2E"/>
			</linearGradient>
			<path style="fill:url(#SVGID_00000058570993536805720200000015999986630237820081_);" d="M1811.343,2457.746
				c2.925,20.359,20.257-2.088,12.132-42.529s-16.466-136.612-74.849-119.803
				C1690.242,2312.223,1798.996,2371.822,1811.343,2457.746z"/>
		</g>
		<g>
			
				<linearGradient id="SVGID_00000152236434895894340260000015794783564108058523_" gradientUnits="userSpaceOnUse" x1="1274.1794" y1="2310.6194" x2="772.475" y2="3063.1753">
				<stop  offset="0" style="stop-color:#CB236D"/>
				<stop  offset="1" style="stop-color:#4C246D"/>
			</linearGradient>
			<path style="fill:url(#SVGID_00000152236434895894340260000015794783564108058523_);" d="M896.779,2321
				c0,0-56.008,130.805-119.227,255.265c-63.219,124.46-78.74,268.038,72.343,344.91c151.083,76.873,360.841,53.912,442.874-83.21
				c82.033-137.122-19.136-249.652-121.045-322.65s-190.492-101.82-212.987-210.377L896.779,2321z"/>
			<path style="fill:#FFFFFF;" d="M1109.011,2784.527c-1.854,0-3.367-1.492-3.386-3.352
				c-0.677-67.266-33.835-118.676-72.232-178.201c-36.897-57.204-78.718-122.038-96.128-212.68
				c-0.352-1.839,0.851-3.615,2.688-3.965c1.834-0.364,3.611,0.849,3.965,2.685c17.16,89.351,58.604,153.603,95.168,210.288
				c38.964,60.411,72.616,112.579,73.311,181.805c0.018,1.87-1.482,3.402-3.354,3.419
				C1109.033,2784.527,1109.021,2784.527,1109.011,2784.527z"/>
			<path style="fill:#FFFFFF;" d="M851.57,2653.228c-0.293,0-0.59-0.04-0.886-0.121c-1.806-0.489-2.874-2.345-2.385-4.15
				c4.847-17.928,10.074-35.52,15.607-54.145c16.561-55.735,35.329-118.912,47.879-207.96c0.263-1.853,1.967-3.163,3.827-2.88
				c1.851,0.26,3.141,1.974,2.88,3.823c-12.621,89.55-31.465,152.983-48.093,208.947c-5.521,18.582-10.736,36.136-15.562,53.98
				C854.43,2652.234,853.062,2653.228,851.57,2653.228z"/>
			<path style="fill:#FFFFFF;" d="M1269.193,2772.878c-1.627,0-3.064-1.176-3.338-2.833
				c-15.373-92.825-67.969-168.755-165.516-238.956c-45.688-32.878-101.849-77.13-130.846-127.916
				c-0.928-1.624-0.362-3.692,1.262-4.619c1.627-0.923,3.694-0.36,4.62,1.263c28.349,49.648,83.788,93.296,128.919,125.774
				c99.097,71.312,152.558,148.637,168.245,243.348c0.305,1.843-0.943,3.588-2.788,3.894
				C1269.562,2772.864,1269.377,2772.878,1269.193,2772.878z"/>
		</g>
		<g>
			
				<linearGradient id="SVGID_00000176724093294325853310000009309859411977151662_" gradientUnits="userSpaceOnUse" x1="822.5446" y1="2363.3418" x2="639.1751" y2="2906.9011" gradientTransform="matrix(0.9844 0.1759 -0.1759 0.9844 1067.6812 149.3792)">
				<stop  offset="0" style="stop-color:#5a84fb"/>
				<stop  offset="1" style="stop-color:#4e31e2"/>
			</linearGradient>
			<path style="fill:url(#SVGID_00000176724093294325853310000009309859411977151662_);" d="M1397.003,2730.78
				c0,0-77.443,29.55-109.502-60.905c-32.059-90.455,85.214-113.472,140.366-111.868c73.447,2.136,145.806,27.251,131.497,107.351
				c-7.734,43.293-57.313,55.834-57.313,55.834s-0.436,14.919,6.683,33.766c8.807,23.314,25.448,51.973,24.388,57.906
				c-1.917,10.729-114.321,47.159-126.071,33.479c0,0-1.546-36.707-2.516-64.751
				C1403.637,2755.604,1397.003,2730.78,1397.003,2730.78z"/>
			
				<linearGradient id="SVGID_00000044883258341222300060000014462636239121733299_" gradientUnits="userSpaceOnUse" x1="463.063" y1="2647.0122" x2="279.6877" y2="3190.5889" gradientTransform="matrix(0.9997 0.0233 -0.0233 0.9997 906.2009 40.8947)">
				<stop  offset="0" style="stop-color:#5a84fb"/>
				<stop  offset="1" style="stop-color:#2c148f"/>
			</linearGradient>
			<path style="fill:url(#SVGID_00000044883258341222300060000014462636239121733299_);" d="M1243.944,2862.848
				c0,0-66.065,37.646-107.81-39.863c-41.745-77.51,61.344-114.817,111.568-121.095c66.884-8.361,136.004,4.263,134.262,78.885
				c-0.942,40.333-44.13,58.653-44.13,58.653s1.697,13.587,10.793,29.675c11.252,19.901,30.357,43.55,30.228,49.077
				c-0.233,9.995-97.029,58.781-109.598,48.025c0,0-6.547-33.06-11.358-58.348
				C1253.439,2884.423,1243.944,2862.848,1243.944,2862.848z"/>
			
				<linearGradient id="SVGID_00000111180140223765927850000013200652366352896400_" gradientUnits="userSpaceOnUse" x1="1349.6556" y1="2115.5029" x2="1166.2825" y2="2659.0732" gradientTransform="matrix(0.948 0.3182 -0.3182 0.948 1213.3933 258.206)">
				<stop  offset="0" style="stop-color:#5a84fb"/>
				<stop  offset="1" style="stop-color:#2c148f"/>
			</linearGradient>
			<path style="fill:url(#SVGID_00000111180140223765927850000013200652366352896400_);" d="M1659.532,2899.337
				c0,0-65.832,14.546-80.846-62.055c-15.014-76.601,82.087-81.143,126.27-73.28c58.84,10.472,114.067,39.303,93.008,102.046
				c-11.382,33.912-52.768,38.093-52.768,38.093s-2.129,11.952,1.353,27.965c4.307,19.808,14.281,44.85,12.721,49.497
				c-2.821,8.404-97.603,24.319-105.426,11.912c0,0,3.131-29.718,5.693-52.398
				C1661.912,2920.101,1659.532,2899.337,1659.532,2899.337z"/>
			<path style="fill:#FFFFFF;" d="M1242.37,2868.916c-0.921,0-1.838-0.371-2.506-1.105c-1.258-1.385-1.159-3.527,0.226-4.783
				c8.09-7.364,13.057-14.004,15.634-20.899c3.163-8.472,2.308-17.443-2.234-23.409c-4.797-6.31-14.386-8.317-20.12-4.224
				c-1.528,1.092-3.64,0.734-4.724-0.788c-1.088-1.523-0.734-3.635,0.786-4.723c8.688-6.202,22.447-3.567,29.448,5.633
				c5.937,7.802,7.159,19.252,3.188,29.884c-2.968,7.94-8.503,15.419-17.421,23.537
				C1243.999,2868.626,1243.182,2868.916,1242.37,2868.916z"/>
			<path style="fill:#FFFFFF;" d="M1333.121,2844.203c-10.921,0-21.903-5.996-27.194-15.627
				c-6.604-12.019-3.679-28.489,6.662-37.497c1.411-1.23,3.552-1.085,4.778,0.33c1.228,1.408,1.081,3.547-0.328,4.777
				c-8.033,6.997-10.307,19.791-5.176,29.129c5.129,9.335,17.148,14.276,27.364,11.248c1.796-0.525,3.677,0.489,4.211,2.284
				c0.531,1.792-0.492,3.679-2.284,4.211C1338.538,2843.833,1335.831,2844.203,1333.121,2844.203z"/>
			<path style="fill:#FFFFFF;" d="M1399.513,2731.742c-0.921,0-1.839-0.371-2.508-1.108c-1.258-1.381-1.156-3.524,0.227-4.784
				c8.088-7.354,13.055-13.994,15.634-20.893c3.163-8.472,2.309-17.443-2.233-23.409c-4.797-6.306-14.386-8.314-20.118-4.224
				c-1.523,1.092-3.64,0.734-4.725-0.788c-1.088-1.519-0.734-3.635,0.787-4.723c8.684-6.195,22.446-3.567,29.446,5.633
				c5.937,7.799,7.158,19.249,3.188,29.884c-2.969,7.947-8.506,15.425-17.421,23.534
				C1401.142,2731.453,1400.325,2731.742,1399.513,2731.742z"/>
			<path style="fill:#FFFFFF;" d="M1491.504,2726.74c-12.099,0-23.22-6.822-29.869-18.922c-4.934-8.978-4.408-21.583,1.25-29.968
				c4.896-7.263,12.853-10.652,22.402-9.503c1.858,0.219,3.185,1.903,2.965,3.763c-0.221,1.856-1.922,3.21-3.763,2.961
				c-7.012-0.835-12.531,1.438-15.988,6.566c-4.248,6.299-4.649,16.153-0.93,22.92c6.79,12.35,19.198,17.949,31.62,14.267
				c1.796-0.529,3.677,0.489,4.211,2.284c0.531,1.792-0.492,3.679-2.284,4.211C1497.887,2726.275,1494.662,2726.74,1491.504,2726.74
				z"/>
			<path style="fill:#FFFFFF;" d="M1657.748,2904.594c-1.156,0-2.281-0.59-2.914-1.654c-0.957-1.607-0.43-3.686,1.179-4.642
				c8.312-4.949,13.786-9.82,17.229-15.331c4.199-6.724,5.04-14.566,2.191-20.465c-2.983-6.185-10.766-9.557-16.318-7.084
				c-1.71,0.755-3.712-0.007-4.472-1.715c-0.763-1.708,0.005-3.709,1.713-4.47c8.85-3.955,20.618,0.876,25.178,10.325
				c3.849,7.974,2.872,18.319-2.548,26.997c-4.036,6.461-10.234,12.043-19.51,17.564
				C1658.933,2904.442,1658.337,2904.594,1657.748,2904.594z"/>
			<path style="fill:#FFFFFF;" d="M1743.531,2906.895c-0.254,0-0.512-0.03-0.77-0.091c-14.177-3.291-29.33-8.782-34.233-24.541
				c-2.749-8.836-0.012-19.896,6.508-26.303c5.67-5.572,13.345-7.128,21.615-4.403c1.775,0.589,2.739,2.503,2.153,4.278
				c-0.586,1.779-2.496,2.732-4.278,2.156c-5.826-1.937-10.921-0.957-14.741,2.8c-4.735,4.652-6.793,13.017-4.789,19.458
				c3.133,10.073,11.62,15.853,29.298,19.96c1.821,0.421,2.956,2.243,2.533,4.063
				C1746.464,2905.837,1745.071,2906.891,1743.531,2906.895z"/>
			
				<linearGradient id="SVGID_00000033328650197335323040000005515738086461736341_" gradientUnits="userSpaceOnUse" x1="-2332.0029" y1="2780.9617" x2="-2515.3767" y2="3324.5334" gradientTransform="matrix(-0.9997 -0.0233 -0.0233 0.9997 -877.5613 -0.238)">
				<stop  offset="0" style="stop-color:#5a84fb"/>
				<stop  offset="1" style="stop-color:#2c148f"/>
			</linearGradient>
			<path style="fill:url(#SVGID_00000033328650197335323040000005515738086461736341_);" d="M1452.881,3028.218
				c0,0,64.236,40.689,109.553-34.788c45.317-75.477-55.919-117.555-105.795-126.17c-66.421-11.473-136.055-2.089-137.797,72.533
				c-0.942,40.332,41.345,60.648,41.345,60.648s-2.329,13.492-12.166,29.138c-12.169,19.355-32.356,42.086-32.485,47.613
				c-0.233,9.995,94.18,63.245,107.238,53.088c0,0,8.083-32.719,14.069-57.755
				C1442.39,3049.326,1452.881,3028.218,1452.881,3028.218z"/>
			<path style="fill:#FFFFFF;" d="M1358.327,3004.951c-1.506,0-2.88-1.011-3.276-2.537c-0.47-1.809,0.615-3.658,2.425-4.13
				c10.581-2.752,18.066-6.32,23.556-11.228c6.739-6.033,10.153-14.371,8.907-21.765c-1.314-7.812-8.875-14.068-15.85-13.094
				c-1.844,0.219-3.561-1.038-3.817-2.894c-0.254-1.853,1.041-3.561,2.894-3.817c10.564-1.472,21.531,7.276,23.453,18.679
				c1.627,9.665-2.614,20.371-11.071,27.937c-6.325,5.656-14.703,9.705-26.367,12.737
				C1358.895,3004.914,1358.609,3004.951,1358.327,3004.951z"/>
			<path style="fill:#FFFFFF;" d="M1457.13,3036.506c-0.561,0-1.129-0.138-1.652-0.431c-14.155-7.933-28.671-18.511-29.018-36.833
				c-0.194-10.241,6.131-21.156,15.04-25.952c7.716-4.15,16.328-3.439,24.251,2.001c1.543,1.061,1.934,3.17,0.874,4.709
				c-1.056,1.543-3.163,1.934-4.708,0.876c-5.814-3.995-11.765-4.548-17.207-1.624c-6.69,3.604-11.625,12.141-11.479,19.862
				c0.227,12.01,7.632,21.007,25.558,31.053c1.632,0.913,2.213,2.978,1.299,4.608
				C1459.466,3035.882,1458.315,3036.506,1457.13,3036.506z"/>
		</g>
	</g>
</g>
</svg>
