<?xml version="1.0" encoding="utf-8"?>
<!-- Generator: Adobe Illustrator 27.5.0, SVG Export Plug-In . SVG Version: 6.00 Build 0)  -->
<svg version="1.1" id="Capa_1" xmlns="http://www.w3.org/2000/svg" xmlns:xlink="http://www.w3.org/1999/xlink" x="0px" y="0px"
	 viewBox="0 0 2122 2122" style="enable-background:new 0 0 2122 2122;" xml:space="preserve">
<g>
	<path style="fill:#F49953;" d="M1731.387,573.267c83.451,38.863,146.291,96.838,215.881,167.444
		c41.138,41.74,58.789,103.29,28.964,151.307c-26.012,41.878-83.98,69.77-92.875,116.387c-5.352,28.046,8.93,55.782,14.36,83.818
		c32.496,167.803-197.003,242.391-316.284,276.765c-238.57,68.75-488.865,68.943-734.971,57.544
		c-60.887-2.82-204.687-34.227-248.468-87.55c-27.77-33.824-4.64-76.026,8.911-110.357c19.33-48.969-3.641-76.334-51.047-86.172
		c-111.021-23.037-222.042-46.075-333.063-69.113c-32.497-6.743-67.974-15.174-86.612-38.493
		C21.697,891.542,275.952,676.711,544.639,623.156c395.796-78.891,746.676-187.526,1118.847-75.659
		C1687.743,554.788,1710.227,563.413,1731.387,573.267z"/>
	<path style="fill:#DF7649;" d="M1980.542,790.015c14.307,33.595,15.152,70.668-4.31,102.003
		c-26.012,41.878-83.98,69.77-92.876,116.387c-5.351,28.046,8.932,55.782,14.36,83.818
		c32.496,167.803-197.002,242.391-316.283,276.765c-238.571,68.751-488.866,68.944-734.971,57.545
		c-60.887-2.82-204.688-34.227-248.469-87.55c-27.77-33.824-4.639-76.026,8.912-110.357c19.33-48.969-3.641-76.334-51.048-86.172
		c-111.02-23.038-222.042-46.075-333.063-69.113c-32.497-6.743-67.974-15.174-86.612-38.493
		c-21.864-27.367-30.241-57.347-27.676-88.31l-0.028,0.005c-19.175,130.594,70.627,255.536,220.298,279.859
		c70.117,11.395,196.32,74.168,170.841,140.476c-135.624,352.956,820.664,247.852,1005.396,212.57
		c152.781-29.18,328.995-47.126,417.318-197.14c39.06-66.342,62.143-151.634,42.26-221.399
		c-23.531-82.557-3.697-79.819,26.542-155.639C2003.021,975.458,2044.641,896.097,1980.542,790.015z"/>
	<path style="fill:#C86240;" d="M1756.121,1435.377c-53.755,23.723-109.913,42.019-166.504,57.639
		c-66.994,18.491-135.137,32.988-203.833,43.511c-68.583,10.505-137.951,17.21-207.375,17.428
		c-60.071,0.188-121.236-4.042-179.417-19.846c-45.868-12.46-92.25-33.177-123.003-70.725c-9.363-11.431-17.292-23.7-23.844-36.595
		c-1.894-0.086-3.789-0.167-5.683-0.255c-60.887-2.82-204.688-34.227-248.469-87.549c-27.77-33.825-4.639-76.026,8.912-110.357
		c19.33-48.969-3.641-76.334-51.048-86.172c-111.02-23.038-222.042-46.075-333.063-69.113
		c-32.497-6.743-67.974-15.174-86.612-38.493c-21.864-27.367-30.241-57.347-27.676-88.31l-0.028,0.005
		c-6.894,46.949,0.364,93.138,19.357,134.213c0.229,0.172,0.444,0.363,0.673,0.534c47.984,35.857,103.566,60.828,159.593,81.234
		c14.458,5.265,29.028,10.219,43.676,14.931c6.87,2.21,13.759,4.367,20.661,6.478c6.591,2.015,13.218,4.384,19.972,5.775
		c20.878,4.301,42.296,5.629,63.388,8.537c21.908,3.02,44.487,7.08,64.312,17.35c18.208,9.433,31.461,25.059,37.517,44.726
		c11.727,38.082-11.617,74.939-36.676,102.325c-0.408,1.41-0.788,2.82-1.332,4.234
		c-135.624,352.956,820.664,247.852,1005.396,212.57c152.781-29.18,328.995-47.126,417.318-197.14
		c30.077-51.085,50.587-113.387,49.394-171.203c-23.821,41.538-44.317,85.283-73.957,123.139
		C1860.989,1381.216,1809.929,1411.63,1756.121,1435.377z"/>
	<path style="fill:#F8B576;" d="M1560.096,1170.309c37.702-26.384,64.754-68.554,69.815-114.291
		c5.059-45.737-13.099-94.127-49.027-122.877c-7.471-5.977-16.116-11.98-22.292-19.15
		c-71.86,121.574-176.228,257.63-209.515,297.031C1422.42,1213.468,1500.306,1212.153,1560.096,1170.309z"/>
	<path style="fill:#F8B576;" d="M877.999,724.223c-29.091,14.217-59.791,37.797-59.23,70.172
		c0.239,13.779,6.396,26.83,14.157,38.217c11.64,17.081,27.28,31.964,42.513,46.852c44.961-67.039,91.967-134.113,139.749-199.147
		C966.644,689.489,919.961,703.716,877.999,724.223z"/>
	<path style="fill:#F8B576;" d="M1089.147,1198.78c57.833,3.275,115.682,6.227,173.55,8.752
		c4.033-23.438,14.104-46.678,24.436-68.36c22.269-46.726,152.226-322.536,254.024-410.592
		c-14.401-11.688-31.186-20.739-48.573-27.303c-20.724-7.824-42.07-13.086-63.748-16.733
		c-35.647,97.951-118.631,214.349-157.584,275.35C1217.302,1044.378,1156.318,1124.371,1089.147,1198.78z"/>
	<path style="fill:#F8B576;" d="M1310.537,675.06c-8.754-0.355-17.479-0.721-26.159-1.161
		c-48.409-5.841-100.579-8.422-153.148-6.367c-29.77,73.269-87.905,167.629-111.031,207.102
		c-51.99,88.738-111.314,170.312-177.385,247.86c-1.49,2.945-2.955,5.904-4.237,8.966c-3.641,8.688-6.331,18.521-3.262,27.426
		c4.786,13.884,21.028,19.672,35.42,22.595c26.617,5.408,53.815,7.239,80.918,8.999c4.917,0.319,9.835,0.602,14.753,0.917
		c67.587-122.75,142.921-241.237,225.392-354.52C1221.036,796.716,1262.461,729.88,1310.537,675.06z"/>
	<path style="fill:#F8B576;" d="M1947.268,740.71c-69.589-70.606-132.43-128.581-215.88-167.444
		c-21.159-9.854-43.645-18.479-67.9-25.77c-232.682-69.939-457.042-53.688-689.259-12.404c7.154,5.542,14.906,10.342,22.911,14.346
		c29.31,14.662,63.348,20.294,95.839,16.316c2.436-0.299,2.971,2.543,1.684,4.072c35.519-6.012,70.971-12.459,106.689-17.2
		c78.632-10.436,161.14-12.088,234.727,21.771c32.839,15.111,62.876,35.212,88.196,61.02c22.697,23.135,43.265,48.598,70.987,66.078
		c0.074,0.046,0.151,0.085,0.226,0.132c7.425-0.089,14.462,1.742,20.994,5.902c3.678,2.343,6.551,5.407,8.75,9.063
		c17.105,6.819,35.135,11.434,53.177,14.801c24.114,4.5,49.013,7.52,71.877,16.866c21.525,8.799,38.67,23.947,46.842,46.085
		c9.878,26.753,10.184,61.172-5.109,85.917c-3.768,6.096-8.242,11.609-13.148,16.758c-0.022,0.7-0.027,1.361-0.066,2.098
		c-10.061,61.305-57.847,148.534-101.102,197.09c1.415,11.36,2.798,22.725,3.345,34.139c1.497,31.226-5.758,61.492-27.244,85.095
		c-32.75,35.974-82.118,54.709-128.025,66.813c-58.608,15.453-119.654,21.356-180.073,23.688
		c-59.807,2.309-119.758,0.723-179.455-3.364c-46.701-3.197-93.131-9.946-139.958-10.875c-8.963-0.178-17.931-0.28-26.898-0.357
		c-6.671,6.395-13.387,12.742-20.157,19.031c-18.661,17.335-52.137,32.783-65.359,11.013c-5.628-9.265-3.531-20.434,0.639-30.911
		c-24.959-0.598-49.894-1.764-74.77-4.304c-50.785-5.187-113.125-14.579-148.958-55.065
		c-44.392-50.157-16.078-120.204-16.995-179.292c-0.429-27.686-7.807-56.386-27.101-77.056
		c-54.902,62.294-115.783,114.096-134.619,81.708c13.906-41.1,30.276-81.358,48.887-120.553
		c-23.676-4.603-47.973-6.749-71.735-8.666c-26.842-2.166-53.848-3.464-80.69-6.088c-22.573,24.246-46.593,47.143-71.925,68.494
		c-13.277-13.475-8.607-38.746,0.598-63.019c2.004-5.287,4.156-10.594,6.437-15.913c-18.058-4.888-35.62-12.813-46.158-27.705
		c-18.62-26.309-2.841-61.907,10.873-86.53c16.172-29.037,37.252-54.805,59.645-79.24c20.077-21.908,41.541-42.501,63.865-62.111
		c-220.794,81.253-393.89,256.787-295.691,379.707c18.638,23.319,54.115,31.75,86.612,38.493
		c111.02,23.038,222.042,46.075,333.063,69.113c47.407,9.837,70.377,37.202,51.047,86.171
		c-13.552,34.331-36.682,76.533-8.912,110.357c43.781,53.323,187.582,84.73,248.469,87.55
		c246.106,11.399,496.4,11.205,734.971-57.544c119.281-34.374,348.78-108.962,316.284-276.765
		c-5.429-28.036-19.712-55.772-14.359-83.819c8.894-46.617,66.862-74.509,92.874-116.387
		C2006.057,844.001,1988.405,782.451,1947.268,740.71z"/>
	<path style="fill:#DE6F3E;" d="M336.613,989.658c25.332-21.351,49.352-44.248,71.925-68.494
		c68.066-73.109,122.953-158.504,160.829-250.944c1.062-2.594-23.422-23.163-68.699,21.217
		c-60.186,58.996-123.218,140.457-157.021,219.289c-2.281,5.319-4.433,10.626-6.437,15.913
		C328.007,950.912,323.337,976.183,336.613,989.658z"/>
	<path style="fill:#DE6F3E;" d="M646.696,974.763c29.978-34.015,58.176-71.156,76.767-99.432
		c57.928-88.107,116.709-178.051,144.967-279.638c-0.884,3.178-19.62-43.953-106.071,48.394
		c-33.829,36.134-69.909,77.737-98.58,117.62c-39.408,54.818-73.85,113.216-102.815,174.211
		c-18.611,39.195-34.982,79.453-48.887,120.553C530.913,1088.859,591.793,1037.057,646.696,974.763z"/>
	<path style="fill:#DE6F3E;" d="M1131.23,667.532c11.761-28.948,19.102-54.609,18.096-72.284
		c-2.812-49.376-48.651-28.359-77.478,9.391c-18.955,24.823-37.867,50.095-56.661,75.677
		c-47.782,65.034-94.788,132.108-139.749,199.147c-29.357,43.773-57.849,87.528-85.098,130.685
		c-30.777,48.741-61.902,99.428-70.791,156.383c-1.899,12.159-2.254,26.045,6.046,35.131c16.57,18.139,46.075,0.484,62.734-17.572
		c18.686-20.255,36.776-40.81,54.485-61.595c66.071-77.549,125.395-159.122,177.385-247.86
		C1043.325,835.161,1101.46,740.801,1131.23,667.532z"/>
	<path style="fill:#DE6F3E;" d="M913.881,1321.39c13.221,21.77,46.698,6.322,65.359-11.013c6.77-6.289,13.486-12.636,20.157-19.031
		c31.034-29.749,60.945-60.657,89.75-92.566c67.171-74.408,128.156-154.402,182.106-238.886
		c38.954-61.001,121.938-177.399,157.584-275.35c13.507-37.116,20.255-71.598,15.181-99.392
		c-47.055,5.474-92.663,43.365-133.48,89.908c-48.077,54.82-89.502,121.656-118.74,161.818
		c-82.471,113.284-157.805,231.771-225.392,354.52c-16.064,29.174-31.699,58.584-46.879,88.229
		c-1.766,3.449-3.515,7.108-5.006,10.853C910.349,1300.957,908.253,1312.125,913.881,1321.39z"/>
	<path style="fill:#DE6F3E;" d="M1287.134,1139.172c-10.333,21.681-20.403,44.921-24.436,68.36
		c-2.658,15.447-2.718,30.978,1.586,46.21c29.079,11.442,58.901-13.408,79.672-36.782c1.444-1.626,3.163-3.618,5.122-5.937
		c33.287-39.402,137.655-175.457,209.515-297.031c51.119-86.485,85.757-165.608,66.64-197.399c-2.2-3.656-5.072-6.72-8.75-9.063
		c-6.532-4.16-13.569-5.991-20.994-5.902c-16.453,0.198-34.872,10.12-54.331,26.952
		C1439.36,816.636,1309.402,1092.446,1287.134,1139.172z"/>
	<path style="fill:#DE6F3E;" d="M1745.996,882.276c-58.95,72.885-103.325,157.51-129.755,247.447
		c13.902,9.133,36.958-6.008,61.462-33.516c43.255-48.555,91.041-135.785,101.102-197.09c0.039-0.737,0.044-1.398,0.066-2.098
		C1780.324,852.043,1745.996,882.276,1745.996,882.276z"/>
	<path style="fill:#F3925C;" d="M1465.5,1429.95c-6.971,3.777-10.649,9.457-6.877,18.239c8.408,19.567,49.007,17.912,65.89,17.028
		c25.568-1.339,50.795-6.833,75.565-13.036c48.021-12.025,93.791-31.428,139.279-50.633c41.986-17.727,83.809-37.11,119.75-65.134
		c35.94-28.024,65.928-65.64,77.358-109.758c2.273-8.774,3.464-19.254-4.449-25.256c-5.111-3.877-12.173-3.992-17.979-1.257
		c-20.019,9.432-35.178,43.496-51.494,59.304c-41.353,40.064-95.639,65.166-146.606,90.657
		c-42.625,21.346-87.084,39.036-132.734,52.773c-23.255,6.999-46.818,12.973-70.608,17.88
		C1504.341,1422.458,1478.868,1422.706,1465.5,1429.95z"/>
	<path style="fill:#F3925C;" d="M1318.605,1458.994c-7.854,1.031-15.938,2.138-22.804,6.087s-12.293,11.494-11.306,19.353
		c1.703,13.549,18.87,18.079,32.501,18.891c24.545,1.463,49.186,1.287,73.708-0.528c9.979-0.738,20.149-1.802,29.264-5.932
		c9.115-4.13,17.136-11.874,19.115-21.683c1.908-9.454-2.495-19.866-10.608-25.083
		C1405.899,1435.582,1343.621,1455.71,1318.605,1458.994z"/>
</g>
</svg>
