<?xml version="1.0" encoding="utf-8"?>
<!-- Generator: Adobe Illustrator 27.5.0, SVG Export Plug-In . SVG Version: 6.00 Build 0)  -->
<svg version="1.1" xmlns="http://www.w3.org/2000/svg" xmlns:xlink="http://www.w3.org/1999/xlink" x="0px" y="0px"
	 viewBox="0 0 3710 3710" style="enable-background:new 0 0 3710 3710;" xml:space="preserve">
<g id="Background">
	<g>
		<g>
			<rect style="fill:none;" width="3710" height="3710"/>
		</g>
	</g>
</g>
<g id="Illustration">
	<g>
		<linearGradient id="SVGID_1_" gradientUnits="userSpaceOnUse" x1="3399.405" y1="3603.6479" x2="1361.1448" y2="1403.6206">
			<stop  offset="0" style="stop-color:#B37CFF"/>
			<stop  offset="1" style="stop-color:#F895E7"/>
		</linearGradient>
		<path style="opacity:0.3;fill:url(#SVGID_1_);" d="M3115.063,2350.042c-280.005,654.771-1019.126,936.01-1598.24,888.058
			c-158.122-13.093-476.265-39.436-724.675-274.453c-477.053-451.337-403.583-1394.755,53.094-1950.188
			c58.811-71.528,465.888-550.76,1100.243-544.345c464.44,4.697,790.426,267.17,830.064,299.869
			c50.074,41.308,160.518,139.468,260.054,295.194C3269.48,1430.076,3290.038,1940.876,3115.063,2350.042z"/>
		<g>
			
				<linearGradient id="SVGID_00000165946018843878994140000006627288914585145790_" gradientUnits="userSpaceOnUse" x1="1056.6929" y1="-45.9868" x2="956.3407" y2="2121.613">
				<stop  offset="0" style="stop-color:#B37CFF"/>
				<stop  offset="1" style="stop-color:#F895E7"/>
			</linearGradient>
			<path style="fill:url(#SVGID_00000165946018843878994140000006627288914585145790_);" d="M841.554,465.784
				c-86.923,174.075-551.394,1207.75,340.3,1817.836c0,0,480.958-601.792-311.789-1819.513
				C863.13,453.454,847.232,454.411,841.554,465.784z"/>
			<path style="opacity:0.49;fill:#FFFFFF;" d="M881.306,658.767c0,0-2.887,24.312-6.397,67.076
				c-3.502,42.758-7.61,103.939-10.109,177.457c-2.487,73.51-3.405,159.363-0.64,251.251c2.647,91.882,9.141,189.794,20.475,287.14
				c11.432,97.321,27.883,194.056,49.305,283.308c21.37,89.259,47.77,170.92,75.531,238.75
				c13.885,33.916,28.046,64.378,41.402,90.949c3.412,6.605,6.716,12.999,9.903,19.17c3.208,6.159,6.552,11.959,9.629,17.607
				c6.087,11.336,12.247,21.416,17.651,30.612c1.357,2.295,2.678,4.529,3.962,6.7c1.349,2.13,2.659,4.199,3.929,6.205
				c2.54,4.011,4.921,7.772,7.137,11.271c4.349,7.052,8.365,12.837,11.573,17.56c6.413,9.448,9.835,14.486,9.835,14.486l0.122,0.183
				c2.076,3.056,1.28,7.216-1.777,9.291c-3.056,2.075-7.215,1.279-9.291-1.777l-0.018-0.027c0,0-3.446-5.13-9.908-14.748
				c-3.23-4.809-7.276-10.701-11.651-17.87c-2.229-3.558-4.625-7.382-7.179-11.462c-1.277-2.04-2.595-4.143-3.952-6.31
				c-1.29-2.206-2.616-4.475-3.98-6.807c-5.43-9.342-11.618-19.587-17.723-31.088c-3.087-5.731-6.443-11.62-9.659-17.867
				c-3.193-6.257-6.502-12.74-9.92-19.438c-13.374-26.932-27.527-57.777-41.368-92.067
				c-27.675-68.581-53.849-150.952-74.892-240.799c-21.097-89.843-37.132-187.053-48.123-284.749
				c-10.891-97.721-16.916-195.911-19.119-288.003c-2.318-92.101-0.975-178.101,1.877-251.723
				c5.701-147.293,17.748-244.957,17.748-244.957c0.189-1.554,1.601-2.661,3.155-2.472
				C880.387,655.808,881.494,657.213,881.306,658.767z"/>
		</g>
		<g>
			
				<linearGradient id="SVGID_00000147215865492768063430000013834486399188078211_" gradientUnits="userSpaceOnUse" x1="108.5955" y1="1562.5697" x2="3270.5527" y2="3987.2119" gradientTransform="matrix(1.0536 0.0119 0.0119 1.0302 60.0009 64.8587)">
				<stop  offset="0" style="stop-color:#A737D5"/>
				<stop  offset="1" style="stop-color:#EF497A"/>
			</linearGradient>
			<path style="fill:url(#SVGID_00000147215865492768063430000013834486399188078211_);" d="M494.774,1420.982
				c-22.688,188.208-108.84,1289.767,935.871,1578.168c0,0,248.015-706.645-909.646-1588.568
				C510.871,1402.866,496.256,1408.686,494.774,1420.982z"/>
			<path style="opacity:0.49;fill:#FFFFFF;" d="M597.525,1587.272c0,0,5.741,23.022,17.138,63.035
				c5.76,19.981,12.773,44.242,21.349,71.913c8.463,27.704,18.445,58.827,29.65,92.673c5.741,16.877,11.512,34.527,17.929,52.644
				c3.165,9.073,6.384,18.299,9.652,27.668c3.368,9.334,6.786,18.809,10.251,28.416c13.821,38.441,29.227,78.672,45.524,120.141
				c16.622,41.339,34.038,83.966,52.95,126.751c4.712,10.702,9.441,21.448,14.186,32.225c4.906,10.704,9.827,21.439,14.756,32.195
				c9.688,21.593,20.215,42.892,30.424,64.34c5.048,10.752,10.48,21.315,15.793,31.923c5.331,10.599,10.655,21.188,15.967,31.757
				c10.978,20.953,21.935,41.815,33.011,62.397c5.683,10.211,11.342,20.383,16.975,30.503c5.664,10.102,11.123,20.254,17.032,30.066
				c5.803,9.873,11.571,19.686,17.297,29.429c2.863,4.871,5.716,9.725,8.558,14.56c2.956,4.765,5.899,9.512,8.832,14.239
				c5.879,9.444,11.71,18.809,17.486,28.085c2.905,4.627,5.723,9.279,8.659,13.821c2.985,4.511,5.955,8.999,8.909,13.462
				c5.907,8.927,11.751,17.757,17.524,26.481c2.907,4.347,5.706,8.73,8.654,12.971c2.977,4.219,5.937,8.41,8.876,12.573
				c5.878,8.326,11.676,16.538,17.387,24.627c2.855,4.045,5.688,8.059,8.499,12.04c2.933,3.891,5.843,7.75,8.728,11.578
				c5.783,7.645,11.468,15.161,17.049,22.538c2.789,3.688,5.553,7.342,8.29,10.96c1.369,1.809,2.731,3.608,4.085,5.399
				c1.417,1.741,2.829,3.473,4.232,5.196c11.225,13.782,21.981,26.99,32.211,39.552c10.46,12.362,20.802,23.726,30.292,34.601
				c4.793,5.395,9.348,10.695,13.896,15.669c4.671,4.859,9.173,9.543,13.498,14.044c8.651,9.001,16.596,17.269,23.774,24.736
				c3.516,3.806,7.152,7.095,10.486,10.277c3.346,3.17,6.484,6.141,9.404,8.906c5.837,5.529,10.802,10.232,14.828,14.045
				c8.05,7.626,12.343,11.694,12.343,11.694l0.243,0.229c2.682,2.54,2.796,6.773,0.255,9.454c-2.54,2.682-6.773,2.796-9.454,0.256
				l-0.023-0.022c0,0-4.321-4.134-12.423-11.884c-4.05-3.875-9.044-8.654-14.917-14.273c-2.936-2.81-6.092-5.829-9.458-9.05
				c-3.355-3.233-7.01-6.579-10.542-10.438c-7.209-7.576-15.188-15.963-23.877-25.094c-4.342-4.565-8.863-9.317-13.552-14.246
				c-4.565-5.042-9.131-10.408-13.937-15.874c-9.516-11.014-19.887-22.53-30.365-35.044c-10.243-12.707-21.012-26.068-32.249-40.01
				c-1.405-1.743-2.817-3.495-4.236-5.255c-1.354-1.81-2.716-3.628-4.084-5.456c-2.737-3.656-5.5-7.348-8.29-11.075
				c-5.579-7.454-11.264-15.048-17.045-22.772c-2.884-3.867-5.793-7.766-8.724-11.697c-2.807-4.02-5.638-8.072-8.489-12.154
				c-5.703-8.165-11.493-16.455-17.362-24.859c-2.935-4.202-5.889-8.432-8.861-12.69c-2.941-4.279-5.734-8.699-8.635-13.084
				c-5.758-8.798-11.587-17.704-17.48-26.707c-2.946-4.501-5.909-9.027-8.884-13.576c-2.93-4.579-5.736-9.267-8.631-13.931
				c-5.755-9.349-11.566-18.787-17.424-28.304c-2.922-4.763-5.855-9.547-8.799-14.348c-2.829-4.87-5.669-9.759-8.52-14.665
				c-5.7-9.812-11.44-19.695-17.217-29.638c-5.884-9.883-11.313-20.1-16.946-30.269c-5.602-10.187-11.231-20.424-16.882-30.702
				c-11.011-20.71-21.899-41.698-32.805-62.774c-5.275-10.628-10.563-21.276-15.855-31.935
				c-5.275-10.667-10.669-21.289-15.677-32.096c-10.129-21.56-20.576-42.971-30.181-64.668
				c-4.886-10.809-9.765-21.596-14.628-32.351c-4.7-10.826-9.387-21.621-14.055-32.373c-18.739-42.981-35.977-85.785-52.42-127.29
				c-16.121-41.633-31.349-82.014-45-120.591c-3.422-9.64-6.797-19.149-10.122-28.515c-3.227-9.401-6.404-18.659-9.528-27.763
				c-6.335-18.178-12.027-35.887-17.69-52.819c-11.052-33.957-20.89-65.177-29.227-92.969c-8.448-27.756-15.35-52.095-21.019-72.141
				c-11.21-40.118-16.864-63.296-16.864-63.296c-0.377-1.518,0.547-3.056,2.066-3.433
				C595.606,1584.831,597.141,1585.762,597.525,1587.272z"/>
		</g>
		<g>
			<g>
				
					<linearGradient id="SVGID_00000142170384350449874820000000716322727210078132_" gradientUnits="userSpaceOnUse" x1="1161.7919" y1="2874.666" x2="2271.7795" y2="678.1404" gradientTransform="matrix(0.9848 -0.1735 0.1735 0.9848 -83.3804 158.6002)">
					<stop  offset="0" style="stop-color:#2B3582"/>
					<stop  offset="1" style="stop-color:#150E42"/>
				</linearGradient>
				<path style="fill:url(#SVGID_00000142170384350449874820000000716322727210078132_);" d="M1601.808,2159.391
					c-83.04-471.309,77.061-913.564,373.551-1123.622c-98.052-26.883-199.738-31.946-301.901-15.066
					c-524.156,86.607-758.398,637.779-652.123,1240.962c106.275,603.183,570.547,1025.539,1036.981,943.357
					c101.976-17.968,195.613-58.565,278.572-117.34C1986.459,2991.605,1684.849,2630.7,1601.808,2159.391z"/>
				<g>
					
						<linearGradient id="SVGID_00000173847055649318497970000013284562735369664388_" gradientUnits="userSpaceOnUse" x1="792.3932" y1="2563.8496" x2="1833.9648" y2="502.7108" gradientTransform="matrix(0.9848 -0.1735 0.1735 0.9848 -83.3804 158.6002)">
						<stop  offset="0" style="stop-color:#2B3582"/>
						<stop  offset="1" style="stop-color:#150E42"/>
					</linearGradient>
					<path style="fill:url(#SVGID_00000173847055649318497970000013284562735369664388_);" d="M1975.359,1035.769
						c-98.052-26.883-199.738-31.946-301.901-15.066c-471.896,77.972-708.796,532.494-673.791,1062.51
						c6.131,92.833,84.241,161.682,166.29,147.226l291.481-51.356c77.268-13.614,131.131-89.482,125.486-176.911
						C1556.429,1591.787,1712.127,1222.264,1975.359,1035.769z"/>
				</g>
				<g>
					
						<linearGradient id="SVGID_00000131364271809360459040000015324172815761653392_" gradientUnits="userSpaceOnUse" x1="1344.2047" y1="1477.8706" x2="975.6401" y2="2329.6631" gradientTransform="matrix(0.9848 -0.1735 0.1735 0.9848 -83.3804 158.6002)">
						<stop  offset="0" style="stop-color:#2B3582"/>
						<stop  offset="1" style="stop-color:#150E42"/>
					</linearGradient>
					<path style="fill:url(#SVGID_00000131364271809360459040000015324172815761653392_);" d="M1975.359,1035.769
						c-98.052-26.883-199.738-31.946-301.901-15.066c-471.896,77.972-708.796,532.494-673.791,1062.51
						c6.131,92.833,84.241,161.682,166.29,147.226l291.481-51.356c77.268-13.614,131.131-89.482,125.486-176.911
						C1556.429,1591.787,1712.127,1222.264,1975.359,1035.769z"/>
				</g>
				
					<linearGradient id="SVGID_00000102515947612717423440000005322703043789688720_" gradientUnits="userSpaceOnUse" x1="1140.609" y1="1814.6029" x2="847.3641" y2="2348.1458" gradientTransform="matrix(0.9848 -0.1735 0.1735 0.9848 -83.3804 158.6002)">
					<stop  offset="0" style="stop-color:#2B3582"/>
					<stop  offset="1" style="stop-color:#150E42"/>
				</linearGradient>
				<path style="fill:url(#SVGID_00000102515947612717423440000005322703043789688720_);" d="M1419.379,1925.817
					c9.896,56.164-41.756,112.207-115.367,125.177c-73.611,12.969-141.307-22.047-151.202-78.21
					c-9.896-56.164,41.756-112.207,115.367-125.177C1341.788,1834.637,1409.484,1869.653,1419.379,1925.817z"/>
				
					<linearGradient id="SVGID_00000178925066816255384800000008509121024340446866_" gradientUnits="userSpaceOnUse" x1="-1759.224" y1="86.8141" x2="-611.48" y2="-2184.4265" gradientTransform="matrix(-0.9848 0.1735 -0.1735 -0.9848 655.3071 1763.0226)">
					<stop  offset="0" style="stop-color:#2B3582"/>
					<stop  offset="1" style="stop-color:#150E42"/>
				</linearGradient>
				<path style="fill:url(#SVGID_00000178925066816255384800000008509121024340446866_);" d="M2417.71,2015.636
					c83.041,471.309-98.274,982.687-394.764,1192.745c142.495-22.234,221.138-36.09,323.115-54.057
					c466.433-82.181,758.398-637.779,652.123-1240.962c-106.275-603.183-570.548-1025.539-1036.98-943.357
					c-101.977,17.968-323.569,36.902-434.732,76.596C1987.521,1097.508,2334.669,1544.327,2417.71,2015.636z"/>
				
					<linearGradient id="SVGID_00000013911886261779760930000013175732010945499054_" gradientUnits="userSpaceOnUse" x1="3000.0691" y1="1424.2244" x2="671.9126" y2="2708.7256">
					<stop  offset="0" style="stop-color:#CB236D"/>
					<stop  offset="1" style="stop-color:#4C246D"/>
				</linearGradient>
				<path style="fill:url(#SVGID_00000013911886261779760930000013175732010945499054_);" d="M1510.132,1104.032L1510.132,1104.032
					c1.331-0.235,2.649-0.459,3.985-0.678c88.433-14.499,178.871-2.755,268.803,34.906
					c88.375,37.008,172.698,97.351,250.628,179.353c79.016,83.145,147.426,184.31,203.33,300.687
					c58.262,121.288,100.338,253.928,125.059,394.236c24.974,141.742,32.452,281.835,22.228,416.385
					c-9.932,130.701-36.076,250.509-77.704,356.097c-41.461,105.165-96.377,191.263-163.222,255.904
					c-68.492,66.234-147.465,107.613-234.727,122.988c-88.14,15.53-180.008,3.991-273.052-34.295
					c-91.602-37.692-179.62-99.149-261.609-182.662c-83.325-84.875-155.302-187.348-213.93-304.571
					c-61.414-122.793-105.012-255.768-129.585-395.23c-24.249-137.633-28.263-276.446-11.93-412.581
					c15.355-127.979,47.783-247.539,96.383-355.358c46.399-102.936,106.896-191.499,174.953-256.115
					C1358.592,1157.73,1432.741,1117.671,1510.132,1104.032L1510.132,1104.032z M1500.803,1051.096
					c-349.848,61.656-622.409,610.685-517.802,1204.397c105.056,596.259,540.639,1030.808,934.837,961.354
					c394.198-69.454,620.138-613.377,515.083-1209.635c-105.056-596.259-532.626-1021.639-927.627-956.879
					C1503.79,1050.578,1502.305,1050.831,1500.803,1051.096L1500.803,1051.096z"/>
				
					<linearGradient id="SVGID_00000097486823486952083020000017582852490098904987_" gradientUnits="userSpaceOnUse" x1="1089.5725" y1="1869.8256" x2="1244.8776" y2="1567.389" gradientTransform="matrix(0.9848 -0.1735 0.1735 0.9848 -83.3804 158.6002)">
					<stop  offset="0" style="stop-color:#2B3582"/>
					<stop  offset="1" style="stop-color:#150E42"/>
				</linearGradient>
				<path style="fill:url(#SVGID_00000097486823486952083020000017582852490098904987_);" d="M1502.366,1609.571
					c9.896,56.164-41.756,112.207-115.367,125.177c-73.611,12.969-141.307-22.046-151.202-78.21
					c-9.896-56.164,41.756-112.207,115.367-125.177C1424.775,1518.391,1492.47,1553.407,1502.366,1609.571z"/>
				
					<linearGradient id="SVGID_00000084500576842869842250000007658282761381458616_" gradientUnits="userSpaceOnUse" x1="1283.8425" y1="1600.017" x2="1426.239" y2="1322.7183" gradientTransform="matrix(0.9848 -0.1735 0.1735 0.9848 -83.3804 158.6002)">
					<stop  offset="0" style="stop-color:#2B3582"/>
					<stop  offset="1" style="stop-color:#150E42"/>
				</linearGradient>
				<path style="fill:url(#SVGID_00000084500576842869842250000007658282761381458616_);" d="M1642.297,1324.945
					c8.676,49.239-43.965,99.67-117.576,112.639c-73.611,12.97-140.317-16.433-148.993-65.672
					c-8.676-49.24,43.965-99.67,117.576-112.64C1566.915,1246.303,1633.621,1275.705,1642.297,1324.945z"/>
			</g>
			<g>
				
					<linearGradient id="SVGID_00000147198099142091380790000011298089432030141341_" gradientUnits="userSpaceOnUse" x1="-2129.1633" y1="2082.4722" x2="-964.0405" y2="2082.4722" gradientTransform="matrix(-0.9866 0.1629 0.1629 0.9866 678.954 183.7706)">
					<stop  offset="0" style="stop-color:#2B3582"/>
					<stop  offset="1" style="stop-color:#150E42"/>
				</linearGradient>
				<path style="fill:url(#SVGID_00000147198099142091380790000011298089432030141341_);" d="M2262.665,2827.3l872.888-142.428
					c72.88-12.008,102.039-74.176,89.631-149.193L3018.11,1283.758c-12.188-73.684-79.227-124.528-151.096-114.593l-890.42,114.836
					c-75.876,10.489-127.065,84.285-112.174,161.716l244.469,1271.133C2122.977,2790.104,2191.165,2839.081,2262.665,2827.3z"/>
				
					<linearGradient id="SVGID_00000111913236474712792220000016090639886707964820_" gradientUnits="userSpaceOnUse" x1="4129.2827" y1="-716.4056" x2="3535.6794" y2="326.8964">
					<stop  offset="0" style="stop-color:#53D8FF"/>
					<stop  offset="1" style="stop-color:#3840F7"/>
				</linearGradient>
				<path style="fill:url(#SVGID_00000111913236474712792220000016090639886707964820_);" d="M3140.433,2640.117
					c55.135-9.084,92.248-63.301,82.728-120.857l-201.878-1220.537c-9.44-57.076-59.838-95.857-114.734-88.29l-854.423,109.539
					c-0.868,0.119-1.736,0.251-2.596,0.392c-27.172,4.477-50.74,19.88-66.362,43.372c-15.614,23.479-21.222,51.986-15.794,80.269
					l237.882,1239.342c10.886,56.72,62.173,94.105,116.757,85.112L3140.433,2640.117z"/>
				
					<linearGradient id="SVGID_00000092442429515686058130000014351936283392213898_" gradientUnits="userSpaceOnUse" x1="3161.5625" y1="1375.4302" x2="1308.8918" y2="3371.9976">
					<stop  offset="0" style="stop-color:#53D8FF"/>
					<stop  offset="1" style="stop-color:#3840F7"/>
				</linearGradient>
				<path style="fill:url(#SVGID_00000092442429515686058130000014351936283392213898_);" d="M3139.031,2553.756
					c10.848-1.788,18.172-12.327,16.325-23.494l-201.883-1220.534c-1.893-11.443-11.366-18.629-22.529-17.085l-867.014,111.609
					c-5.463,0.9-9.843,3.742-13.019,8.444c-3.168,4.691-4.221,9.933-3.135,15.579l238.34,1239.265
					c2.187,11.371,11.828,18.297,22.927,16.468L3139.031,2553.756z"/>
				
					<linearGradient id="SVGID_00000113339533983992366680000011017566509516747150_" gradientUnits="userSpaceOnUse" x1="-3410.7803" y1="-1213.2787" x2="-3530.731" y2="-1066.2205" gradientTransform="matrix(-0.6824 -0.731 -0.731 0.6824 -220.2352 785.5939)">
					<stop  offset="0" style="stop-color:#FDF53F"/>
					<stop  offset="0.6645" style="stop-color:#E57A58"/>
					<stop  offset="1" style="stop-color:#D93C65"/>
				</linearGradient>
				<path style="fill:url(#SVGID_00000113339533983992366680000011017566509516747150_);" d="M2954.779,2460.096
					c-19.432,18.634-20.329,50.078-2.003,70.233c18.325,20.155,48.935,21.389,68.367,2.756
					c19.432-18.634,20.329-50.078,2.003-70.233C3004.821,2442.697,2974.212,2441.463,2954.779,2460.096z"/>
				
					<linearGradient id="SVGID_00000129176932212606760730000003878562384440629174_" gradientUnits="userSpaceOnUse" x1="-3314.1184" y1="-1066.955" x2="-3434.0691" y2="-919.8967" gradientTransform="matrix(-0.6824 -0.731 -0.731 0.6824 -220.2352 785.5939)">
					<stop  offset="0" style="stop-color:#FDF53F"/>
					<stop  offset="0.6645" style="stop-color:#E57A58"/>
					<stop  offset="1" style="stop-color:#D93C65"/>
				</linearGradient>
				<path style="fill:url(#SVGID_00000129176932212606760730000003878562384440629174_);" d="M2781.855,2489.288
					c-19.432,18.634-20.329,50.078-2.004,70.233c18.326,20.155,48.935,21.389,68.367,2.756
					c19.432-18.634,20.329-50.078,2.004-70.233C2831.896,2471.888,2801.287,2470.654,2781.855,2489.288z"/>
				<path style="opacity:0.61;fill:#FFFFFF;" d="M2608.93,2518.479c-19.432,18.634-20.33,50.078-2.004,70.233
					s48.935,21.389,68.367,2.756c19.432-18.633,20.329-50.078,2.004-70.233C2658.971,2501.08,2628.362,2499.846,2608.93,2518.479z"
					/>
				<path style="opacity:0.61;fill:#FFFFFF;" d="M2436.005,2547.67c-19.432,18.633-20.329,50.078-2.003,70.233
					c18.325,20.155,48.935,21.389,68.367,2.755c19.432-18.633,20.329-50.078,2.003-70.233
					C2486.047,2530.271,2455.438,2529.037,2436.005,2547.67z"/>
				<path style="opacity:0.61;fill:#FFFFFF;" d="M2392.106,1413.296c-12.707,12.185-13.294,32.747-1.31,45.927
					c11.984,13.18,31.999,13.987,44.707,1.802s13.294-32.747,1.31-45.927C2424.829,1401.918,2404.813,1401.111,2392.106,1413.296z"
					/>
				<path style="opacity:0.61;fill:#FFFFFF;" d="M2279.027,1432.385c-12.707,12.185-13.293,32.747-1.31,45.927
					c11.984,13.18,31.999,13.987,44.707,1.802c12.707-12.185,13.294-32.747,1.31-45.927
					C2311.75,1421.007,2291.734,1420.201,2279.027,1432.385z"/>
				<path style="opacity:0.61;fill:#FFFFFF;" d="M2165.948,1451.474c-12.707,12.185-13.294,32.747-1.31,45.927
					c11.984,13.18,32,13.987,44.707,1.802c12.707-12.185,13.294-32.747,1.31-45.927
					C2198.671,1440.096,2178.655,1439.289,2165.948,1451.474z"/>
			</g>
			<path style="fill:#FFFFFF;" d="M2983.817,1962.76c1.572,46.67-5.99,93.751-22.177,137.718
				c-16.158,43.992-40.933,84.824-72.533,119.691c-31.611,34.831-69.997,63.847-112.885,84.268
				c-42.776,20.589-89.875,32.769-137.637,35.465c-47.736,2.68-96.443-3.927-142.084-20.06
				c-45.594-16.173-88.198-41.375-124.256-74.129c-36.062-32.726-65.615-72.855-86.156-117.34
				c-10.231-22.249-18.365-45.517-23.953-69.396c-5.592-23.874-8.811-48.288-9.678-72.735c-0.702-24.453,0.944-49.023,4.992-73.206
				c4.044-24.188,10.669-47.93,19.452-70.789c17.645-45.711,44.564-87.653,78.452-122.625c33.882-35,74.781-62.883,119.245-81.948
				c44.513-19.027,92.695-28.745,140.505-29.133c47.837-0.373,95.62,8.761,139.629,26.563
				c44.109,17.627,84.278,44.122,118.058,76.853c33.771,32.767,61.115,71.927,80.062,114.791
				C2971.826,1869.586,2982.392,1916.085,2983.817,1962.76z M2935.06,1964.325c-0.736-20.206-3.497-40.301-8.291-59.926
				c-4.791-19.628-11.8-38.719-20.596-56.985c-17.674-36.507-43.171-69.458-74.295-96.254
				c-31.124-26.823-67.873-47.298-107.017-60.335c-39.214-12.982-80.893-18.102-121.969-15.653
				c-82.281,4.788-160.301,41.594-213.998,99.16c-26.947,28.629-48.032,62.036-61.769,97.879
				c-13.754,35.839-20.231,74.058-18.945,112.242c1.167,38.187,10.082,75.913,26.106,110.795
				c16.008,34.888,39.192,66.874,67.921,93.715c57.278,54.002,137.499,85.728,219.918,85.228
				c41.149-0.191,82.413-7.974,120.714-23.445c38.227-15.521,73.587-38.311,102.926-67.075
				c29.342-28.739,52.672-63.257,67.968-100.822c7.606-18.792,13.376-38.293,16.898-58.189
				C2934.155,2004.768,2935.621,1984.537,2935.06,1964.325z"/>
			<g>
				<path style="fill:#FFFFFF;" d="M2519.827,2121.967l-67.069,5.32c-1.376,0.109-2.581-0.918-2.69-2.295l-21.647-272.935
					c-0.109-1.376,0.918-2.581,2.294-2.69l67.069-5.319c1.376-0.109,2.581,0.918,2.69,2.294l21.647,272.935
					C2522.231,2120.653,2521.204,2121.858,2519.827,2121.967z"/>
				<path style="fill:#FFFFFF;" d="M2430.362,2038.43l-20.797,1.65c-1.363,0.108-2.556-0.909-2.664-2.272l-7.364-92.85
					c-0.108-1.363,0.909-2.556,2.272-2.664l20.797-1.65c1.363-0.108,2.556,0.909,2.664,2.272l7.364,92.85
					C2432.742,2037.129,2431.725,2038.322,2430.362,2038.43z"/>
				<path style="fill:#FFFFFF;" d="M2751.264,2103.611l67.069-5.319c1.376-0.109,2.404-1.314,2.295-2.69l-21.647-272.935
					c-0.109-1.376-1.313-2.404-2.69-2.295l-67.069,5.319c-1.376,0.109-2.404,1.313-2.295,2.69l21.647,272.935
					C2748.684,2102.693,2749.888,2103.72,2751.264,2103.611z"/>
				<path style="fill:#FFFFFF;" d="M2826.443,2007.015l20.797-1.65c1.363-0.108,2.38-1.301,2.272-2.664l-7.365-92.85
					c-0.108-1.363-1.301-2.38-2.664-2.272l-20.797,1.649c-1.363,0.108-2.38,1.301-2.272,2.664l7.364,92.85
					C2823.887,2006.106,2825.08,2007.123,2826.443,2007.015z"/>
				<path style="fill:#FFFFFF;" d="M2726.414,1984.134l-200.882,15.932c-1.376,0.109-2.581-0.918-2.69-2.294l-2.707-34.13
					c-0.109-1.376,0.918-2.581,2.295-2.69l200.882-15.933c1.376-0.109,2.581,0.918,2.69,2.294l2.707,34.13
					C2728.818,1982.82,2727.791,1984.024,2726.414,1984.134z"/>
			</g>
		</g>
		<g>
			
				<linearGradient id="SVGID_00000147909643014249763770000010533763023423872435_" gradientUnits="userSpaceOnUse" x1="2628.4714" y1="495.1684" x2="2643.3755" y2="1553.3875">
				<stop  offset="0" style="stop-color:#FDF53F"/>
				<stop  offset="0.6645" style="stop-color:#E57A58"/>
				<stop  offset="1" style="stop-color:#D93C65"/>
			</linearGradient>
			<path style="fill:url(#SVGID_00000147909643014249763770000010533763023423872435_);" d="M2376.35,702.937
				c0,136.074,127.634,246.384,263.708,246.384s246.384-110.31,246.384-246.384s-110.31-246.384-246.384-246.384
				S2376.35,566.863,2376.35,702.937z"/>
			<path style="opacity:0.65;fill:#FFFFFF;" d="M2444.933,627.292c9.701-24.003,24.104-46.109,42.169-64.799
				c18.071-18.671,39.78-34.011,63.821-44.526c23.983-10.609,50.204-16.5,76.623-17.142c26.404-0.633,53.179,3.878,78.094,13.594
				c24.887,9.738,47.964,24.408,67.292,43.132c19.331,18.708,34.937,41.389,45.49,66.314c5.255,12.466,9.333,25.457,11.995,38.74
				c2.664,13.28,4.009,26.818,4.054,40.331c-0.046,13.513-1.39,27.051-4.054,40.331c-2.662,13.283-6.74,26.274-11.995,38.74
				c-10.553,24.925-26.159,47.606-45.49,66.314c-19.328,18.724-42.404,33.394-67.292,43.132
				c-24.914,9.717-51.69,14.228-78.094,13.594c-26.419-0.642-52.64-6.532-76.623-17.141c-24.042-10.515-45.75-25.855-63.821-44.526
				c-18.065-18.69-32.469-40.796-42.169-64.799c-9.717-23.989-14.727-49.849-14.686-75.645
				C2430.206,677.141,2435.216,651.281,2444.933,627.292z M2460.71,736.171c2.297,10.922,5.829,21.587,10.361,31.828
				c9.111,20.47,22.605,39.115,39.314,54.462c16.709,15.361,36.636,27.318,58.018,35.21c21.421,7.863,44.343,11.429,67.065,10.805
				c45.515-1.185,89.245-20.124,119.913-50.956c15.386-15.329,27.62-33.4,35.84-52.947c8.229-19.544,12.483-40.531,12.45-61.636
				c0.032-21.105-4.221-42.093-12.45-61.636c-8.22-19.547-20.454-37.618-35.84-52.947c-30.668-30.832-74.398-49.771-119.913-50.956
				c-22.723-0.624-45.644,2.942-67.065,10.805c-21.382,7.892-41.309,19.848-58.018,35.21c-16.71,15.347-30.203,33.992-39.314,54.462
				c-4.533,10.241-8.064,20.906-10.361,31.828c-2.299,10.92-3.467,22.065-3.515,33.234
				C2457.243,714.107,2458.412,725.251,2460.71,736.171z"/>
			<path style="fill:#FFFFFF;" d="M2632.953,579.126c-4.009-5.639-12.354-5.639-16.363,0
				c-22.083,31.063-81.25,118.035-81.25,158.209c0,49.391,40.04,89.432,89.432,89.432c49.392,0,89.431-40.04,89.431-89.432
				C2714.203,697.161,2655.037,610.189,2632.953,579.126z M2607.078,799.104c-0.516,2.314-2.568,3.888-4.844,3.888
				c-0.359,0-0.723-0.039-1.087-0.121c-19.227-4.291-33.104-13.519-41.242-27.431c-14.103-24.109-5.569-53.257-5.198-54.486
				c0.789-2.627,3.565-4.121,6.189-3.324c2.625,0.791,4.113,3.558,3.327,6.183c-0.094,0.314-7.627,26.364,4.292,46.665
				c6.692,11.401,18.399,19.036,34.795,22.696C2605.99,793.77,2607.676,796.426,2607.078,799.104z"/>
		</g>
		<g>
			<g>
				
					<linearGradient id="SVGID_00000147209476772699470390000006315305966188089253_" gradientUnits="userSpaceOnUse" x1="2640.2026" y1="2979.792" x2="1685.0349" y2="4018.7473" gradientTransform="matrix(1 0 0 1 -1072.0282 0)">
					<stop  offset="0" style="stop-color:#FDF53F"/>
					<stop  offset="1" style="stop-color:#D93C65"/>
				</linearGradient>
				<path style="fill:url(#SVGID_00000147209476772699470390000006315305966188089253_);" d="M1266.245,3057.188
					c0,0-9.892,56-14.742,111.433c-1.896,21.666,14.806,40.477,36.536,41.381c73.821,3.075,231.73,9.053,288.392,6.525
					c8.518-0.379,14.087-9.1,10.934-17.023l0,0c-2.641-6.638-7.736-12.005-14.228-14.989l-260.835-119.879L1266.245,3057.188z"/>
				
					<linearGradient id="SVGID_00000155830790235306469400000011872981461650859672_" gradientUnits="userSpaceOnUse" x1="2330.1704" y1="3056.957" x2="2415.0115" y2="3056.957" gradientTransform="matrix(1 0 0 1 -1072.0282 0)">
					<stop  offset="0" style="stop-color:#F9B776"/>
					<stop  offset="1" style="stop-color:#F47960"/>
				</linearGradient>
				<path style="fill:url(#SVGID_00000155830790235306469400000011872981461650859672_);" d="M1258.142,3024.284l7.948,66.983
					c0,0,45.691,21.271,76.893-2.681l-18.922-74.646L1258.142,3024.284z"/>
				
					<linearGradient id="SVGID_00000027577703517698795110000017257140362488477329_" gradientUnits="userSpaceOnUse" x1="1895.0942" y1="1326.1278" x2="1152.5525" y2="2480.6624">
					<stop  offset="0" style="stop-color:#53D8FF"/>
					<stop  offset="1" style="stop-color:#3840F7"/>
				</linearGradient>
				<path style="fill:url(#SVGID_00000027577703517698795110000017257140362488477329_);" d="M1264.115,1764.975
					c-3.434,17.492-18.427,872.908,73.012,1256.248c1.492,6.257-1.68,12.703-7.634,15.135
					c-14.025,5.729-41.518,14.027-74.467,15.135c-10.204,0.343-19.353-6.289-22.233-16.084
					c-26.137-88.94-151.381-534.561-167.721-960.248c-18.255-475.663,0-16.197,0-16.197l10.709-294.026L1264.115,1764.975z"/>
				
					<linearGradient id="SVGID_00000155120540377532282180000007230937616077372845_" gradientUnits="userSpaceOnUse" x1="2425.9248" y1="2782.7979" x2="1470.7605" y2="3821.7495" gradientTransform="matrix(1 0 0 1 -1072.0282 0)">
					<stop  offset="0" style="stop-color:#FDF53F"/>
					<stop  offset="1" style="stop-color:#D93C65"/>
				</linearGradient>
				<path style="fill:url(#SVGID_00000155120540377532282180000007230937616077372845_);" d="M966.199,3086.403
					c0,0-15.746,28.271-30.989,103.394c-2.754,13.566,6.725,26.552,20.502,27.906c24.375,2.395,61.901,5.479,91.961,5.271
					c13.858-0.095,24.673-12.162,23.002-25.918c-3.33-27.42-13.703-72.407-45.748-107.471L966.199,3086.403z"/>
				
					<linearGradient id="SVGID_00000104691198906767525440000000055887710724918942_" gradientUnits="userSpaceOnUse" x1="2024.3979" y1="3052.606" x2="2097.6516" y2="3052.606" gradientTransform="matrix(1 0 0 1 -1072.0282 0)">
					<stop  offset="0" style="stop-color:#F9B776"/>
					<stop  offset="1" style="stop-color:#F47960"/>
				</linearGradient>
				<path style="fill:url(#SVGID_00000104691198906767525440000000055887710724918942_);" d="M952.37,3000.247l18.57,101.296
					c0,0,18.361,13.657,54.684,3.758l-8.864-108.989L952.37,3000.247z"/>
				
					<linearGradient id="SVGID_00000145023681081065430560000006402936372397356931_" gradientUnits="userSpaceOnUse" x1="1721.6636" y1="1214.5865" x2="979.1234" y2="2369.1187">
					<stop  offset="0" style="stop-color:#53D8FF"/>
					<stop  offset="1" style="stop-color:#3840F7"/>
				</linearGradient>
				<path style="fill:url(#SVGID_00000145023681081065430560000006402936372397356931_);" d="M875.867,1770.868
					c-74.783,451.325,42.556,1135.843,73.249,1265.834c1.88,7.958,8.302,14.056,16.369,15.394
					c13.701,2.271,36.256,4.124,58.493-2.333c7.661-2.226,13.044-9.137,13.356-17.108c4.118-105.096-3.294-750.277,66.387-1005.256
					c3.531-12.92,11.424-24.19,22.341-31.952l135.247-96.15l5.909-128.429H875.867z"/>
				<g>
					
						<linearGradient id="SVGID_00000023959168330377595460000001994879145236672142_" gradientUnits="userSpaceOnUse" x1="1381.059" y1="932.9609" x2="1424.6364" y2="889.3836">
						<stop  offset="0" style="stop-color:#F9B776"/>
						<stop  offset="1" style="stop-color:#F47960"/>
					</linearGradient>
					<path style="fill:url(#SVGID_00000023959168330377595460000001994879145236672142_);" d="M1417.87,868.092
						c1.75,1.749-20.64,6.217-26.244,27.994c-3.083,11.982,1.75,24.495,13.997,22.745c12.247-1.75,62.986-40.241,62.986-40.241
						L1417.87,868.092z"/>
					
						<linearGradient id="SVGID_00000071546981343328010900000008212690190023879609_" gradientUnits="userSpaceOnUse" x1="930.6832" y1="830.5923" x2="1534.8137" y2="2167.3923">
						<stop  offset="0" style="stop-color:#F9B776"/>
						<stop  offset="1" style="stop-color:#F47960"/>
					</linearGradient>
					<path style="fill:url(#SVGID_00000071546981343328010900000008212690190023879609_);" d="M836.991,1384.234l-21.938-76.824
						c-1.41-4.937-7.837-6.187-10.966-2.117c-16.659,21.672-71.508,76.556-153.304,137.805c0,0,25.543,15.12,50.037,55.361
						c24.495,40.242,127.264,195.714,127.264,195.714l-38.197,46.178c0,0-72.78-26.125-195.53-86.457
						c-93.715-46.061-99.01-145.854-99.01-145.854s-13.609,3.359-22.357-35.133c-8.749-38.492,11.179-47.908,11.179-47.908
						s-17.566-213.99,195.359-322.582c0,0,29.74-97.854,129.469-87.356l126.042-70.209l196.484,7.536
						c8.878-0.208,17.732,1.009,26.225,3.604l113.151,34.574c0,0,35.612,13.897,54.858,38.392c0,0,186.31-23.422,326.563,143.57
						c0,0-37.31-79.766-36.91-196.272c0.156-45.287-10.145-90.002-29.575-130.909h-0.001l33.243-38.492
						c0,0,141.72,188.961,181.962,285.19c40.242,96.23,15.747,176.713,15.747,176.713s8.521,28.473-24.721,65.216
						c0,0-17.248,22.135-57.49,6.388c0,0-98.985,8.748-172.47,0c-51.676-6.152-95.254-10.905-127.538-35.07
						c-13.672-10.234-38.857-23.232-55.578-19.758c-26.575,5.521-84.008,12.098-120.303,0L836.991,1384.234z"/>
					
						<linearGradient id="SVGID_00000085238584003070335610000005205437486585415859_" gradientUnits="userSpaceOnUse" x1="960.2877" y1="774.1136" x2="1670.6477" y2="2345.9749">
						<stop  offset="0" style="stop-color:#F9B776"/>
						<stop  offset="1" style="stop-color:#F47960"/>
					</linearGradient>
					<path style="fill:url(#SVGID_00000085238584003070335610000005205437486585415859_);" d="M993.594,767.06
						c0,1.75-76.653,205.473-76.653,205.473s135.785,31.568,226.766,5.323l-31.939-162.888L993.594,767.06z"/>
					
						<linearGradient id="SVGID_00000088853623907020875030000008660670132129089943_" gradientUnits="userSpaceOnUse" x1="1110.3621" y1="1229.7361" x2="833.5377" y2="2086.0444">
						<stop  offset="0" style="stop-color:#FDF53F"/>
						<stop  offset="1" style="stop-color:#D93C65"/>
					</linearGradient>
					<path style="fill:url(#SVGID_00000088853623907020875030000008660670132129089943_);" d="M1225.16,978.254
						c-1.855,36.129-10.894,245.576,83.634,321.016l-41.575,494.963c-65.226,35.578-243.112,47.436-397.281,11.86
						c0,0-11.951-218.901-20.698-276.639c-8.748-57.737-48.99-211.705-48.99-211.705s131.995-101.321,46.84-320.249
						c-0.762-1.959,0.034-4.187,1.879-5.195l31.247-17.043c1.869-1.019,4.175,0.186,4.388,2.305
						c2.726,27.101,23.88,167.033,169.343,151.222c140.255-15.245,134.391-131.446,130.56-161.096
						c-0.416-3.219,2.617-5.789,5.732-4.88l30.2,8.808C1223.36,972.473,1225.316,975.214,1225.16,978.254z"/>
					
						<linearGradient id="SVGID_00000165192945504723752550000001927721919302900362_" gradientUnits="userSpaceOnUse" x1="801.2282" y1="1164.1659" x2="1308.4058" y2="1164.1659">
						<stop  offset="0" style="stop-color:#2B3582"/>
						<stop  offset="1" style="stop-color:#150E42"/>
					</linearGradient>
					<path style="fill:url(#SVGID_00000165192945504723752550000001927721919302900362_);" d="M920.974,1125.288
						c0,0,43.458,47.959,132.972,40.242c101.478-8.748,134.722-76.984,134.722-76.984s7.453,180.448,116.878,249.391
						c1.53-12.613,2.385-23.79,2.829-30.842c0.298-4.731-1.564-9.331-5.102-12.486c-88.645-79.043-79.931-280.924-78.113-316.35
						c0.156-3.042-1.797-5.786-4.721-6.639l-30.2-8.808c-3.113-0.908-6.149,1.654-5.734,4.87
						c3.831,29.632,9.713,145.859-130.558,161.106c-145.436,15.808-166.609-124.067-169.341-151.207
						c-0.214-2.124-2.516-3.342-4.39-2.32l-31.247,17.043c-1.847,1.008-2.638,3.243-1.875,5.204
						c76.689,197.175-22.763,298.95-43.279,317.224c-2.18,1.942-3.066,4.926-2.334,7.752c1.939,7.486,6.004,23.272,11.01,43.22
						C853.758,1341.012,935.464,1272.827,920.974,1125.288z"/>
					
						<linearGradient id="SVGID_00000141449807346394485370000009486172104881560213_" gradientUnits="userSpaceOnUse" x1="669.2744" y1="1343.6857" x2="637.7825" y2="1401.4208">
						<stop  offset="0" style="stop-color:#F9B776"/>
						<stop  offset="1" style="stop-color:#F47960"/>
					</linearGradient>
					<path style="fill:url(#SVGID_00000141449807346394485370000009486172104881560213_);" d="M651.533,1445.472
						c-0.333,0-0.671-0.048-1.008-0.149c-33.555-10.066-69.412-0.087-69.77,0.014c-1.861,0.531-3.794-0.548-4.324-2.406
						c-0.53-1.859,0.545-3.794,2.404-4.324c1.54-0.441,38.139-10.656,73.701,0.013c1.852,0.556,2.901,2.506,2.346,4.357
						C654.428,1444.493,653.037,1445.472,651.533,1445.472z"/>
					
						<linearGradient id="SVGID_00000043435238380439116000000007286717128992552125_" gradientUnits="userSpaceOnUse" x1="845.4365" y1="1707.454" x2="708.6125" y2="1642.4626">
						<stop  offset="0" style="stop-color:#F9B776"/>
						<stop  offset="1" style="stop-color:#F47960"/>
					</linearGradient>
					<path style="fill:url(#SVGID_00000043435238380439116000000007286717128992552125_);" d="M811.74,1677.905
						c1.545-0.221,17.609-5.377,28.426-8.882c6.524-2.114,13.381-3,20.228-2.611l40.734,2.315
						c5.238,0.297,10.346,1.745,14.962,4.238l41.778,22.57c4.998,2.7,6.314,9.277,2.74,13.692l0,0
						c-2.655,3.28-7.221,4.296-11.017,2.453l-34.403-16.71c-4.002-1.944-8.441-2.816-12.882-2.529l-14.036,0.906l27.191,15.106
						c2.002,1.112,3.84,2.498,5.459,4.118l36.896,36.896c3.538,3.538,3.688,9.227,0.341,12.946l0,0
						c-3.404,3.783-9.2,4.173-13.08,0.88l-37.339-31.682c0,0-27.859-10.741-26.181-10.741c1.678,0,20.811,16.783,20.811,16.783
						l38.867,31.437c3.889,3.146,4.868,8.675,2.294,12.965l0,0c-3.01,5.016-9.655,6.405-14.422,3.013l-60.976-43.387l46.023,40.573
						c2.911,2.566,3.623,6.823,1.705,10.196l0,0c-2.076,3.651-6.564,5.143-10.41,3.458c-11.835-5.187-33.934-17.466-40.674-25.36
						c-11.534-13.508-24.503-11.748-33.566-11.412c-9.063,0.336-50.684-3.692-61.76-31.552
						C758.371,1699.723,811.74,1677.905,811.74,1677.905z"/>
					<g>
						
							<linearGradient id="SVGID_00000085931079681793292740000013481123713962402432_" gradientUnits="userSpaceOnUse" x1="-516.3173" y1="-1210.538" x2="-13.3807" y2="-983.5717" gradientTransform="matrix(0.6332 0.774 -0.774 0.6332 867.6339 1789.3167)">
							<stop  offset="0" style="stop-color:#CB236D"/>
							<stop  offset="1" style="stop-color:#4C246D"/>
						</linearGradient>
						<path style="fill:url(#SVGID_00000085931079681793292740000013481123713962402432_);" d="M1702.715,990.174l-352.291-146.57
							c-4.376-1.821-6.467-6.891-4.647-11.267l29.604-71.154c1.821-4.376,6.891-6.467,11.267-4.647l352.291,146.57
							c4.376,1.821,6.467,6.891,4.646,11.267l-29.603,71.154C1712.162,989.904,1707.091,991.995,1702.715,990.174z"/>
						<defs>
							
								<filter id="Adobe_OpacityMaskFilter" filterUnits="userSpaceOnUse" x="1369.501" y="755.806" width="375.935" height="173.631">
								<feFlood  style="flood-color:white;flood-opacity:1" result="back"/>
								<feBlend  in="SourceGraphic" in2="back" mode="normal"/>
							</filter>
						</defs>
						
							<mask maskUnits="userSpaceOnUse" x="1369.501" y="755.806" width="375.935" height="173.631" id="SVGID_00000152231220080823563490000010711483106862592667_">
							<g style="filter:url(#Adobe_OpacityMaskFilter);">
								<defs>
									
										<filter id="Adobe_OpacityMaskFilter_00000183208580590719353330000013115722294533433472_" filterUnits="userSpaceOnUse" x="1369.501" y="755.806" width="375.935" height="173.631">
										<feFlood  style="flood-color:white;flood-opacity:1" result="back"/>
										<feBlend  in="SourceGraphic" in2="back" mode="normal"/>
									</filter>
								</defs>
								
									<mask maskUnits="userSpaceOnUse" x="1369.501" y="755.806" width="375.935" height="173.631" id="SVGID_00000152231220080823563490000010711483106862592667_">
									<g style="filter:url(#Adobe_OpacityMaskFilter_00000183208580590719353330000013115722294533433472_);">
									</g>
								</mask>
								
									<linearGradient id="SVGID_00000035496639319121248610000009851394185565398959_" gradientUnits="userSpaceOnUse" x1="1439.459" y1="-2083.7849" x2="1838.2574" y2="-2083.7849" gradientTransform="matrix(0.9233 0.3841 -0.3841 0.9233 -756.0713 2137.0945)">
									<stop  offset="0" style="stop-color:#1A1A1A"/>
									<stop  offset="0.7667" style="stop-color:#686868"/>
									<stop  offset="0.9704" style="stop-color:#808080"/>
									<stop  offset="0.9974" style="stop-color:#808080"/>
								</linearGradient>
								
									<path style="mask:url(#SVGID_00000152231220080823563490000010711483106862592667_);fill:url(#SVGID_00000035496639319121248610000009851394185565398959_);" d="
									M1735.053,929.273l-364.226-151.535c-1.094-0.455-1.617-1.723-1.162-2.817l7.401-17.788
									c0.455-1.094,1.723-1.617,2.817-1.162l364.226,151.535c1.094,0.455,1.617,1.723,1.162,2.817l-7.401,17.789
									C1737.415,929.205,1736.147,929.728,1735.053,929.273z"/>
							</g>
						</mask>
						
							<linearGradient id="SVGID_00000142874740004636638040000017553741454856103345_" gradientUnits="userSpaceOnUse" x1="1439.459" y1="-2083.7849" x2="1838.2574" y2="-2083.7849" gradientTransform="matrix(0.9233 0.3841 -0.3841 0.9233 -756.0713 2137.0945)">
							<stop  offset="0" style="stop-color:#FFFFFF"/>
							<stop  offset="0.7667" style="stop-color:#FFFFFF"/>
							<stop  offset="0.9704" style="stop-color:#FFFFFF"/>
							<stop  offset="0.9974" style="stop-color:#FFFFFF"/>
						</linearGradient>
						<path style="opacity:0.37;fill:url(#SVGID_00000142874740004636638040000017553741454856103345_);" d="M1735.053,929.273
							l-364.226-151.535c-1.094-0.455-1.617-1.723-1.162-2.817l7.401-17.788c0.455-1.094,1.723-1.617,2.817-1.162l364.226,151.535
							c1.094,0.455,1.617,1.723,1.162,2.817l-7.401,17.789C1737.415,929.205,1736.147,929.728,1735.053,929.273z"/>
						<g>
							
								<linearGradient id="SVGID_00000136393734829017594520000000615371679604012206_" gradientUnits="userSpaceOnUse" x1="5115.4097" y1="-1307.6152" x2="5893.9746" y2="-1151.9027" gradientTransform="matrix(0.9233 0.3841 -0.3841 0.9233 -756.0713 2137.0945)">
								<stop  offset="0" style="stop-color:#CB236D"/>
								<stop  offset="1" style="stop-color:#4C246D"/>
							</linearGradient>
							<polygon style="fill:url(#SVGID_00000136393734829017594520000000615371679604012206_);" points="1286.204,669.236 
								1337.264,649.933 1385.229,669.889 1406.118,719.126 1339.794,878.54 1289.028,897.138 1237.536,875.715 1219.88,828.651 
															"/>
							<polygon style="opacity:0.37;fill:#FFFFFF;" points="1289.028,897.138 1385.229,669.889 1406.118,719.126 1339.794,878.54 
															"/>
							<defs>
								
									<filter id="Adobe_OpacityMaskFilter_00000172438197995016548210000001796432211861071247_" filterUnits="userSpaceOnUse" x="1286.204" y="649.933" width="119.914" height="69.193">
									<feFlood  style="flood-color:white;flood-opacity:1" result="back"/>
									<feBlend  in="SourceGraphic" in2="back" mode="normal"/>
								</filter>
							</defs>
							
								<mask maskUnits="userSpaceOnUse" x="1286.204" y="649.933" width="119.914" height="69.193" id="SVGID_00000026144080204572634500000009274169093259064490_">
								<g style="filter:url(#Adobe_OpacityMaskFilter_00000172438197995016548210000001796432211861071247_);">
									<defs>
										
											<filter id="Adobe_OpacityMaskFilter_00000096058766748010830660000007240870430594384017_" filterUnits="userSpaceOnUse" x="1286.204" y="649.933" width="119.914" height="69.193">
											<feFlood  style="flood-color:white;flood-opacity:1" result="back"/>
											<feBlend  in="SourceGraphic" in2="back" mode="normal"/>
										</filter>
									</defs>
									
										<mask maskUnits="userSpaceOnUse" x="1286.204" y="649.933" width="119.914" height="69.193" id="SVGID_00000026144080204572634500000009274169093259064490_">
										<g style="filter:url(#Adobe_OpacityMaskFilter_00000096058766748010830660000007240870430594384017_);">
										</g>
									</mask>
									
										<linearGradient id="SVGID_00000082327494339340568150000010042953408213464994_" gradientUnits="userSpaceOnUse" x1="1418.2554" y1="-2226.865" x2="1386.4308" y2="-2138.8027" gradientTransform="matrix(0.9233 0.3841 -0.3841 0.9233 -756.0713 2137.0945)">
										<stop  offset="0" style="stop-color:#1A1A1A"/>
										<stop  offset="0.7667" style="stop-color:#686868"/>
										<stop  offset="0.9704" style="stop-color:#808080"/>
										<stop  offset="0.9974" style="stop-color:#808080"/>
									</linearGradient>
									
										<polygon style="mask:url(#SVGID_00000026144080204572634500000009274169093259064490_);fill:url(#SVGID_00000082327494339340568150000010042953408213464994_);" points="
										1286.204,669.236 1337.264,649.933 1385.229,669.889 1406.118,719.126 									"/>
								</g>
							</mask>
							
								<linearGradient id="SVGID_00000129885442428617462470000010221602166360158342_" gradientUnits="userSpaceOnUse" x1="1418.2554" y1="-2226.865" x2="1386.4308" y2="-2138.8027" gradientTransform="matrix(0.9233 0.3841 -0.3841 0.9233 -756.0713 2137.0945)">
								<stop  offset="0" style="stop-color:#FFFFFF"/>
								<stop  offset="0.7667" style="stop-color:#FFFFFF"/>
								<stop  offset="0.9704" style="stop-color:#FFFFFF"/>
								<stop  offset="0.9974" style="stop-color:#FFFFFF"/>
							</linearGradient>
							<polygon style="opacity:0.37;fill:url(#SVGID_00000129885442428617462470000010221602166360158342_);" points="
								1286.204,669.236 1337.264,649.933 1385.229,669.889 1406.118,719.126 							"/>
							<defs>
								
									<filter id="Adobe_OpacityMaskFilter_00000045603514507911501730000012613035735793758395_" filterUnits="userSpaceOnUse" x="1219.88" y="828.651" width="119.914" height="68.487">
									<feFlood  style="flood-color:white;flood-opacity:1" result="back"/>
									<feBlend  in="SourceGraphic" in2="back" mode="normal"/>
								</filter>
							</defs>
							
								<mask maskUnits="userSpaceOnUse" x="1219.88" y="828.651" width="119.914" height="68.487" id="SVGID_00000008864631057877041970000002776199052884424876_">
								<g style="filter:url(#Adobe_OpacityMaskFilter_00000045603514507911501730000012613035735793758395_);">
									<defs>
										
											<filter id="Adobe_OpacityMaskFilter_00000130611873942428965530000003389813118807971215_" filterUnits="userSpaceOnUse" x="1219.88" y="828.651" width="119.914" height="68.487">
											<feFlood  style="flood-color:white;flood-opacity:1" result="back"/>
											<feBlend  in="SourceGraphic" in2="back" mode="normal"/>
										</filter>
									</defs>
									
										<mask maskUnits="userSpaceOnUse" x="1219.88" y="828.651" width="119.914" height="68.487" id="SVGID_00000008864631057877041970000002776199052884424876_">
										<g style="filter:url(#Adobe_OpacityMaskFilter_00000130611873942428965530000003389813118807971215_);">
										</g>
									</mask>
									
										<linearGradient id="SVGID_00000077311933124178758380000012883503623290634399_" gradientUnits="userSpaceOnUse" x1="1424.1332" y1="-1978.1516" x2="1346.2122" y2="-1938.0453" gradientTransform="matrix(0.9233 0.3841 -0.3841 0.9233 -756.0713 2137.0945)">
										<stop  offset="0" style="stop-color:#1A1A1A"/>
										<stop  offset="0.7667" style="stop-color:#686868"/>
										<stop  offset="0.9704" style="stop-color:#808080"/>
										<stop  offset="0.9974" style="stop-color:#808080"/>
									</linearGradient>
									
										<polygon style="mask:url(#SVGID_00000008864631057877041970000002776199052884424876_);fill:url(#SVGID_00000077311933124178758380000012883503623290634399_);" points="
										1219.88,828.651 1237.536,875.715 1289.028,897.138 1339.794,878.54 									"/>
								</g>
							</mask>
							
								<linearGradient id="SVGID_00000103984569135520292990000013053450743986343867_" gradientUnits="userSpaceOnUse" x1="1424.1332" y1="-1978.1516" x2="1346.2122" y2="-1938.0453" gradientTransform="matrix(0.9233 0.3841 -0.3841 0.9233 -756.0713 2137.0945)">
								<stop  offset="0" style="stop-color:#FFFFFF"/>
								<stop  offset="0.7667" style="stop-color:#FFFFFF"/>
								<stop  offset="0.9704" style="stop-color:#FFFFFF"/>
								<stop  offset="0.9974" style="stop-color:#FFFFFF"/>
							</linearGradient>
							<polygon style="opacity:0.37;fill:url(#SVGID_00000103984569135520292990000013053450743986343867_);" points="
								1219.88,828.651 1237.536,875.715 1289.028,897.138 1339.794,878.54 							"/>
						</g>
						<g>
							
								<linearGradient id="SVGID_00000093855380709728477930000010968534599439188887_" gradientUnits="userSpaceOnUse" x1="-173.0626" y1="-1246.5759" x2="440.3781" y2="-885.5892" gradientTransform="matrix(0.6332 0.774 -0.774 0.6332 867.6339 1789.3167)">
								<stop  offset="0" style="stop-color:#CB236D"/>
								<stop  offset="1" style="stop-color:#4C246D"/>
							</linearGradient>
							<polygon style="fill:url(#SVGID_00000093855380709728477930000010968534599439188887_);" points="1828.665,892.856 
								1806.366,843.033 1758.4,823.077 1708.751,842.967 1642.428,1002.381 1665.021,1051.5 1716.513,1072.923 1762.341,1052.271 
															"/>
							<polygon style="opacity:0.37;fill:#FFFFFF;" points="1665.021,1051.5 1758.4,823.077 1708.751,842.967 1642.428,1002.381 
															"/>
							<defs>
								
									<filter id="Adobe_OpacityMaskFilter_00000144295566688119461260000017400892541221506486_" filterUnits="userSpaceOnUse" x="1708.751" y="823.077" width="119.914" height="69.78">
									<feFlood  style="flood-color:white;flood-opacity:1" result="back"/>
									<feBlend  in="SourceGraphic" in2="back" mode="normal"/>
								</filter>
							</defs>
							
								<mask maskUnits="userSpaceOnUse" x="1708.751" y="823.077" width="119.914" height="69.78" id="SVGID_00000178184357333738368880000000847229116261070265_">
								<g style="filter:url(#Adobe_OpacityMaskFilter_00000144295566688119461260000017400892541221506486_);">
									<defs>
										
											<filter id="Adobe_OpacityMaskFilter_00000135673765607665657130000003450754962191015050_" filterUnits="userSpaceOnUse" x="1708.751" y="823.077" width="119.914" height="69.78">
											<feFlood  style="flood-color:white;flood-opacity:1" result="back"/>
											<feBlend  in="SourceGraphic" in2="back" mode="normal"/>
										</filter>
									</defs>
									
										<mask maskUnits="userSpaceOnUse" x="1708.751" y="823.077" width="119.914" height="69.78" id="SVGID_00000178184357333738368880000000847229116261070265_">
										<g style="filter:url(#Adobe_OpacityMaskFilter_00000135673765607665657130000003450754962191015050_);">
										</g>
									</mask>
									
										<linearGradient id="SVGID_00000155858350522219098440000017714033228811656868_" gradientUnits="userSpaceOnUse" x1="1073.7814" y1="-2229.2791" x2="1041.9546" y2="-2141.2104" gradientTransform="matrix(-0.9233 -0.3841 -0.3841 0.9233 1908.2618 3246.0361)">
										<stop  offset="0" style="stop-color:#1A1A1A"/>
										<stop  offset="0.7667" style="stop-color:#686868"/>
										<stop  offset="0.9704" style="stop-color:#808080"/>
										<stop  offset="0.9974" style="stop-color:#808080"/>
									</linearGradient>
									
										<polygon style="mask:url(#SVGID_00000178184357333738368880000000847229116261070265_);fill:url(#SVGID_00000155858350522219098440000017714033228811656868_);" points="
										1828.665,892.856 1806.366,843.033 1758.4,823.077 1708.751,842.967 									"/>
								</g>
							</mask>
							
								<linearGradient id="SVGID_00000013887964807894991090000011750085959163037584_" gradientUnits="userSpaceOnUse" x1="1073.7814" y1="-2229.2791" x2="1041.9546" y2="-2141.2104" gradientTransform="matrix(-0.9233 -0.3841 -0.3841 0.9233 1908.2618 3246.0361)">
								<stop  offset="0" style="stop-color:#FFFFFF"/>
								<stop  offset="0.7667" style="stop-color:#FFFFFF"/>
								<stop  offset="0.9704" style="stop-color:#FFFFFF"/>
								<stop  offset="0.9974" style="stop-color:#FFFFFF"/>
							</linearGradient>
							<polygon style="opacity:0.37;fill:url(#SVGID_00000013887964807894991090000011750085959163037584_);" points="
								1828.665,892.856 1806.366,843.033 1758.4,823.077 1708.751,842.967 							"/>
							<defs>
								
									<filter id="Adobe_OpacityMaskFilter_00000150097896547087500030000003199359299079968680_" filterUnits="userSpaceOnUse" x="1642.428" y="1002.381" width="119.914" height="70.541">
									<feFlood  style="flood-color:white;flood-opacity:1" result="back"/>
									<feBlend  in="SourceGraphic" in2="back" mode="normal"/>
								</filter>
							</defs>
							
								<mask maskUnits="userSpaceOnUse" x="1642.428" y="1002.381" width="119.914" height="70.541" id="SVGID_00000087371950296447148720000015653334314199642753_">
								<g style="filter:url(#Adobe_OpacityMaskFilter_00000150097896547087500030000003199359299079968680_);">
									<defs>
										
											<filter id="Adobe_OpacityMaskFilter_00000124132023981656715880000008631608155722305937_" filterUnits="userSpaceOnUse" x="1642.428" y="1002.381" width="119.914" height="70.541">
											<feFlood  style="flood-color:white;flood-opacity:1" result="back"/>
											<feBlend  in="SourceGraphic" in2="back" mode="normal"/>
										</filter>
									</defs>
									
										<mask maskUnits="userSpaceOnUse" x="1642.428" y="1002.381" width="119.914" height="70.541" id="SVGID_00000087371950296447148720000015653334314199642753_">
										<g style="filter:url(#Adobe_OpacityMaskFilter_00000124132023981656715880000008631608155722305937_);">
										</g>
									</mask>
									
										<linearGradient id="SVGID_00000114777224489278253020000017759751426606980794_" gradientUnits="userSpaceOnUse" x1="1079.6711" y1="-1980.5609" x2="1001.7476" y2="-1940.4532" gradientTransform="matrix(-0.9233 -0.3841 -0.3841 0.9233 1908.2618 3246.0361)">
										<stop  offset="0" style="stop-color:#1A1A1A"/>
										<stop  offset="0.7667" style="stop-color:#686868"/>
										<stop  offset="0.9704" style="stop-color:#808080"/>
										<stop  offset="0.9974" style="stop-color:#808080"/>
									</linearGradient>
									
										<polygon style="mask:url(#SVGID_00000087371950296447148720000015653334314199642753_);fill:url(#SVGID_00000114777224489278253020000017759751426606980794_);" points="
										1762.341,1052.271 1716.513,1072.923 1665.021,1051.5 1642.428,1002.381 									"/>
								</g>
							</mask>
							
								<linearGradient id="SVGID_00000039840436665221986560000000578137838804433573_" gradientUnits="userSpaceOnUse" x1="1079.6711" y1="-1980.5609" x2="1001.7476" y2="-1940.4532" gradientTransform="matrix(-0.9233 -0.3841 -0.3841 0.9233 1908.2618 3246.0361)">
								<stop  offset="0" style="stop-color:#FFFFFF"/>
								<stop  offset="0.7667" style="stop-color:#FFFFFF"/>
								<stop  offset="0.9704" style="stop-color:#FFFFFF"/>
								<stop  offset="0.9974" style="stop-color:#FFFFFF"/>
							</linearGradient>
							<polygon style="opacity:0.37;fill:url(#SVGID_00000039840436665221986560000000578137838804433573_);" points="
								1762.341,1052.271 1716.513,1072.923 1665.021,1051.5 1642.428,1002.381 							"/>
						</g>
					</g>
					<g>
						
							<linearGradient id="SVGID_00000147207556767872041430000002795644534919864989_" gradientUnits="userSpaceOnUse" x1="1407.6545" y1="610.7566" x2="2023.1342" y2="1972.6696">
							<stop  offset="0" style="stop-color:#F9B776"/>
							<stop  offset="1" style="stop-color:#F47960"/>
						</linearGradient>
						<path style="fill:url(#SVGID_00000147207556767872041430000002795644534919864989_);" d="M1632.715,826.042
							c0,0-10.138-26.186-22.386-31.434c-11.874-5.089-102.69-41.426-171.995-21.312c-4.173,1.211-7.724,3.964-10.032,7.646
							c-11.724,18.704-47.35,78.592-29.679,88.901c0,0,59.619,21.183,101.478,15.747c19.399-2.52,18.318-17.757,18.318-17.757
							s53.418,17.757,79.662-6.738C1624.326,836.599,1632.715,826.042,1632.715,826.042z"/>
						
							<linearGradient id="SVGID_00000054252086959400103530000016429969550319581356_" gradientUnits="userSpaceOnUse" x1="1493.796" y1="785.1082" x2="1498.3929" y2="872.449">
							<stop  offset="0" style="stop-color:#F9B776"/>
							<stop  offset="1" style="stop-color:#F47960"/>
						</linearGradient>
						<path style="fill:url(#SVGID_00000054252086959400103530000016429969550319581356_);" d="M1518.194,868.72
							c-21.902-5.555-33.812-13.822-38.898-17.351c-0.977-0.679-1.987-1.38-2.265-1.463c0.062,0.02,0.271,0.037,0.489-0.095
							l-0.943-1.572c0.765-0.461,1.461,0.024,3.764,1.623c5.005,3.473,16.724,11.607,38.304,17.079L1518.194,868.72z"/>
						
							<linearGradient id="SVGID_00000043416069097446698480000005427836432449152937_" gradientUnits="userSpaceOnUse" x1="1449.9536" y1="789.7506" x2="1454.5504" y2="877.0911">
							<stop  offset="0" style="stop-color:#F9B776"/>
							<stop  offset="1" style="stop-color:#F47960"/>
						</linearGradient>
						<path style="fill:url(#SVGID_00000043416069097446698480000005427836432449152937_);" d="M1459.192,884.598
							c-1.282-0.257-2.522-0.573-3.683-0.94c-3.352-1.059-6.09-3.377-7.71-6.527c-1.651-3.212-1.943-6.874-0.825-10.311
							l11.311-36.881l1.753,0.537l-11.316,36.896c-0.972,2.984-0.719,6.146,0.706,8.919c1.395,2.713,3.75,4.707,6.632,5.618
							C1457.16,882.257,1459.192,884.598,1459.192,884.598z"/>
						
							<linearGradient id="SVGID_00000174571220857334804300000001868857830491568310_" gradientUnits="userSpaceOnUse" x1="1432.3337" y1="790.5534" x2="1436.9307" y2="877.8941">
							<stop  offset="0" style="stop-color:#F9B776"/>
							<stop  offset="1" style="stop-color:#F47960"/>
						</linearGradient>
						<path style="fill:url(#SVGID_00000174571220857334804300000001868857830491568310_);" d="M1438.462,881.034
							c-1.282-0.257-2.521-0.573-3.682-0.94c-3.353-1.059-6.09-3.378-7.711-6.528c-1.651-3.211-1.944-6.873-0.824-10.31
							l16.765-43.628l1.712,0.657l-16.749,43.583c-0.951,2.924-0.698,6.086,0.728,8.859c1.394,2.712,3.749,4.707,6.632,5.618
							C1436.43,878.694,1438.462,881.034,1438.462,881.034z"/>
						
							<linearGradient id="SVGID_00000069392424024743512710000000067667307449841030_" gradientUnits="userSpaceOnUse" x1="1412.0962" y1="791.0361" x2="1416.6931" y2="878.3765">
							<stop  offset="0" style="stop-color:#F9B776"/>
							<stop  offset="1" style="stop-color:#F47960"/>
						</linearGradient>
						<path style="fill:url(#SVGID_00000069392424024743512710000000067667307449841030_);" d="M1416.769,875.413
							c-1.284-0.257-2.523-0.573-3.683-0.94c-3.352-1.059-6.09-3.377-7.71-6.528c-1.651-3.211-1.944-6.873-0.824-10.31
							l19.079-43.458l1.68,0.738l-19.047,43.373c-0.936,2.883-0.682,6.045,0.743,8.819c1.395,2.713,3.75,4.707,6.633,5.619
							C1414.736,873.072,1416.769,875.413,1416.769,875.413z"/>
					</g>
					<g>
						
							<linearGradient id="SVGID_00000054951653089018864110000015986907559987257273_" gradientUnits="userSpaceOnUse" x1="9731.4717" y1="947.3486" x2="9993.5586" y2="937.7601" gradientTransform="matrix(-0.9999 0.0139 0.0139 0.9999 10897.0088 -367.6934)">
							<stop  offset="0" style="stop-color:#F9B776"/>
							<stop  offset="1" style="stop-color:#F47960"/>
						</linearGradient>
						<path style="fill:url(#SVGID_00000054951653089018864110000015986907559987257273_);" d="M1125.814,578.238
							c0,0,48.15,106.544,52.064,162.761c3.914,56.217,16.544,92.556-48.351,104.789c-64.896,12.232-120.147-19.414-150.613-75.045
							c0,0-47.715-85.71-37.771-121.22C951.087,614.013,1125.814,578.238,1125.814,578.238z"/>
						
							<linearGradient id="SVGID_00000155107364311884198220000010697306129350881434_" gradientUnits="userSpaceOnUse" x1="-16852.9844" y1="742.9026" x2="-16604.5234" y2="1062.7955" gradientTransform="matrix(0.9999 -0.0139 0.0139 0.9999 17787.8477 -463.6318)">
							<stop  offset="0" style="stop-color:#2B3582"/>
							<stop  offset="1" style="stop-color:#150E42"/>
						</linearGradient>
						<path style="fill:url(#SVGID_00000155107364311884198220000010697306129350881434_);" d="M1000.584,730.141l3.68-1.684
							c4.686-2.144,6.625-7.783,4.193-12.326c-9.419-17.597-27.866-57.964-4.896-67.76c29.604-12.624,147.206-38.31,172.07-80.51
							c23.898-40.559,1.509-92.173-31.261-106.488c-2.193-0.958-4.752-0.138-5.84,1.993l-2.643,5.173
							c-1.809,3.54-7.008,3.08-8.166-0.723v-0.001c-1.112-3.651-5.998-4.295-7.975-1.03c-7.648,12.628-28.483,33.219-84.807,44.424
							c-80.049,15.925-132.657,49.138-133.209,104.613c-0.035,3.525-3.755,5.536-6.791,3.743c-5.976-3.529-15.482-5.091-28.006,5.74
							c-21.783,18.839-12.097,66.787,36.768,105.661c2.321,1.847,2.352,5.431-0.111,7.083c-8.68,5.823-21.55,19.572,12.535,37.189
							c35.256,18.221,61.367,16.324,71.406,14.524c2.498-0.449,4.078-2.894,3.497-5.364l-11.417-48.593
							c-0.646-2.75,1.418-5.392,4.242-5.431L1000.584,730.141z"/>
						
							<linearGradient id="SVGID_00000137113080117820242960000008599558625461252227_" gradientUnits="userSpaceOnUse" x1="9732.1709" y1="966.4146" x2="9994.2588" y2="956.826" gradientTransform="matrix(-0.9999 0.0139 0.0139 0.9999 10897.0088 -367.6934)">
							<stop  offset="0" style="stop-color:#F9B776"/>
							<stop  offset="1" style="stop-color:#F47960"/>
						</linearGradient>
						<path style="fill:url(#SVGID_00000137113080117820242960000008599558625461252227_);" d="M1002.748,740.398
							c0,0-18.751-68.225-49.184-48.6c-30.433,19.624,16.995,76.498,41.711,78.719L1002.748,740.398z"/>
					</g>
				</g>
			</g>
		</g>
		<g>
			
				<linearGradient id="SVGID_00000013905008924582342950000004658234723681216404_" gradientUnits="userSpaceOnUse" x1="2779.0818" y1="1180.6357" x2="3482.2856" y2="864.5886">
				<stop  offset="0" style="stop-color:#FDF53F"/>
				<stop  offset="0.6645" style="stop-color:#E57A58"/>
				<stop  offset="1" style="stop-color:#D93C65"/>
			</linearGradient>
			<path style="fill:url(#SVGID_00000013905008924582342950000004658234723681216404_);" d="M3243.055,1077.498
				c0,121.723-114.172,220.398-235.895,220.398s-220.398-98.675-220.398-220.398c0-121.722,98.676-220.398,220.398-220.398
				S3243.055,955.776,3243.055,1077.498z"/>
			<path style="opacity:0.65;fill:#FFFFFF;" d="M3194.843,1077.498c0.036,23.075-4.445,46.209-13.137,67.667
				c-8.678,21.471-21.562,41.246-37.722,57.965c-16.165,16.702-35.584,30.424-57.09,39.83c-21.453,9.49-44.909,14.76-68.541,15.334
				c-23.619,0.567-47.571-3.469-69.857-12.161c-22.263-8.711-42.905-21.833-60.194-38.583
				c-17.292-16.735-31.252-37.023-40.692-59.32c-4.701-11.151-8.349-22.772-10.73-34.654c-2.383-11.88-3.586-23.989-3.627-36.077
				c0.041-12.088,1.243-24.198,3.627-36.077c2.381-11.882,6.029-23.503,10.73-34.654c9.44-22.297,23.4-42.585,40.692-59.32
				c17.289-16.749,37.932-29.872,60.194-38.583c22.287-8.692,46.238-12.727,69.857-12.161c23.632,0.575,47.088,5.843,68.541,15.334
				c21.506,9.406,40.925,23.128,57.09,39.83c16.16,16.719,29.044,36.494,37.722,57.965
				C3190.398,1031.29,3194.879,1054.423,3194.843,1077.498z M3170.737,1077.498c-0.043-9.991-1.088-19.96-3.145-29.729
				c-2.055-9.77-5.214-19.31-9.269-28.471c-8.15-18.311-20.22-34.99-35.168-48.718c-14.947-13.741-32.772-24.437-51.899-31.496
				c-19.162-7.034-39.666-10.223-59.992-9.665c-40.714,1.06-79.832,18.001-107.266,45.581
				c-13.763,13.713-24.707,29.878-32.06,47.363c-7.362,17.483-11.166,36.256-11.137,55.135
				c-0.029,18.879,3.775,37.653,11.137,55.136c7.353,17.485,18.297,33.65,32.06,47.363c27.433,27.58,66.551,44.521,107.266,45.581
				c20.326,0.558,40.83-2.632,59.992-9.665c19.126-7.06,36.952-17.755,51.899-31.496c14.948-13.729,27.018-30.407,35.168-48.718
				c4.055-9.161,7.214-18.701,9.269-28.471C3169.649,1097.459,3170.694,1087.49,3170.737,1077.498z"/>
			<g>
				<g style="opacity:0.65;">
					<path style="fill:#FFFFFF;" d="M2967.452,1014.528c-0.558,0.072-1.1,0.198-1.621,0.376c-1.497,0.512-2.813,1.449-3.803,2.73
						c-2.754,3.563-2.096,8.702,1.466,11.456c1.726,1.334,3.869,1.917,6.032,1.639c2.163-0.274,4.089-1.38,5.424-3.105
						c2.754-3.563,2.096-8.702-1.466-11.456C2971.758,1014.833,2969.616,1014.251,2967.452,1014.528z"/>
					<path style="fill:#FFFFFF;" d="M3010.506,996.749l-6.895-8.785c-0.201-0.256-0.544-0.357-0.852-0.251l-8.791,3.045
						c-3.493-2.797-7.368-4.95-11.452-6.44l-1.96-9.101c-0.068-0.319-0.332-0.559-0.656-0.598l-11.087-1.336
						c-0.324-0.039-0.637,0.131-0.78,0.425l-4.066,8.375c-4.321,0.478-8.597,1.648-12.654,3.535l-7.816-5.047
						c-0.274-0.177-0.63-0.16-0.887,0.041l-8.785,6.894c-0.257,0.202-0.357,0.544-0.25,0.852l3.045,8.791
						c-2.797,3.492-4.95,7.368-6.44,11.452l-9.101,1.96c-0.319,0.069-0.56,0.332-0.598,0.656l-1.336,11.086
						c-0.039,0.324,0.132,0.637,0.425,0.78l8.375,4.066c0.478,4.321,1.648,8.598,3.535,12.655l-5.046,7.816
						c-0.177,0.274-0.161,0.631,0.041,0.887l6.895,8.785c0.202,0.257,0.544,0.357,0.852,0.25l8.791-3.045
						c3.492,2.797,7.368,4.95,11.452,6.441l1.96,9.101c0.069,0.319,0.332,0.56,0.656,0.599l11.087,1.336
						c0.324,0.039,0.637-0.131,0.78-0.425l4.066-8.375c4.321-0.478,8.598-1.648,12.655-3.535l7.816,5.046
						c0.274,0.177,0.63,0.161,0.887-0.041l8.784-6.894c0.257-0.202,0.357-0.544,0.251-0.852l-3.045-8.792
						c2.797-3.493,4.95-7.368,6.441-11.452l9.101-1.96c0.319-0.069,0.56-0.332,0.599-0.656l1.336-11.087
						c0.039-0.324-0.132-0.637-0.425-0.779l-8.375-4.066c-0.478-4.321-1.648-8.598-3.535-12.655l5.046-7.816
						C3010.724,997.362,3010.708,997.005,3010.506,996.749z M2993.26,1012.417c-0.865,0.424-1.915,0.062-2.338-0.806
						c-0.781-1.603-1.74-3.132-2.85-4.547c-4.156-5.294-10.124-8.653-16.805-9.459c-6.682-0.805-13.275,1.041-18.572,5.195
						c-5.294,4.156-8.653,10.124-9.459,16.805c-0.46,3.824-0.053,7.62,1.158,11.159c0.905,2.646,2.26,5.148,4.037,7.413
						c4.156,5.294,10.123,8.653,16.805,9.459c6.681,0.804,13.276-1.041,18.572-5.194c3.594-2.822,6.35-6.555,7.971-10.795
						c0.345-0.902,1.356-1.353,2.259-1.01c0.504,0.193,0.867,0.594,1.03,1.067c0.129,0.374,0.132,0.793-0.02,1.192
						c-1.848,4.833-4.988,9.085-9.08,12.298c-2.581,2.026-5.435,3.57-8.451,4.601c-4.029,1.377-8.347,1.84-12.7,1.315
						c-7.61-0.917-14.406-4.743-19.138-10.773c-2.024-2.578-3.567-5.429-4.598-8.441c-1.38-4.031-1.844-8.353-1.319-12.708
						c0.917-7.61,4.743-14.407,10.773-19.138c6.028-4.734,13.54-6.834,21.15-5.916c7.61,0.917,14.406,4.743,19.138,10.773
						c0.086,0.109,0.172,0.22,0.257,0.331c0.953,1.252,1.804,2.58,2.538,3.962c0.002,0.003,0.003,0.006,0.005,0.009
						c0.052,0.097,0.103,0.197,0.154,0.295c0.019,0.037,0.037,0.073,0.056,0.109c0.08,0.156,0.157,0.312,0.233,0.469
						c0.033,0.066,0.06,0.133,0.083,0.201C2994.433,1011.102,2994.063,1012.026,2993.26,1012.417z M2977.719,1029.762
						c-1.446,1.872-3.354,3.182-5.439,3.895c-3.588,1.226-7.706,0.688-10.924-1.8c-5.089-3.934-6.029-11.274-2.095-16.362
						c1.906-2.466,4.656-4.041,7.748-4.437c3.091-0.396,6.151,0.435,8.615,2.342
						C2980.713,1017.334,2981.652,1024.674,2977.719,1029.762z"/>
				</g>
				<g>
					<g style="opacity:0.65;">
						<path style="fill:#FFFFFF;" d="M3052.102,1102.747c-0.878-0.18-1.762-0.268-2.639-0.268c-2.522,0-4.991,0.735-7.146,2.157
							c-5.992,3.955-7.649,12.047-3.696,18.039c1.916,2.902,4.848,4.886,8.255,5.583c3.404,0.701,6.88,0.027,9.785-1.887
							c5.992-3.955,7.649-12.047,3.696-18.039C3058.441,1105.428,3055.509,1103.446,3052.102,1102.747z"/>
						<path style="fill:#FFFFFF;" d="M3126.226,1098.128l-5.871-16.809c-0.172-0.491-0.636-0.82-1.156-0.818l-14.834,0.059
							c-3.827-6.021-8.563-11.267-13.956-15.623l1.737-14.741c0.061-0.517-0.213-1.015-0.681-1.241l-16.037-7.734
							c-0.469-0.226-1.029-0.13-1.396,0.24l-10.454,10.538c-6.766-1.508-13.821-1.948-20.915-1.193l-9.19-11.644
							c-0.323-0.409-0.868-0.567-1.36-0.396l-16.809,5.871c-0.491,0.172-0.819,0.636-0.817,1.157l0.059,14.834
							c-6.021,3.826-11.268,8.563-15.623,13.956l-14.741-1.737c-0.517-0.06-1.015,0.213-1.241,0.682l-7.734,16.037
							c-0.226,0.469-0.13,1.029,0.24,1.396l10.538,10.453c-1.508,6.766-1.948,13.821-1.193,20.915l-11.645,9.19
							c-0.408,0.322-0.567,0.868-0.396,1.359l5.872,16.809c0.171,0.491,0.636,0.819,1.156,0.817l14.833-0.059
							c3.826,6.02,8.563,11.268,13.956,15.623l-1.737,14.741c-0.061,0.516,0.213,1.016,0.681,1.241l16.037,7.734
							c0.468,0.226,1.029,0.13,1.396-0.239l10.454-10.538c6.766,1.508,13.821,1.948,20.915,1.193l9.189,11.644
							c0.322,0.408,0.868,0.567,1.359,0.396l16.809-5.871c0.491-0.172,0.82-0.636,0.817-1.156l-0.059-14.834
							c6.021-3.827,11.267-8.563,15.623-13.956l14.742,1.737c0.517,0.061,1.015-0.213,1.241-0.682l7.734-16.037
							c0.226-0.468,0.13-1.029-0.239-1.396l-10.538-10.454c1.508-6.766,1.948-13.821,1.193-20.914l11.644-9.19
							C3126.239,1099.165,3126.398,1098.619,3126.226,1098.128z M3092.128,1112.872c-1.524,0.193-2.921-0.893-3.112-2.422
							c-0.351-2.82-1.009-5.623-1.954-8.331c-3.539-10.129-10.81-18.276-20.475-22.937c-9.666-4.66-20.565-5.275-30.698-1.74
							c-10.129,3.54-18.276,10.81-22.937,20.475c-2.667,5.532-4.01,11.468-4.008,17.433c0.001,4.459,0.755,8.932,2.267,13.265
							c3.539,10.131,10.81,18.276,20.475,22.938c9.665,4.659,20.566,5.277,30.698,1.742c6.877-2.404,12.96-6.615,17.594-12.176
							c0.986-1.183,2.744-1.341,3.929-0.358c0.661,0.551,1.002,1.343,1.004,2.141c0.001,0.63-0.211,1.265-0.646,1.788
							c-5.28,6.338-12.21,11.134-20.041,13.87c-4.94,1.726-10.041,2.583-15.123,2.583c-6.789,0-13.542-1.529-19.838-4.566
							c-11.008-5.308-19.289-14.585-23.317-26.123c-1.724-4.934-2.582-10.03-2.583-15.107c-0.003-6.793,1.527-13.553,4.565-19.853
							c5.309-11.008,14.585-19.289,26.123-23.318c11.536-4.034,23.952-3.327,34.96,1.982c11.008,5.308,19.288,14.585,23.317,26.123
							c0.073,0.21,0.146,0.421,0.217,0.632c0.793,2.38,1.392,4.822,1.786,7.286c0.001,0.005,0.001,0.011,0.002,0.016
							c0.029,0.174,0.055,0.35,0.08,0.525c0.01,0.065,0.019,0.129,0.029,0.193c0.04,0.276,0.076,0.552,0.11,0.828
							c0.015,0.117,0.022,0.231,0.022,0.346C3094.573,1111.494,3093.54,1112.696,3092.128,1112.872z M3059.734,1131.025
							c-3.147,2.078-6.7,3.071-10.215,3.071c-6.045,0-11.98-2.936-15.552-8.349c-5.649-8.559-3.281-20.118,5.279-25.766
							c4.146-2.737,9.109-3.695,13.976-2.698c4.867,0.997,9.055,3.83,11.791,7.976
							C3070.661,1113.819,3068.293,1125.378,3059.734,1131.025z"/>
					</g>
				</g>
			</g>
		</g>
		<g>
			
				<linearGradient id="SVGID_00000107567684142310286440000006427138039233428098_" gradientUnits="userSpaceOnUse" x1="1949.1677" y1="911.7112" x2="2676.3833" y2="446.0559">
				<stop  offset="0" style="stop-color:#FDF53F"/>
				<stop  offset="0.6645" style="stop-color:#E57A58"/>
				<stop  offset="1" style="stop-color:#D93C65"/>
			</linearGradient>
			<path style="fill:url(#SVGID_00000107567684142310286440000006427138039233428098_);" d="M2333.824,815.39
				c0,122.106-114.532,221.092-236.638,221.092s-221.092-98.986-221.092-221.092s98.986-221.092,221.092-221.092
				S2333.824,693.284,2333.824,815.39z"/>
			<path style="opacity:0.65;fill:#FFFFFF;" d="M2285.46,815.39c0.036,23.148-4.459,46.354-13.178,67.88
				c-8.705,21.539-21.63,41.375-37.841,58.147c-16.216,16.754-35.696,30.52-57.27,39.955c-21.521,9.52-45.05,14.806-68.757,15.382
				c-23.694,0.569-47.72-3.48-70.077-12.199c-22.333-8.739-43.04-21.902-60.384-38.705c-17.346-16.788-31.351-37.14-40.82-59.507
				c-4.715-11.186-8.375-22.843-10.764-34.763c-2.391-11.917-3.597-24.065-3.638-36.191c0.041-12.126,1.247-24.274,3.638-36.191
				c2.389-11.92,6.049-23.577,10.764-34.763c9.469-22.367,23.474-42.719,40.82-59.507c17.344-16.802,38.051-29.966,60.384-38.705
				c22.357-8.719,46.384-12.767,70.077-12.199c23.707,0.576,47.236,5.862,68.757,15.382c21.574,9.435,41.054,23.201,57.27,39.955
				c16.211,16.772,29.136,36.609,37.841,58.148C2281.001,769.036,2285.496,792.242,2285.46,815.39z M2261.278,815.39
				c-0.043-10.023-1.092-20.023-3.155-29.823c-2.061-9.801-5.23-19.371-9.298-28.561c-8.176-18.368-20.284-35.1-35.279-48.872
				c-14.994-13.785-32.875-24.513-52.062-31.596c-19.222-7.056-39.791-10.256-60.181-9.696
				c-40.843,1.063-80.084,18.058-107.604,45.725c-13.807,13.756-24.785,29.972-32.161,47.512
				c-7.385,17.538-11.201,36.371-11.172,55.309c-0.029,18.939,3.787,37.772,11.172,55.309c7.376,17.54,18.354,33.756,32.161,47.512
				c27.52,27.667,66.761,44.661,107.604,45.725c20.39,0.56,40.959-2.64,60.181-9.696c19.187-7.082,37.068-17.811,52.062-31.595
				c14.995-13.772,27.103-30.503,35.279-48.872c4.068-9.19,7.236-18.76,9.298-28.561
				C2260.186,835.413,2261.234,825.412,2261.278,815.39z"/>
			<path style="fill:#FFFFFF;" d="M2155.771,728.161c-20.587,0-38.922,10.796-50.812,27.616
				c-11.89-16.82-30.225-27.616-50.812-27.616c-35.845,0-64.903,32.691-64.903,73.016c0,3.261,0.526,6.776,1.485,10.477h14.073
				l33.621-36.823c2.019-2.21,5.01-3.257,7.976-2.795c2.959,0.467,5.486,2.39,6.725,5.119l27.205,59.849l27.694-50.111
				c1.652-2.99,4.864-4.766,8.278-4.591c3.411,0.181,6.418,2.296,7.744,5.444l11.521,27.363h31.81c4.924,0,8.917,3.992,8.917,8.917
				c0,4.924-3.992,8.917-8.917,8.917h-37.731c-3.588,0-6.826-2.151-8.219-5.457l-6.685-15.88l-27.385,49.552
				c-1.573,2.847-4.567,4.604-7.802,4.604c-0.116,0-0.234-0.003-0.35-0.007c-3.368-0.132-6.374-2.151-7.769-5.22l-28.955-63.699
				l-27.161,29.749c-1.689,1.85-4.08,2.904-6.584,2.904h-10.84c18.482,35.541,62.726,79.489,93.958,99.529
				c7.909,5.075,18.15,4.627,25.609-1.088c34.758-26.636,103.21-91.264,103.21-126.751
				C2220.673,760.852,2191.615,728.161,2155.771,728.161z"/>
		</g>
	</g>
</g>
</svg>
